<svg width="25" height="25" viewBox="0 0 25 25" fill="none" xmlns="http://www.w3.org/2000/svg">
<circle cx="12.5" cy="12.5" r="12.5" fill="#E336FF"/>
<path fill-rule="evenodd" clip-rule="evenodd" d="M12.5 19.4106C8.95435 19.4106 6.07553 16.5317 6.07553 12.9861C6.07553 10.8142 7.15607 8.89263 8.80736 7.72962C9.05043 7.55826 9.10851 7.22269 8.93786 6.98034C8.76721 6.73727 8.43093 6.67919 8.18858 6.84984C6.26052 8.20787 5 10.4507 5 12.9861C5 17.1254 8.36066 20.4861 12.5 20.4861C12.7968 20.4861 13.0378 20.2452 13.0378 19.9483C13.0378 19.6515 12.7968 19.4106 12.5 19.4106Z" fill="white"/>
<path fill-rule="evenodd" clip-rule="evenodd" d="M12.9148 6.57445C16.2676 6.78813 18.9249 9.57947 18.9249 12.986C18.9249 14.9442 18.0472 16.698 16.6641 17.8768C16.4383 18.0697 16.411 18.4095 16.6039 18.6354C16.7961 18.8613 17.1359 18.8885 17.3618 18.6956C18.9765 17.3197 20.0004 15.2712 20.0004 12.986C20.0004 9.00873 16.8979 5.7506 12.983 5.50108C12.6868 5.48244 12.4309 5.70758 12.4122 6.00371C12.3936 6.29984 12.6187 6.55581 12.9148 6.57445Z" fill="white"/>
<path fill-rule="evenodd" clip-rule="evenodd" d="M18.0858 18.1447H16.8353V16.8942C16.8353 16.5974 16.5944 16.3564 16.2975 16.3564C16.0007 16.3564 15.7598 16.5974 15.7598 16.8942V18.6824C15.7598 18.9793 16.0007 19.2202 16.2975 19.2202H18.0858C18.3826 19.2202 18.6235 18.9793 18.6235 18.6824C18.6235 18.3856 18.3826 18.1447 18.0858 18.1447Z" fill="white"/>
<path fill-rule="evenodd" clip-rule="evenodd" d="M7.33073 7.19467H8.58049V8.44443C8.58049 8.74127 8.82141 8.98219 9.11826 8.98219C9.4151 8.98219 9.65602 8.74127 9.65602 8.44443V6.6569C9.65602 6.36006 9.41582 6.11914 9.11826 6.11914H7.33073C7.03389 6.11914 6.79297 6.36006 6.79297 6.6569C6.79297 6.95375 7.03389 7.19467 7.33073 7.19467Z" fill="white"/>
<path fill-rule="evenodd" clip-rule="evenodd" d="M12.7078 8.86621C10.432 8.86621 8.58496 10.714 8.58496 12.9891C8.58496 15.2649 10.432 17.1119 12.7078 17.1119C14.9829 17.1119 16.8307 15.2649 16.8307 12.9891C16.8307 10.714 14.9829 8.86621 12.7078 8.86621ZM11.9908 11.0173V12.8098C11.9908 12.9525 12.0474 13.0894 12.1485 13.1905L13.5826 14.6246C13.7919 14.8339 14.1332 14.8339 14.3426 14.6246C14.5527 14.4145 14.5527 14.0739 14.3426 13.8638L13.0663 12.5875V11.0173C13.0663 10.7204 12.8254 10.4795 12.5286 10.4795C12.2317 10.4795 11.9908 10.7204 11.9908 11.0173Z" fill="white"/>
</svg>
