<svg width="22" height="26" viewBox="0 0 22 26" fill="none" xmlns="http://www.w3.org/2000/svg">
<path d="M17.2742 15.7109C14.6742 15.7109 12.5664 17.8187 12.5664 20.4187C12.5664 23.0188 14.6742 25.1265 17.2742 25.1265C19.8742 25.1265 21.982 23.0188 21.982 20.4187C21.982 17.8187 19.8742 15.7109 17.2742 15.7109ZM19.6179 21.7189L18.5771 22.7598L17.2742 21.4569L15.9712 22.7598L14.9304 21.7189L16.2333 20.416L14.9304 19.1131L15.9713 18.0722L17.2742 19.3751L18.5771 18.0722L19.618 19.1131L18.3151 20.416L19.6179 21.7189Z" fill="#007DFE"/>
<path d="M0 3.14062V21.9828H11.2957C11.1648 21.4822 11.0949 20.957 11.0949 20.4154C11.0949 17.5459 13.0507 15.1335 15.7018 14.4378V8.58719H10.2553V3.14062H0ZM2.35851 5.54497H7.06253V7.01701H2.35851V5.54497ZM2.35851 8.68533H9.42109V10.1574H2.35851V8.68533ZM9.42109 19.5785H2.35851V18.1064H9.42109V19.5785ZM11.7731 16.4381H2.35851V14.9661H11.7731L11.7731 16.4381ZM13.3433 11.8257V13.2977H2.35851V11.8257H13.3433Z" fill="#007DFE"/>
<path d="M11.7266 3.875V7.1135H14.9651L11.7266 3.875Z" fill="#007DFE"/>
<path d="M14.8672 0.734375V3.97288H18.1057L14.8672 0.734375Z" fill="#007DFE"/>
<path d="M11.6013 1.66832L13.3959 3.46289V0H3.14062V1.66832H11.6013Z" fill="#007DFE"/>
<path d="M15.3828 5.44922L17.1774 7.24384V14.2392C17.6676 14.2277 18.3186 14.2978 18.8457 14.4387V5.44922H15.3828Z" fill="#007DFE"/>
</svg>
