<svg width="34" height="30" viewBox="0 0 34 30" fill="none" xmlns="http://www.w3.org/2000/svg">
<path d="M29.1429 0H4.85714C3.56938 0.00140618 2.33476 0.513591 1.42418 1.42418C0.513591 2.33476 0.00140618 3.56938 0 4.85714V24.2857C0.00140618 25.5735 0.513591 26.8081 1.42418 27.7187C2.33476 28.6293 3.56938 29.1415 4.85714 29.1429H29.1429C30.4306 29.1415 31.6652 28.6293 32.5758 27.7187C33.4864 26.8081 33.9986 25.5735 34 24.2857V4.85714C33.9986 3.56938 33.4864 2.33476 32.5758 1.42418C31.6652 0.513591 30.4306 0.00140618 29.1429 0ZM23.0714 4.85714C23.7919 4.85714 24.4962 5.07079 25.0953 5.47108C25.6944 5.87136 26.1613 6.44029 26.437 7.10594C26.7127 7.77158 26.7849 8.50404 26.6443 9.21069C26.5037 9.91733 26.1568 10.5664 25.6473 11.0759C25.1379 11.5854 24.4888 11.9323 23.7821 12.0729C23.0755 12.2134 22.343 12.1413 21.6774 11.8656C21.0117 11.5898 20.4428 11.1229 20.0425 10.5239C19.6422 9.9248 19.4286 9.22049 19.4286 8.5C19.4296 7.53416 19.8137 6.60817 20.4966 5.92522C21.1796 5.24227 22.1056 4.85815 23.0714 4.85714ZM4.85714 26.7143C4.21305 26.7143 3.59533 26.4584 3.13988 26.003C2.68444 25.5475 2.42857 24.9298 2.42857 24.2857V19.1531L9.62625 12.7553C10.3207 12.1394 11.2239 11.8114 12.1517 11.8382C13.0795 11.865 13.9622 12.2446 14.62 12.8995L19.5492 17.8181L10.6531 26.7143H4.85714ZM31.5714 24.2857C31.5714 24.9298 31.3156 25.5475 30.8601 26.003C30.4047 26.4584 29.787 26.7143 29.1429 26.7143H14.088L23.3029 17.4994C23.9553 16.9445 24.7833 16.6389 25.6397 16.6367C26.4961 16.6344 27.3256 16.9358 27.9809 17.4872L31.5714 20.4789V24.2857Z" fill="#4B4E5C"/>
</svg>
