<svg width="114" height="114" viewBox="0 0 114 114" fill="none" xmlns="http://www.w3.org/2000/svg">
<path d="M92.625 114H21.375C9.56888 114 0 104.431 0 92.625V21.375C0 9.56888 9.56888 0 21.375 0H92.625C104.431 0 114 9.56888 114 21.375V92.625C114 104.431 104.431 114 92.625 114Z" fill="#ECE2FF"/>
<path d="M29 60.9693L29 84.0307C29 85.1174 30.8305 86 33.0845 86L38.919 86C41.1695 86 43 85.1174 43 84.0307L43 60.9676C43 59.8826 41.1695 59 38.9155 59L33.0845 59C30.8305 59 29 59.8826 29 60.9693Z" fill="#925FF0"/>
<path d="M85.5002 81.3426L85.5002 63.5301C85.5002 61.2394 83.637 59.3726 81.3428 59.3726L51.6565 59.3726C49.3658 59.3726 47.499 61.2358 47.499 63.5301L47.499 81.3426C47.499 83.6368 49.3658 85.5 51.6565 85.5L81.3428 85.5C83.637 85.5 85.5002 83.6368 85.5002 81.3426Z" fill="#925FF0"/>
<path d="M38 32.6575L38 50.47C38 52.7607 39.8632 54.6274 42.1574 54.6274L50.4688 54.6274C52.7594 54.6274 54.6262 52.7643 54.6262 50.47L54.6262 32.6575C54.6262 30.3633 52.763 28.5001 50.4687 28.5001L42.1574 28.5001C39.8667 28.5001 38 30.3633 38 32.6575Z" fill="#925FF0"/>
<path d="M59.375 32.6575L59.375 50.47C59.375 52.7607 61.2382 54.6274 63.5324 54.6274L71.8438 54.6274C74.1344 54.6274 76.0012 52.7643 76.0012 50.47L76.0012 32.6575C76.0012 30.3633 74.138 28.5001 71.8437 28.5001L63.5324 28.5001C61.2417 28.5001 59.375 30.3633 59.375 32.6575Z" fill="#925FF0"/>
</svg>
