<svg width="381" height="390" viewBox="0 0 381 390" fill="none" xmlns="http://www.w3.org/2000/svg">
<path d="M273.186 141.041C273.186 141.041 291.399 194.202 290.421 194.726C289.443 195.25 200.604 184.132 200.604 184.132L222.245 136.6" fill="#3A3144"/>
<path d="M300.175 136.247C314.147 132.345 288.843 106.497 273.051 100.969" stroke="#BCBBC6" stroke-width="40" stroke-miterlimit="10"/>
<path d="M249.771 173.502C264.944 171.053 275.121 155.923 272.504 139.708C269.886 123.494 255.465 112.335 240.292 114.784C225.12 117.233 214.942 132.363 217.559 148.578C220.177 164.792 234.598 175.951 249.771 173.502Z" fill="#3A3144"/>
<path d="M245.547 378.011C254.653 375.172 254.653 369.114 253.571 359.359L275.461 362.418L271.334 388.395H237.748C237.748 388.395 236.446 380.85 245.547 378.011Z" fill="#71D2C1"/>
<path d="M253.571 359.359L275.461 362.418L273.435 375.217H250.876C254.579 371.839 254.369 366.625 253.571 359.359Z" fill="#BCBBC6"/>
<path d="M328.163 355.403C328.163 356.526 329.371 380.232 329.705 386.749C329.715 386.961 329.682 387.173 329.608 387.372C329.534 387.571 329.42 387.753 329.274 387.907C329.127 388.061 328.951 388.184 328.756 388.268C328.561 388.351 328.351 388.395 328.138 388.395H288.534C288.274 388.395 288.018 388.337 287.782 388.226C287.547 388.115 287.34 387.953 287.174 387.752C287.009 387.552 286.89 387.317 286.826 387.065C286.761 386.813 286.754 386.55 286.803 386.295C287.506 382.632 290.106 375.397 299.682 374.634C312.555 373.611 304.427 350.184 304.427 350.184" fill="#71D2C1"/>
<path d="M299.682 374.633H329.086C328.647 365.906 328.163 356.116 328.163 355.402L304.427 350.203C304.427 350.203 312.555 373.61 299.682 374.633Z" fill="#BCBBC6"/>
<path d="M304.472 375.847C303.673 374.555 302.461 373.571 301.034 373.053C300.729 372.938 300.6 373.422 300.899 373.552C302.205 374.033 303.312 374.937 304.043 376.121C304.212 376.391 304.646 376.121 304.472 375.867V375.847Z" fill="#D2D6DD"/>
<path d="M300.595 376.898C300.115 375.842 299.345 374.943 298.374 374.308C298.105 374.129 297.875 374.563 298.12 374.737C299.016 375.33 299.724 376.166 300.161 377.148C300.295 377.442 300.725 377.187 300.595 376.898Z" fill="#D2D6DD"/>
<path d="M296.827 377.888C296.21 376.756 295.36 375.768 294.333 374.989C294.078 374.794 293.834 375.228 294.078 375.418C295.027 376.154 295.812 377.08 296.383 378.137C296.533 378.422 296.967 378.172 296.812 377.888H296.827Z" fill="#D2D6DD"/>
<path d="M308.259 373.84C307.205 372.59 305.798 371.687 304.222 371.25C304.156 371.233 304.086 371.243 304.027 371.278C303.968 371.312 303.925 371.369 303.908 371.435C303.891 371.501 303.9 371.572 303.935 371.631C303.97 371.689 304.026 371.732 304.092 371.749C305.583 372.164 306.913 373.022 307.905 374.209C308.114 374.454 308.463 374.1 308.259 373.855V373.84Z" fill="#D2D6DD"/>
<path d="M329.715 386.749C329.725 386.961 329.692 387.173 329.618 387.372C329.544 387.571 329.43 387.753 329.284 387.907C329.137 388.061 328.961 388.184 328.766 388.268C328.571 388.351 328.361 388.395 328.148 388.395H288.534C288.274 388.395 288.018 388.337 287.782 388.226C287.547 388.115 287.34 387.953 287.174 387.752C287.009 387.552 286.89 387.317 286.826 387.065C286.761 386.813 286.754 386.55 286.803 386.295C286.853 386.055 286.908 385.801 286.968 385.531H329.64C329.665 385.985 329.685 386.394 329.715 386.749Z" fill="#BCBBC6"/>
<path d="M271.335 388.395H237.748C237.629 387.44 237.673 386.472 237.878 385.531H271.809L271.335 388.395Z" fill="#BCBBC6"/>
<path d="M255.202 374.4C254.502 373.372 253.524 372.564 252.383 372.069C252.089 371.945 251.834 372.374 252.129 372.498C253.196 372.951 254.111 373.699 254.768 374.654C254.953 374.919 255.382 374.654 255.202 374.4Z" fill="#D2D6DD"/>
<path d="M252.573 376.714C252.066 375.715 251.215 374.932 250.178 374.509C249.883 374.384 249.753 374.868 250.043 375.008C250.959 375.399 251.703 376.108 252.139 377.004C252.283 377.288 252.712 377.038 252.573 376.749V376.714Z" fill="#D2D6DD"/>
<path d="M249.803 378.071C249.214 377.251 248.392 376.626 247.443 376.28C247.144 376.17 247.014 376.654 247.313 376.779C248.139 377.083 248.856 377.625 249.374 378.336C249.559 378.595 249.993 378.336 249.803 378.086V378.071Z" fill="#D2D6DD"/>
<path d="M245.642 379.508C245.213 378.841 244.629 378.288 243.94 377.896C243.884 377.864 243.816 377.855 243.753 377.872C243.69 377.888 243.636 377.929 243.602 377.986C243.569 378.042 243.559 378.109 243.575 378.172C243.59 378.236 243.63 378.291 243.686 378.325C244.302 378.673 244.826 379.164 245.213 379.757C245.387 380.027 245.822 379.757 245.642 379.508Z" fill="#D2D6DD"/>
<path d="M350.667 389.175H41.6895L72.0274 155.912H381L350.667 389.175Z" fill="#D2D6DD"/>
<path d="M118.103 206.368L88.6435 180.84H0L36.4105 389.173H351.999L319.995 206.368H118.103Z" fill="#BCBBC6"/>
<path d="M200.624 117.102C200.624 117.102 171.748 140.958 170.122 179.324" stroke="#BCBBC6" stroke-width="40" stroke-miterlimit="10"/>
<path d="M238.187 70.7949C238.796 76.1905 239.268 81.5878 239.604 86.9868" stroke="#BCBBC6" stroke-width="32" stroke-miterlimit="10"/>
<path d="M234.994 76.669C238.062 79.0242 243.875 80.0172 247.064 79.4434L246.385 69.6035C246.385 69.6035 233.691 75.6711 234.994 76.669Z" fill="#3A3144"/>
<path d="M233.965 77.5975C231.028 77.405 228.288 76.0537 226.348 73.8409C224.407 71.6281 223.425 68.735 223.618 65.7982L224.286 55.6009C224.494 52.4251 225.955 49.4619 228.348 47.3634C230.741 45.2649 233.87 44.2029 237.046 44.4111C240.221 44.6192 243.185 46.0805 245.283 48.4734C247.382 50.8663 248.444 53.9948 248.235 57.1707L247.685 65.5654C247.461 68.9804 245.89 72.1665 243.317 74.4229C240.744 76.6794 237.38 77.8213 233.965 77.5975Z" fill="#BCBBC6"/>
<path d="M226.466 50.3811C226.466 50.3811 225.568 57.0325 224.929 57.1473C223.403 57.4267 221.591 51.7334 224.56 47.7266" fill="#3A3144"/>
<path d="M222.674 45.6075C222.548 45.7208 222.446 45.8591 222.375 46.0137C222.305 46.1683 222.267 46.3358 222.265 46.5057C222.265 47.6234 222.764 50.1432 227.255 51.5703C234.884 53.9904 239.59 50.5724 239.59 50.5724L234.909 53.9904C234.909 53.9904 240.782 55.0432 242.244 52.1192C242.244 52.1192 241.596 55.2079 245.418 56.9044C246.755 57.5032 246.715 60.3274 246.715 60.3274L248.546 59.4342C249.277 58.2711 249.759 56.9692 249.962 55.6106C250.164 54.252 250.083 52.8661 249.724 51.5404C248.506 46.9997 243.671 46.2712 243.671 46.2712C243.671 46.2712 240.992 41.2365 230.788 42.0548C227.774 42.3438 224.931 43.5886 222.674 45.6075Z" fill="#3A3144"/>
<path d="M221.996 58.162C221.352 60.7666 222.934 65.0129 225.987 65.2125L227.29 57.8925C227.374 57.3935 225.249 56.2858 224.875 56.2159C223.243 55.9215 222.33 56.8247 221.996 58.162Z" fill="#BCBBC6"/>
<path d="M234.705 64.6537C234.55 64.4215 234.34 64.2318 234.093 64.1023C233.846 63.9727 233.57 63.9074 233.291 63.9124C233.013 63.9173 232.739 63.9924 232.497 64.1307C232.255 64.269 232.051 64.466 231.905 64.7036C231.546 65.2375 232.404 65.7365 232.769 65.2026C232.822 65.1102 232.898 65.0327 232.99 64.9772C233.081 64.9217 233.185 64.8901 233.291 64.8851C233.398 64.8801 233.505 64.902 233.601 64.9488C233.697 64.9955 233.78 65.0657 233.841 65.1527C234.221 65.6517 235.089 65.1527 234.705 64.6537Z" fill="#3A3144"/>
<path d="M234.944 68.8437C235.519 68.1603 236.303 67.6851 237.174 67.4914C237.803 67.3517 237.539 66.3937 236.91 66.5334C235.87 66.7646 234.934 67.3266 234.24 68.1351C233.821 68.6341 234.525 69.3277 234.944 68.8437Z" fill="#3A3144"/>
<path d="M240.173 61.8544C240.19 61.3421 239.815 60.9143 239.335 60.899C238.856 60.8837 238.454 61.2866 238.438 61.7989C238.421 62.3113 238.797 62.739 239.276 62.7543C239.755 62.7696 240.157 62.3667 240.173 61.8544Z" fill="#3A3144"/>
<path d="M229.622 61.7977C229.638 61.2854 229.263 60.8577 228.784 60.8424C228.305 60.8271 227.903 61.23 227.887 61.7423C227.87 62.2546 228.245 62.6823 228.725 62.6976C229.204 62.713 229.606 62.31 229.622 61.7977Z" fill="#3A3144"/>
<path d="M239.674 56.6452C239.151 56.5338 238.616 56.4918 238.082 56.5204C237.444 56.5554 237.439 57.5533 238.082 57.5184C238.527 57.4916 238.973 57.5201 239.41 57.6032C240.033 57.7329 240.303 56.7699 239.674 56.6452Z" fill="#3A3144"/>
<path d="M229.301 56.4305C228.787 56.3846 228.268 56.4165 227.764 56.5253C227.135 56.655 227.4 57.6181 228.028 57.4883C228.447 57.4061 228.876 57.3859 229.301 57.4284C229.433 57.4284 229.56 57.3759 229.654 57.2823C229.747 57.1887 229.8 57.0618 229.8 56.9295C229.8 56.7971 229.747 56.6702 229.654 56.5766C229.56 56.4831 229.433 56.4305 229.301 56.4305Z" fill="#3A3144"/>
<path d="M251.201 59.9985C251.5 62.668 249.374 66.6748 246.351 66.4852C246.351 66.4852 245.487 59.9037 246.016 59.0554C246.755 57.8679 248.247 57.7281 248.626 57.7132C250.253 57.6184 251.046 58.6313 251.201 59.9985Z" fill="#BCBBC6"/>
<path d="M255.896 80.0014L216.976 86.9273C214.925 87.2835 213.075 88.3757 211.772 89.999C210.47 91.6222 209.804 93.6651 209.9 95.7442L211.956 140.333C212.343 141.882 213.288 143.234 214.611 144.13C215.933 145.026 217.539 145.403 219.121 145.188L273.186 141.051C274.345 140.962 275.427 140.436 276.214 139.581C277.001 138.725 277.434 137.603 277.427 136.441L277.183 99.6013C277.185 95.8004 276.13 92.0737 274.136 88.8379C272.142 85.6021 269.287 82.9849 265.891 81.2788C261.355 79.0334 258.236 79.722 255.896 80.0014Z" fill="#EBEBEB"/>
<path d="M227.27 85.097C229.725 86.9632 233.182 87.7466 237.638 87.0281C242.344 86.2696 247.174 83.9943 250.402 80.9805L227.27 85.097Z" fill="#BCBBC6"/>
<path d="M261.16 92.3571C262.388 92.1275 281.583 103.045 293.888 116.468" stroke="#EBEBEB" stroke-width="50" stroke-miterlimit="10"/>
<path d="M195.49 121.941C195.49 121.941 216.187 102.43 219.765 99.3418" stroke="#EBEBEB" stroke-width="50" stroke-miterlimit="10"/>
<path d="M206.263 100.28C216.693 100.28 225.149 91.8248 225.149 81.3941C225.149 70.9635 216.693 62.5078 206.263 62.5078C195.832 62.5078 187.376 70.9635 187.376 81.3941C187.376 91.8248 195.832 100.28 206.263 100.28Z" stroke="#00CC83" stroke-width="6" stroke-miterlimit="10"/>
<path d="M219.615 94.752L239.734 114.871" stroke="#3A3144" stroke-width="6" stroke-miterlimit="10"/>
<path d="M240.63 114.177C240.191 113.738 239.48 113.738 239.042 114.177C238.603 114.615 238.603 115.326 239.042 115.765L245.149 121.872C245.588 122.311 246.299 122.311 246.737 121.872C247.176 121.434 247.176 120.723 246.737 120.284L240.63 114.177Z" fill="#3A3144" stroke="#3A3144" stroke-width="6" stroke-miterlimit="10"/>
<path d="M210.05 110.075C210.206 113.877 210.504 117.667 210.943 121.446C211.018 122.08 212.016 122.085 211.941 121.446C211.495 117.671 211.197 113.88 211.048 110.075C211.048 109.431 210.05 109.431 210.05 110.075Z" fill="#3A3144"/>
<path d="M272.697 115.11C273.655 115.963 274.643 116.767 275.691 117.535C276.19 117.919 276.689 117.036 276.19 116.672C275.232 115.958 274.308 115.175 273.42 114.407C272.921 113.982 272.233 114.686 272.712 115.11H272.697Z" fill="#3A3144"/>
<path d="M182.427 189.877C181.982 189.004 181.628 184.144 177.312 178.725" stroke="#BCBBC6" stroke-width="8" stroke-miterlimit="10" stroke-linecap="round"/>
<path d="M160.392 174.982L179.687 174.877C179.687 174.877 180.216 194.926 169.054 194.337C157.892 193.748 160.392 174.982 160.392 174.982Z" fill="#BCBBC6"/>
<path d="M167.946 200.182C167.946 200.182 176.428 196.619 177.776 184.135" stroke="#BCBBC6" stroke-width="6" stroke-miterlimit="10" stroke-linecap="round"/>
<path d="M170.665 191.748C170.635 191.868 166.828 196.483 162.821 197.711" stroke="#BCBBC6" stroke-width="6" stroke-miterlimit="10" stroke-linecap="round"/>
<path d="M165.551 189.598C165.496 189.707 163.481 193.45 159.309 194.039" stroke="#BCBBC6" stroke-width="6" stroke-miterlimit="10" stroke-linecap="round"/>
<path d="M162.647 184.428C162.612 184.547 161.285 188.554 157.283 189.777" stroke="#BCBBC6" stroke-width="6" stroke-miterlimit="10" stroke-linecap="round"/>
<path d="M241.895 99.1035C242.508 99.867 246.785 102.197 249.938 108.365" stroke="#BCBBC6" stroke-width="8" stroke-miterlimit="10" stroke-linecap="round"/>
<path d="M246.335 125.32L254.409 107.79C254.409 107.79 236.371 99.0234 232.274 109.422C228.178 119.821 246.335 125.32 246.335 125.32Z" fill="#BCBBC6"/>
<path d="M226.511 108.025C226.511 108.025 233.257 101.787 245.188 105.704" stroke="#BCBBC6" stroke-width="6" stroke-miterlimit="10" stroke-linecap="round"/>
<path d="M235.318 109.031C235.194 109.031 229.415 110.568 226.646 113.712" stroke="#BCBBC6" stroke-width="6" stroke-miterlimit="10" stroke-linecap="round"/>
<path d="M235.139 114.586C235.014 114.586 230.768 114.88 228.512 118.433" stroke="#BCBBC6" stroke-width="6" stroke-miterlimit="10" stroke-linecap="round"/>
<path d="M238.666 119.367C238.546 119.367 234.345 118.898 231.576 122.036" stroke="#BCBBC6" stroke-width="6" stroke-miterlimit="10" stroke-linecap="round"/>
<path d="M245.188 114.462C241.78 110.824 286.194 140.144 300.175 136.247" stroke="#BCBBC6" stroke-width="40" stroke-miterlimit="10"/>
<path d="M104.631 43.0077L119.935 99.7316L162.118 88.3549L151.505 49.0054L129.445 36.3164L104.631 43.0077Z" fill="#D2D6DD"/>
<path d="M151.505 49.0054L129.445 36.3164L134.13 53.6908L151.505 49.0054Z" fill="#BCBBC6"/>
<path d="M3.14355 20.1998L34.1351 86.7835L83.6538 63.7307L62.1528 17.5403L32.2689 6.64258L3.14355 20.1998Z" fill="#D2D6DD"/>
<path d="M62.1529 17.5403L32.269 6.64258L41.7596 27.0358L62.1529 17.5403Z" fill="#BCBBC6"/>
<path d="M45.5166 101.177L69.2181 152.083L107.081 134.459L90.6392 99.1415L67.786 90.8086L45.5166 101.177Z" fill="#D2D6DD"/>
<path d="M90.6393 99.1415L67.7861 90.8086L75.0463 106.402L90.6393 99.1415Z" fill="#BCBBC6"/>
<path d="M338.836 0H290.076C276.655 0 265.776 10.8796 265.776 24.3003V38.3066C265.776 51.7273 276.655 62.6068 290.076 62.6068H338.836C352.257 62.6068 363.137 51.7273 363.137 38.3066V24.3003C363.137 10.8796 352.257 0 338.836 0Z" fill="#EBEBEB"/>
<path d="M289.607 51.7949L279.258 71.3399L307.491 56.3207" fill="#EBEBEB"/>
<path d="M326.874 22.7961L322.965 18.8867L302.045 39.8061L305.955 43.7154L326.874 22.7961Z" fill="white"/>
<path d="M322.967 43.718L326.876 39.8086L305.957 18.8892L302.047 22.7986L322.967 43.718Z" fill="white"/>
<path d="M119.101 143.966L129.859 180.79C129.894 180.918 129.978 181.027 130.093 181.092C130.208 181.158 130.345 181.175 130.473 181.14C130.6 181.105 130.709 181.02 130.774 180.905C130.84 180.79 130.857 180.654 130.822 180.526L120.064 143.691C120.029 143.564 119.944 143.455 119.829 143.39C119.714 143.324 119.578 143.307 119.45 143.342C119.322 143.377 119.214 143.461 119.148 143.577C119.083 143.692 119.066 143.828 119.101 143.956V143.966Z" fill="#3A3144"/>
<path d="M140.727 147.587L143.671 163.19C143.791 163.824 144.749 163.554 144.634 162.926L141.69 147.322C141.57 146.694 140.607 146.958 140.727 147.587Z" fill="#3A3144"/>
<path d="M138.047 135.896C138.262 137.106 138.752 138.249 139.479 139.24C139.853 139.739 140.722 139.24 140.342 138.741C139.662 137.824 139.206 136.761 139.01 135.637C138.895 135.008 137.932 135.273 138.047 135.901V135.896Z" fill="#3A3144"/>
<path d="M202.82 185.641L209.306 168.735C209.536 168.136 208.573 167.877 208.343 168.471L201.857 185.376C201.622 185.98 202.59 186.239 202.82 185.641Z" fill="#3A3144"/>
<path d="M205.07 151.82L205.394 150.822C205.599 150.208 204.636 149.949 204.431 150.558L204.107 151.531C203.902 152.139 204.865 152.404 205.07 151.795V151.82Z" fill="#3A3144"/>
<path d="M232.798 191.093L240.099 178.419C240.149 178.307 240.157 178.179 240.119 178.062C240.081 177.944 240.001 177.845 239.895 177.782C239.788 177.72 239.662 177.7 239.541 177.726C239.42 177.751 239.313 177.82 239.24 177.92L231.915 190.594C231.856 190.708 231.842 190.841 231.878 190.965C231.914 191.088 231.996 191.193 232.108 191.258C232.219 191.322 232.351 191.341 232.476 191.31C232.601 191.28 232.709 191.202 232.778 191.093H232.798Z" fill="#3A3144"/>
<path d="M57.1928 333.878H107.914C110.159 333.878 110.164 330.385 107.914 330.385H57.1928C54.9474 330.385 54.9424 333.878 57.1928 333.878Z" fill="white"/>
<path d="M59.2986 351.95H110.015C112.265 351.95 112.27 348.457 110.015 348.457H59.2986C57.0482 348.457 57.0432 351.95 59.2986 351.95Z" fill="white"/>
</svg>
