<svg width="40" height="40" viewBox="0 0 40 40" fill="none" xmlns="http://www.w3.org/2000/svg">
<path d="M0 6.25C0 4.5924 0.65848 3.00268 1.83058 1.83058C3.00268 0.65848 4.5924 0 6.25 0H28.75C30.4076 0 31.9973 0.65848 33.1694 1.83058C34.3415 3.00268 35 4.5924 35 6.25V15.0875C34.5859 15.0288 34.1682 14.9995 33.75 15H32.5V6.25C32.5 5.25544 32.1049 4.30161 31.4016 3.59835C30.6984 2.89509 29.7446 2.5 28.75 2.5H6.25C5.25544 2.5 4.30161 2.89509 3.59835 3.59835C2.89509 4.30161 2.5 5.25544 2.5 6.25V28.75C2.5 29.7446 2.89509 30.6984 3.59835 31.4016C4.30161 32.1049 5.25544 32.5 6.25 32.5H10V33.75C10 34.175 10.03 34.5925 10.0875 35H6.25C4.5924 35 3.00268 34.3415 1.83058 33.1694C0.65848 31.9973 0 30.4076 0 28.75V6.25ZM12.5 23.75C12.5 22.0924 13.1585 20.5027 14.3306 19.3306C15.5027 18.1585 17.0924 17.5 18.75 17.5H33.75C35.4076 17.5 36.9973 18.1585 38.1694 19.3306C39.3415 20.5027 40 22.0924 40 23.75V33.75C40 35.4076 39.3415 36.9973 38.1694 38.1694C36.9973 39.3415 35.4076 40 33.75 40H18.75C17.0924 40 15.5027 39.3415 14.3306 38.1694C13.1585 36.9973 12.5 35.4076 12.5 33.75V23.75ZM18.75 20C17.872 19.9998 17.0217 20.3077 16.3474 20.8701C15.673 21.4325 15.2175 22.2137 15.06 23.0775L26.25 29.7925L37.44 23.0775C37.2825 22.2137 36.8269 21.4325 36.1526 20.8701C35.4783 20.3077 34.628 19.9998 33.75 20H18.75ZM15 33.75C15 34.7446 15.3951 35.6984 16.0983 36.4016C16.8016 37.1049 17.7554 37.5 18.75 37.5H33.75C34.7446 37.5 35.6984 37.1049 36.4016 36.4016C37.1049 35.6984 37.5 34.7446 37.5 33.75V25.9575L26.8925 32.3225C26.6984 32.4388 26.4763 32.5003 26.25 32.5003C26.0237 32.5003 25.8016 32.4388 25.6075 32.3225L15 25.9575V33.75Z" fill="#3b82f6"/>
<path d="M27.1339 14.6339C27.3683 14.3995 27.5 14.0815 27.5 13.75C27.5 13.4185 27.3683 13.1005 27.1339 12.8661C26.8995 12.6317 26.5815 12.5 26.25 12.5H13.75C13.4185 12.5 13.1005 12.6317 12.8661 12.8661C12.6317 13.1005 12.5 13.4185 12.5 13.75C12.5 14.0815 12.6317 14.3995 12.8661 14.6339C13.1005 14.8683 13.4185 15 13.75 15H26.25C26.5815 15 26.8995 14.8683 27.1339 14.6339Z" fill="#8F90A6"/>
<path d="M7.86612 7.86612C7.6317 8.10054 7.5 8.41848 7.5 8.75C7.5 9.08152 7.6317 9.39946 7.86612 9.63388C8.10054 9.8683 8.41848 10 8.75 10H26.25C26.5815 10 26.8995 9.8683 27.1339 9.63388C27.3683 9.39946 27.5 9.08152 27.5 8.75C27.5 8.41848 27.3683 8.10054 27.1339 7.86612C26.8995 7.6317 26.5815 7.5 26.25 7.5H8.75C8.41848 7.5 8.10054 7.6317 7.86612 7.86612Z" fill="#8F90A6"/>
</svg>
