<svg width="206" height="195" viewBox="0 0 206 195" fill="none" xmlns="http://www.w3.org/2000/svg">
<g clip-path="url(#clip0_6_3247)">
<path d="M83.3894 36.737L48.443 35.4217L46.0451 29.7943C45.4329 28.3453 44.8181 26.5637 44.6881 24.2749L44.5938 22.6746C44.5575 22.0811 44.2886 21.5259 43.8455 21.1297C43.4024 20.7335 42.8208 20.5284 42.2272 20.5588C41.6341 20.5952 41.0792 20.8644 40.6831 21.3077C40.2869 21.751 40.0816 22.3328 40.1116 22.9266L40.2257 24.929C40.3364 26.8153 39.8346 27.5081 37.8402 27.7273L33.2537 28.2417C29.157 28.6988 26.8151 27.2672 25.6066 25.0389L24.459 22.3938C24.2219 21.8494 23.7789 21.4212 23.227 21.2028C22.675 20.9844 22.059 20.9936 21.5137 21.2284C20.9695 21.4658 20.5413 21.9092 20.3229 22.4614C20.1044 23.0137 20.1134 23.63 20.3478 24.1756L20.6721 24.9248C20.1856 24.6465 19.6124 24.5608 19.0656 24.6846C18.5189 24.8084 18.0383 25.1327 17.7187 25.5935C17.3991 26.0544 17.2637 26.6183 17.3393 27.1739C17.4148 27.7296 17.6958 28.2367 18.1267 28.5952L24.58 33.9448C26.266 37.9016 29.7209 46.0062 29.7209 46.0062C31.0311 49.0739 33.1851 51.7061 35.9324 53.5964C38.6796 55.4868 41.9071 56.5577 45.2395 56.6845L57.7316 57.1504L82.5846 58.0937L83.3894 36.737Z" fill="#FFF6CC"/>
<path d="M51.2698 41.8297C51.2355 41.8194 51.2039 41.8016 51.1773 41.7777C51.1506 41.7538 51.1295 41.7243 51.1155 41.6913L48.4638 35.4633C48.4384 35.4036 48.4377 35.3362 48.462 35.276C48.4862 35.2157 48.5333 35.1676 48.593 35.1421C48.6527 35.1167 48.7201 35.116 48.7803 35.1402C48.8405 35.1644 48.8886 35.2116 48.914 35.2713L51.5658 41.4994C51.5841 41.5422 51.5898 41.5894 51.5822 41.6353C51.5746 41.6813 51.554 41.7241 51.5229 41.7588C51.4918 41.7935 51.4515 41.8186 51.4066 41.8312C51.3618 41.8437 51.3143 41.8432 51.2698 41.8297Z" fill="#231E40"/>
<path d="M24.5854 34.266C24.5514 34.2557 24.52 34.2382 24.4935 34.2145C24.467 34.1908 24.446 34.1616 24.4319 34.129L20.5191 25.0818C20.4933 25.0223 20.4922 24.9549 20.5161 24.8945C20.54 24.8341 20.5869 24.7857 20.6464 24.7599C20.706 24.7341 20.7733 24.733 20.8337 24.7569C20.894 24.7807 20.9424 24.8276 20.9682 24.8872L24.881 33.9344C24.8995 33.9773 24.9054 34.0245 24.8979 34.0706C24.8905 34.1167 24.87 34.1597 24.839 34.1946C24.8079 34.2294 24.7675 34.2547 24.7226 34.2673C24.6777 34.28 24.6301 34.2795 24.5854 34.266Z" fill="#231E40"/>
<path d="M31.1907 32.006C31.1733 32.0007 31.1566 31.9935 31.1408 31.9844C28.973 30.7537 27.2832 28.7997 26.1186 26.1768C26.1056 26.1474 26.0985 26.1158 26.0977 26.0836C26.0968 26.0515 26.1024 26.0195 26.1139 25.9895C26.1254 25.9595 26.1428 25.9321 26.1649 25.9087C26.187 25.8854 26.2135 25.8667 26.2429 25.8537C26.2723 25.8406 26.3039 25.8334 26.336 25.8326C26.3681 25.8318 26.4001 25.8373 26.4301 25.8488C26.4601 25.8604 26.4875 25.8777 26.5108 25.8998C26.5341 25.922 26.5528 25.9485 26.5658 25.9779C27.687 28.503 29.308 30.3808 31.3824 31.5586C31.4348 31.5883 31.4745 31.6362 31.4938 31.6934C31.5131 31.7505 31.5106 31.8127 31.4869 31.8681C31.4631 31.9236 31.4198 31.9683 31.3652 31.9937C31.3105 32.0192 31.2484 32.0235 31.1907 32.006Z" fill="#231E40"/>
<path d="M90.115 160.856L112.25 75.6388L87.0947 68.0868L58.5884 59.5289L56.8497 62.4703L39.8637 62.8919C35.0546 63.0118 30.3306 64.1909 26.0281 66.3451C21.7256 68.4993 17.9502 71.5758 14.9708 75.3555L-7.15402 102.721L33.6663 114.976L43.6325 97.7753L66.0172 96.6874L47.9508 148.186L90.1186 160.845L90.115 160.856Z" fill="#73EDC2"/>
<path d="M56.8609 62.4737C56.7988 62.4549 56.7466 62.4123 56.716 62.3551C56.6853 62.2978 56.6786 62.2308 56.6974 62.1686C56.7161 62.1065 56.7588 62.0543 56.816 62.0236C56.8732 61.9929 56.9402 61.9862 57.0023 62.0049L111.543 78.3786L111.543 78.3788C111.606 78.3976 111.658 78.4402 111.688 78.4974C111.719 78.5546 111.726 78.6217 111.707 78.6839C111.688 78.746 111.645 78.7982 111.588 78.8289C111.531 78.8596 111.464 78.8663 111.402 78.8475L56.8616 62.4739L56.8609 62.4737Z" fill="white"/>
<path d="M65.6673 97.0419L65.6574 97.0389C65.627 97.0283 65.5991 97.0118 65.5751 96.9904C65.5512 96.9689 65.5317 96.943 65.5178 96.914C65.5038 96.8851 65.4957 96.8536 65.4939 96.8215C65.4922 96.7894 65.4967 96.7573 65.5073 96.7269L76.6358 64.9356C76.6579 64.8748 76.7029 64.8251 76.7611 64.797C76.8194 64.769 76.8862 64.7648 76.9475 64.7854C76.9779 64.796 77.0058 64.8125 77.0298 64.8339C77.0538 64.8553 77.0733 64.8812 77.0872 64.9102C77.1012 64.9392 77.1093 64.9706 77.1111 65.0027C77.1128 65.0348 77.1083 65.067 77.0977 65.0974L65.9692 96.8887C65.9483 96.9482 65.9053 96.9974 65.849 97.0259C65.7928 97.0545 65.7277 97.0602 65.6673 97.0419Z" fill="white"/>
<path d="M71.6964 74.6849C71.4306 74.6044 71.1839 74.4709 70.9712 74.2924C70.7584 74.1139 70.5841 73.8941 70.4586 73.6463C70.333 73.3985 70.259 73.1278 70.2409 72.8506C70.2228 72.5733 70.261 72.2953 70.3533 72.0332L73.2029 63.9048C73.2132 63.8741 73.2294 63.8459 73.2508 63.8217C73.2721 63.7974 73.2981 63.7778 73.3272 63.7638C73.3562 63.7498 73.3878 63.7417 73.42 63.7402C73.4523 63.7386 73.4845 63.7435 73.5148 63.7547C73.576 63.7761 73.6262 63.8211 73.6543 63.8795C73.6824 63.938 73.6861 64.0053 73.6647 64.0666L70.8156 72.1956C70.7452 72.3953 70.7161 72.6072 70.7298 72.8185C70.7435 73.0298 70.7999 73.236 70.8955 73.4249C70.9911 73.6138 71.124 73.7813 71.2861 73.9173C71.4482 74.0534 71.6362 74.1551 71.8388 74.2165L71.8433 74.2179L73.4485 74.6998C73.5106 74.7185 73.5627 74.7612 73.5934 74.8184C73.6241 74.8756 73.6307 74.9426 73.612 75.0048C73.5932 75.067 73.5506 75.1191 73.4934 75.1498C73.4362 75.1805 73.3692 75.1872 73.307 75.1685L71.7019 74.6866L71.6964 74.6849Z" fill="white"/>
<path d="M112.25 75.6389L58.5889 59.529C58.5889 59.529 63.2379 51.2759 67.8229 45.2782C72.0476 39.7489 77.2414 36.9603 83.5602 36.723C83.6202 36.7193 83.6804 36.7183 83.7413 36.716C86.055 36.6464 88.5208 36.9135 91.1387 37.5171C97.2573 38.9193 103.16 40.7422 108.241 42.4978C110.956 43.4919 113.525 44.5954 116.108 46.2016C116.376 46.3715 116.656 46.5451 116.933 46.7303C112.36 59.3646 110.045 67.6285 112.939 73.0084L112.25 75.6389Z" fill="#FDBF7C"/>
<path d="M66.7639 59.8236C66.7177 59.8096 66.6767 59.7823 66.6461 59.7451C66.6154 59.708 66.5963 59.6625 66.5914 59.6146C66.5864 59.5666 66.5957 59.5182 66.6181 59.4755C66.6405 59.4328 66.675 59.3977 66.7173 59.3745L68.4881 58.4109C68.5164 58.3949 68.5475 58.3847 68.5798 58.3809C68.612 58.3771 68.6447 58.3798 68.6759 58.3887C68.7071 58.3977 68.7362 58.4128 68.7615 58.4331C68.7868 58.4534 68.8078 58.4786 68.8233 58.5071C68.8388 58.5356 68.8485 58.5669 68.8517 58.5993C68.855 58.6316 68.8518 58.6642 68.8424 58.6953C68.8329 58.7263 68.8174 58.7552 68.7967 58.7802C68.776 58.8052 68.7505 58.8259 68.7217 58.8409L66.9509 59.8046C66.9225 59.82 66.8914 59.8296 66.8593 59.8329C66.8272 59.8361 66.7947 59.833 66.7639 59.8236Z" fill="white"/>
<path d="M74.5907 62.1731C74.5443 62.1592 74.5032 62.1319 74.4724 62.0945C74.4416 62.0572 74.4225 62.0116 74.4177 61.9634C74.4128 61.9152 74.4223 61.8667 74.445 61.8239C74.4677 61.7812 74.5025 61.7461 74.5451 61.7232L76.3279 60.7631C76.3851 60.7323 76.4521 60.7255 76.5142 60.7442C76.5764 60.7628 76.6286 60.8054 76.6593 60.8626C76.6901 60.9197 76.6969 60.9868 76.6782 61.049C76.6595 61.1112 76.6169 61.1634 76.5598 61.1942L74.777 62.1542C74.7488 62.1695 74.7177 62.1791 74.6857 62.1823C74.6538 62.1856 74.6214 62.1824 74.5907 62.1731Z" fill="white"/>
<path d="M83.3661 64.8077C83.3197 64.7938 83.2785 64.7665 83.2478 64.7291C83.217 64.6918 83.1979 64.6462 83.193 64.598C83.1882 64.5498 83.1977 64.5013 83.2204 64.4585C83.2431 64.4158 83.2779 64.3807 83.3205 64.3577L85.1033 63.3977C85.1604 63.3669 85.2275 63.3601 85.2896 63.3787C85.3518 63.3974 85.404 63.44 85.4347 63.4972C85.4655 63.5543 85.4722 63.6214 85.4536 63.6836C85.4349 63.7458 85.3923 63.798 85.3352 63.8288L83.5524 64.7888C83.5241 64.8041 83.4931 64.8137 83.4611 64.8169C83.4291 64.8201 83.3968 64.817 83.3661 64.8077Z" fill="white"/>
<path d="M65.4271 53.3006C65.3964 53.2914 65.3677 53.2762 65.3428 53.2559C65.3179 53.2355 65.2973 53.2105 65.2821 53.1821L64.3231 51.3989C64.2936 51.3419 64.2878 51.2756 64.3068 51.2142C64.3258 51.1529 64.3681 51.1015 64.4246 51.0711C64.4811 51.0406 64.5473 51.0336 64.6089 51.0516C64.6705 51.0695 64.7226 51.1109 64.754 51.1669L65.713 52.9501C65.7359 52.9927 65.7456 53.0411 65.741 53.0893C65.7365 53.1374 65.7177 53.1831 65.6872 53.2206C65.6567 53.2581 65.6157 53.2858 65.5695 53.3C65.5233 53.3143 65.4739 53.3145 65.4276 53.3007L65.4271 53.3006Z" fill="white"/>
<path d="M74.2026 55.9351C74.1718 55.9259 74.1431 55.9107 74.1182 55.8904C74.0933 55.8701 74.0727 55.845 74.0575 55.8167L73.0985 54.0335C73.0826 54.0051 73.0726 53.9739 73.0689 53.9416C73.0652 53.9093 73.068 53.8766 73.0771 53.8454C73.0861 53.8142 73.1013 53.7851 73.1218 53.7598C73.1422 53.7346 73.1675 53.7136 73.1961 53.6982C73.2247 53.6828 73.2561 53.6732 73.2884 53.6701C73.3207 53.667 73.3534 53.6703 73.3844 53.6799C73.4154 53.6895 73.4442 53.7052 73.4691 53.7261C73.494 53.7469 73.5145 53.7726 73.5294 53.8014L74.4886 55.5842C74.5115 55.6268 74.5212 55.6752 74.5166 55.7233C74.512 55.7715 74.4933 55.8172 74.4628 55.8547C74.4323 55.8922 74.3913 55.9198 74.3451 55.9341C74.2989 55.9483 74.2495 55.9486 74.2032 55.9348L74.2026 55.9351Z" fill="white"/>
<path d="M82.0293 58.2848C81.9984 58.2755 81.9696 58.2602 81.9446 58.2397C81.9196 58.2192 81.8989 58.194 81.8838 58.1654L80.9364 56.3857C80.9212 56.3574 80.9119 56.3263 80.9088 56.2943C80.9057 56.2623 80.9089 56.23 80.9183 56.1992C80.9276 56.1685 80.943 56.1399 80.9634 56.1151C80.9838 56.0902 81.0089 56.0697 81.0373 56.0545C81.0656 56.0394 81.0967 56.03 81.1287 56.0269C81.1607 56.0238 81.1929 56.027 81.2237 56.0364C81.2544 56.0458 81.283 56.0611 81.3078 56.0815C81.3326 56.1019 81.3532 56.1271 81.3683 56.1554L82.3157 57.9352C82.3383 57.9779 82.3479 58.0263 82.3432 58.0744C82.3384 58.1224 82.3195 58.168 82.2889 58.2054C82.2583 58.2428 82.2173 58.2703 82.1711 58.2844C82.1249 58.2985 82.0756 58.2987 82.0293 58.2848Z" fill="white"/>
<path d="M70.3713 47.8071C70.3252 47.7932 70.2842 47.7659 70.2535 47.7287C70.2228 47.6915 70.2038 47.6461 70.1988 47.5982C70.1938 47.5502 70.2031 47.5018 70.2255 47.4591C70.2479 47.4164 70.2824 47.3813 70.3247 47.3581L72.0956 46.3945C72.1239 46.3785 72.1551 46.3683 72.1873 46.3645C72.2196 46.3607 72.2522 46.3634 72.2834 46.3723C72.3146 46.3813 72.3437 46.3964 72.369 46.4167C72.3943 46.437 72.4154 46.4622 72.4309 46.4907C72.4464 46.5192 72.456 46.5506 72.4593 46.5829C72.4626 46.6152 72.4594 46.6478 72.4499 46.6789C72.4405 46.71 72.4249 46.7388 72.4042 46.7638C72.3835 46.7888 72.358 46.8095 72.3293 46.8245L70.5585 47.7877C70.5301 47.8031 70.4989 47.8128 70.4668 47.8161C70.4347 47.8195 70.4022 47.8164 70.3713 47.8071Z" fill="white"/>
<path d="M78.1983 50.1566C78.152 50.1427 78.1109 50.1154 78.0801 50.078C78.0494 50.0407 78.0303 49.9951 78.0255 49.947C78.0206 49.8988 78.0301 49.8503 78.0527 49.8076C78.0754 49.7648 78.1102 49.7297 78.1528 49.7068L79.9355 48.7466C79.9925 48.7171 80.0588 48.7113 80.1201 48.7302C80.1814 48.7492 80.2327 48.7915 80.2631 48.8481C80.2935 48.9046 80.3005 48.9708 80.2826 49.0324C80.2646 49.0941 80.2232 49.1462 80.1672 49.1776L78.3846 50.1377C78.3563 50.153 78.3253 50.1625 78.2934 50.1658C78.2614 50.169 78.2291 50.1659 78.1983 50.1566Z" fill="white"/>
<path d="M77.8101 43.9186C77.7793 43.9094 77.7506 43.8942 77.7257 43.8739C77.7008 43.8536 77.6802 43.8286 77.665 43.8002L76.706 42.017C76.6901 41.9887 76.68 41.9575 76.6763 41.9252C76.6726 41.8929 76.6754 41.8602 76.6845 41.829C76.6935 41.7978 76.7087 41.7687 76.7291 41.7434C76.7496 41.7181 76.7748 41.6972 76.8034 41.6818C76.832 41.6664 76.8634 41.6568 76.8957 41.6536C76.9281 41.6505 76.9607 41.6538 76.9917 41.6634C77.0228 41.673 77.0516 41.6887 77.0765 41.7095C77.1014 41.7304 77.1219 41.756 77.1368 41.7849L78.0961 43.5676C78.1189 43.6102 78.1287 43.6586 78.1241 43.7068C78.1195 43.7549 78.1008 43.8007 78.0703 43.8382C78.0398 43.8757 77.9988 43.9033 77.9526 43.9176C77.9064 43.9318 77.857 43.9321 77.8107 43.9183L77.8101 43.9186Z" fill="white"/>
<path d="M85.6367 46.2683C85.6058 46.259 85.577 46.2437 85.552 46.2233C85.527 46.2028 85.5064 46.1776 85.4912 46.149L84.5439 44.3692C84.5278 44.3408 84.5175 44.3094 84.5138 44.277C84.51 44.2445 84.5127 44.2116 84.5219 44.1803C84.531 44.1489 84.5463 44.1197 84.5669 44.0943C84.5875 44.0689 84.6129 44.0479 84.6418 44.0326C84.6706 44.0172 84.7022 44.0078 84.7347 44.0048C84.7672 44.0018 84.8 44.0054 84.8311 44.0153C84.8623 44.0253 84.8911 44.0413 84.9159 44.0626C84.9407 44.0838 84.961 44.1098 84.9756 44.139L85.923 45.9187C85.9457 45.9613 85.9553 46.0097 85.9505 46.0578C85.9458 46.1059 85.9269 46.1515 85.8963 46.1889C85.8657 46.2263 85.8247 46.2537 85.7785 46.2679C85.7323 46.282 85.683 46.2821 85.6367 46.2683Z" fill="white"/>
<path d="M83.7746 37.1607L81.9919 38.1208C81.935 38.1517 81.8681 38.1587 81.806 38.1404C81.7436 38.1214 81.6913 38.0786 81.6604 38.0212C81.6452 37.993 81.6357 37.9621 81.6324 37.9302C81.6292 37.8983 81.6323 37.866 81.6415 37.8353C81.6507 37.8046 81.6659 37.776 81.6862 37.7512C81.7064 37.7264 81.7314 37.7058 81.7596 37.6906L83.5426 36.7307C83.5483 36.7278 83.5542 36.7253 83.5602 36.7232C83.6202 36.7195 83.6804 36.7185 83.7413 36.7162C83.7984 36.7362 83.8459 36.777 83.8743 36.8304C83.8894 36.8586 83.8989 36.8895 83.9021 36.9214C83.9053 36.9533 83.9022 36.9855 83.8929 37.0162C83.8836 37.0469 83.8684 37.0755 83.8481 37.1003C83.8278 37.125 83.8028 37.1456 83.7746 37.1607Z" fill="white"/>
</g>
<g clip-path="url(#clip1_6_3247)">
<path d="M186.423 95.7834L186.24 96.2275C186.078 96.619 185.841 96.9749 185.542 97.2748C185.242 97.5746 184.887 97.8125 184.496 97.9748C184.104 98.1371 183.685 98.2207 183.261 98.2207C182.838 98.2208 182.418 98.1373 182.027 97.9751L179.398 96.8875C179.61 98.605 179.502 100.347 179.079 102.025C178.393 104.711 175.132 105.744 173.004 103.974L172.89 103.886C171.758 102.952 171.31 101.453 171.656 100.022C171.976 98.7013 171.839 97.3113 171.268 96.0784C170.697 94.8455 169.725 93.8423 168.511 93.2322C167.297 92.6221 165.913 92.4412 164.582 92.7188C163.252 92.9964 162.056 93.7162 161.187 94.761C160.804 95.2287 160.492 95.7496 160.26 96.3073C159.812 97.3943 159.691 98.5887 159.914 99.743C160.137 100.897 160.694 101.961 161.514 102.803C162.335 103.645 163.384 104.227 164.533 104.479C165.681 104.731 166.878 104.641 167.976 104.221C168.608 103.973 169.295 103.899 169.965 104.005C170.635 104.112 171.265 104.395 171.79 104.827L171.904 104.915C174.092 106.737 173.567 110.256 170.927 111.313C168.634 112.234 166.135 112.517 163.694 112.134C161.253 111.751 158.961 110.715 157.061 109.136C156.68 108.82 156.317 108.482 155.974 108.125C155.95 108.104 155.927 108.081 155.906 108.056C155.895 108.051 155.9 108.04 155.888 108.035C155.447 107.579 155.22 107.334 153.607 106.667L75.044 74.171L83.176 52.6252L157.754 83.4732C160.138 84.4593 162.525 85.0085 164.482 84.9421C164.769 84.9102 165.051 84.89 165.34 84.8863L182.171 83.4996C182.624 83.4541 183.081 83.4983 183.517 83.6296C183.953 83.7609 184.358 83.9767 184.711 84.2648C185.063 84.5529 185.355 84.9075 185.57 85.3085C185.786 85.7095 185.92 86.1489 185.965 86.6018C186.011 87.0546 185.966 87.512 185.835 87.9478C185.704 88.3835 185.488 88.7892 185.2 89.1415C184.912 89.4939 184.557 89.786 184.156 90.0013C183.755 90.2166 183.316 90.3508 182.863 90.3963L182.092 90.4742L184.686 91.5472C185.474 91.8833 186.098 92.5161 186.423 93.3089C186.749 94.1016 186.749 94.9906 186.423 95.7834Z" fill="#FFF6CC"/>
<path d="M179.312 97.1942C179.271 97.177 179.235 97.1492 179.207 97.1134C179.18 97.0776 179.163 97.0352 179.158 96.9906C178.801 94.0241 177.467 91.2609 175.366 89.1367C173.265 87.0126 170.517 85.6484 167.555 85.2595C167.522 85.2551 167.49 85.2443 167.461 85.2276C167.433 85.2109 167.407 85.1888 167.387 85.1624C167.367 85.136 167.352 85.1059 167.344 85.0738C167.335 85.0417 167.333 85.0083 167.338 84.9753C167.342 84.9424 167.353 84.9107 167.369 84.8819C167.386 84.8532 167.408 84.828 167.435 84.8078C167.461 84.7876 167.491 84.7729 167.523 84.7643C167.555 84.7558 167.589 84.7536 167.622 84.758C170.695 85.1618 173.546 86.5773 175.726 88.7813C177.906 90.9852 179.29 93.8523 179.66 96.9301C179.665 96.9739 179.659 97.0184 179.642 97.059C179.625 97.0997 179.597 97.1351 179.562 97.1618C179.527 97.1885 179.485 97.2055 179.441 97.2112C179.398 97.2169 179.353 97.211 179.312 97.1942Z" fill="#231E40"/>
<path d="M181.962 90.7216L171.396 86.3239C171.365 86.3111 171.337 86.2925 171.314 86.269C171.291 86.2455 171.272 86.2176 171.259 86.1869C171.234 86.1249 171.234 86.0552 171.259 85.9933C171.285 85.9313 171.334 85.8821 171.396 85.8565C171.458 85.8309 171.528 85.8309 171.59 85.8566L171.591 85.8569L182.156 90.2546C182.218 90.2804 182.268 90.3296 182.293 90.3916C182.319 90.4536 182.319 90.5233 182.293 90.5852C182.267 90.6472 182.218 90.6964 182.156 90.722C182.094 90.7476 182.024 90.7476 181.963 90.7219L181.962 90.7216Z" fill="#231E40"/>
<path d="M110.185 186.565C110.185 186.565 100.14 93.2013 99.8889 91.7563L40.4787 67.1823C36.4084 77.0227 37.5014 87.945 39.1393 103.472L30.1438 87.7347L-4.29983 108.607C-4.29983 108.607 2.08022 115.681 15.1167 134.089C26.7698 150.515 46.8371 155.763 60.5795 149.636C62.7635 148.661 64.7918 147.37 66.5991 145.803L66.5627 168.521L110.185 186.565Z" fill="#73EDC2"/>
<path d="M99.8939 91.7446L40.4837 67.1706L43.9401 58.8144C48.4422 51.2056 57.4643 41.8668 70.7042 47.3433C77.4702 50.1419 79.9242 51.157 80.6673 51.478C84.1758 52.9909 87.0863 54.5862 89.4732 56.5575C89.584 56.6471 89.6937 56.7391 89.8018 56.8317C93.6036 60.0904 96.0336 64.3762 97.4138 70.9418C99.3222 80.0252 99.8939 91.7446 99.8939 91.7446Z" fill="#FDBF7C"/>
<path d="M142.473 11.6349L142.289 12.079C142.127 12.4706 141.89 12.8265 141.591 13.1263C141.292 13.4261 140.936 13.664 140.545 13.8263C140.154 13.9887 139.734 14.0722 139.311 14.0723C138.887 14.0723 138.468 13.9889 138.076 13.8266L135.447 12.7391C135.666 14.4429 135.559 16.1729 135.131 17.8367C134.973 18.4561 134.662 19.0255 134.225 19.492C133.788 19.9585 133.24 20.3069 132.632 20.5049C132.025 20.7029 131.377 20.744 130.749 20.6244C130.121 20.5048 129.534 20.2283 129.042 19.8208L128.928 19.7325C127.795 18.7987 127.348 17.2997 127.693 15.8687C128.012 14.5615 127.883 13.1854 127.327 11.9601C126.772 10.7348 125.821 9.73119 124.628 9.10951C123.435 8.48783 122.069 8.284 120.746 8.5306C119.424 8.77719 118.222 9.45997 117.333 10.4698C116.444 11.4797 115.919 12.7584 115.842 14.1016C115.765 15.4448 116.141 16.7749 116.909 17.8795C117.677 18.9841 118.793 19.7995 120.078 20.1952C121.364 20.5909 122.745 20.5443 124.001 20.0626C124.634 19.8152 125.32 19.7409 125.991 19.8474C126.661 19.9539 127.291 20.2373 127.815 20.6684L127.929 20.7567C130.118 22.5789 129.593 26.0981 126.952 27.1548C125.016 27.9309 122.928 28.2554 120.847 28.1038C118.766 27.9521 116.747 27.3283 114.943 26.2796C114.183 25.8407 113.335 25.5742 112.461 25.4991L86.1839 23.2527L75.6311 48.7653C75.6311 48.7653 71.77 59.7872 63.2018 62.8673C52.2467 66.8216 44.6114 59.2426 43.9119 58.8164L63.432 11.6245C64.9955 7.84358 67.7272 4.66177 71.2278 2.54412C74.7284 0.426469 78.8145 -0.516012 82.8887 -0.145575L106.537 1.90344C110.635 2.26767 114.764 1.99495 118.778 1.09496C119.185 1.00342 119.611 0.933228 120.032 0.874724L120.049 0.86787C120.49 0.804179 120.934 0.768571 121.379 0.761257L138.211 -0.62547C139.125 -0.717275 140.039 -0.442012 140.75 0.139763C141.462 0.721538 141.913 1.56217 142.005 2.47673C142.096 3.39129 141.821 4.30486 141.239 5.01646C140.657 5.72807 139.817 6.17942 138.902 6.27122L138.131 6.34913L140.725 7.42219C141.117 7.58377 141.473 7.82097 141.773 8.12023C142.072 8.41948 142.31 8.77492 142.472 9.1662C142.635 9.55748 142.718 9.97692 142.718 10.4005C142.718 10.8241 142.635 11.2436 142.473 11.6349Z" fill="#FFF6CC"/>
</g>
<g clip-path="url(#clip2_6_3247)">
<path d="M119.622 37.2371L135.52 49.9443L151.381 34.4755C154.655 31.0175 155.75 27.4834 156.379 24.2045L156.65 22.762C156.802 21.9656 157.263 21.2619 157.933 20.8058C158.603 20.3496 159.427 20.1784 160.223 20.3297C161.02 20.4809 161.723 20.9424 162.179 21.6125C162.636 22.2826 162.807 23.1064 162.655 23.9028L161.665 29.1779L177.563 25.6261C178.355 25.4494 179.184 25.5941 179.868 26.0286C180.552 26.463 181.036 27.1515 181.213 27.9426C181.3 28.3344 181.31 28.7395 181.241 29.1349C181.172 29.5303 181.025 29.9083 180.81 30.2471C180.595 30.586 180.315 30.8792 179.987 31.11C179.659 31.3407 179.288 31.5045 178.896 31.592C179.288 31.5045 179.693 31.495 180.088 31.5641C180.484 31.6331 180.862 31.7794 181.201 31.9945C181.539 32.2096 181.833 32.4893 182.063 32.8178C182.294 33.1462 182.458 33.5169 182.545 33.9086C182.722 34.6997 182.577 35.5286 182.143 36.213C181.709 36.8973 181.02 37.3811 180.229 37.5579C181.02 37.3812 181.849 37.526 182.533 37.9604C183.218 38.3949 183.701 39.0834 183.878 39.8745C183.966 40.2663 183.975 40.6714 183.906 41.0668C183.837 41.4622 183.691 41.8401 183.476 42.1789C183.261 42.5178 182.981 42.811 182.652 43.0417C182.324 43.2725 181.953 43.4363 181.562 43.5238C181.954 43.4336 182.361 43.4219 182.758 43.4894C183.155 43.557 183.535 43.7024 183.876 43.9173C184.217 44.1322 184.512 44.4124 184.744 44.7418C184.976 45.0711 185.141 45.4431 185.229 45.8364C185.317 46.2296 185.326 46.6364 185.256 47.0332C185.186 47.43 185.038 47.8091 184.821 48.1486C184.604 48.4882 184.323 48.7815 183.992 49.0116C183.661 49.2418 183.288 49.4043 182.894 49.4897L174.187 51.4349C171.779 51.9729 169.2 53.5797 165.234 57.4567L165.245 57.425L156.07 66.3719L148.785 73.4952C145.606 76.604 141.4 78.4429 136.959 78.6655C132.518 78.8881 128.149 77.479 124.675 74.7038L124.646 74.6802L116.705 68.337L102.609 57.0771L119.622 37.2371Z" fill="#FFF6CC"/>
<path d="M171.233 49.1107C171.175 49.1106 171.119 49.0908 171.074 49.0544C171.028 49.0181 170.997 48.9674 170.984 48.9107L166.986 31.0129C166.974 30.948 166.988 30.8811 167.025 30.8262C167.061 30.7714 167.118 30.7327 167.182 30.7183C167.246 30.7039 167.314 30.7149 167.37 30.7491C167.426 30.7832 167.467 30.8377 167.485 30.9014L171.483 48.7991C171.492 48.8365 171.491 48.8753 171.483 48.9127C171.474 48.9501 171.457 48.985 171.433 49.0149C171.409 49.0448 171.379 49.069 171.344 49.0855C171.31 49.1021 171.272 49.1107 171.233 49.1107Z" fill="#231E40"/>
<path d="M167.925 34.2988C167.862 34.2988 167.801 34.2755 167.754 34.2335C167.707 34.1915 167.677 34.1336 167.67 34.0711C167.664 34.0085 167.68 33.9455 167.717 33.8943C167.753 33.8431 167.808 33.8072 167.869 33.7935L178.84 31.3425C178.874 31.3335 178.908 31.3314 178.942 31.3363C178.977 31.3411 179.009 31.3528 179.039 31.3707C179.068 31.3885 179.094 31.4122 179.114 31.4402C179.134 31.4682 179.148 31.4999 179.156 31.5336C179.164 31.5672 179.164 31.6021 179.158 31.636C179.152 31.6699 179.139 31.7021 179.12 31.7309C179.1 31.7596 179.076 31.7842 179.047 31.8031C179.018 31.822 178.986 31.835 178.952 31.8411L167.981 34.2921C167.962 34.2964 167.943 34.2986 167.925 34.2988Z" fill="#231E40"/>
<path d="M169.408 40.2311C169.345 40.2311 169.284 40.2079 169.237 40.1659C169.191 40.1238 169.161 40.066 169.154 40.0034C169.147 39.9408 169.163 39.8779 169.2 39.8267C169.237 39.7755 169.291 39.7396 169.352 39.7259L180.173 37.3083C180.238 37.2966 180.305 37.3104 180.36 37.3469C180.415 37.3834 180.454 37.4397 180.468 37.5041C180.483 37.5685 180.472 37.6359 180.437 37.6924C180.403 37.7488 180.349 37.7899 180.285 37.8069L169.464 40.2244C169.446 40.2287 169.427 40.231 169.408 40.2311Z" fill="#231E40"/>
<path d="M170.59 46.2305C170.528 46.2305 170.467 46.2072 170.42 46.1652C170.373 46.1232 170.343 46.0653 170.336 46.0027C170.33 45.9402 170.346 45.8773 170.383 45.8261C170.419 45.7749 170.474 45.739 170.535 45.7253L181.506 43.2743C181.539 43.2654 181.574 43.2633 181.608 43.2682C181.642 43.273 181.675 43.2847 181.705 43.3026C181.734 43.3204 181.76 43.3441 181.78 43.3721C181.8 43.4001 181.814 43.4318 181.822 43.4655C181.829 43.4991 181.83 43.5339 181.824 43.5678C181.817 43.6017 181.804 43.634 181.785 43.6628C181.766 43.6915 181.742 43.716 181.713 43.735C181.684 43.7539 181.652 43.7668 181.618 43.773L170.646 46.2239C170.628 46.2282 170.609 46.2305 170.59 46.2305Z" fill="#231E40"/>
<path d="M159.817 39.4048C159.754 39.4049 159.694 39.3819 159.647 39.3402C159.6 39.2986 159.57 39.2412 159.563 39.1789C159.555 39.1167 159.571 39.0539 159.607 39.0025C159.643 38.9512 159.697 38.9148 159.758 38.9003C160.72 38.6708 161.596 38.1673 162.278 37.4507C162.961 36.7341 163.421 35.835 163.604 34.8623C163.786 33.8895 163.682 32.8848 163.306 31.9696C162.929 31.0545 162.295 30.268 161.481 29.7055C161.426 29.6668 161.388 29.6078 161.376 29.5414C161.364 29.4751 161.379 29.4067 161.417 29.3511C161.456 29.2956 161.514 29.2574 161.581 29.2449C161.647 29.2324 161.715 29.2466 161.771 29.2844C162.667 29.903 163.364 30.7679 163.778 31.7744C164.192 32.7809 164.306 33.8859 164.106 34.9558C163.905 36.0256 163.399 37.0145 162.649 37.8027C161.898 38.591 160.935 39.1449 159.877 39.3974C159.857 39.4022 159.837 39.4047 159.817 39.4048Z" fill="#231E40"/>
<path d="M131.521 53.7289C131.47 53.729 131.42 53.7139 131.378 53.6856C131.336 53.6572 131.303 53.6169 131.284 53.5698C131.264 53.5227 131.26 53.471 131.27 53.4212C131.28 53.3714 131.305 53.3258 131.342 53.2903L135.126 49.5902C135.174 49.5428 135.24 49.5165 135.308 49.5172C135.376 49.5179 135.44 49.5456 135.488 49.5941C135.535 49.6426 135.562 49.7079 135.561 49.7758C135.56 49.8436 135.532 49.9084 135.484 49.9559L131.7 53.6561C131.652 53.7028 131.588 53.729 131.521 53.7289Z" fill="#231E40"/>
<path d="M34.8467 181.499H68.6776L71.2702 171.648H37.4329L34.8556 181.442L34.8467 181.499Z" fill="#FFF6CC"/>
<path d="M101.619 171.648L102.078 181.163L102.113 181.498H134.543L134.067 171.648H101.619Z" fill="#FFF6CC"/>
<path d="M60.1742 66.2965H93.2938H129.637C129.698 82.5495 134.053 171.648 134.053 171.648H86.8519L90.6307 109.85L90.6108 109.925L88.1254 119.369L75.4748 168.028L74.5222 171.648H26.6592L60.1742 66.2965Z" fill="#73EDC2"/>
<path d="M129.691 70.1716H59.0975C59.0297 70.1716 58.9646 70.1446 58.9167 70.0967C58.8687 70.0487 58.8418 69.9837 58.8418 69.9159C58.8418 69.848 58.8687 69.783 58.9167 69.735C58.9646 69.6871 59.0297 69.6602 59.0975 69.6602H129.691C129.759 69.6602 129.824 69.6871 129.872 69.735C129.92 69.783 129.947 69.848 129.947 69.9159C129.947 69.9837 129.92 70.0487 129.872 70.0967C129.824 70.1446 129.759 70.1716 129.691 70.1716Z" fill="white"/>
<path d="M100.549 80.9351H98.6854C98.6176 80.9351 98.5525 80.9082 98.5046 80.8602C98.4566 80.8123 98.4297 80.7472 98.4297 80.6794C98.4297 80.6116 98.4566 80.5466 98.5046 80.4986C98.5525 80.4507 98.6176 80.4237 98.6854 80.4237H100.549C101.236 80.4227 101.904 80.1959 102.449 79.7781C102.994 79.3603 103.387 78.7748 103.567 78.1117L106.774 66.2295C106.783 66.1971 106.798 66.1667 106.819 66.1401C106.839 66.1135 106.865 66.0912 106.894 66.0744C106.923 66.0577 106.955 66.0469 106.988 66.0425C107.022 66.0382 107.055 66.0405 107.088 66.0492C107.12 66.058 107.151 66.073 107.177 66.0935C107.204 66.114 107.226 66.1395 107.243 66.1686C107.26 66.1978 107.271 66.2299 107.275 66.2632C107.279 66.2965 107.277 66.3303 107.268 66.3627L104.062 78.2449C103.852 79.0166 103.395 79.6981 102.76 80.1842C102.126 80.6704 101.348 80.9343 100.549 80.9351Z" fill="white"/>
<path d="M75.4995 168.284H27.846C27.7782 168.284 27.7132 168.257 27.6652 168.209C27.6173 168.161 27.5903 168.096 27.5903 168.028C27.5903 167.96 27.6173 167.895 27.6652 167.847C27.7132 167.799 27.7782 167.772 27.846 167.772H75.4995C75.5673 167.772 75.6324 167.799 75.6803 167.847C75.7283 167.895 75.7552 167.96 75.7552 168.028C75.7552 168.096 75.7283 168.161 75.6803 168.209C75.6324 168.257 75.5673 168.284 75.4995 168.284Z" fill="white"/>
<path d="M133.875 168.284H87.0833C87.0155 168.284 86.9505 168.257 86.9025 168.209C86.8546 168.161 86.8276 168.096 86.8276 168.028C86.8276 167.96 86.8546 167.895 86.9025 167.847C86.9505 167.799 87.0155 167.772 87.0833 167.772H133.875C133.943 167.772 134.008 167.799 134.056 167.847C134.104 167.895 134.131 167.96 134.131 168.028C134.131 168.096 134.104 168.161 134.056 168.209C134.008 168.257 133.943 168.284 133.875 168.284Z" fill="white"/>
<path d="M88.3818 119.625C88.3427 119.625 88.304 119.616 88.2689 119.599C88.2338 119.582 88.2031 119.556 88.1792 119.525C88.1553 119.494 88.1388 119.458 88.131 119.42C88.1233 119.382 88.1244 119.342 88.1344 119.304L102.103 66.231C102.12 66.1654 102.163 66.1093 102.221 66.0751C102.28 66.041 102.35 66.0314 102.415 66.0487C102.481 66.066 102.537 66.1086 102.571 66.1672C102.606 66.2258 102.615 66.2956 102.598 66.3612L88.6291 119.434C88.6147 119.489 88.5826 119.537 88.5379 119.572C88.4932 119.606 88.4383 119.625 88.3818 119.625Z" fill="white"/>
<path d="M60.1743 66.2972H129.636V66.296C129.583 60.4749 130.164 49.7098 124.735 42.3698C120.324 36.4055 113.946 32.5955 99.7724 32.1148C95.2159 31.9601 91.2003 32.1583 87.6589 32.648C87.6554 32.6482 87.6519 32.6491 87.6487 32.6505C87.1258 32.7221 86.6135 32.8001 86.1119 32.8845C85.3022 33.0226 84.5185 33.1756 83.7608 33.3435C83.7404 33.3486 83.7199 33.3524 83.6995 33.3575C81.5737 33.834 79.5117 34.5601 77.5564 35.5208C77.4081 35.5937 77.2611 35.6678 77.1153 35.742C74.759 36.9528 72.5887 38.4955 70.6706 40.3229C70.6603 40.3319 70.6501 40.3408 70.6399 40.351C70.5734 40.415 70.5056 40.4802 70.4392 40.5454C70.3791 40.6029 70.319 40.6617 70.2576 40.7218C70.1055 40.8714 69.9508 41.0235 69.7961 41.1808L69.6261 41.3547C69.2553 41.7344 68.8811 42.132 68.5036 42.5475C68.4269 42.6306 68.3501 42.7163 68.2747 42.8019C68.2402 42.839 68.207 42.8774 68.1724 42.9157C68.1021 42.9937 68.0331 43.073 67.9628 43.1535C66.4872 44.8456 65.106 46.6178 63.8256 48.4619C61.1626 54.4629 60.6755 61.0601 60.1743 66.2972Z" fill="#FDBF7C"/>
<path d="M127.314 63.7987C127.365 63.7987 127.414 63.7837 127.457 63.7556C127.499 63.7275 127.531 63.6876 127.551 63.6409C127.57 63.5942 127.575 63.5428 127.565 63.4932C127.555 63.4435 127.531 63.398 127.495 63.3622L125.904 61.7703C125.855 61.7237 125.791 61.698 125.724 61.6986C125.657 61.6991 125.593 61.726 125.545 61.7734C125.498 61.8209 125.471 61.885 125.47 61.952C125.47 62.0191 125.495 62.0837 125.542 62.1319L127.134 63.7238C127.157 63.7476 127.186 63.7664 127.217 63.7793C127.248 63.7921 127.281 63.7987 127.314 63.7987Z" fill="white"/>
<path d="M118.194 63.7987C118.244 63.7987 118.294 63.7837 118.336 63.7556C118.378 63.7275 118.41 63.6875 118.43 63.6408C118.449 63.5941 118.454 63.5427 118.444 63.4931C118.435 63.4435 118.41 63.3979 118.374 63.3622L116.783 61.7703C116.735 61.7223 116.67 61.6954 116.602 61.6954C116.534 61.6954 116.469 61.7223 116.421 61.7702C116.373 61.8182 116.346 61.8832 116.346 61.951C116.346 62.0189 116.373 62.0839 116.421 62.1319L118.013 63.7237C118.037 63.7475 118.065 63.7664 118.096 63.7793C118.127 63.7921 118.16 63.7987 118.194 63.7987Z" fill="white"/>
<path d="M97.7497 63.7987C97.8003 63.7987 97.8497 63.7837 97.8918 63.7556C97.9338 63.7275 97.9666 63.6876 97.986 63.6409C98.0053 63.5942 98.0104 63.5428 98.0006 63.4931C97.9907 63.4435 97.9664 63.398 97.9306 63.3622L96.339 61.7703C96.3154 61.7459 96.2872 61.7264 96.256 61.713C96.2248 61.6996 96.1913 61.6926 96.1573 61.6923C96.1234 61.692 96.0897 61.6984 96.0583 61.7113C96.0269 61.7242 95.9983 61.7431 95.9743 61.7672C95.9503 61.7912 95.9313 61.8197 95.9185 61.8511C95.9056 61.8826 95.8991 61.9162 95.8994 61.9502C95.8997 61.9841 95.9068 62.0177 95.9202 62.0489C95.9336 62.0801 95.9531 62.1083 95.9775 62.1319L97.5693 63.7238C97.593 63.7475 97.6211 63.7663 97.652 63.7792C97.683 63.7921 97.7162 63.7987 97.7497 63.7987Z" fill="white"/>
<path d="M107.972 63.7987C108.022 63.7987 108.072 63.7837 108.114 63.7556C108.156 63.7275 108.189 63.6876 108.208 63.6408C108.227 63.5941 108.232 63.5427 108.223 63.4931C108.213 63.4435 108.188 63.398 108.153 63.3622L106.561 61.7703C106.513 61.7237 106.448 61.698 106.381 61.6986C106.314 61.6991 106.25 61.726 106.202 61.7734C106.155 61.8209 106.128 61.885 106.127 61.952C106.127 62.0191 106.153 62.0837 106.199 62.1319L107.791 63.7238C107.815 63.7476 107.843 63.7664 107.874 63.7793C107.905 63.7922 107.938 63.7987 107.972 63.7987Z" fill="white"/>
<path d="M87.528 63.7987C87.5785 63.7987 87.628 63.7837 87.67 63.7556C87.712 63.7275 87.7448 63.6876 87.7641 63.6408C87.7835 63.5941 87.7886 63.5427 87.7787 63.4931C87.7688 63.4435 87.7445 63.398 87.7087 63.3622L86.1169 61.7703C86.0687 61.7237 86.0041 61.698 85.9371 61.6986C85.87 61.6991 85.8059 61.726 85.7585 61.7734C85.7111 61.8209 85.6842 61.885 85.6836 61.952C85.683 62.0191 85.7088 62.0837 85.7554 62.1319L87.3472 63.7238C87.3709 63.7476 87.3991 63.7664 87.4301 63.7793C87.4611 63.7922 87.4944 63.7988 87.528 63.7987Z" fill="white"/>
<path d="M77.3062 63.7987C77.3567 63.7987 77.4062 63.7837 77.4482 63.7556C77.4902 63.7275 77.523 63.6876 77.5423 63.6408C77.5617 63.5941 77.5668 63.5427 77.5569 63.4931C77.547 63.4435 77.5227 63.398 77.4869 63.3622L75.8952 61.7703C75.847 61.7237 75.7824 61.698 75.7154 61.6986C75.6483 61.6991 75.5842 61.726 75.5368 61.7734C75.4894 61.8209 75.4625 61.885 75.4619 61.952C75.4613 62.0191 75.4871 62.0837 75.5337 62.1319L77.1254 63.7238C77.1491 63.7476 77.1773 63.7664 77.2083 63.7793C77.2393 63.7921 77.2726 63.7987 77.3062 63.7987Z" fill="white"/>
<path d="M67.0841 63.7987C67.1347 63.7987 67.1841 63.7837 67.2262 63.7556C67.2682 63.7275 67.301 63.6876 67.3203 63.6408C67.3397 63.5941 67.3447 63.5427 67.3349 63.4931C67.325 63.4435 67.3006 63.398 67.2649 63.3622L65.6731 61.7703C65.6248 61.7237 65.5603 61.698 65.4932 61.6986C65.4262 61.6991 65.362 61.726 65.3146 61.7734C65.2672 61.8209 65.2403 61.885 65.2398 61.952C65.2392 62.0191 65.2649 62.0837 65.3115 62.1319L66.9033 63.7238C66.927 63.7476 66.9552 63.7664 66.9862 63.7793C67.0173 63.7922 67.0505 63.7988 67.0841 63.7987Z" fill="white"/>
<path d="M120.612 57.2602C120.645 57.2603 120.678 57.2537 120.709 57.2409C120.741 57.228 120.769 57.2091 120.792 57.1853L122.384 55.5936C122.431 55.5453 122.457 55.4807 122.456 55.4137C122.455 55.3467 122.428 55.2825 122.381 55.2351C122.334 55.1877 122.27 55.1608 122.203 55.1602C122.135 55.1596 122.071 55.1854 122.023 55.232L120.431 56.8238C120.395 56.8595 120.371 56.9051 120.361 56.9547C120.351 57.0043 120.356 57.0557 120.375 57.1024C120.395 57.1491 120.428 57.189 120.47 57.2171C120.512 57.2452 120.561 57.2602 120.612 57.2602Z" fill="white"/>
<path d="M101.269 57.2602C101.303 57.2603 101.336 57.2537 101.367 57.2408C101.398 57.228 101.426 57.2091 101.45 57.1853L103.042 55.5935C103.087 55.5451 103.112 55.4809 103.111 55.4145C103.11 55.3481 103.083 55.2847 103.036 55.2377C102.989 55.1908 102.926 55.1639 102.859 55.1628C102.793 55.1617 102.729 55.1865 102.68 55.232L101.089 56.8237C101.053 56.8595 101.028 56.905 101.019 56.9546C101.009 57.0042 101.014 57.0556 101.033 57.1023C101.052 57.1491 101.085 57.189 101.127 57.2171C101.169 57.2452 101.219 57.2602 101.269 57.2602H101.269Z" fill="white"/>
<path d="M111.491 57.2602C111.525 57.2603 111.558 57.2537 111.589 57.2408C111.62 57.228 111.648 57.2091 111.672 57.1853L113.264 55.5936C113.31 55.5453 113.336 55.4807 113.335 55.4137C113.335 55.3467 113.308 55.2825 113.261 55.2351C113.213 55.1877 113.149 55.1608 113.082 55.1602C113.015 55.1596 112.95 55.1854 112.902 55.232L111.31 56.8238C111.274 56.8595 111.25 56.9051 111.24 56.9547C111.23 57.0043 111.235 57.0557 111.255 57.1024C111.274 57.1491 111.307 57.189 111.349 57.2171C111.391 57.2452 111.441 57.2602 111.491 57.2602Z" fill="white"/>
<path d="M91.0471 57.2602C91.0807 57.2603 91.114 57.2537 91.145 57.2409C91.176 57.228 91.2042 57.2091 91.2279 57.1853L92.8197 55.5936C92.8663 55.5453 92.8921 55.4807 92.8915 55.4137C92.8909 55.3467 92.864 55.2825 92.8166 55.2351C92.7692 55.1877 92.7051 55.1608 92.638 55.1602C92.571 55.1596 92.5064 55.1854 92.4582 55.232L90.8664 56.8238C90.8306 56.8595 90.8063 56.9051 90.7964 56.9547C90.7866 57.0043 90.7916 57.0557 90.811 57.1024C90.8303 57.1491 90.8631 57.189 90.9051 57.2171C90.9472 57.2452 90.9966 57.2602 91.0471 57.2602Z" fill="white"/>
<path d="M80.825 57.2602C80.8586 57.2603 80.8918 57.2537 80.9228 57.2408C80.9539 57.228 80.982 57.2091 81.0058 57.1853L82.5976 55.5936C82.6442 55.5453 82.6699 55.4807 82.6693 55.4137C82.6688 55.3467 82.6419 55.2825 82.5945 55.2351C82.5471 55.1877 82.4829 55.1608 82.4159 55.1602C82.3488 55.1596 82.2842 55.1854 82.236 55.232L80.6442 56.8238C80.6085 56.8595 80.5841 56.9051 80.5742 56.9547C80.5644 57.0043 80.5695 57.0557 80.5888 57.1024C80.6081 57.1491 80.6409 57.189 80.6829 57.2171C80.725 57.2452 80.7744 57.2602 80.825 57.2602Z" fill="white"/>
<path d="M70.6038 57.2602C70.6374 57.2603 70.6706 57.2537 70.7017 57.2408C70.7327 57.228 70.7609 57.2091 70.7846 57.1853L72.3764 55.5936C72.423 55.5453 72.4487 55.4807 72.4482 55.4137C72.4476 55.3467 72.4207 55.2825 72.3733 55.2351C72.3259 55.1877 72.2617 55.1608 72.1947 55.1602C72.1276 55.1596 72.0631 55.1854 72.0148 55.232L70.423 56.8238C70.3873 56.8595 70.3629 56.9051 70.3531 56.9547C70.3432 57.0043 70.3483 57.0557 70.3676 57.1024C70.387 57.1491 70.4197 57.189 70.4618 57.2171C70.5038 57.2452 70.5532 57.2602 70.6038 57.2602Z" fill="white"/>
<path d="M127.314 49.8127C127.365 49.8127 127.414 49.7978 127.456 49.7697C127.499 49.7416 127.531 49.7017 127.551 49.6549C127.57 49.6082 127.575 49.5568 127.565 49.5072C127.555 49.4576 127.531 49.412 127.495 49.3762L125.903 47.7844C125.88 47.7599 125.852 47.7405 125.82 47.7271C125.789 47.7137 125.756 47.7066 125.722 47.7063C125.688 47.706 125.654 47.7125 125.623 47.7253C125.591 47.7382 125.563 47.7572 125.539 47.7812C125.515 47.8052 125.496 47.8337 125.483 47.8652C125.47 47.8966 125.464 47.9303 125.464 47.9642C125.464 47.9982 125.471 48.0317 125.485 48.0629C125.498 48.0941 125.518 48.1223 125.542 48.1459L127.134 49.7378C127.182 49.7858 127.247 49.8127 127.314 49.8127Z" fill="white"/>
<path d="M118.194 49.8127C118.244 49.8127 118.294 49.7977 118.336 49.7696C118.378 49.7415 118.41 49.7016 118.43 49.6548C118.449 49.6081 118.454 49.5567 118.444 49.5071C118.435 49.4575 118.41 49.412 118.374 49.3762L116.783 47.7843C116.735 47.7364 116.67 47.7094 116.602 47.7094C116.534 47.7094 116.469 47.7363 116.421 47.7843C116.373 47.8322 116.346 47.8973 116.346 47.9651C116.346 48.0329 116.373 48.0979 116.421 48.1459L118.013 49.7378C118.061 49.7857 118.126 49.8127 118.194 49.8127Z" fill="white"/>
<path d="M97.7497 49.8127C97.8003 49.8127 97.8497 49.7978 97.8918 49.7697C97.9338 49.7416 97.9666 49.7017 97.986 49.6549C98.0053 49.6082 98.0104 49.5568 98.0006 49.5072C97.9907 49.4576 97.9664 49.412 97.9306 49.3762L96.339 47.7844C96.3154 47.7599 96.2872 47.7405 96.256 47.7271C96.2248 47.7137 96.1913 47.7066 96.1573 47.7063C96.1234 47.706 96.0897 47.7125 96.0583 47.7253C96.0269 47.7382 95.9983 47.7572 95.9743 47.7812C95.9503 47.8052 95.9313 47.8337 95.9185 47.8652C95.9056 47.8966 95.8991 47.9303 95.8994 47.9642C95.8997 47.9982 95.9068 48.0317 95.9202 48.0629C95.9336 48.0941 95.9531 48.1223 95.9775 48.1459L97.5693 49.7378C97.6171 49.7857 97.682 49.8126 97.7497 49.8127Z" fill="white"/>
<path d="M107.972 49.8127C108.022 49.8127 108.072 49.7977 108.114 49.7696C108.156 49.7415 108.189 49.7016 108.208 49.6549C108.227 49.6082 108.232 49.5567 108.222 49.5072C108.213 49.4576 108.188 49.412 108.153 49.3762L106.561 47.7844C106.537 47.7599 106.509 47.7405 106.478 47.7271C106.447 47.7137 106.413 47.7066 106.379 47.7063C106.345 47.706 106.311 47.7125 106.28 47.7253C106.249 47.7382 106.22 47.7572 106.196 47.7812C106.172 47.8052 106.153 47.8337 106.14 47.8652C106.127 47.8966 106.121 47.9303 106.121 47.9642C106.121 47.9982 106.128 48.0317 106.142 48.0629C106.155 48.0941 106.175 48.1223 106.199 48.1459L107.791 49.7378C107.815 49.7616 107.843 49.7804 107.874 49.7933C107.905 49.8061 107.938 49.8127 107.972 49.8127Z" fill="white"/>
<path d="M87.5279 49.8127C87.5785 49.8127 87.6279 49.7977 87.6699 49.7696C87.712 49.7415 87.7447 49.7016 87.7641 49.6549C87.7834 49.6082 87.7885 49.5567 87.7786 49.5072C87.7688 49.4576 87.7444 49.412 87.7087 49.3762L86.1169 47.7844C86.0933 47.7599 86.0651 47.7405 86.0339 47.7271C86.0027 47.7137 85.9691 47.7066 85.9352 47.7063C85.9012 47.706 85.8675 47.7125 85.8361 47.7253C85.8047 47.7382 85.7761 47.7572 85.7521 47.7812C85.7281 47.8052 85.7091 47.8337 85.6963 47.8652C85.6834 47.8966 85.677 47.9303 85.6773 47.9642C85.6776 47.9982 85.6846 48.0317 85.698 48.0629C85.7114 48.0941 85.7309 48.1223 85.7553 48.1459L87.3471 49.7378C87.3951 49.7858 87.4601 49.8127 87.5279 49.8127Z" fill="white"/>
<path d="M77.3061 49.8127C77.3567 49.8127 77.4061 49.7977 77.4481 49.7696C77.4902 49.7415 77.5229 49.7016 77.5423 49.6549C77.5616 49.6082 77.5667 49.5567 77.5568 49.5072C77.547 49.4576 77.5226 49.412 77.4869 49.3762L75.8952 47.7844C75.8716 47.7599 75.8434 47.7405 75.8122 47.7271C75.781 47.7137 75.7474 47.7066 75.7135 47.7063C75.6795 47.706 75.6459 47.7125 75.6144 47.7253C75.583 47.7382 75.5545 47.7572 75.5305 47.7812C75.5064 47.8052 75.4875 47.8337 75.4746 47.8652C75.4618 47.8966 75.4553 47.9303 75.4556 47.9642C75.4559 47.9982 75.4629 48.0317 75.4763 48.0629C75.4897 48.0941 75.5092 48.1223 75.5336 48.1459L77.1253 49.7378C77.1733 49.7858 77.2383 49.8127 77.3061 49.8127Z" fill="white"/>
<path d="M67.0841 49.8127C67.1346 49.8127 67.184 49.7977 67.2261 49.7696C67.2681 49.7415 67.3009 49.7016 67.3202 49.6549C67.3396 49.6082 67.3447 49.5567 67.3348 49.5072C67.3249 49.4576 67.3006 49.412 67.2648 49.3762L65.673 47.7844C65.6494 47.7599 65.6212 47.7405 65.59 47.7271C65.5588 47.7137 65.5253 47.7066 65.4913 47.7063C65.4574 47.706 65.4237 47.7125 65.3923 47.7253C65.3608 47.7382 65.3323 47.7572 65.3083 47.7812C65.2843 47.8052 65.2653 47.8337 65.2524 47.8652C65.2396 47.8966 65.2331 47.9303 65.2334 47.9642C65.2337 47.9982 65.2408 48.0317 65.2542 48.0629C65.2676 48.0941 65.287 48.1223 65.3115 48.1459L66.9033 49.7378C66.9512 49.7858 67.0163 49.8127 67.0841 49.8127Z" fill="white"/>
<path d="M120.612 43.2743C120.645 43.2743 120.678 43.2677 120.709 43.2549C120.741 43.242 120.769 43.2231 120.792 43.1993L122.384 41.6076C122.432 41.5596 122.459 41.4946 122.459 41.4268C122.459 41.359 122.432 41.2939 122.384 41.2459C122.336 41.198 122.271 41.171 122.203 41.171C122.136 41.171 122.071 41.1979 122.023 41.2459L120.431 42.8378C120.395 42.8735 120.371 42.9191 120.361 42.9687C120.351 43.0183 120.356 43.0697 120.375 43.1164C120.395 43.1631 120.428 43.203 120.47 43.2311C120.512 43.2592 120.561 43.2742 120.612 43.2743Z" fill="white"/>
<path d="M101.269 43.2743C101.303 43.2743 101.336 43.2677 101.367 43.2549C101.398 43.242 101.426 43.2231 101.45 43.1993L103.042 41.6076C103.087 41.5593 103.113 41.4949 103.112 41.4282C103.111 41.3615 103.084 41.2978 103.037 41.2506C102.99 41.2035 102.926 41.1766 102.86 41.1757C102.793 41.1748 102.729 41.2 102.68 41.2459L101.089 42.8378C101.053 42.8735 101.028 42.9191 101.019 42.9687C101.009 43.0183 101.014 43.0697 101.033 43.1164C101.052 43.1631 101.085 43.203 101.127 43.2311C101.169 43.2592 101.219 43.2742 101.269 43.2743H101.269Z" fill="white"/>
<path d="M111.491 43.2743C111.525 43.2743 111.558 43.2677 111.589 43.2548C111.62 43.242 111.648 43.2231 111.672 43.1993L113.264 41.6076C113.312 41.5596 113.339 41.4946 113.339 41.4268C113.339 41.359 113.312 41.2939 113.264 41.2459C113.216 41.198 113.151 41.171 113.083 41.171C113.015 41.171 112.95 41.1979 112.902 41.2459L111.31 42.8378C111.274 42.8735 111.25 42.9191 111.24 42.9687C111.23 43.0183 111.235 43.0697 111.255 43.1164C111.274 43.1631 111.307 43.203 111.349 43.2311C111.391 43.2592 111.441 43.2742 111.491 43.2743Z" fill="white"/>
<path d="M91.0471 43.2743C91.0807 43.2743 91.114 43.2677 91.145 43.2549C91.176 43.242 91.2042 43.2231 91.2279 43.1993L92.8197 41.6076C92.8677 41.5596 92.8947 41.4946 92.8947 41.4268C92.8947 41.359 92.8678 41.2939 92.8198 41.2459C92.7719 41.198 92.7068 41.171 92.639 41.171C92.5712 41.171 92.5062 41.1979 92.4582 41.2459L90.8664 42.8378C90.8306 42.8735 90.8063 42.9191 90.7964 42.9687C90.7866 43.0183 90.7916 43.0697 90.811 43.1164C90.8303 43.1631 90.8631 43.203 90.9051 43.2311C90.9472 43.2592 90.9966 43.2742 91.0471 43.2743Z" fill="white"/>
<path d="M80.825 43.2743C80.8586 43.2743 80.8918 43.2677 80.9228 43.2548C80.9539 43.242 80.982 43.2231 81.0058 43.1993L82.5976 41.6076C82.6455 41.5596 82.6725 41.4946 82.6725 41.4268C82.6725 41.359 82.6456 41.2939 82.5976 41.2459C82.5497 41.198 82.4847 41.171 82.4168 41.171C82.349 41.171 82.284 41.1979 82.236 41.2459L80.6442 42.8378C80.6085 42.8735 80.5841 42.9191 80.5742 42.9687C80.5644 43.0183 80.5695 43.0697 80.5888 43.1164C80.6081 43.1631 80.6409 43.203 80.6829 43.2311C80.725 43.2592 80.7744 43.2742 80.825 43.2743Z" fill="white"/>
<path d="M70.6038 43.2743C70.6374 43.2743 70.6706 43.2677 70.7017 43.2548C70.7327 43.242 70.7609 43.2231 70.7846 43.1993L72.3764 41.6076C72.4243 41.5596 72.4513 41.4946 72.4513 41.4268C72.4513 41.359 72.4244 41.2939 72.3765 41.2459C72.3285 41.198 72.2635 41.171 72.1957 41.171C72.1278 41.171 72.0628 41.1979 72.0148 41.2459L70.423 42.8378C70.3873 42.8735 70.3629 42.9191 70.3531 42.9687C70.3432 43.0183 70.3483 43.0697 70.3676 43.1164C70.387 43.1631 70.4197 43.203 70.4618 43.2311C70.5038 43.2592 70.5532 43.2742 70.6038 43.2743Z" fill="white"/>
<path d="M97.7497 35.8268C97.8003 35.8268 97.8497 35.8118 97.8918 35.7837C97.9338 35.7556 97.9666 35.7157 97.986 35.669C98.0053 35.6222 98.0104 35.5708 98.0006 35.5212C97.9907 35.4716 97.9664 35.426 97.9306 35.3903L96.339 33.7984C96.3154 33.774 96.2872 33.7545 96.256 33.7411C96.2248 33.7277 96.1913 33.7206 96.1573 33.7203C96.1234 33.7201 96.0897 33.7265 96.0583 33.7394C96.0269 33.7522 95.9983 33.7712 95.9743 33.7952C95.9503 33.8192 95.9313 33.8478 95.9185 33.8792C95.9056 33.9106 95.8991 33.9443 95.8994 33.9783C95.8997 34.0122 95.9068 34.0458 95.9202 34.077C95.9336 34.1082 95.9531 34.1364 95.9775 34.16L97.5689 35.7518C97.6169 35.7998 97.6819 35.8268 97.7497 35.8268Z" fill="white"/>
<path d="M107.972 35.8268C108.022 35.8268 108.072 35.8118 108.114 35.7837C108.156 35.7556 108.189 35.7156 108.208 35.6689C108.227 35.6222 108.232 35.5708 108.223 35.5212C108.213 35.4716 108.188 35.426 108.153 35.3903L106.561 33.7984C106.513 33.7518 106.448 33.7261 106.381 33.7266C106.314 33.7272 106.25 33.7541 106.202 33.8015C106.155 33.8489 106.128 33.9131 106.127 33.9801C106.127 34.0472 106.153 34.1117 106.199 34.16L107.791 35.7518C107.815 35.7756 107.843 35.7945 107.874 35.8073C107.905 35.8202 107.938 35.8268 107.972 35.8268Z" fill="white"/>
<path d="M87.528 35.8268C87.5785 35.8268 87.628 35.8118 87.67 35.7837C87.712 35.7556 87.7448 35.7156 87.7641 35.6689C87.7835 35.6222 87.7886 35.5708 87.7787 35.5212C87.7688 35.4716 87.7445 35.426 87.7087 35.3903L86.1169 33.7984C86.0687 33.7518 86.0041 33.7261 85.9371 33.7266C85.87 33.7272 85.8059 33.7541 85.7585 33.8015C85.7111 33.8489 85.6842 33.9131 85.6836 33.9801C85.683 34.0472 85.7088 34.1117 85.7554 34.16L87.3472 35.7518C87.3951 35.7998 87.4602 35.8268 87.528 35.8268Z" fill="white"/>
<path d="M77.1152 35.742L77.1255 35.7522C77.1491 35.7759 77.1772 35.7946 77.2082 35.8073C77.2391 35.82 77.2723 35.8265 77.3057 35.8264C77.3436 35.8267 77.3811 35.8186 77.4155 35.8025C77.4498 35.7864 77.4801 35.7629 77.5042 35.7336C77.5282 35.7043 77.5454 35.6699 77.5544 35.6331C77.5634 35.5963 77.5641 35.5579 77.5563 35.5208C77.408 35.5937 77.261 35.6678 77.1152 35.742Z" fill="white"/>
<path d="M102.118 181.499V182.015L102.568 191.339C102.585 191.674 102.729 191.989 102.971 192.22C103.214 192.451 103.536 192.58 103.871 192.58H148.049C148.817 192.58 148.89 191.788 148.074 190.909C143.722 186.314 134.543 181.499 134.543 181.499H102.118Z" fill="#231E40"/>
<path d="M133.677 187.131C133.63 187.131 133.584 187.118 133.544 187.093C133.504 187.068 133.471 187.033 133.45 186.991C133.429 186.95 133.419 186.903 133.423 186.856C133.426 186.809 133.443 186.764 133.47 186.726L136.469 182.556C136.488 182.529 136.513 182.506 136.542 182.488C136.57 182.471 136.602 182.459 136.635 182.453C136.668 182.448 136.702 182.449 136.735 182.457C136.767 182.465 136.798 182.479 136.826 182.498C136.853 182.518 136.876 182.543 136.894 182.571C136.911 182.6 136.923 182.631 136.929 182.665C136.934 182.698 136.933 182.732 136.925 182.764C136.918 182.797 136.904 182.828 136.884 182.855L133.885 187.024C133.862 187.057 133.83 187.084 133.794 187.103C133.758 187.121 133.718 187.131 133.677 187.131Z" fill="white"/>
<path d="M135.993 188.801C135.946 188.8 135.9 188.787 135.86 188.763C135.82 188.738 135.787 188.703 135.766 188.661C135.744 188.619 135.735 188.572 135.739 188.525C135.742 188.478 135.759 188.433 135.786 188.395L138.931 184.043C138.951 184.016 138.976 183.993 139.004 183.975C139.033 183.958 139.065 183.946 139.098 183.94C139.131 183.935 139.165 183.936 139.198 183.944C139.23 183.952 139.261 183.966 139.288 183.986C139.316 184.005 139.339 184.03 139.356 184.059C139.374 184.087 139.386 184.119 139.391 184.152C139.396 184.186 139.395 184.219 139.387 184.252C139.38 184.285 139.365 184.316 139.346 184.343L136.201 188.695C136.177 188.727 136.146 188.754 136.11 188.773C136.074 188.791 136.034 188.801 135.993 188.801Z" fill="white"/>
<path d="M148.403 194.798H102.859C102.791 194.798 102.726 194.771 102.678 194.723C102.63 194.675 102.603 194.61 102.603 194.542C102.603 194.475 102.63 194.409 102.678 194.362C102.726 194.314 102.791 194.287 102.859 194.287H148.403C148.471 194.287 148.536 194.314 148.584 194.362C148.632 194.409 148.659 194.475 148.659 194.542C148.659 194.61 148.632 194.675 148.584 194.723C148.536 194.771 148.471 194.798 148.403 194.798Z" fill="#231E40"/>
<path d="M21.3407 192.58H64.6183C64.9457 192.58 65.2638 192.472 65.5231 192.272C65.7823 192.072 65.9681 191.792 66.0514 191.476L68.6544 181.586C68.6572 181.576 68.6576 181.566 68.6556 181.555C68.6537 181.545 68.6494 181.536 68.643 181.527C68.6367 181.519 68.6286 181.512 68.6192 181.508C68.6099 181.503 68.5996 181.501 68.5891 181.501L67.2712 181.499H34.8631C34.8524 181.499 34.8418 181.502 34.8324 181.507C34.4284 181.721 25.5673 186.419 21.3151 190.909C20.4996 191.788 20.5724 192.58 21.3407 192.58Z" fill="#231E40"/>
<path d="M35.7116 187.131C35.671 187.131 35.6309 187.121 35.5948 187.103C35.5586 187.084 35.5274 187.057 35.5037 187.024L32.5052 182.855C32.4855 182.828 32.4715 182.797 32.4638 182.764C32.4561 182.732 32.455 182.698 32.4604 182.665C32.4713 182.598 32.5084 182.538 32.5635 182.498C32.6185 182.459 32.6871 182.442 32.754 182.453C32.8209 182.464 32.8808 182.501 32.9204 182.557L35.9187 186.725C35.9461 186.764 35.9625 186.809 35.9661 186.856C35.9696 186.903 35.9601 186.949 35.9387 186.991C35.9173 187.033 35.8847 187.068 35.8446 187.093C35.8045 187.117 35.7583 187.13 35.7113 187.131L35.7116 187.131Z" fill="white"/>
<path d="M33.3957 188.801C33.3552 188.801 33.3152 188.791 33.2792 188.773C33.2431 188.754 33.2119 188.727 33.1882 188.695L30.0431 184.343C30.0234 184.316 30.0093 184.285 30.0016 184.252C29.9938 184.219 29.9925 184.186 29.9979 184.152C30.0032 184.119 30.015 184.087 30.0326 184.059C30.0502 184.03 30.0733 184.005 30.1005 183.986C30.1277 183.966 30.1586 183.952 30.1912 183.944C30.2239 183.936 30.2578 183.935 30.291 183.94C30.3241 183.946 30.3559 183.958 30.3845 183.975C30.4131 183.993 30.4379 184.016 30.4576 184.043L33.6026 188.395C33.6302 188.433 33.6468 188.478 33.6504 188.525C33.654 188.572 33.6446 188.619 33.6232 188.661C33.6017 188.703 33.5691 188.738 33.529 188.763C33.4888 188.787 33.4426 188.801 33.3955 188.801H33.3957Z" fill="white"/>
<path d="M65.1863 194.798H20.4749C20.4071 194.798 20.3421 194.771 20.2941 194.723C20.2462 194.675 20.2192 194.61 20.2192 194.542C20.2192 194.475 20.2462 194.409 20.2941 194.362C20.3421 194.314 20.4071 194.287 20.4749 194.287H65.1863C65.2541 194.287 65.3191 194.314 65.3671 194.362C65.415 194.409 65.442 194.475 65.442 194.542C65.442 194.61 65.415 194.675 65.3671 194.723C65.3191 194.771 65.2541 194.798 65.1863 194.798Z" fill="#231E40"/>
<path d="M86.3137 57.4973L76.1544 66.7255L70.6366 71.8524L58.6042 83.0326L57.0754 81.6007C49.0761 74.103 49.1002 59.2741 57.1265 51.8159L58.721 50.3345L67.3984 42.416C69.1119 40.9175 70.9171 39.5275 72.8037 38.2539C74.5512 37.0741 76.4215 36.0871 78.3816 35.3101C81.9741 33.9114 85.9361 35.3025 88.2884 38.9256C88.3503 39.021 88.4113 39.1177 88.4715 39.2157C92.0096 44.988 91.0395 53.205 86.3137 57.4973Z" fill="#FFF6CC"/>
<path d="M90.2935 79.9182L81.5157 71.7276L76.1546 66.7258L58.7209 50.3346L57.1264 51.8164C49.1003 59.2746 49.0761 74.1035 57.0752 81.6012L58.6042 83.0332L68.659 92.4558L72.8731 96.4052L70.5241 100.193C70.7679 99.7867 70.929 99.3366 70.9984 98.8681C71.0278 98.6737 71.0426 98.4774 71.0427 98.2808C71.0427 97.3189 70.6916 96.3687 70.023 95.7402C68.8851 94.6713 67.2587 94.9401 66.3904 96.3411L65.4726 97.8192C64.7667 98.9853 64.3984 100.325 64.4087 101.688C64.4087 103.609 65.1108 105.508 66.4467 106.765C68.3427 108.547 70.918 108.473 72.7309 106.777C74.6102 108.524 77.1472 108.456 78.9495 106.803C80.7758 108.486 83.2159 108.464 85.0019 106.947C87.2648 108.872 90.3803 108.286 92.0687 105.564L92.5698 104.726L94.4236 101.627C94.4691 101.549 94.5131 101.468 94.5522 101.384C97.8467 95.0324 95.9869 85.4214 90.2935 79.9182Z" fill="#FFF6CC"/>
<path d="M79.2226 107.22C79.1711 107.22 79.1208 107.205 79.0783 107.176C79.0358 107.147 79.003 107.105 78.9843 107.057C78.9656 107.009 78.9618 106.957 78.9734 106.907C78.985 106.857 79.0115 106.811 79.0494 106.776C79.4276 106.425 79.7562 106.024 80.0261 105.585L82.9623 100.851C82.98 100.822 83.0031 100.798 83.0304 100.778C83.0577 100.758 83.0885 100.744 83.1212 100.737C83.1539 100.729 83.1878 100.728 83.2209 100.733C83.2541 100.739 83.2858 100.751 83.3144 100.768C83.3429 100.786 83.3677 100.809 83.3873 100.836C83.4069 100.864 83.4209 100.894 83.4286 100.927C83.4363 100.96 83.4374 100.994 83.432 101.027C83.4266 101.06 83.4147 101.092 83.397 101.12L80.4608 105.854C80.1664 106.333 79.8081 106.77 79.3956 107.153C79.3485 107.196 79.2867 107.22 79.2226 107.22Z" fill="#231E40"/>
<path d="M85.1123 107.22C85.0608 107.22 85.0105 107.205 84.968 107.176C84.9254 107.147 84.8927 107.105 84.8739 107.057C84.8552 107.009 84.8514 106.957 84.863 106.907C84.8747 106.857 84.9011 106.811 84.939 106.776C85.3173 106.425 85.646 106.024 85.9159 105.585L88.8521 100.851C88.8698 100.822 88.8929 100.798 88.9202 100.778C88.9474 100.758 88.9783 100.744 89.011 100.737C89.0437 100.729 89.0776 100.728 89.1107 100.733C89.1439 100.739 89.1756 100.751 89.2042 100.768C89.2327 100.786 89.2575 100.809 89.2771 100.836C89.2967 100.864 89.3107 100.894 89.3184 100.927C89.326 100.96 89.3272 100.994 89.3218 101.027C89.3163 101.06 89.3044 101.092 89.2867 101.12L86.3507 105.854C86.0564 106.333 85.6979 106.77 85.2854 107.153C85.2382 107.196 85.1764 107.22 85.1123 107.22Z" fill="#231E40"/>
<path d="M73.0003 107.197C72.949 107.197 72.8989 107.181 72.8565 107.152C72.8141 107.124 72.7814 107.083 72.7625 107.035C72.7437 106.987 72.7396 106.935 72.7508 106.885C72.7621 106.835 72.7881 106.789 72.8256 106.754C73.1891 106.411 73.5059 106.021 73.7677 105.595L76.7037 100.861C76.7214 100.833 76.7445 100.808 76.7718 100.788C76.7991 100.769 76.8299 100.755 76.8626 100.747C76.8953 100.739 76.9292 100.738 76.9623 100.744C76.9955 100.749 77.0272 100.761 77.0558 100.779C77.0843 100.796 77.1091 100.819 77.1287 100.847C77.1483 100.874 77.1623 100.905 77.17 100.938C77.1777 100.97 77.1788 101.004 77.1734 101.037C77.168 101.07 77.1561 101.102 77.1384 101.131L74.2021 105.864C73.9167 106.329 73.5714 106.754 73.175 107.128C73.1277 107.172 73.0652 107.197 73.0003 107.197Z" fill="#231E40"/>
<path d="M69.475 101.58C69.4295 101.58 69.3847 101.567 69.3454 101.544C69.3061 101.521 69.2737 101.488 69.2515 101.448C69.2293 101.408 69.2182 101.363 69.2193 101.318C69.2204 101.272 69.2337 101.228 69.2577 101.189L71.0639 98.2767C71.0997 98.2191 71.1569 98.178 71.2229 98.1625C71.289 98.147 71.3584 98.1584 71.4161 98.1942C71.4737 98.2299 71.5148 98.2871 71.5303 98.3532C71.5458 98.4192 71.5344 98.4887 71.4986 98.5463L69.6924 101.459C69.6695 101.496 69.6375 101.526 69.5994 101.547C69.5614 101.568 69.5186 101.58 69.475 101.58Z" fill="#231E40"/>
<path d="M104.746 33.3648C105.132 34.2469 105.465 35.1511 105.744 36.0727C105.894 36.5271 106.003 36.9993 106.127 37.4612C106.189 37.6927 106.233 37.9314 106.287 38.1651C106.335 38.401 106.395 38.6318 106.433 38.8711C106.785 40.7759 106.992 42.7046 107.052 44.6406C107.126 46.5902 107.094 48.5572 107.008 50.5491C106.919 52.5446 106.801 54.5473 106.64 56.5373C106.525 57.9553 106.125 61.1676 106.125 61.1676L110.447 64.142L113.9 61.6339C113.9 61.6339 113.625 58.4184 113.445 56.4795C113.251 54.4047 113.013 52.344 112.744 50.2787C112.472 48.211 112.141 46.1205 111.694 44.0384C111.256 41.9387 110.659 39.8753 109.909 37.8657C109.15 35.8451 108.166 33.9161 106.976 32.1153C106.84 32.0779 106.353 32.1449 106.353 32.1449C106.221 32.2359 106.072 32.2997 105.915 32.3326C105.758 32.3655 105.596 32.3669 105.438 32.3366L105.36 32.3216C105.36 32.3216 104.549 32.8979 104.727 33.3228L104.746 33.3648Z" fill="#231E40"/>
<path d="M103.112 38.1188L97.3877 32.1132L100.306 30.2326L105.225 32.5324L104.759 37.5462C104.742 37.7292 104.672 37.9033 104.559 38.0479C104.446 38.1925 104.293 38.3014 104.119 38.3618C103.946 38.4221 103.758 38.4313 103.58 38.3882C103.401 38.3451 103.239 38.2516 103.112 38.1188Z" fill="white"/>
<path d="M103.8 38.6732C103.636 38.6729 103.474 38.6392 103.324 38.5742C103.174 38.5092 103.039 38.4142 102.927 38.295L97.2029 32.2896C97.177 32.2623 97.1573 32.2297 97.1454 32.194C97.1335 32.1582 97.1297 32.1203 97.1341 32.083C97.1386 32.0456 97.1512 32.0096 97.1711 31.9777C97.1911 31.9458 97.2178 31.9186 97.2495 31.8982L100.167 30.0177C100.204 29.9942 100.245 29.9803 100.289 29.9774C100.332 29.9745 100.375 29.9826 100.414 30.0009L105.334 32.3007C105.381 32.323 105.421 32.3596 105.447 32.4054C105.473 32.4512 105.485 32.5039 105.48 32.5564L105.015 37.5701C104.995 37.8027 104.907 38.0243 104.763 38.2081C104.619 38.3918 104.425 38.5297 104.204 38.6048C104.074 38.65 103.937 38.6732 103.8 38.6732ZM103.297 37.9422C103.39 38.0396 103.509 38.1083 103.64 38.1399C103.771 38.1715 103.909 38.1648 104.036 38.1206C104.163 38.0763 104.275 37.9964 104.359 37.8903C104.442 37.7843 104.493 37.6565 104.505 37.5223L104.954 32.6877L100.326 30.524L97.787 32.1605L103.297 37.9422Z" fill="#231E40"/>
<path d="M111.547 35.5792L111.788 33.6577L107.259 31.2386L106.526 32.3453L109.882 36.0992C110.004 36.2361 110.164 36.3349 110.341 36.3838C110.519 36.4326 110.706 36.4294 110.882 36.3746C111.057 36.3198 111.213 36.2157 111.331 36.0747C111.449 35.9336 111.524 35.7617 111.547 35.5792Z" fill="white"/>
<path d="M110.59 36.6761C110.42 36.6759 110.252 36.6395 110.097 36.5694C109.942 36.4994 109.803 36.3972 109.691 36.2696L106.335 32.5158C106.297 32.4736 106.275 32.4202 106.271 32.3638C106.267 32.3074 106.281 32.2512 106.313 32.2041L107.046 31.0975C107.081 31.0445 107.134 31.0064 107.196 30.9908C107.258 30.9752 107.323 30.9832 107.379 31.0131L111.908 33.4325C111.954 33.4569 111.991 33.4945 112.014 33.5404C112.038 33.5863 112.048 33.6384 112.041 33.6897L111.801 35.6112C111.773 35.843 111.679 36.0617 111.529 36.2407C111.38 36.4198 111.181 36.5514 110.958 36.6194C110.839 36.6568 110.715 36.6759 110.59 36.6761ZM106.849 32.3221L110.073 35.9288C110.163 36.0291 110.28 36.1015 110.41 36.1373C110.54 36.173 110.677 36.1707 110.806 36.1306C110.934 36.0904 111.049 36.0141 111.135 35.9108C111.222 35.8074 111.277 35.6814 111.294 35.5477L111.513 33.8007L107.343 31.5739L106.849 32.3221Z" fill="#231E40"/>
<path d="M66.7905 90.837L83.1794 73.1689L87.696 77.3588L71.3071 95.0268L66.7905 90.837Z" fill="#231E40"/>
<path d="M77.5725 90.267C81.1754 90.267 84.0961 87.3462 84.0961 83.7431C84.0961 80.1401 81.1754 77.2192 77.5725 77.2192C73.9696 77.2192 71.0488 80.1401 71.0488 83.7431C71.0488 87.3462 73.9696 90.267 77.5725 90.267Z" fill="white"/>
<path d="M77.5727 90.5227C76.2319 90.5227 74.9212 90.1251 73.8063 89.3801C72.6915 88.6351 71.8226 87.5763 71.3095 86.3375C70.7964 85.0987 70.6621 83.7355 70.9237 82.4204C71.1853 81.1053 71.831 79.8973 72.7791 78.9492C73.7272 78.0011 74.9352 77.3554 76.2503 77.0938C77.5653 76.8322 78.9284 76.9665 80.1672 77.4796C81.4059 77.9928 82.4647 78.8617 83.2096 79.9766C83.9546 81.0915 84.3522 82.4023 84.3522 83.7432C84.3501 85.5406 83.6352 87.2639 82.3642 88.5349C81.0933 89.8058 79.3701 90.5207 77.5727 90.5227ZM77.5727 77.475C76.333 77.475 75.1212 77.8426 74.0904 78.5314C73.0597 79.2202 72.2563 80.1992 71.7819 81.3445C71.3075 82.4899 71.1834 83.7502 71.4253 84.9661C71.6672 86.182 72.2641 87.2989 73.1407 88.1755C74.0173 89.0521 75.1342 89.6491 76.35 89.8909C77.5659 90.1328 78.8262 90.0086 79.9715 89.5342C81.1168 89.0598 82.0957 88.2564 82.7844 87.2256C83.4732 86.1948 83.8408 84.9829 83.8408 83.7432C83.8389 82.0813 83.1779 80.488 82.0028 79.3129C80.8277 78.1378 79.2345 77.4768 77.5727 77.475Z" fill="#231E40"/>
</g>
<g clip-path="url(#clip3_6_3247)">
<path d="M109.306 21.2664C109.632 22.5532 109.512 23.9125 108.965 25.1228C108.419 26.333 107.478 27.3228 106.296 27.9305C105.115 28.5383 103.762 28.7283 102.459 28.4695C101.156 28.2107 99.9792 27.5183 99.1209 26.5054C98.2626 25.4925 97.7732 24.2187 97.7326 22.8918C97.6921 21.5649 98.1027 20.2633 98.8976 19.1991C99.6924 18.1349 100.825 17.3709 102.109 17.0319C103.394 16.6928 104.756 16.7986 105.972 17.332C106.791 17.6912 107.517 18.2323 108.095 18.9141C108.672 19.5958 109.087 20.4003 109.306 21.2664Z" fill="#FFF6CC"/>
<path d="M105.975 17.344C105.662 19.2982 104.794 21.1219 103.475 22.5985C102.155 24.0751 100.439 25.1426 98.5311 25.6742C98.0767 24.8874 97.8107 24.0062 97.7541 23.0995C97.6975 22.1927 97.8517 21.2851 98.2047 20.4476C98.5577 19.6101 99.0999 18.8656 99.7888 18.2722C100.478 17.6788 101.295 17.2528 102.176 17.0274C103.442 16.7013 104.781 16.8129 105.975 17.344Z" fill="#231E40"/>
</g>
<g clip-path="url(#clip4_6_3247)">
<path d="M129.422 66.7161L150.796 75.1757C150.901 75.2173 150.957 75.3454 150.915 75.4502C150.874 75.5551 150.746 75.6104 150.641 75.5688L129.266 67.1093C129.161 67.0677 129.105 66.9395 129.147 66.8347C129.188 66.7299 129.303 66.6693 129.422 66.7161Z" fill="#231E40"/>
<path d="M123.068 69.2943L144.442 77.7538C144.547 77.7954 144.603 77.9236 144.561 78.0284C144.52 78.1332 144.392 78.1886 144.287 78.147L122.912 69.6874C122.807 69.6458 122.746 69.5308 122.793 69.4129C122.834 69.308 122.963 69.2527 123.068 69.2943Z" fill="#231E40"/>
</g>
<g clip-path="url(#clip5_6_3247)">
<path d="M93.2033 108.965L53.3779 94.9931L54.4579 91.8252L94.17 106.14L93.2033 108.965Z" fill="#231E40"/>
<path d="M139.718 122.766C139.191 122.221 138.628 121.711 138.034 121.24C134.072 118.047 127.044 114.435 118.673 111.565C110.303 108.696 102.546 107.231 97.4615 107.334C96.7039 107.344 95.9479 107.404 95.1986 107.515C93.7889 106.051 93.1666 104.731 93.5238 103.678C94.7485 100.102 106.893 101.032 120.663 105.744C134.425 110.468 144.605 117.185 143.38 120.762C143.023 121.814 141.72 122.48 139.718 122.766Z" fill="#231E40"/>
<path d="M139.057 122.718C139.01 122.683 138.975 122.635 138.957 122.58C138.938 122.525 138.937 122.466 138.952 122.41C138.968 122.355 139.001 122.305 139.045 122.268C139.09 122.232 139.145 122.209 139.203 122.204C141.091 122.045 142.9 121.039 143.504 119.814C143.52 119.781 143.543 119.751 143.572 119.726C143.6 119.701 143.633 119.682 143.668 119.67C143.704 119.658 143.741 119.653 143.779 119.656C143.816 119.658 143.853 119.668 143.887 119.685C143.921 119.702 143.951 119.725 143.976 119.753C144 119.781 144.019 119.814 144.032 119.85C144.044 119.885 144.049 119.923 144.046 119.96C144.044 119.998 144.034 120.034 144.018 120.068C143.32 121.483 141.361 122.596 139.252 122.774C139.183 122.78 139.113 122.76 139.057 122.718Z" fill="white"/>
<path d="M98.0872 112.383C98.041 112.349 98.0063 112.301 97.9875 112.247C97.9688 112.192 97.9668 112.134 97.982 112.078C97.9971 112.023 98.0287 111.973 98.0725 111.936C98.1163 111.899 98.1703 111.876 98.2275 111.87L118.248 109.774C118.286 109.77 118.324 109.774 118.36 109.785C118.396 109.795 118.429 109.813 118.459 109.837C118.488 109.86 118.512 109.889 118.53 109.922C118.548 109.955 118.56 109.992 118.564 110.029C118.568 110.066 118.564 110.104 118.554 110.14C118.543 110.176 118.526 110.21 118.502 110.239C118.478 110.268 118.449 110.292 118.416 110.31C118.383 110.328 118.347 110.339 118.31 110.343L98.2889 112.439C98.2171 112.446 98.145 112.427 98.0872 112.383Z" fill="white"/>
<path d="M104.718 115.45C104.672 115.416 104.637 115.368 104.619 115.314C104.6 115.259 104.598 115.201 104.613 115.145C104.628 115.09 104.66 115.04 104.704 115.003C104.747 114.966 104.801 114.943 104.859 114.937L125.746 112.758C125.822 112.75 125.897 112.773 125.956 112.82C126.015 112.868 126.053 112.937 126.061 113.013C126.069 113.088 126.047 113.164 126 113.223C125.952 113.282 125.883 113.319 125.807 113.327L104.92 115.506C104.848 115.513 104.776 115.493 104.718 115.45Z" fill="white"/>
<path d="M114.866 121.109C114.82 121.075 114.786 121.027 114.767 120.973C114.748 120.918 114.746 120.86 114.761 120.804C114.777 120.749 114.808 120.699 114.852 120.662C114.896 120.625 114.95 120.602 115.007 120.596L136.398 118.366C136.436 118.361 136.474 118.364 136.511 118.375C136.547 118.385 136.581 118.402 136.611 118.426C136.641 118.45 136.666 118.479 136.684 118.512C136.702 118.546 136.714 118.582 136.718 118.62C136.722 118.658 136.719 118.696 136.708 118.732C136.697 118.768 136.679 118.802 136.655 118.832C136.631 118.861 136.601 118.885 136.567 118.903C136.534 118.92 136.497 118.931 136.459 118.934L115.068 121.165C114.996 121.172 114.924 121.152 114.866 121.109Z" fill="white"/>
<path d="M114.253 124.537C100.492 119.813 90.3202 113.085 91.5364 109.52L93.5236 103.678C93.1664 104.731 93.7887 106.051 95.1984 107.515C98.5748 111.037 106.515 115.367 116.252 118.705C125.977 122.034 134.896 123.476 139.729 122.775C141.731 122.489 143.034 121.823 143.391 120.77L141.404 126.612C140.168 130.18 128.024 129.249 114.253 124.537Z" fill="#231E40"/>
<path d="M95.3881 107.692C95.3775 107.684 95.3675 107.676 95.358 107.666C93.6045 105.937 93.0191 104.156 93.7524 102.78C93.7889 102.715 93.8495 102.667 93.9213 102.646C93.9932 102.625 94.0704 102.633 94.1366 102.668C94.2027 102.703 94.2524 102.763 94.2751 102.834C94.2978 102.906 94.2915 102.983 94.2578 103.05C93.3979 104.665 95.0217 106.532 95.7602 107.261C95.8118 107.311 95.8422 107.38 95.8452 107.452C95.8483 107.525 95.8238 107.595 95.7767 107.65C95.7296 107.705 95.6634 107.74 95.5914 107.748C95.5195 107.756 95.4471 107.736 95.3889 107.693L95.3881 107.692Z" fill="white"/>
<path d="M91.4278 108.708C91.3794 108.671 91.3437 108.621 91.3258 108.563C91.3079 108.505 91.3086 108.444 91.328 108.387L92.2918 105.542C92.3185 105.473 92.3706 105.418 92.4374 105.387C92.5041 105.356 92.5803 105.352 92.6501 105.376C92.7199 105.399 92.7779 105.449 92.8121 105.514C92.8462 105.58 92.8539 105.656 92.8335 105.726L91.8697 108.571C91.8552 108.614 91.8309 108.652 91.7986 108.684C91.7663 108.715 91.727 108.739 91.6839 108.752C91.6408 108.765 91.5951 108.768 91.5506 108.761C91.5061 108.753 91.464 108.735 91.4278 108.708Z" fill="white"/>
</g>
<g clip-path="url(#clip6_6_3247)">
<path d="M84.319 106.815L44.4936 92.8438L45.5737 89.6759L85.2857 103.991L84.319 106.815Z" fill="#231E40"/>
<path d="M130.834 120.617C130.307 120.072 129.744 119.562 129.149 119.091C125.187 115.898 118.159 112.285 109.789 109.416C101.418 106.547 93.6618 105.081 88.5772 105.185C87.8196 105.194 87.0636 105.255 86.3144 105.366C84.9047 103.902 84.2823 102.581 84.6395 101.529C85.8642 97.9524 98.0086 98.8826 111.779 103.595C125.541 108.319 135.721 115.036 134.496 118.612C134.139 119.665 132.836 120.331 130.834 120.617Z" fill="#231E40"/>
<path d="M105.37 122.388C91.6077 117.664 81.4364 110.935 82.6526 107.37L84.6398 101.529C84.2826 102.581 84.9049 103.902 86.3146 105.366C89.691 108.887 97.6313 113.217 107.368 116.555C117.094 119.884 126.012 121.327 130.846 120.626C132.848 120.34 134.15 119.673 134.508 118.621L132.52 124.462C131.284 128.03 119.14 127.1 105.37 122.388Z" fill="#231E40"/>
<path d="M86.5039 105.543C86.4933 105.535 86.4832 105.526 86.4737 105.517C84.7202 103.788 84.1349 102.007 84.8681 100.631C84.9046 100.566 84.9652 100.517 85.0371 100.496C85.1089 100.475 85.1862 100.483 85.2523 100.519C85.3184 100.554 85.3682 100.614 85.3908 100.685C85.4135 100.757 85.4073 100.834 85.3735 100.901C84.5136 102.516 86.1375 104.383 86.8759 105.111C86.9275 105.162 86.9579 105.231 86.9609 105.303C86.964 105.375 86.9395 105.446 86.8924 105.501C86.8453 105.556 86.7791 105.59 86.7072 105.598C86.6352 105.606 86.5628 105.587 86.5047 105.543L86.5039 105.543Z" fill="white"/>
<path d="M82.544 106.558C82.4956 106.522 82.4599 106.472 82.442 106.414C82.4241 106.356 82.4248 106.294 82.4442 106.237L83.408 103.393C83.4347 103.324 83.4869 103.268 83.5536 103.238C83.6203 103.207 83.6965 103.203 83.7663 103.226C83.8361 103.25 83.8941 103.3 83.9283 103.365C83.9624 103.43 83.9701 103.506 83.9497 103.577L82.9859 106.422C82.9714 106.464 82.9471 106.503 82.9148 106.535C82.8825 106.566 82.8432 106.589 82.8001 106.603C82.757 106.616 82.7113 106.619 82.6668 106.611C82.6223 106.604 82.5802 106.585 82.544 106.558Z" fill="white"/>
</g>
<g clip-path="url(#clip7_6_3247)">
<path d="M159.804 16.0463L197.531 10.6255L204.866 61.6764L167.14 67.0972L159.804 16.0463Z" fill="#FFF23D"/>
<path d="M161.739 19.4115L196.621 14.3994L203.281 60.7464L168.399 65.7585L161.739 19.4115Z" fill="white"/>
<path d="M189.782 24.7632L192.787 24.3314L192.834 24.661L189.83 25.0928L189.782 24.7632Z" fill="white"/>
<path d="M168.217 27.8619L186.619 25.2178L186.666 25.5474L168.264 28.1915L168.217 27.8619Z" fill="white"/>
<path d="M190.295 28.333L193.3 27.9013L193.347 28.2309L190.343 28.6626L190.295 28.333Z" fill="white"/>
<path d="M168.73 31.4317L187.132 28.7876L187.179 29.1172L168.777 31.7613L168.73 31.4317Z" fill="white"/>
<path d="M190.808 31.9027L193.813 31.471L193.86 31.8006L190.855 32.2323L190.808 31.9027Z" fill="white"/>
<path d="M169.243 35.0014L187.644 32.3573L187.692 32.6869L169.29 35.331L169.243 35.0014Z" fill="white"/>
<path d="M191.321 35.4725L194.326 35.0408L194.373 35.3704L191.369 35.8021L191.321 35.4725Z" fill="white"/>
<path d="M169.756 38.5712L188.158 35.9271L188.205 36.2567L169.803 38.9008L169.756 38.5712Z" fill="white"/>
<path d="M191.834 39.0449L194.839 38.6131L194.887 38.9427L191.882 39.3744L191.834 39.0449Z" fill="white"/>
<path d="M170.269 42.1436L188.671 39.4995L188.718 39.829L170.316 42.4731L170.269 42.1436Z" fill="white"/>
<path d="M192.348 42.6146L195.352 42.1829L195.4 42.5125L192.395 42.9442L192.348 42.6146Z" fill="white"/>
<path d="M170.782 45.7133L189.184 43.0692L189.231 43.3988L170.829 46.0429L170.782 45.7133Z" fill="white"/>
<path d="M193.374 49.7542L196.378 49.3224L196.426 49.652L193.421 50.0837L193.374 49.7542Z" fill="white"/>
<path d="M171.808 52.8528L190.209 50.2088L190.257 50.5383L171.855 53.1824L171.808 52.8528Z" fill="white"/>
<path d="M192.86 46.1844L195.865 45.7527L195.912 46.0823L192.908 46.514L192.86 46.1844Z" fill="white"/>
<path d="M171.295 49.2831L189.697 46.6391L189.744 46.9686L171.342 49.6127L171.295 49.2831Z" fill="white"/>
<path d="M178.323 10.9383C177.689 11.0294 177.042 10.9307 176.465 10.6546C175.887 10.3785 175.404 9.93752 175.077 9.38732C174.751 8.83712 174.595 8.20246 174.629 7.56359C174.664 6.92472 174.887 6.31033 175.271 5.79813C175.655 5.28593 176.182 4.89891 176.786 4.68602C177.39 4.47313 178.044 4.44392 178.665 4.6021C179.285 4.76028 179.845 5.09873 180.273 5.57466C180.701 6.05059 180.978 6.64262 181.069 7.27588C181.19 8.12492 180.969 8.98737 180.454 9.67399C179.939 10.3606 179.173 10.8153 178.323 10.9383ZM177.45 4.86423C176.881 4.94595 176.35 5.19429 175.922 5.57784C175.495 5.9614 175.19 6.46295 175.048 7.01906C174.906 7.57517 174.932 8.16086 175.123 8.70208C175.314 9.2433 175.661 9.71574 176.121 10.0596C176.581 10.4036 177.133 10.6035 177.707 10.6342C178.28 10.6648 178.85 10.5249 179.345 10.232C179.839 9.93909 180.235 9.50642 180.483 8.98867C180.731 8.47093 180.82 7.89138 180.739 7.3233C180.628 6.56193 180.22 5.87545 179.604 5.41445C178.987 4.95345 178.213 4.75557 177.45 4.86423Z" fill="white"/>
<path d="M170.732 11.8343L185.86 9.66065L186.955 17.2837L171.827 19.4574L170.732 11.8343Z" fill="white"/>
<path d="M187.143 17.4248L171.686 19.6459L170.543 11.6931L186.001 9.472L187.143 17.4248ZM171.968 19.2689L186.766 17.1427L185.718 9.849L170.92 11.9752L171.968 19.2689Z" fill="white"/>
</g>
<g clip-path="url(#clip8_6_3247)">
<path d="M186.873 17.4781L171.884 19.6317C171.812 19.6422 171.738 19.6233 171.679 19.5792C171.62 19.5351 171.581 19.4695 171.571 19.3967C171.56 19.3239 171.579 19.25 171.623 19.1911C171.667 19.1322 171.733 19.0933 171.805 19.0829L186.794 16.9292C186.866 16.9188 186.94 16.9377 186.999 16.9818C187.058 17.0258 187.097 17.0915 187.107 17.1643C187.118 17.2371 187.099 17.311 187.055 17.3699C187.011 17.4287 186.945 17.4677 186.873 17.4781Z" fill="#231E40"/>
<path d="M189.738 13.4439L179.811 14.8701C179.739 14.8806 179.665 14.8617 179.606 14.8176C179.547 14.7735 179.508 14.7079 179.498 14.6351C179.487 14.5623 179.506 14.4884 179.55 14.4295C179.594 14.3706 179.66 14.3317 179.733 14.3213L189.659 12.895C189.731 12.8846 189.805 12.9035 189.864 12.9475C189.923 12.9916 189.962 13.0573 189.972 13.1301C189.983 13.2029 189.964 13.2768 189.92 13.3357C189.876 13.3945 189.81 13.4334 189.738 13.4439Z" fill="#231E40"/>
</g>
<g clip-path="url(#clip9_6_3247)">
<path d="M171.894 21.7715L169.9 7.89335C169.89 7.82603 169.908 7.7576 169.949 7.70309C169.991 7.64859 170.052 7.61248 170.12 7.60272C170.188 7.59296 170.257 7.61034 170.312 7.65104C170.367 7.69174 170.403 7.75243 170.412 7.81975L172.407 21.6979C172.416 21.7652 172.399 21.8337 172.357 21.8882C172.316 21.9427 172.255 21.9788 172.187 21.9885C172.119 21.9983 172.05 21.9809 171.995 21.9402C171.94 21.8995 171.904 21.8388 171.894 21.7715Z" fill="#231E40"/>
</g>
<g clip-path="url(#clip10_6_3247)">
<path d="M185.726 9.59731L170.738 11.7509C170.665 11.7614 170.591 11.7425 170.532 11.6984C170.474 11.6543 170.435 11.5887 170.424 11.5159C170.414 11.4431 170.433 11.3692 170.477 11.3103C170.521 11.2514 170.586 11.2125 170.659 11.2021L185.647 9.04843C185.72 9.03798 185.794 9.05688 185.853 9.10096C185.912 9.14504 185.95 9.21069 185.961 9.28348C185.971 9.35626 185.952 9.43022 185.908 9.48907C185.864 9.54793 185.799 9.58686 185.726 9.59731Z" fill="#231E40"/>
<path d="M188.591 5.56309L178.665 6.98935C178.592 6.99979 178.518 6.9809 178.46 6.93682C178.401 6.89274 178.362 6.82708 178.351 6.7543C178.341 6.68151 178.36 6.60756 178.404 6.5487C178.448 6.48985 178.513 6.45092 178.586 6.44047L188.512 5.01422C188.585 5.00377 188.659 5.02267 188.718 5.06675C188.776 5.11083 188.815 5.17648 188.826 5.24927C188.836 5.32205 188.817 5.39601 188.773 5.45486C188.729 5.51371 188.664 5.55265 188.591 5.56309Z" fill="#231E40"/>
</g>
<g clip-path="url(#clip11_6_3247)">
<path d="M186.94 19.479L184.946 5.60081C184.936 5.53349 184.954 5.46505 184.995 5.41055C185.036 5.35605 185.097 5.31994 185.165 5.31018C185.233 5.30042 185.302 5.3178 185.357 5.3585C185.412 5.3992 185.448 5.45988 185.458 5.5272L187.452 19.4054C187.462 19.4727 187.444 19.5411 187.403 19.5956C187.362 19.6501 187.3 19.6862 187.232 19.696C187.164 19.7057 187.095 19.6884 187.04 19.6477C186.986 19.607 186.949 19.5463 186.94 19.479Z" fill="#231E40"/>
</g>
<g clip-path="url(#clip12_6_3247)">
<path d="M119.049 37.5236L134.946 50.2308L150.808 34.762C154.082 31.304 155.177 27.77 155.806 24.4911L156.077 23.0485C156.228 22.2522 156.69 21.5485 157.36 21.0923C158.03 20.6362 158.854 20.4649 159.65 20.6162C160.446 20.7675 161.15 21.2289 161.606 21.899C162.062 22.5691 162.234 23.393 162.082 24.1893L161.091 29.4645L176.99 25.9127C177.781 25.7359 178.61 25.8807 179.295 26.3151C179.979 26.7496 180.463 27.4381 180.64 28.2292C180.727 28.6209 180.737 29.0261 180.667 29.4215C180.598 29.8169 180.452 30.1948 180.237 30.5337C180.022 30.8726 179.742 31.1658 179.414 31.3965C179.085 31.6273 178.715 31.7911 178.323 31.8786C178.715 31.7911 179.12 31.7816 179.515 31.8506C179.911 31.9197 180.288 32.0659 180.627 32.281C180.966 32.4961 181.259 32.7759 181.49 33.1043C181.721 33.4327 181.885 33.8034 181.972 34.1951C182.149 34.9863 182.004 35.8152 181.57 36.4995C181.135 37.1839 180.447 37.6677 179.656 37.8444C180.447 37.6677 181.276 37.8125 181.96 38.247C182.644 38.6814 183.128 39.37 183.305 40.1611C183.392 40.5528 183.402 40.9579 183.333 41.3533C183.264 41.7487 183.118 42.1266 182.902 42.4655C182.687 42.8044 182.408 43.0975 182.079 43.3283C181.751 43.559 181.38 43.7229 180.988 43.8104C181.381 43.7201 181.788 43.7085 182.185 43.776C182.582 43.8435 182.962 43.9889 183.303 44.2039C183.644 44.4188 183.939 44.699 184.171 45.0283C184.403 45.3577 184.568 45.7297 184.656 46.1229C184.744 46.5162 184.753 46.9229 184.683 47.3198C184.613 47.7166 184.465 48.0957 184.248 48.4352C184.031 48.7747 183.749 49.068 183.419 49.2982C183.088 49.5283 182.715 49.6908 182.321 49.7763L173.614 51.7214C171.206 52.2594 168.626 53.8663 164.661 57.7433L164.672 57.7115L155.496 66.6585L148.212 73.7817C145.033 76.8905 140.827 78.7294 136.386 78.9521C131.945 79.1747 127.576 77.7656 124.102 74.9903L124.073 74.9668L116.132 68.6236L102.036 57.3637L119.049 37.5236Z" fill="#FFF6CC"/>
<path d="M159.244 39.6914C159.181 39.6914 159.12 39.6685 159.074 39.6268C159.027 39.5852 158.997 39.5278 158.99 39.4655C158.982 39.4032 158.998 39.3405 159.034 39.2891C159.07 39.2377 159.123 39.2014 159.184 39.1869C160.147 38.9574 161.023 38.4539 161.705 37.7373C162.388 37.0206 162.848 36.1216 163.03 35.1488C163.213 34.1761 163.109 33.1714 162.732 32.2562C162.356 31.341 161.722 30.5546 160.908 29.9921C160.853 29.9533 160.815 29.8944 160.803 29.828C160.791 29.7616 160.806 29.6932 160.844 29.6377C160.882 29.5822 160.941 29.544 161.007 29.5315C161.074 29.519 161.142 29.5331 161.198 29.5709C162.093 30.1896 162.791 31.0545 163.205 32.061C163.619 33.0675 163.733 34.1725 163.533 35.2423C163.332 36.3122 162.826 37.301 162.076 38.0893C161.325 38.8776 160.362 39.4315 159.303 39.684C159.284 39.6888 159.264 39.6913 159.244 39.6914Z" fill="#231E40"/>
</g>
<g clip-path="url(#clip13_6_3247)">
<path d="M168.86 100.499L205.055 112.442L188.894 161.419L152.699 149.477L168.86 100.499Z" fill="#FFF23D"/>
<path d="M169.095 104.374L202.56 115.416L187.888 159.881L154.423 148.838L169.095 104.374Z" fill="white"/>
<path d="M191.822 121.651L194.705 122.602L194.601 122.919L191.718 121.967L191.822 121.651Z" fill="white"/>
<path d="M171.132 114.824L188.787 120.65L188.682 120.966L171.028 115.14L171.132 114.824Z" fill="white"/>
<path d="M190.692 125.076L193.575 126.027L193.47 126.343L190.588 125.392L190.692 125.076Z" fill="white"/>
<path d="M170.002 118.249L187.656 124.074L187.552 124.391L169.898 118.565L170.002 118.249Z" fill="white"/>
<path d="M189.562 128.501L192.445 129.452L192.34 129.768L189.458 128.817L189.562 128.501Z" fill="white"/>
<path d="M168.872 121.674L186.527 127.499L186.422 127.815L168.768 121.99L168.872 121.674Z" fill="white"/>
<path d="M188.432 131.926L191.314 132.877L191.21 133.193L188.327 132.242L188.432 131.926Z" fill="white"/>
<path d="M167.742 125.099L185.397 130.924L185.292 131.24L167.638 125.415L167.742 125.099Z" fill="white"/>
<path d="M187.301 135.353L190.183 136.304L190.079 136.62L187.196 135.669L187.301 135.353Z" fill="white"/>
<path d="M166.611 128.526L184.265 134.351L184.161 134.668L166.507 128.842L166.611 128.526Z" fill="white"/>
<path d="M186.171 138.778L189.054 139.729L188.949 140.045L186.067 139.094L186.171 138.778Z" fill="white"/>
<path d="M165.481 131.951L183.135 137.776L183.031 138.092L165.377 132.267L165.481 131.951Z" fill="white"/>
<path d="M183.911 145.627L186.793 146.579L186.689 146.895L183.806 145.944L183.911 145.627Z" fill="white"/>
<path d="M163.221 138.8L180.875 144.626L180.771 144.942L163.116 139.117L163.221 138.8Z" fill="white"/>
<path d="M185.041 142.203L187.924 143.154L187.819 143.47L184.937 142.519L185.041 142.203Z" fill="white"/>
<path d="M164.351 135.376L182.006 141.201L181.901 141.517L164.247 135.692L164.351 135.376Z" fill="white"/>
<path d="M187.716 104.17C187.108 103.969 186.573 103.593 186.178 103.089C185.784 102.584 185.548 101.974 185.501 101.336C185.453 100.698 185.596 100.06 185.911 99.5036C186.226 98.9469 186.7 98.4962 187.272 98.2085C187.844 97.9209 188.488 97.8091 189.124 97.8874C189.76 97.9657 190.358 98.2306 190.843 98.6485C191.328 99.0665 191.679 99.6187 191.85 100.235C192.021 100.852 192.006 101.505 191.805 102.113C191.536 102.927 190.954 103.601 190.187 103.987C189.42 104.372 188.532 104.438 187.716 104.17ZM189.639 98.3426C189.093 98.1625 188.507 98.1481 187.953 98.3012C187.399 98.4543 186.904 98.768 186.529 99.2026C186.154 99.6373 185.916 100.173 185.847 100.743C185.777 101.313 185.877 101.89 186.136 102.403C186.395 102.916 186.8 103.34 187.3 103.623C187.8 103.906 188.373 104.035 188.946 103.992C189.518 103.95 190.066 103.739 190.519 103.386C190.971 103.033 191.309 102.554 191.489 102.009C191.729 101.278 191.669 100.481 191.322 99.794C190.976 99.1068 190.37 98.5848 189.639 98.3426Z" fill="white"/>
<path d="M180.52 101.592L195.033 106.381L192.62 113.695L178.107 108.906L180.52 101.592Z" fill="white"/>
<path d="M192.726 113.905L177.896 109.012L180.414 101.382L195.244 106.275L192.726 113.905ZM178.317 108.8L192.514 113.485L194.823 106.487L180.626 101.803L178.317 108.8Z" fill="white"/>
</g>
<g clip-path="url(#clip14_6_3247)">
<path d="M192.428 113.777L178.049 109.032C177.979 109.009 177.921 108.959 177.888 108.893C177.855 108.828 177.85 108.752 177.873 108.682C177.896 108.612 177.945 108.554 178.011 108.521C178.077 108.488 178.153 108.482 178.222 108.505L192.602 113.25C192.672 113.273 192.73 113.323 192.763 113.389C192.796 113.454 192.801 113.53 192.778 113.6C192.755 113.67 192.706 113.728 192.64 113.761C192.574 113.794 192.498 113.8 192.428 113.777Z" fill="#231E40"/>
<path d="M196.79 111.44L187.267 108.298C187.197 108.275 187.139 108.225 187.106 108.159C187.073 108.094 187.068 108.017 187.091 107.948C187.114 107.878 187.164 107.82 187.229 107.787C187.295 107.754 187.371 107.748 187.441 107.771L196.964 110.913C197.034 110.936 197.091 110.986 197.124 111.052C197.157 111.117 197.163 111.194 197.14 111.263C197.117 111.333 197.067 111.391 197.001 111.424C196.936 111.457 196.86 111.463 196.79 111.44Z" fill="#231E40"/>
</g>
<g clip-path="url(#clip15_6_3247)">
<path d="M177.091 111.087L181.485 97.7721C181.506 97.7075 181.552 97.6541 181.614 97.6236C181.675 97.5932 181.746 97.5881 181.811 97.6096C181.876 97.6312 181.93 97.6774 181.961 97.7383C181.992 97.7992 181.998 97.8697 181.976 97.9343L177.583 111.249C177.562 111.313 177.515 111.367 177.454 111.397C177.393 111.428 177.322 111.433 177.257 111.411C177.192 111.39 177.138 111.343 177.107 111.283C177.076 111.222 177.07 111.151 177.091 111.087Z" fill="#231E40"/>
<path d="M179.28 115.133L182.19 106.316C182.211 106.251 182.258 106.198 182.319 106.167C182.38 106.137 182.451 106.132 182.516 106.153C182.581 106.175 182.635 106.221 182.666 106.282C182.697 106.343 182.703 106.413 182.681 106.478L179.772 115.296C179.751 115.36 179.704 115.413 179.643 115.444C179.582 115.474 179.511 115.479 179.446 115.458C179.381 115.436 179.327 115.39 179.296 115.329C179.265 115.268 179.259 115.198 179.28 115.133Z" fill="#231E40"/>
</g>
<g clip-path="url(#clip16_6_3247)">
<path d="M195.008 106.326L180.628 101.581C180.558 101.558 180.5 101.508 180.467 101.443C180.434 101.377 180.429 101.301 180.452 101.231C180.475 101.161 180.525 101.103 180.59 101.07C180.656 101.037 180.732 101.031 180.802 101.054L195.181 105.799C195.251 105.822 195.309 105.872 195.342 105.938C195.375 106.003 195.38 106.079 195.357 106.149C195.334 106.219 195.285 106.277 195.219 106.31C195.153 106.343 195.077 106.349 195.008 106.326Z" fill="#231E40"/>
<path d="M199.369 103.989L189.846 100.847C189.776 100.824 189.719 100.774 189.686 100.708C189.653 100.643 189.647 100.567 189.67 100.497C189.693 100.427 189.743 100.369 189.808 100.336C189.874 100.303 189.95 100.297 190.02 100.32L199.543 103.462C199.613 103.485 199.67 103.535 199.703 103.601C199.736 103.667 199.742 103.743 199.719 103.813C199.696 103.882 199.646 103.94 199.581 103.973C199.515 104.006 199.439 104.012 199.369 103.989Z" fill="#231E40"/>
</g>
<g clip-path="url(#clip17_6_3247)">
<path d="M191.563 115.672L195.956 102.357C195.978 102.293 196.024 102.239 196.085 102.209C196.146 102.178 196.217 102.173 196.283 102.195C196.348 102.216 196.402 102.263 196.433 102.323C196.464 102.384 196.469 102.455 196.448 102.519L192.055 115.834C192.033 115.899 191.987 115.952 191.926 115.982C191.865 116.013 191.794 116.018 191.729 115.996C191.663 115.975 191.609 115.929 191.578 115.868C191.547 115.807 191.542 115.736 191.563 115.672Z" fill="#231E40"/>
<path d="M193.752 119.718L196.662 110.901C196.683 110.836 196.729 110.783 196.79 110.752C196.852 110.722 196.922 110.717 196.988 110.738C197.053 110.76 197.107 110.806 197.138 110.867C197.169 110.928 197.174 110.998 197.153 111.063L194.244 119.881C194.222 119.945 194.176 119.999 194.115 120.029C194.054 120.06 193.983 120.065 193.917 120.043C193.852 120.022 193.798 119.975 193.767 119.914C193.736 119.854 193.731 119.783 193.752 119.718Z" fill="#231E40"/>
</g>
<g clip-path="url(#clip18_6_3247)">
<path d="M180.493 26.5318C173.398 27.3961 168.325 33.8765 169.189 40.972C170.053 48.0674 176.534 53.1406 183.629 52.2764C187.177 51.8443 190.419 49.9519 192.488 47.0554L183.707 39.8408L194.934 37.8363L182.888 38.3475L180.493 26.5318Z" fill="#FDBF7C"/>
<path d="M194.933 37.8362C194.038 30.7446 187.592 25.699 180.493 26.5318L182.061 39.4041L194.933 37.8362Z" fill="#73EDC2"/>
<path d="M182.061 39.4041L192.488 47.0554C194.458 44.394 195.331 41.1014 194.933 37.8363L182.061 39.4041Z" fill="#B0FF5C"/>
</g>
<g clip-path="url(#clip19_6_3247)">
<path d="M159.801 113.838L165.945 115.926L155.755 145.92L149.611 143.833L159.801 113.838Z" fill="#E3D9FC"/>
<path d="M166.046 127.554L172.19 129.641L165.531 149.241L159.387 147.154L166.046 127.554Z" fill="#73EDC2"/>
<path d="M177.831 125.851L183.974 127.938L175.582 152.641L169.438 150.554L177.831 125.851Z" fill="#E3D9FC"/>
<path d="M191.528 119.182L197.672 121.269L185.83 156.123L179.687 154.036L191.528 119.182Z" fill="#73EDC2"/>
</g>
<g clip-path="url(#clip20_6_3247)">
<path d="M186.423 95.4969L186.24 95.941C186.078 96.3326 185.841 96.6885 185.542 96.9883C185.242 97.2881 184.887 97.526 184.496 97.6883C184.104 97.8507 183.685 97.9342 183.261 97.9343C182.838 97.9343 182.418 97.8509 182.027 97.6886L179.398 96.6011C179.61 98.3185 179.502 100.06 179.079 101.739C178.393 104.424 175.132 105.457 173.004 103.688L172.89 103.599C171.758 102.665 171.31 101.167 171.656 99.7355C171.976 98.4149 171.839 97.0249 171.268 95.792C170.697 94.559 169.725 93.5558 168.511 92.9458C167.297 92.3357 165.913 92.1547 164.582 92.4323C163.252 92.7099 162.056 93.4298 161.187 94.4746C160.804 94.9422 160.492 95.4632 160.26 96.0209C159.812 97.1078 159.692 98.3023 159.914 99.4566C160.137 100.611 160.694 101.675 161.514 102.516C162.335 103.358 163.384 103.941 164.533 104.193C165.681 104.445 166.878 104.355 167.976 103.934C168.608 103.687 169.295 103.613 169.965 103.719C170.635 103.826 171.265 104.109 171.79 104.54L171.904 104.628C174.092 106.451 173.567 109.97 170.927 111.026C168.634 111.947 166.135 112.231 163.694 111.848C161.253 111.465 158.961 110.429 157.061 108.85C156.68 108.533 156.317 108.196 155.974 107.839C155.95 107.818 155.927 107.795 155.906 107.77C155.895 107.765 155.9 107.753 155.888 107.748C155.447 107.292 155.22 107.048 153.607 106.381L75.044 73.8845L83.176 52.3388L157.754 83.1868C160.138 84.1728 162.525 84.7221 164.482 84.6556C164.769 84.6237 165.051 84.6036 165.34 84.5999L182.171 83.2131C182.624 83.1677 183.081 83.2119 183.517 83.3432C183.953 83.4745 184.358 83.6903 184.711 83.9784C185.063 84.2664 185.355 84.6211 185.57 85.0221C185.786 85.4231 185.92 85.8625 185.965 86.3154C186.011 86.7682 185.966 87.2256 185.835 87.6613C185.704 88.0971 185.488 88.5027 185.2 88.8551C184.912 89.2074 184.557 89.4996 184.156 89.7149C183.755 89.9302 183.316 90.0644 182.863 90.1098L182.092 90.1878L184.686 91.2608C185.474 91.5968 186.098 92.2297 186.423 93.0224C186.749 93.8152 186.749 94.7041 186.423 95.4969Z" fill="#FFF6CC"/>
<path d="M179.312 96.9077C179.27 96.8906 179.234 96.8627 179.207 96.8269C179.18 96.7912 179.163 96.7488 179.157 96.7042C178.801 93.7377 177.467 90.9744 175.366 88.8503C173.265 86.7261 170.516 85.362 167.554 84.973C167.521 84.9686 167.49 84.9578 167.461 84.9412C167.432 84.9245 167.407 84.9024 167.387 84.876C167.367 84.8496 167.352 84.8195 167.343 84.7874C167.335 84.7553 167.333 84.7218 167.337 84.6889C167.341 84.656 167.352 84.6242 167.369 84.5955C167.386 84.5667 167.408 84.5416 167.434 84.5214C167.46 84.5012 167.491 84.4864 167.523 84.4779C167.555 84.4693 167.588 84.4672 167.621 84.4716C170.695 84.8754 173.546 86.2908 175.726 88.4948C177.905 90.6988 179.289 93.5658 179.659 96.6437C179.665 96.6875 179.658 96.7319 179.641 96.7726C179.624 96.8132 179.596 96.8486 179.561 96.8753C179.526 96.902 179.485 96.9191 179.441 96.9248C179.397 96.9304 179.353 96.9246 179.312 96.9077Z" fill="#231E40"/>
<path d="M110.185 186.279C110.185 186.279 100.14 92.9148 99.8889 91.4698L40.4787 66.8958C36.4084 76.7362 37.5014 87.6585 39.1393 103.186L30.1438 87.4482L-4.29983 108.321C-4.29983 108.321 2.08022 115.394 15.1167 133.802C26.7698 150.229 46.8371 155.477 60.5795 149.35C62.7635 148.375 64.7918 147.083 66.5991 145.517L66.5627 168.235L110.185 186.279Z" fill="#73EDC2"/>
</g>
<g clip-path="url(#clip21_6_3247)">
<path d="M128.472 84.3244C132.072 84.3244 134.991 81.4055 134.991 77.8049C134.991 74.2042 132.072 71.2853 128.472 71.2853C124.871 71.2853 121.952 74.2042 121.952 77.8049C121.952 81.4055 124.871 84.3244 128.472 84.3244Z" fill="#73EDC2"/>
</g>
<g clip-path="url(#clip22_6_3247)">
<path d="M69.5161 48.1866L52.8303 63.9985C52.7483 64.0762 52.6086 64.0727 52.5311 63.9908C52.4535 63.909 52.4574 63.7693 52.5395 63.6916L69.2253 47.8797C69.3073 47.802 69.447 47.8055 69.5245 47.8874C69.6021 47.9692 69.6084 48.0991 69.5161 48.1866Z" fill="#231E40"/>
<path d="M69.8584 41.3381L53.1726 57.15C53.0906 57.2277 52.9509 57.2241 52.8734 57.1423C52.7958 57.0605 52.7997 56.9208 52.8818 56.8431L69.5675 41.0312C69.6496 40.9534 69.7795 40.9468 69.8668 41.0389C69.9443 41.1207 69.9404 41.2604 69.8584 41.3381Z" fill="#231E40"/>
</g>
<g clip-path="url(#clip23_6_3247)">
<path d="M74.8007 43.3058L57.0977 57.9699C57.0107 58.0421 56.8716 58.0292 56.7996 57.9423C56.7277 57.8555 56.7409 57.7164 56.828 57.6443L74.5309 42.9802C74.618 42.9081 74.7571 42.921 74.829 43.0078C74.9009 43.0947 74.8986 43.2247 74.8007 43.3058Z" fill="#231E40"/>
<path d="M75.599 36.4954L57.896 51.1595C57.809 51.2316 57.6699 51.2187 57.598 51.1319C57.526 51.0451 57.5393 50.906 57.6263 50.8339L75.3293 36.1698C75.4163 36.0977 75.5464 36.0997 75.6273 36.1974C75.6993 36.2843 75.686 36.4233 75.599 36.4954Z" fill="#231E40"/>
</g>
<g clip-path="url(#clip24_6_3247)">
<path d="M36.5814 22.3047C41.5006 20.153 43.7441 14.4209 41.5924 9.50164C39.4407 4.58241 33.7086 2.33889 28.7894 4.49059C23.8701 6.6423 21.6266 12.3744 23.7783 17.2936C25.93 22.2129 31.6622 24.4564 36.5814 22.3047Z" fill="#FFF23D"/>
<path d="M36.7622 22.7183C34.9187 23.5247 32.8775 23.7662 30.8968 23.4125C28.916 23.0588 27.0846 22.1257 25.6342 20.7311C24.1838 19.3365 23.1795 17.5432 22.7483 15.5778C22.3171 13.6125 22.4783 11.5634 23.2117 9.68973C23.945 7.81604 25.2175 6.20189 26.8683 5.0514C28.519 3.90092 30.4738 3.26576 32.4855 3.22626C34.4972 3.18676 36.4755 3.74469 38.1701 4.82949C39.8647 5.91429 41.1996 7.47724 42.0059 9.3207C43.084 11.7931 43.1374 14.5921 42.1544 17.1038C41.1713 19.6155 39.2321 21.6347 36.7622 22.7183ZM28.9702 4.90422C27.2903 5.63899 25.8661 6.85539 24.8776 8.3996C23.8891 9.94381 23.3806 11.7465 23.4166 13.5796C23.4526 15.4128 24.0314 17.1941 25.0798 18.6983C26.1282 20.2025 27.599 21.3621 29.3064 22.0303C31.0138 22.6986 32.881 22.8456 34.6719 22.4526C36.4628 22.0597 38.097 21.1445 39.3678 19.8228C40.6386 18.5011 41.4889 16.8323 41.8112 15.0273C42.1336 13.2224 41.9134 11.3624 41.1786 9.68256C40.1911 7.43186 38.3512 5.66478 36.0624 4.76898C33.7737 3.87318 31.2231 3.92182 28.9702 4.90422Z" fill="#FFF23D"/>
<path d="M34.986 12.1612C35.367 11.8345 35.6328 11.3939 35.7441 10.9045C35.8554 10.415 35.8063 9.90279 35.6041 9.44342C35.455 9.0716 35.1961 8.75413 34.8618 8.53345C34.5275 8.31276 34.1338 8.19936 33.7334 8.20843L33.3268 6.41515L32.0169 6.9881L32.346 8.45391C32.2357 8.50216 32.1193 8.53662 32.0228 8.57883L30.451 9.26636L30.1081 7.80658L28.7983 8.37952L29.1411 9.8393L27.914 10.3761L28.0905 11.7936L29.2211 11.2991L30.5193 17.6466L29.5541 18.0688L29.7306 19.4863L31.1784 18.8531L31.4928 20.2103L32.8027 19.6374L32.4882 18.2801L34.4048 17.4418L34.7192 18.7991L36.0291 18.2261L35.6879 16.7327C36.6393 16.0538 37.1151 15.1886 36.8437 13.7797C36.7697 13.3364 36.544 12.9326 36.2051 12.6373C35.8662 12.3421 35.4353 12.1738 34.986 12.1612ZM35.4012 14.3121C35.5838 15.2178 34.8901 15.7348 33.787 16.2173L31.8981 17.0435L31.3735 14.5298L33.2762 13.6976C34.3655 13.2211 35.1875 13.2229 35.4012 14.3121ZM32.8239 12.4006L31.1004 13.1545L30.606 10.7098L32.3157 9.96192C33.1568 9.59403 33.9797 9.4476 34.2993 10.1784C34.6552 10.9919 34.313 11.7493 32.8239 12.4006Z" fill="white"/>
</g>
<defs>
<clipPath id="clip0_6_3247">
<rect width="77.0881" height="36.8246" fill="white" transform="translate(10.6914 10.85) rotate(16.8779)"/>
</clipPath>
<clipPath id="clip1_6_3247">
<rect width="69.4939" height="44.4188" fill="white" transform="translate(126.951 57.3751) rotate(22.4716)"/>
</clipPath>
<clipPath id="clip2_6_3247">
<rect width="165.066" height="174.523" fill="white" transform="translate(20.2192 20.2754)"/>
</clipPath>
<clipPath id="clip3_6_3247">
<rect width="11.7495" height="11.7495" fill="white" transform="matrix(-0.969282 0.24595 0.24595 0.969282 107.861 15.5721)"/>
</clipPath>
<clipPath id="clip4_6_3247">
<rect width="21.7795" height="2.00601" fill="white" transform="translate(129.582 70.1698) rotate(21.5926)"/>
</clipPath>
<clipPath id="clip5_6_3247">
<rect width="52.5861" height="35.3917" fill="white" transform="translate(104.24 88.6436) rotate(36.7739)"/>
</clipPath>
<clipPath id="clip6_6_3247">
<rect width="25.9348" height="35.3917" fill="white" transform="translate(64.9409 63.7627) rotate(36.7739)"/>
</clipPath>
<clipPath id="clip7_6_3247">
<rect width="38.1142" height="54.4488" fill="white" transform="translate(159.375 13.0601) rotate(-8.17668)"/>
</clipPath>
<clipPath id="clip8_6_3247">
<rect width="19.3437" height="2.29258" fill="white" transform="translate(171.178 17.4971) rotate(-8.17668)"/>
</clipPath>
<clipPath id="clip9_6_3247">
<rect width="8.16732" height="2.29258" fill="white" transform="translate(172.635 11.328) rotate(81.8233)"/>
</clipPath>
<clipPath id="clip10_6_3247">
<rect width="19.3437" height="2.29258" fill="white" transform="translate(170.031 9.61633) rotate(-8.17668)"/>
</clipPath>
<clipPath id="clip11_6_3247">
<rect width="8.16732" height="2.29258" fill="white" transform="translate(187.68 9.03546) rotate(81.8233)"/>
</clipPath>
<clipPath id="clip12_6_3247">
<rect width="11.3196" height="18.6272" fill="white" transform="translate(152.329 20.562)"/>
</clipPath>
<clipPath id="clip13_6_3247">
<rect width="38.1142" height="54.4488" fill="white" transform="translate(169.805 97.6337) rotate(18.2611)"/>
</clipPath>
<clipPath id="clip14_6_3247">
<rect width="19.3437" height="2.29258" fill="white" transform="translate(178.366 106.806) rotate(18.2611)"/>
</clipPath>
<clipPath id="clip15_6_3247">
<rect width="8.16732" height="2.1493" fill="white" transform="translate(182.269 102.02) rotate(108.261)"/>
</clipPath>
<clipPath id="clip16_6_3247">
<rect width="19.3437" height="2.29258" fill="white" transform="translate(180.945 99.355) rotate(18.2611)"/>
</clipPath>
<clipPath id="clip17_6_3247">
<rect width="8.16732" height="2.1493" fill="white" transform="translate(196.74 106.605) rotate(108.261)"/>
</clipPath>
<clipPath id="clip18_6_3247">
<rect width="25.9348" height="25.9348" fill="white" transform="translate(167.621 28.0997) rotate(-6.9444)"/>
</clipPath>
<clipPath id="clip19_6_3247">
<rect width="29.2304" height="36.8246" fill="white" transform="translate(169.995 111.866) rotate(18.7647)"/>
</clipPath>
<clipPath id="clip20_6_3247">
<rect width="35.2484" height="18.6272" fill="white" transform="translate(148.683 94.1437) rotate(22.4716)"/>
</clipPath>
<clipPath id="clip21_6_3247">
<rect width="7.3076" height="13.0391" fill="white" transform="translate(121.952 71.2853)"/>
</clipPath>
<clipPath id="clip22_6_3247">
<rect width="28.3707" height="2.00601" fill="white" transform="translate(71.1011 42.3415) rotate(136.54)"/>
</clipPath>
<clipPath id="clip23_6_3247">
<rect width="7.88075" height="2.72244" fill="white" transform="translate(77.2295 38.1312) rotate(140.364)"/>
</clipPath>
<clipPath id="clip24_6_3247">
<rect width="20.3467" height="20.3467" fill="white" transform="translate(19.2876 8.15387) rotate(-23.6249)"/>
</clipPath>
</defs>
</svg>
