<svg width="237" height="229" viewBox="0 0 237 229" fill="none" xmlns="http://www.w3.org/2000/svg">
<path d="M156.629 87.8635C155.586 87.8635 154.542 87.6337 153.745 87.1734C152.927 86.7003 152.477 86.0593 152.48 85.367L152.495 80.0568C152.495 79.9333 152.596 79.8331 152.719 79.8331C152.719 79.8331 152.719 79.8331 152.72 79.8331C152.843 79.8331 152.944 79.934 152.944 80.0583C152.942 80.5826 153.311 81.0851 153.985 81.473C155.452 82.3198 157.831 82.319 159.286 81.4753C159.946 81.0919 160.31 80.5954 160.312 80.0779C160.312 79.9544 160.413 79.8542 160.536 79.8542C160.536 79.8542 160.536 79.8542 160.537 79.8542C160.661 79.8542 160.761 79.9551 160.761 80.0794L160.746 85.3896C160.744 86.0736 160.3 86.7071 159.497 87.1742C158.708 87.6337 157.669 87.8635 156.629 87.8635ZM152.941 81.1981L152.929 85.3685C152.928 85.8928 153.297 86.3952 153.97 86.7832C155.439 87.6322 157.817 87.6322 159.271 86.787C159.931 86.4035 160.296 85.9063 160.297 85.3888L160.309 81.2192C160.107 81.4572 159.84 81.6742 159.513 81.8633C157.933 82.7823 155.353 82.7793 153.76 81.8625C153.423 81.6666 153.147 81.4429 152.941 81.1981Z" fill="#3B6D5B" fill-opacity="0.62"/>
<path d="M156.643 82.5518C155.601 82.5518 154.558 82.3221 153.761 81.8625C152.946 81.391 152.496 80.7521 152.495 80.0628C152.494 79.3773 152.937 78.7415 153.742 78.2737C155.325 77.3532 157.906 77.3532 159.495 78.27C160.312 78.7415 160.761 79.3811 160.763 80.0719C160.764 80.7582 160.321 81.394 159.515 81.8625C158.723 82.3228 157.684 82.5518 156.643 82.5518ZM156.618 78.0266C155.657 78.0266 154.696 78.2383 153.967 78.6624C153.306 79.0466 152.943 79.5438 152.943 80.0621C152.944 80.5842 153.314 81.0859 153.984 81.4723C155.452 82.319 157.831 82.3183 159.286 81.4746C159.948 81.0889 160.312 80.5917 160.312 80.0719C160.311 79.5491 159.94 79.0474 159.269 78.6594C158.537 78.2376 157.578 78.0266 156.618 78.0266Z" fill="#3B6D5B" fill-opacity="0.62"/>
<path d="M106.93 123.429C106.806 123.429 106.705 123.328 106.705 123.205V90.4391C106.705 90.3156 106.806 90.2146 106.93 90.2146C107.053 90.2146 107.154 90.3156 107.154 90.4391V123.205C107.154 123.328 107.053 123.429 106.93 123.429Z" fill="#3B6D5B" fill-opacity="0.62"/>
<path d="M106.93 90.6628C106.806 90.6628 106.705 90.5619 106.705 90.4383V75.2409C106.705 75.1173 106.806 75.0164 106.93 75.0164C107.053 75.0164 107.154 75.1173 107.154 75.2409V90.4383C107.154 90.5619 107.053 90.6628 106.93 90.6628Z" fill="#3B6D5B" fill-opacity="0.62"/>
<path d="M106.93 62.6619C106.806 62.6619 106.705 62.5609 106.705 62.4374V52.6329C106.705 52.5094 106.806 52.4084 106.93 52.4084C107.053 52.4084 107.154 52.5094 107.154 52.6329V62.4374C107.154 62.5609 107.053 62.6619 106.93 62.6619Z" fill="#3B6D5B" fill-opacity="0.62"/>
<path d="M106.93 49.9481C106.806 49.9481 106.705 49.8472 106.705 49.7236V45.3122C106.705 45.1887 106.806 45.0877 106.93 45.0877C107.053 45.0877 107.154 45.1887 107.154 45.3122V49.7236C107.154 49.8472 107.053 49.9481 106.93 49.9481Z" fill="#3B6D5B" fill-opacity="0.62"/>
<path d="M116.907 73.7425C116.784 73.7425 116.683 73.6416 116.683 73.518V67.3084C116.683 67.1849 116.784 67.0839 116.907 67.0839C117.031 67.0839 117.132 67.1849 117.132 67.3084V73.518C117.132 73.6416 117.031 73.7425 116.907 73.7425Z" fill="#3B6D5B" fill-opacity="0.62"/>
<path d="M126.794 59.5552C126.67 59.5552 126.569 59.4543 126.569 59.3307V32.2391C126.569 32.1155 126.67 32.0146 126.794 32.0146C126.917 32.0146 127.018 32.1155 127.018 32.2391V59.3307C127.019 59.4543 126.918 59.5552 126.794 59.5552Z" fill="#3B6D5B" fill-opacity="0.62"/>
<path d="M136.736 117.666C136.659 117.666 136.587 117.648 136.512 117.644V128.597C136.512 128.72 136.613 128.821 136.736 128.821C136.86 128.821 136.961 128.72 136.961 128.597V117.644C136.885 117.648 136.814 117.666 136.736 117.666Z" fill="#3B6D5B" fill-opacity="0.62"/>
<path d="M126.794 77.8888C125.985 77.8888 125.326 77.2304 125.326 76.4213C125.326 75.6123 125.985 74.9539 126.794 74.9539C127.603 74.9539 128.261 75.6123 128.261 76.4213C128.262 77.2304 127.603 77.8888 126.794 77.8888ZM126.794 75.4028C126.232 75.4028 125.775 75.8593 125.775 76.4213C125.775 76.9833 126.232 77.4398 126.794 77.4398C127.356 77.4398 127.812 76.9833 127.812 76.4213C127.812 75.8593 127.356 75.4028 126.794 75.4028Z" fill="#3B6D5B" fill-opacity="0.62"/>
<path d="M126.794 91.9774C125.985 91.9774 125.326 91.319 125.326 90.5099C125.326 89.7008 125.985 89.0424 126.794 89.0424C127.603 89.0424 128.261 89.7008 128.261 90.5099C128.262 91.319 127.603 91.9774 126.794 91.9774ZM126.794 89.4914C126.232 89.4914 125.775 89.9479 125.775 90.5099C125.775 91.0719 126.232 91.5284 126.794 91.5284C127.356 91.5284 127.812 91.0719 127.812 90.5099C127.812 89.9479 127.356 89.4914 126.794 89.4914Z" fill="#3B6D5B" fill-opacity="0.62"/>
<path d="M126.794 33.2425C127.604 33.2425 128.261 32.5855 128.261 31.775C128.261 30.9646 127.604 30.3076 126.794 30.3076C125.983 30.3076 125.326 30.9646 125.326 31.775C125.326 32.5855 125.983 33.2425 126.794 33.2425Z" fill="#3B6D5B" fill-opacity="0.62"/>
<path d="M126.794 109.61C126.67 109.61 126.569 109.509 126.569 109.385V91.7529C126.569 91.6293 126.67 91.5284 126.794 91.5284C126.917 91.5284 127.018 91.6293 127.018 91.7529V109.385C127.019 109.509 126.918 109.61 126.794 109.61Z" fill="#3B6D5B" fill-opacity="0.62"/>
<path d="M136.736 111.109C135.927 111.109 135.269 110.45 135.269 109.641C135.269 108.832 135.927 108.174 136.736 108.174C137.545 108.174 138.203 108.832 138.203 109.641C138.203 110.45 137.546 111.109 136.736 111.109ZM136.736 108.623C136.174 108.623 135.718 109.079 135.718 109.641C135.718 110.203 136.174 110.66 136.736 110.66C137.298 110.66 137.755 110.203 137.755 109.641C137.755 109.079 137.298 108.623 136.736 108.623Z" fill="#3B6D5B" fill-opacity="0.62"/>
<path d="M146.679 121.631C146.555 121.631 146.454 121.53 146.454 121.407V94.0362C146.454 93.9127 146.555 93.8117 146.679 93.8117C146.802 93.8117 146.903 93.9127 146.903 94.0362V121.407C146.904 121.53 146.803 121.631 146.679 121.631Z" fill="#3B6D5B" fill-opacity="0.62"/>
<path d="M156.62 80.209C156.496 80.209 156.396 80.1081 156.396 79.9845V65.0906C156.396 64.9671 156.496 64.8661 156.62 64.8661C156.744 64.8661 156.844 64.9671 156.844 65.0906V79.9845C156.845 80.1081 156.744 80.209 156.62 80.209Z" fill="#3B6D5B" fill-opacity="0.62"/>
<path d="M116.88 48.1823C115.837 48.1823 114.793 47.9526 113.996 47.4923C113.178 47.0192 112.728 46.3774 112.73 45.6858L112.746 40.3742C112.746 40.2506 112.846 40.1505 112.97 40.1505C112.97 40.1505 112.97 40.1505 112.971 40.1505C113.094 40.1505 113.195 40.2514 113.195 40.3757C113.193 40.9 113.562 41.4025 114.236 41.7904C115.703 42.6394 118.082 42.6394 119.537 41.7942C120.197 41.4108 120.561 40.9143 120.563 40.3968C120.563 40.2732 120.664 40.1731 120.787 40.1731H120.788C120.912 40.1731 121.012 40.274 121.012 40.3983L120.997 45.7084C120.995 46.3925 120.551 47.026 119.748 47.4931C118.96 47.9533 117.921 48.1823 116.88 48.1823ZM113.192 41.5177L113.18 45.6881C113.179 46.2109 113.548 46.7141 114.221 47.1028C115.689 47.9518 118.068 47.9518 119.523 47.1066C120.182 46.7232 120.547 46.226 120.548 45.7084L120.56 41.5388C120.358 41.7769 120.091 41.9938 119.764 42.1829C118.182 43.1012 115.604 43.1012 114.011 42.1814C113.673 41.9855 113.397 41.7618 113.192 41.5177Z" fill="#3B6D5B" fill-opacity="0.62"/>
<path d="M116.895 42.8714C115.853 42.8714 114.809 42.6417 114.012 42.1814C113.197 41.7098 112.747 41.0717 112.746 40.3817C112.745 39.6962 113.188 39.0619 113.994 38.5941C115.577 37.6735 118.156 37.675 119.745 38.5903C120.562 39.0626 121.012 39.7022 121.013 40.3922C121.014 41.0785 120.571 41.7151 119.765 42.1829C118.975 42.6417 117.936 42.8714 116.895 42.8714ZM116.87 38.3455C115.909 38.3455 114.95 38.5579 114.22 38.982C113.559 39.3662 113.194 39.8634 113.195 40.3809C113.196 40.9037 113.566 41.4047 114.236 41.7912C115.704 42.6402 118.083 42.6402 119.538 41.7949C120.2 41.4107 120.564 40.912 120.563 40.393C120.563 39.8702 120.192 39.3677 119.521 38.9798C118.788 38.5572 117.829 38.3455 116.87 38.3455Z" fill="#3B6D5B" fill-opacity="0.62"/>
<path d="M116.872 40.5286C116.748 40.5286 116.647 40.4277 116.647 40.3041V34.3973C116.647 34.2738 116.748 34.1729 116.872 34.1729C116.995 34.1729 117.096 34.2738 117.096 34.3973V40.3041C117.096 40.4277 116.995 40.5286 116.872 40.5286Z" fill="#3B6D5B" fill-opacity="0.62"/>
<path d="M96.9872 75.1376C96.8636 75.1376 96.7627 75.0367 96.7627 74.9131V59.7797C96.7627 59.6561 96.8636 59.5552 96.9872 59.5552C97.1107 59.5552 97.2117 59.6561 97.2117 59.7797V74.9131C97.2117 75.0367 97.1107 75.1376 96.9872 75.1376Z" fill="#3B6D5B" fill-opacity="0.62"/>
<path d="M96.9872 86.2928C96.8636 86.2928 96.7627 86.1918 96.7627 86.0683V79.9235C96.7627 79.7999 96.8636 79.699 96.9872 79.699C97.1107 79.699 97.2117 79.7999 97.2117 79.9235V86.0683C97.2117 86.1918 97.1107 86.2928 96.9872 86.2928Z" fill="#3B6D5B" fill-opacity="0.62"/>
<path d="M166.598 117.394C166.474 117.394 166.373 117.293 166.373 117.17V111.025C166.373 110.901 166.474 110.801 166.598 110.801C166.721 110.801 166.822 110.901 166.822 111.025V117.17C166.822 117.293 166.721 117.394 166.598 117.394Z" fill="#3B6D5B" fill-opacity="0.62"/>
<path d="M126.794 12.0622C126.67 12.0622 126.569 11.9612 126.569 11.8377V9.57471C126.569 9.45116 126.67 9.35022 126.794 9.35022C126.917 9.35022 127.018 9.45116 127.018 9.57471V11.8377C127.019 11.9612 126.918 12.0622 126.794 12.0622Z" fill="#3B6D5B" fill-opacity="0.62"/>
<path d="M126.794 27.0133C126.67 27.0133 126.569 26.9124 126.569 26.7888V14.5579C126.569 14.4344 126.67 14.3334 126.794 14.3334C126.917 14.3334 127.018 14.4344 127.018 14.5579V26.7888C127.019 26.9124 126.918 27.0133 126.794 27.0133Z" fill="#3B6D5B" fill-opacity="0.62"/>
<path d="M136.736 6.34295C136.613 6.34295 136.512 6.24201 136.512 6.11846V0.224488C136.512 0.100943 136.613 0 136.736 0C136.86 0 136.961 0.100943 136.961 0.224488V6.11846C136.961 6.24201 136.861 6.34295 136.736 6.34295Z" fill="#3B6D5B" fill-opacity="0.62"/>
<path d="M116.887 107.824C116.848 107.824 116.809 107.814 116.774 107.794L111.271 104.617C111.202 104.577 111.159 104.502 111.159 104.421L111.18 98.1734C111.18 98.0936 111.223 98.0197 111.293 97.9791C111.363 97.9384 111.447 97.9384 111.517 97.9791L117.019 101.156C117.088 101.196 117.131 101.271 117.131 101.352L117.11 107.6C117.11 107.68 117.067 107.753 116.998 107.793C116.964 107.814 116.925 107.824 116.887 107.824ZM111.61 104.293L116.663 107.21L116.683 101.481L111.629 98.5636L111.61 104.293Z" fill="#3B6D5B" fill-opacity="0.62"/>
<path d="M116.907 101.576C116.868 101.576 116.829 101.566 116.794 101.546L111.293 98.3693C111.224 98.3286 111.181 98.2555 111.181 98.1742C111.181 98.0943 111.223 98.0205 111.292 97.9798L116.759 94.803C116.829 94.7624 116.914 94.7616 116.984 94.8023L122.487 97.979C122.557 98.0197 122.599 98.0928 122.599 98.1742C122.599 98.254 122.557 98.3278 122.488 98.3685L117.02 101.545C116.985 101.566 116.945 101.576 116.907 101.576ZM111.853 98.1742L116.907 101.092L121.926 98.1757L116.872 95.2581L111.853 98.1742Z" fill="#3B6D5B" fill-opacity="0.62"/>
<path d="M116.887 107.824C116.848 107.824 116.809 107.814 116.774 107.794C116.705 107.753 116.662 107.679 116.662 107.598L116.682 101.35C116.682 101.27 116.725 101.196 116.794 101.157L122.262 97.9805C122.332 97.9399 122.417 97.9391 122.487 97.9798C122.557 98.0205 122.599 98.095 122.599 98.1756L122.578 104.424C122.578 104.504 122.535 104.577 122.466 104.617L117 107.793C116.965 107.814 116.925 107.824 116.887 107.824ZM117.131 101.481L117.112 107.208L122.128 104.293L122.148 98.5659L117.131 101.481Z" fill="#3B6D5B" fill-opacity="0.62"/>
<path d="M116.872 98.3994C116.748 98.3994 116.647 98.2985 116.647 98.1749V94.9982C116.647 94.8746 116.748 94.7737 116.872 94.7737C116.995 94.7737 117.096 94.8746 117.096 94.9982V98.1749C117.096 98.2985 116.995 98.3994 116.872 98.3994Z" fill="#3B6D5B" fill-opacity="0.62"/>
<path d="M156.635 40.7547C156.596 40.7547 156.557 40.7449 156.523 40.7245L152.206 38.2325C152.137 38.1919 152.094 38.1173 152.094 38.0367L152.11 33.1356C152.11 33.0557 152.153 32.9819 152.222 32.9412C152.292 32.9005 152.376 32.9005 152.446 32.9412L156.763 35.4332C156.832 35.4739 156.875 35.5485 156.875 35.6291L156.859 40.5302C156.859 40.61 156.816 40.6838 156.747 40.7245C156.712 40.7449 156.673 40.7547 156.635 40.7547ZM152.543 37.9086L156.411 40.1414L156.426 35.7586L152.558 33.5258L152.543 37.9086Z" fill="#3B6D5B" fill-opacity="0.62"/>
<path d="M156.65 35.8535C156.612 35.8535 156.573 35.8437 156.538 35.8234L152.222 33.3314C152.152 33.2907 152.109 33.2177 152.109 33.1363C152.109 33.0565 152.152 32.9826 152.221 32.942L156.51 30.4492C156.58 30.4085 156.665 30.4078 156.735 30.4485L161.051 32.9412C161.121 32.9819 161.164 33.055 161.164 33.1363C161.164 33.2162 161.121 33.29 161.052 33.3307L156.763 35.8227C156.729 35.843 156.689 35.8535 156.65 35.8535ZM152.782 33.1363L156.65 35.3692L160.491 33.1378L156.623 30.9042L152.782 33.1363Z" fill="#3B6D5B" fill-opacity="0.62"/>
<path d="M156.635 40.7546C156.596 40.7546 156.557 40.7448 156.522 40.7245C156.453 40.6838 156.41 40.6092 156.41 40.5286L156.426 35.6275C156.426 35.5477 156.469 35.4738 156.537 35.4347L160.826 32.9427C160.896 32.902 160.981 32.9013 161.051 32.9419C161.121 32.9826 161.164 33.0572 161.164 33.1378L161.148 38.0389C161.148 38.1188 161.105 38.1926 161.036 38.2318L156.748 40.7237C156.713 40.7441 156.673 40.7546 156.635 40.7546ZM156.875 35.7586L156.86 40.1384L160.698 37.9078L160.713 33.528L156.875 35.7586Z" fill="#3B6D5B" fill-opacity="0.62"/>
<path d="M156.623 33.3616C156.499 33.3616 156.398 33.2606 156.398 33.1371V30.6443C156.398 30.5208 156.499 30.4199 156.623 30.4199C156.746 30.4199 156.847 30.5208 156.847 30.6443V33.1371C156.847 33.2606 156.746 33.3616 156.623 33.3616Z" fill="#3B6D5B" fill-opacity="0.62"/>
<path d="M116.885 118.839C116.847 118.839 116.807 118.829 116.773 118.809L113.617 116.988C113.548 116.947 113.505 116.872 113.505 116.792L113.516 113.209C113.516 113.129 113.559 113.055 113.628 113.015C113.698 112.974 113.783 112.974 113.853 113.015L117.009 114.837C117.078 114.878 117.121 114.952 117.121 115.033L117.11 118.615C117.11 118.695 117.067 118.768 116.997 118.809C116.962 118.829 116.923 118.839 116.885 118.839ZM113.954 116.663L116.661 118.225L116.671 115.162L113.964 113.599L113.954 116.663Z" fill="#3B6D5B" fill-opacity="0.62"/>
<path d="M116.897 115.257C116.858 115.257 116.819 115.247 116.785 115.227L113.629 113.405C113.56 113.364 113.517 113.291 113.517 113.21C113.517 113.13 113.559 113.056 113.628 113.015L116.763 111.193C116.833 111.152 116.918 111.152 116.988 111.192L120.144 113.015C120.213 113.055 120.256 113.128 120.256 113.21C120.256 113.29 120.214 113.363 120.144 113.404L117.01 115.226C116.974 115.247 116.935 115.257 116.897 115.257ZM114.189 113.209L116.896 114.772L119.582 113.21L116.875 111.647L114.189 113.209Z" fill="#3B6D5B" fill-opacity="0.62"/>
<path d="M116.885 118.839C116.846 118.839 116.807 118.829 116.772 118.809C116.703 118.768 116.66 118.694 116.66 118.613L116.671 115.031C116.671 114.951 116.714 114.878 116.783 114.838L119.918 113.016C119.988 112.975 120.073 112.975 120.143 113.015C120.212 113.056 120.255 113.131 120.255 113.211L120.244 116.794C120.244 116.874 120.201 116.948 120.132 116.987L116.998 118.808C116.962 118.829 116.923 118.839 116.885 118.839ZM117.12 115.162L117.11 118.223L119.794 116.663L119.805 113.601L117.12 115.162Z" fill="#3B6D5B" fill-opacity="0.62"/>
<path d="M116.875 113.435C116.751 113.435 116.65 113.334 116.65 113.21V111.388C116.65 111.265 116.751 111.164 116.875 111.164C116.998 111.164 117.099 111.265 117.099 111.388V113.21C117.099 113.334 116.998 113.435 116.875 113.435Z" fill="#3B6D5B" fill-opacity="0.62"/>
<path d="M116.885 91.435C116.847 91.435 116.807 91.4252 116.773 91.4048L113.617 89.5826C113.548 89.5419 113.505 89.4673 113.505 89.3867L113.516 85.8039C113.516 85.7241 113.559 85.6502 113.628 85.6095C113.698 85.5689 113.783 85.5689 113.853 85.6095L117.009 87.4318C117.078 87.4725 117.121 87.5471 117.121 87.6277L117.11 91.2105C117.11 91.2903 117.067 91.3642 116.997 91.4048C116.962 91.4252 116.923 91.435 116.885 91.435ZM113.954 89.2579L116.661 90.821L116.671 87.7565L113.964 86.1934L113.954 89.2579Z" fill="#3B6D5B" fill-opacity="0.62"/>
<path d="M117.097 87.5102L116.897 87.627L116.648 87.4838V95.1285L116.873 94.9982L117.097 95.1278V87.5102Z" fill="#3B6D5B" fill-opacity="0.62"/>
<path d="M116.876 111.388L117.097 111.516V101.242L116.908 101.352L116.648 101.202V111.521L116.876 111.388Z" fill="#3B6D5B" fill-opacity="0.62"/>
<path d="M116.876 83.9831L117.097 84.1112V77.2492C117.097 77.1257 116.996 77.0247 116.873 77.0247C116.749 77.0247 116.648 77.1257 116.648 77.2492V84.1157L116.876 83.9831Z" fill="#3B6D5B" fill-opacity="0.62"/>
<path d="M116.897 115.032L116.648 114.889V128.598C116.648 128.721 116.749 128.822 116.873 128.822C116.996 128.822 117.097 128.721 117.097 128.598V114.916L116.897 115.032Z" fill="#3B6D5B" fill-opacity="0.62"/>
<path d="M116.897 87.8514C116.858 87.8514 116.819 87.8416 116.785 87.8213L113.629 85.999C113.56 85.9583 113.517 85.8853 113.517 85.8039C113.517 85.7241 113.559 85.6502 113.628 85.6096L116.763 83.788C116.833 83.7474 116.918 83.7466 116.988 83.7873L120.144 85.6088C120.213 85.6495 120.256 85.7226 120.256 85.8039C120.256 85.8838 120.214 85.9576 120.144 85.9983L117.01 87.8206C116.974 87.8409 116.935 87.8514 116.897 87.8514ZM114.189 85.8039L116.896 87.3671L119.582 85.8054L116.875 84.243L114.189 85.8039Z" fill="#3B6D5B" fill-opacity="0.62"/>
<path d="M116.885 91.435C116.846 91.435 116.807 91.4252 116.772 91.4049C116.703 91.3642 116.66 91.2896 116.66 91.209L116.671 87.6262C116.671 87.5464 116.714 87.4725 116.783 87.4334L119.918 85.6111C119.988 85.5704 120.073 85.5697 120.143 85.6103C120.212 85.651 120.255 85.7256 120.255 85.8062L120.244 89.389C120.244 89.4688 120.201 89.5427 120.132 89.5818L116.998 91.4041C116.962 91.4245 116.923 91.435 116.885 91.435ZM117.12 87.7573L117.11 90.8188L119.794 89.2579L119.805 86.1964L117.12 87.7573Z" fill="#3B6D5B" fill-opacity="0.62"/>
<path d="M116.875 86.0292C116.751 86.0292 116.65 85.9282 116.65 85.8047V83.9832C116.65 83.8596 116.751 83.7587 116.875 83.7587C116.998 83.7587 117.099 83.8596 117.099 83.9832V85.8047C117.099 85.9282 116.998 86.0292 116.875 86.0292Z" fill="#3B6D5B" fill-opacity="0.62"/>
<path d="M149.818 91.0545C149.798 91.0545 149.784 91.0711 149.765 91.0764C149.793 91.1427 149.817 91.2097 149.817 91.279C149.817 91.96 148.412 92.5114 146.678 92.5114C144.945 92.5114 143.539 91.96 143.539 91.279C143.539 91.2097 143.563 91.1427 143.591 91.0756C143.572 91.0711 143.559 91.0538 143.539 91.0538C143.415 91.0538 143.314 91.1547 143.314 91.2783C143.314 92.922 144.823 94.2599 146.678 94.2599C148.533 94.2599 150.042 92.922 150.042 91.2783C150.042 91.1555 149.941 91.0545 149.818 91.0545Z" fill="#3B6D5B" fill-opacity="0.62"/>
<path d="M146.679 92.7367C145.048 92.7367 143.315 92.226 143.315 91.2798C143.315 90.3336 145.048 89.8229 146.679 89.8229C148.31 89.8229 150.043 90.3336 150.043 91.2798C150.043 92.226 148.31 92.7367 146.679 92.7367ZM146.679 90.2719C145.011 90.2719 143.765 90.8037 143.765 91.2798C143.765 91.7559 145.012 92.2877 146.679 92.2877C148.346 92.2877 149.593 91.7559 149.593 91.2798C149.593 90.8037 148.347 90.2719 146.679 90.2719Z" fill="#3B6D5B" fill-opacity="0.62"/>
<path d="M147.876 86.6401L146.865 85.1523C146.823 85.0905 146.753 85.0536 146.679 85.0536C146.604 85.0536 146.535 85.0905 146.493 85.1523L145.481 86.6401C145.09 87.2149 145.163 87.9885 145.655 88.4789C145.928 88.7531 146.292 88.9038 146.68 88.9038C147.066 88.9038 147.43 88.7531 147.703 88.4789C148.194 87.9885 148.266 87.2156 147.876 86.6401Z" fill="#3B6D5B" fill-opacity="0.62"/>
<path d="M146.454 73.5361V88.0134C146.454 88.1369 146.555 88.2379 146.679 88.2379C146.802 88.2379 146.903 88.1369 146.903 88.0134V73.5142C146.751 73.521 146.607 73.5391 146.454 73.5361Z" fill="#3B6D5B" fill-opacity="0.62"/>
<path d="M149.776 62.8238C148.902 62.3154 147.75 62.0607 146.597 62.0607C145.443 62.0607 144.286 62.3161 143.403 62.8254C142.502 63.3466 142.008 64.051 142.009 64.8111L141.995 71.0185C141.994 71.7786 142.489 72.4844 143.39 73.0057C144.272 73.515 145.429 73.7703 146.584 73.7703C147.737 73.7703 148.889 73.5157 149.763 73.0072C150.648 72.4927 151.137 71.7951 151.139 71.0433L151.152 64.7862C151.15 64.0359 150.661 63.3384 149.776 62.8238ZM150.689 71.0426C150.688 71.6279 150.279 72.1884 149.536 72.62C147.909 73.5647 145.252 73.5624 143.614 72.6162C142.858 72.1801 142.442 71.6128 142.444 71.0207L142.458 64.8111C142.456 64.219 142.872 63.6517 143.628 63.2156C145.266 62.2694 147.923 62.2679 149.549 63.2118C150.292 63.6435 150.701 64.2039 150.703 64.7893L150.689 71.0426Z" fill="#3B6D5B" fill-opacity="0.62"/>
<path d="M148.772 64.518C147.555 63.8152 145.587 63.8174 144.378 64.5203C144.074 64.6973 143.848 64.9014 143.697 65.1192C143.85 65.3421 144.08 65.5523 144.393 65.7331C145.613 66.4375 147.577 66.4375 148.786 65.7354C149.091 65.5583 149.318 65.3527 149.468 65.1342C149.316 64.9097 149.086 64.6988 148.772 64.518Z" fill="#3B6D5B" fill-opacity="0.62"/>
<path d="M146.596 66.482C145.714 66.482 144.83 66.2869 144.156 65.8974C143.807 65.6963 143.535 65.4552 143.348 65.181C143.278 65.0785 143.304 64.9384 143.406 64.8684C143.51 64.7983 143.649 64.8247 143.718 64.9264C143.868 65.1448 144.091 65.3407 144.381 65.5072C145.603 66.213 147.585 66.2145 148.799 65.5109C149.085 65.3445 149.304 65.1516 149.448 64.9414C149.518 64.8405 149.661 64.8149 149.761 64.8834C149.863 64.9535 149.889 65.0928 149.819 65.196C149.637 65.462 149.369 65.6978 149.026 65.8989C148.357 66.2869 147.478 66.482 146.596 66.482Z" fill="#3B6D5B" fill-opacity="0.62"/>
<path d="M150.978 70.9718C150.897 70.9718 150.819 70.9281 150.778 70.8513C150.721 70.7413 150.763 70.6057 150.873 70.5477L151.4 70.2712C152.275 69.8139 152.817 68.9167 152.817 67.9299V65.7287C152.817 65.4808 152.616 65.2805 152.369 65.2805H150.978C150.855 65.2805 150.754 65.1795 150.754 65.056C150.754 64.9324 150.855 64.8315 150.978 64.8315H152.369C152.864 64.8315 153.267 65.2345 153.267 65.7294V67.9306C153.267 69.0847 152.631 70.1349 151.609 70.6705L151.083 70.9469C151.049 70.9635 151.013 70.9718 150.978 70.9718Z" fill="#3B6D5B" fill-opacity="0.62"/>
<path d="M152.969 54.7822H144.33C143.733 54.7822 143.246 54.2956 143.246 53.6989C143.246 53.1015 143.733 52.6149 144.33 52.6149H148.207C149.009 52.6149 149.661 51.9625 149.661 51.161C149.661 50.3595 149.009 49.7071 148.207 49.7071C147.489 49.7071 146.903 49.1218 146.903 48.4016V35.5078L146.904 15.4092C146.904 15.2856 146.803 15.1847 146.68 15.1847C146.556 15.1847 146.455 15.2856 146.455 15.4092L146.454 35.5078V48.4031C146.454 49.3703 147.241 50.1576 148.208 50.1576C148.762 50.1576 149.212 50.6081 149.212 51.1617C149.212 51.7154 148.762 52.1659 148.208 52.1659H141.84C140.995 52.1659 140.307 52.8545 140.307 53.6997C140.307 54.5449 140.995 55.2319 141.84 55.2319H150.008C150.815 55.2319 151.473 55.8896 151.473 56.6971C151.473 57.5047 150.815 58.1623 150.008 58.1623H145.711C143.995 58.1623 142.599 59.5583 142.599 61.2743C142.599 61.3979 142.7 61.4988 142.823 61.4988C142.947 61.4988 143.048 61.3979 143.048 61.2743C143.048 59.8068 144.243 58.6121 145.71 58.6121H148.543C147.974 59.0189 147.578 59.6517 147.578 60.4027C147.578 60.5263 147.679 60.6272 147.803 60.6272C147.926 60.6272 148.027 60.5263 148.027 60.4027C148.027 59.4151 148.83 58.6121 149.818 58.6121H152.969C154.025 58.6121 154.883 57.7533 154.883 56.6979C154.883 55.641 154.025 54.7822 152.969 54.7822ZM141.84 54.7822C141.242 54.7822 140.756 54.2956 140.756 53.6989C140.756 53.1015 141.242 52.6149 141.84 52.6149H143.248C142.97 52.8929 142.797 53.2763 142.797 53.6989C142.797 54.1215 142.969 54.505 143.247 54.7822H141.84ZM152.969 58.1616H151.194C151.628 57.8105 151.921 57.2968 151.921 56.6964C151.921 56.096 151.628 55.5822 151.194 55.2312H152.969C153.777 55.2312 154.434 55.8888 154.434 56.6964C154.434 57.5039 153.777 58.1616 152.969 58.1616Z" fill="#3B6D5B" fill-opacity="0.62"/>
<path d="M126.795 112.641C126.715 112.641 126.647 112.605 126.57 112.596V128.597C126.57 128.721 126.671 128.821 126.795 128.821C126.918 128.821 127.019 128.721 127.019 128.597V112.596C126.942 112.605 126.874 112.641 126.795 112.641Z" fill="#3B6D5B" fill-opacity="0.62"/>
<path d="M126.794 112.866C125.56 112.866 124.556 111.862 124.556 110.628C124.556 109.394 125.56 108.39 126.794 108.39C128.028 108.39 129.032 109.394 129.032 110.628C129.032 111.862 128.028 112.866 126.794 112.866ZM126.794 108.839C125.807 108.839 125.005 109.641 125.005 110.628C125.005 111.615 125.807 112.417 126.794 112.417C127.781 112.417 128.583 111.615 128.583 110.628C128.583 109.641 127.781 108.839 126.794 108.839Z" fill="#3B6D5B" fill-opacity="0.62"/>
<path d="M126.794 109.919C126.67 109.919 126.569 109.818 126.569 109.695V108.614C126.569 108.491 126.67 108.39 126.794 108.39C126.917 108.39 127.018 108.491 127.018 108.614V109.695C127.019 109.818 126.918 109.919 126.794 109.919Z" fill="#3B6D5B" fill-opacity="0.62"/>
<path d="M136.697 85.6442C135.463 85.6442 134.459 84.64 134.459 83.4061C134.459 82.1721 135.463 81.168 136.697 81.168C137.931 81.168 138.935 82.1721 138.935 83.4061C138.935 84.64 137.931 85.6442 136.697 85.6442ZM136.697 81.6169C135.71 81.6169 134.908 82.4192 134.908 83.4061C134.908 84.3929 135.71 85.1952 136.697 85.1952C137.684 85.1952 138.486 84.3929 138.486 83.4061C138.486 82.4192 137.684 81.6169 136.697 81.6169Z" fill="#3B6D5B" fill-opacity="0.62"/>
<path d="M136.697 82.6972C136.574 82.6972 136.473 82.5963 136.473 82.4727V81.3925C136.473 81.2689 136.574 81.168 136.697 81.168C136.821 81.168 136.922 81.2689 136.922 81.3925V82.4727C136.922 82.5963 136.821 82.6972 136.697 82.6972Z" fill="#3B6D5B" fill-opacity="0.62"/>
<path d="M156.629 104.401C155.395 104.401 154.391 103.397 154.391 102.163C154.391 100.929 155.395 99.9249 156.629 99.9249C157.863 99.9249 158.867 100.929 158.867 102.163C158.867 103.397 157.863 104.401 156.629 104.401ZM156.629 100.374C155.642 100.374 154.84 101.176 154.84 102.163C154.84 103.15 155.642 103.952 156.629 103.952C157.616 103.952 158.418 103.15 158.418 102.163C158.417 101.176 157.616 100.374 156.629 100.374Z" fill="#3B6D5B" fill-opacity="0.62"/>
<path d="M156.629 101.454C156.505 101.454 156.404 101.353 156.404 101.23V100.149C156.404 100.026 156.505 99.9249 156.629 99.9249C156.752 99.9249 156.853 100.026 156.853 100.149V101.23C156.853 101.353 156.752 101.454 156.629 101.454Z" fill="#3B6D5B" fill-opacity="0.62"/>
<path d="M166.599 102.363C166.519 102.363 166.45 102.33 166.374 102.318V107.131C166.374 107.255 166.475 107.356 166.599 107.356C166.722 107.356 166.823 107.255 166.823 107.131V102.318C166.747 102.33 166.678 102.363 166.599 102.363Z" fill="#3B6D5B" fill-opacity="0.62"/>
<path d="M166.598 102.589C165.662 102.589 164.899 101.827 164.899 100.891C164.899 99.955 165.661 99.1926 166.598 99.1926C167.534 99.1926 168.295 99.9542 168.295 100.891C168.295 101.826 167.534 102.589 166.598 102.589ZM166.598 99.6416C165.909 99.6416 165.349 100.201 165.349 100.891C165.349 101.579 165.909 102.139 166.598 102.139C167.287 102.139 167.846 101.579 167.846 100.891C167.846 100.201 167.286 99.6416 166.598 99.6416Z" fill="#3B6D5B" fill-opacity="0.62"/>
<path d="M166.599 100.433C166.475 100.433 166.374 100.332 166.374 100.208V99.4171C166.374 99.2936 166.475 99.1926 166.599 99.1926C166.722 99.1926 166.823 99.2936 166.823 99.4171V100.208C166.823 100.332 166.722 100.433 166.599 100.433Z" fill="#3B6D5B" fill-opacity="0.62"/>
<path d="M136.697 14.7116C136.784 14.7116 136.857 14.7507 136.941 14.7605V9.45038C136.941 9.32684 136.84 9.22589 136.717 9.22589C136.593 9.22589 136.492 9.32684 136.492 9.45038V14.753C136.563 14.7462 136.624 14.7116 136.697 14.7116Z" fill="#3B6D5B" fill-opacity="0.62"/>
<path d="M136.697 19.0718C136.624 19.0718 136.563 19.0371 136.491 19.0304V24.174C136.491 24.2976 136.592 24.3985 136.716 24.3985C136.839 24.3985 136.94 24.2976 136.94 24.174V19.0228C136.857 19.0319 136.783 19.0718 136.697 19.0718Z" fill="#3B6D5B" fill-opacity="0.62"/>
<path d="M136.697 19.2963C135.372 19.2963 134.293 18.2175 134.293 16.8909C134.293 15.5658 135.372 14.4871 136.697 14.4871C138.023 14.4871 139.102 15.5658 139.102 16.8909C139.102 18.2175 138.023 19.2963 136.697 19.2963ZM136.697 14.9368C135.619 14.9368 134.742 15.8137 134.742 16.8917C134.742 17.9704 135.619 18.8473 136.697 18.8473C137.776 18.8473 138.652 17.9704 138.652 16.8917C138.652 15.8137 137.776 14.9368 136.697 14.9368Z" fill="#3B6D5B" fill-opacity="0.62"/>
<path d="M136.697 16.1067C136.574 16.1067 136.473 16.0058 136.473 15.8822V14.7123C136.473 14.5888 136.574 14.4879 136.697 14.4879C136.821 14.4879 136.922 14.5888 136.922 14.7123V15.8822C136.922 16.0058 136.821 16.1067 136.697 16.1067Z" fill="#3B6D5B" fill-opacity="0.62"/>
<path d="M156.629 111.118C155.395 111.118 154.391 110.114 154.391 108.88C154.391 107.646 155.395 106.642 156.629 106.642C157.863 106.642 158.867 107.646 158.867 108.88C158.867 110.114 157.863 111.118 156.629 111.118ZM156.629 107.091C155.642 107.091 154.84 107.894 154.84 108.88C154.84 109.867 155.642 110.67 156.629 110.67C157.616 110.67 158.418 109.867 158.418 108.88C158.417 107.894 157.616 107.091 156.629 107.091Z" fill="#3B6D5B" fill-opacity="0.62"/>
<path d="M156.629 108.172C156.505 108.172 156.404 108.071 156.404 107.947V106.867C156.404 106.743 156.505 106.642 156.629 106.642C156.752 106.642 156.853 106.743 156.853 106.867V107.947C156.853 108.071 156.752 108.172 156.629 108.172Z" fill="#3B6D5B" fill-opacity="0.62"/>
<path d="M156.845 113.628V110.85C156.771 110.859 156.705 110.894 156.628 110.894C156.545 110.894 156.475 110.856 156.396 110.847V113.632C156.475 113.622 156.545 113.586 156.628 113.586C156.705 113.585 156.77 113.62 156.845 113.628Z" fill="#3B6D5B" fill-opacity="0.62"/>
<path d="M156.845 106.91V104.132C156.771 104.14 156.705 104.176 156.628 104.176C156.545 104.176 156.475 104.138 156.396 104.129V106.914C156.475 106.904 156.545 106.867 156.628 106.867C156.705 106.867 156.77 106.902 156.845 106.91Z" fill="#3B6D5B" fill-opacity="0.62"/>
<path d="M156.628 117.612C156.545 117.612 156.475 117.574 156.396 117.565V128.598C156.396 128.721 156.496 128.822 156.62 128.822C156.744 128.822 156.844 128.721 156.844 128.598V117.568C156.77 117.577 156.705 117.612 156.628 117.612Z" fill="#3B6D5B" fill-opacity="0.62"/>
<path d="M156.629 100.149C156.705 100.149 156.771 100.184 156.845 100.192V87.639C156.845 87.5154 156.745 87.4145 156.621 87.4145C156.497 87.4145 156.396 87.5154 156.396 87.639V100.195C156.476 100.186 156.546 100.149 156.629 100.149Z" fill="#3B6D5B" fill-opacity="0.62"/>
<path d="M156.629 117.837C155.395 117.837 154.391 116.832 154.391 115.598C154.391 114.365 155.395 113.36 156.629 113.36C157.863 113.36 158.867 114.365 158.867 115.598C158.867 116.832 157.863 117.837 156.629 117.837ZM156.629 113.809C155.642 113.809 154.84 114.612 154.84 115.598C154.84 116.585 155.642 117.388 156.629 117.388C157.616 117.388 158.418 116.585 158.418 115.598C158.417 114.612 157.616 113.809 156.629 113.809Z" fill="#3B6D5B" fill-opacity="0.62"/>
<path d="M156.629 114.89C156.505 114.89 156.404 114.789 156.404 114.666V113.586C156.404 113.462 156.505 113.361 156.629 113.361C156.752 113.361 156.853 113.462 156.853 113.586V114.666C156.853 114.789 156.752 114.89 156.629 114.89Z" fill="#3B6D5B" fill-opacity="0.62"/>
<path d="M140.261 113.916H140.194C140.236 113.989 140.261 114.064 140.261 114.141C140.261 114.302 140.163 114.456 139.991 114.597C139.766 116.2 138.4 117.442 136.736 117.442C135.084 117.442 133.725 116.215 133.487 114.627C133.288 114.479 133.172 114.315 133.172 114.141C133.172 114.064 133.197 113.989 133.239 113.916H133.211C133.087 113.916 132.986 114.017 132.986 114.141C132.986 116.209 134.668 117.891 136.736 117.891C138.805 117.891 140.486 116.209 140.486 114.141C140.486 114.017 140.385 113.916 140.261 113.916Z" fill="#3B6D5B" fill-opacity="0.62"/>
<path d="M136.716 115.558C134.843 115.558 132.947 115.071 132.947 114.141C132.947 112.28 140.486 112.28 140.486 114.141C140.486 115.072 138.589 115.558 136.716 115.558ZM136.716 113.173C134.69 113.173 133.396 113.747 133.396 114.142C133.396 114.535 134.689 115.109 136.716 115.109C138.743 115.109 140.037 114.535 140.037 114.142C140.037 113.746 138.743 113.173 136.716 113.173Z" fill="#3B6D5B" fill-opacity="0.62"/>
<path d="M136.958 102.108L136.953 85.3677C136.865 85.379 136.789 85.4189 136.698 85.4189C136.629 85.4189 136.571 85.3865 136.504 85.3797L136.509 102.1C136.573 102.097 136.633 102.081 136.698 102.081C136.787 102.082 136.871 102.101 136.958 102.108Z" fill="#3B6D5B" fill-opacity="0.62"/>
<path d="M136.697 81.3917C136.787 81.3917 136.864 81.4316 136.951 81.4429L136.945 63.0928C136.945 62.9692 136.844 62.8683 136.721 62.8683C136.597 62.8683 136.496 62.9692 136.496 63.0928L136.502 81.4316C136.569 81.4248 136.628 81.3917 136.697 81.3917Z" fill="#3B6D5B" fill-opacity="0.62"/>
<path d="M136.697 107.023C134.834 107.023 132.947 106.537 132.947 105.606C132.947 103.538 134.629 101.856 136.697 101.856C138.766 101.856 140.447 103.538 140.447 105.606C140.447 106.537 138.561 107.023 136.697 107.023ZM136.697 102.307C134.878 102.307 133.397 103.788 133.397 105.607C133.397 106.001 134.683 106.574 136.697 106.574C138.712 106.574 139.998 106.001 139.998 105.607C139.998 103.787 138.517 102.307 136.697 102.307Z" fill="#3B6D5B" fill-opacity="0.62"/>
<path d="M106.929 69.3295C106.12 69.3295 105.462 68.6711 105.462 67.8621C105.462 67.053 106.12 66.3946 106.929 66.3946C107.738 66.3946 108.397 67.053 108.397 67.8621C108.397 68.6711 107.738 69.3295 106.929 69.3295ZM106.929 66.8436C106.367 66.8436 105.911 67.3001 105.911 67.8621C105.911 68.424 106.367 68.8805 106.929 68.8805C107.491 68.8805 107.948 68.424 107.948 67.8621C107.948 67.3001 107.491 66.8436 106.929 66.8436Z" fill="#3B6D5B" fill-opacity="0.62"/>
<path d="M106.91 73.1323C105.037 73.1323 103.141 72.6456 103.141 71.7153C103.141 69.8546 110.68 69.8546 110.68 71.7153C110.679 72.6464 108.783 73.1323 106.91 73.1323ZM106.91 70.748C104.884 70.748 103.59 71.3213 103.59 71.716C103.59 72.11 104.883 72.6833 106.91 72.6833C108.937 72.6833 110.23 72.11 110.23 71.716C110.229 71.3205 108.937 70.748 106.91 70.748Z" fill="#3B6D5B" fill-opacity="0.62"/>
<path d="M106.93 71.7695C106.806 71.7695 106.705 71.6686 106.705 71.545V69.105C106.705 68.9815 106.806 68.8806 106.93 68.8806C107.053 68.8806 107.154 68.9815 107.154 69.105V71.545C107.154 71.6686 107.053 71.7695 106.93 71.7695Z" fill="#3B6D5B" fill-opacity="0.62"/>
<path d="M129.178 82.7552L128.253 84.0268L126.028 87.0619L126.606 84.0268H124.409L125.305 82.7552L127.416 79.7487L126.837 82.7552H129.178Z" fill="#3B6D5B" fill-opacity="0.62"/>
<path d="M156.622 15.6336C156.499 15.6336 156.398 15.5327 156.398 15.4091C156.398 12.7929 154.268 10.6632 151.652 10.6632C149.034 10.6632 146.905 12.7929 146.905 15.4091C146.905 15.5327 146.804 15.6336 146.681 15.6336C146.557 15.6336 146.456 15.5327 146.456 15.4091C146.456 12.5443 148.788 10.2135 151.652 10.2135C154.517 10.2135 156.848 12.5443 156.848 15.4091C156.847 15.5327 156.746 15.6336 156.622 15.6336Z" fill="#3B6D5B" fill-opacity="0.62"/>
<path d="M156.636 49.2867C156.512 49.2867 156.411 49.1858 156.411 49.0623V40.5302C156.411 40.4066 156.512 40.3057 156.636 40.3057C156.759 40.3057 156.86 40.4066 156.86 40.5302V49.0623C156.861 49.1858 156.76 49.2867 156.636 49.2867Z" fill="#3B6D5B" fill-opacity="0.62"/>
<path d="M116.872 56.7182C116.748 56.7182 116.647 56.6173 116.647 56.4937V47.9616C116.647 47.8381 116.748 47.7371 116.872 47.7371C116.995 47.7371 117.096 47.8381 117.096 47.9616V56.4937C117.096 56.6173 116.995 56.7182 116.872 56.7182Z" fill="#3B6D5B" fill-opacity="0.62"/>
<path d="M156.622 30.8688C156.498 30.8688 156.397 30.7678 156.397 30.6443V24.29C156.397 24.1665 156.498 24.0656 156.622 24.0656C156.745 24.0656 156.846 24.1665 156.846 24.29V30.6443C156.846 30.7678 156.745 30.8688 156.622 30.8688Z" fill="#3B6D5B" fill-opacity="0.62"/>
<path d="M156.622 20.1905C156.498 20.1905 156.397 20.0895 156.397 19.966V15.4084C156.397 15.2848 156.498 15.1839 156.622 15.1839C156.745 15.1839 156.846 15.2848 156.846 15.4084V19.966C156.846 20.0895 156.745 20.1905 156.622 20.1905Z" fill="#3B6D5B" fill-opacity="0.62"/>
<path d="M136.717 48.3413C136.662 48.3413 136.608 48.321 136.564 48.2818C134.419 46.3111 133.189 43.5208 133.189 40.6266C133.189 37.7316 134.419 34.9413 136.564 32.9706C136.65 32.8915 136.782 32.8915 136.868 32.9706C139.013 34.9405 140.244 37.7308 140.244 40.6266C140.244 43.5216 139.013 46.3119 136.868 48.2826C136.825 48.3217 136.771 48.3413 136.717 48.3413ZM136.717 33.4452C134.758 35.3209 133.639 37.9259 133.639 40.6273C133.639 43.3272 134.759 45.9322 136.717 47.8095C138.676 45.933 139.795 43.328 139.795 40.6273C139.795 37.9259 138.675 35.3209 136.717 33.4452Z" fill="#3B6D5B" fill-opacity="0.62"/>
<path d="M136.717 48.3413C136.593 48.3413 136.492 48.2403 136.492 48.1168V33.137C136.492 33.0135 136.593 32.9125 136.717 32.9125C136.84 32.9125 136.941 33.0135 136.941 33.137V48.1168C136.941 48.2403 136.84 48.3413 136.717 48.3413Z" fill="#3B6D5B" fill-opacity="0.62"/>
<path d="M136.729 44.3924C136.671 44.3924 136.614 44.3705 136.57 44.3269L133.281 41.0371C133.193 40.949 133.193 40.8073 133.281 40.7192C133.37 40.6303 133.511 40.6326 133.599 40.7192L136.888 44.009C136.976 44.0971 136.976 44.2387 136.888 44.3269C136.844 44.3705 136.787 44.3924 136.729 44.3924Z" fill="#3B6D5B" fill-opacity="0.62"/>
<path d="M136.73 40.3832C136.672 40.3832 136.614 40.3614 136.571 40.3184L133.786 37.55C133.697 37.4618 133.697 37.3202 133.784 37.2321C133.871 37.1432 134.015 37.1432 134.102 37.2306L136.888 39.999C136.977 40.0872 136.977 40.2288 136.889 40.3169C136.846 40.3614 136.788 40.3832 136.73 40.3832Z" fill="#3B6D5B" fill-opacity="0.62"/>
<path d="M136.729 40.3832C136.671 40.3832 136.614 40.3614 136.57 40.3177C136.482 40.2295 136.482 40.0879 136.57 39.9998L139.338 37.2313C139.427 37.1432 139.568 37.1432 139.656 37.2313C139.744 37.3195 139.744 37.4611 139.656 37.5492L136.888 40.3177C136.844 40.3614 136.787 40.3832 136.729 40.3832Z" fill="#3B6D5B" fill-opacity="0.62"/>
<path d="M136.729 44.3924C136.672 44.3924 136.614 44.3705 136.57 44.3269C136.482 44.2402 136.482 44.0978 136.569 44.009L139.842 40.7192C139.931 40.6326 140.072 40.6303 140.16 40.7192C140.249 40.8058 140.249 40.9482 140.161 41.0371L136.889 44.3269C136.844 44.3705 136.787 44.3924 136.729 44.3924Z" fill="#3B6D5B" fill-opacity="0.62"/>
<path d="M116.872 19.3279C116.239 19.3279 115.725 19.8425 115.725 20.4752C115.725 21.1073 116.239 21.6218 116.872 21.6218C117.504 21.6218 118.018 21.1073 118.018 20.4752C118.018 19.8425 117.504 19.3279 116.872 19.3279Z" fill="#3B6D5B" fill-opacity="0.62"/>
<path d="M116.872 19.5743C116.798 19.5743 116.728 19.5374 116.686 19.4763L115.608 17.8929C115.197 17.2872 115.274 16.4706 115.792 15.9531C116.37 15.3753 117.376 15.3753 117.953 15.9531C118.472 16.4698 118.548 17.2864 118.136 17.8929L117.059 19.4763C117.016 19.5374 116.947 19.5743 116.872 19.5743ZM116.872 15.9546C116.585 15.9546 116.313 16.0668 116.109 16.2702C115.743 16.6363 115.689 17.2119 115.98 17.6397L116.872 18.9505L117.764 17.6397C118.055 17.2111 118.001 16.6356 117.635 16.2702C117.431 16.0668 117.16 15.9546 116.872 15.9546Z" fill="#3B6D5B" fill-opacity="0.62"/>
<path d="M116.647 25.1759V30.3723C116.647 30.4958 116.748 30.5968 116.872 30.5968C116.995 30.5968 117.096 30.4958 117.096 30.3723V25.1759C116.946 25.2023 116.798 25.203 116.647 25.1759Z" fill="#3B6D5B" fill-opacity="0.62"/>
<path d="M116.872 25.4441C116.48 25.4441 116.09 25.2949 115.792 24.9974C115.274 24.4783 115.197 23.6625 115.608 23.0576L116.686 21.4734C116.728 21.4116 116.798 21.3754 116.872 21.3754C116.947 21.3754 117.016 21.4123 117.058 21.4734L118.135 23.0576C118.547 23.6633 118.471 24.4783 117.952 24.9974C117.654 25.2949 117.263 25.4441 116.872 25.4441ZM116.11 24.6795C116.531 25.0991 117.215 25.1006 117.634 24.6795C118.001 24.3134 118.055 23.7378 117.763 23.31L116.872 21.9984L115.98 23.31C115.689 23.7371 115.744 24.3126 116.11 24.6795Z" fill="#3B6D5B" fill-opacity="0.62"/>
<path d="M120.313 22.0014C120.015 22.0014 119.716 21.9156 119.455 21.7378L117.871 20.6605C117.809 20.6183 117.772 20.549 117.772 20.4745C117.772 20.3999 117.809 20.3306 117.871 20.2884L119.455 19.2104C120.063 18.7976 120.878 18.8767 121.395 19.3942C121.99 19.9901 121.99 20.9596 121.395 21.5547C121.099 21.85 120.707 22.0014 120.313 22.0014ZM118.396 20.4752L119.708 21.3664C120.133 21.6579 120.71 21.6014 121.077 21.2376C121.497 20.818 121.497 20.1332 121.077 19.7129C120.71 19.3475 120.133 19.2933 119.708 19.584L118.396 20.4752Z" fill="#3B6D5B" fill-opacity="0.62"/>
<path d="M113.432 22.0015C113.037 22.0015 112.645 21.8493 112.35 21.5547C112.061 21.267 111.902 20.8835 111.902 20.4752C111.902 20.0669 112.061 19.6835 112.35 19.395C112.869 18.8774 113.685 18.8006 114.29 19.2112L115.873 20.2892C115.935 20.3313 115.971 20.4007 115.971 20.4752C115.971 20.5498 115.934 20.6191 115.873 20.6613L114.29 21.7385C114.029 21.9156 113.729 22.0015 113.432 22.0015ZM113.432 19.3965C113.152 19.3965 112.876 19.5042 112.668 19.7121C112.464 19.9155 112.352 20.1867 112.352 20.4752C112.352 20.763 112.464 21.0334 112.668 21.2368C113.032 21.6029 113.608 21.6587 114.037 21.3657L115.348 20.4745L114.037 19.5825C113.853 19.4575 113.641 19.3965 113.432 19.3965Z" fill="#3B6D5B" fill-opacity="0.62"/>
<path d="M166.597 91.1111C167.1 91.1111 167.508 90.7033 167.508 90.2003C167.508 89.6973 167.1 89.2896 166.597 89.2896C166.094 89.2896 165.687 89.6973 165.687 90.2003C165.687 90.7033 166.094 91.1111 166.597 91.1111Z" fill="#3B6D5B" fill-opacity="0.62"/>
<path d="M166.598 89.5879C166.523 89.5879 166.454 89.5509 166.412 89.4892L165.609 88.3095C165.286 87.8364 165.347 87.1983 165.752 86.793C165.978 86.5678 166.278 86.4427 166.598 86.4427C166.598 86.4427 166.598 86.4427 166.598 86.4427C166.917 86.4427 167.217 86.567 167.442 86.793C167.847 87.1976 167.908 87.8356 167.586 88.3095L166.784 89.4892C166.742 89.5509 166.672 89.5879 166.598 89.5879ZM166.598 86.8925C166.398 86.8925 166.211 86.9701 166.07 87.1109C165.817 87.3641 165.78 87.7626 165.981 88.0571L166.598 88.9641L167.214 88.0571C167.416 87.7611 167.378 87.3641 167.124 87.1109C166.984 86.9693 166.797 86.8925 166.598 86.8925Z" fill="#3B6D5B" fill-opacity="0.62"/>
<path d="M166.373 93.6904V99.4631C166.449 99.4511 166.518 99.4179 166.598 99.4179C166.677 99.4179 166.746 99.4511 166.823 99.4631V93.6904C166.673 93.7258 166.522 93.7258 166.373 93.6904Z" fill="#3B6D5B" fill-opacity="0.62"/>
<path d="M166.597 93.9586C166.291 93.9586 165.986 93.8418 165.752 93.6091C165.347 93.203 165.287 92.5642 165.609 92.0911L166.411 90.9122C166.496 90.7894 166.699 90.7894 166.783 90.9122L167.586 92.0911C167.907 92.5649 167.847 93.203 167.442 93.6091C167.209 93.8418 166.902 93.9586 166.597 93.9586ZM166.07 93.2912C166.362 93.5812 166.835 93.5827 167.124 93.2912C167.377 93.038 167.415 92.6395 167.214 92.3442L166.597 91.4387L165.981 92.3442C165.779 92.6388 165.817 93.0373 166.07 93.2912Z" fill="#3B6D5B" fill-opacity="0.62"/>
<path d="M169.16 91.3951C168.926 91.3951 168.692 91.3273 168.489 91.1887L167.309 90.3864C167.247 90.3442 167.211 90.2749 167.211 90.2003C167.211 90.1257 167.248 90.0564 167.309 90.0143L168.489 89.212C168.965 88.8895 169.6 88.9513 170.005 89.3559C170.23 89.5811 170.355 89.8809 170.355 90.1996C170.355 90.519 170.232 90.8203 170.005 91.0455C169.774 91.2768 169.468 91.3951 169.16 91.3951ZM167.835 90.2003L168.742 90.8165C169.038 91.0192 169.435 90.9808 169.688 90.7276C169.829 90.586 169.906 90.3992 169.906 90.2003C169.906 90.0014 169.829 89.8139 169.688 89.6737C169.434 89.4199 169.035 89.3822 168.742 89.5841L167.835 90.2003Z" fill="#3B6D5B" fill-opacity="0.62"/>
<path d="M164.035 91.3951C163.727 91.3951 163.421 91.2768 163.19 91.0455C162.963 90.8203 162.84 90.519 162.84 90.1996C162.84 89.8809 162.964 89.5818 163.19 89.3558C163.596 88.9513 164.232 88.8903 164.707 89.212L165.886 90.0142C165.948 90.0564 165.984 90.1257 165.984 90.2003C165.984 90.2749 165.947 90.3442 165.886 90.3864L164.707 91.1887C164.503 91.3273 164.269 91.3951 164.035 91.3951ZM164.035 89.4553C163.843 89.4553 163.652 89.5299 163.508 89.6737C163.366 89.8139 163.29 90.0014 163.29 90.2003C163.29 90.3999 163.367 90.5868 163.508 90.7276C163.76 90.9807 164.157 91.0192 164.454 90.8165L165.361 90.2003L164.454 89.5841C164.327 89.4975 164.18 89.4553 164.035 89.4553Z" fill="#3B6D5B" fill-opacity="0.62"/>
<path d="M126.794 75.3026C126.67 75.3026 126.569 75.2017 126.569 75.0781V71.7658C126.569 68.8821 127.692 66.1716 129.731 64.1316L133.482 60.3816C135.407 58.4561 136.512 55.7901 136.512 53.0661V47.8298C136.512 47.7062 136.613 47.6053 136.736 47.6053C136.86 47.6053 136.961 47.7062 136.961 47.8298V53.0661C136.961 55.9076 135.808 58.6896 133.799 60.6987L130.048 64.4488C128.094 66.4036 127.018 69.0018 127.018 71.765V75.0774C127.019 75.2017 126.918 75.3026 126.794 75.3026Z" fill="#3B6D5B" fill-opacity="0.62"/>
<path d="M126.794 59.1063C126.67 59.1063 126.569 59.2072 126.569 59.3308C126.569 61.947 124.44 64.0767 121.823 64.0767C119.593 64.0767 117.73 62.5256 117.224 60.4502C117.105 60.472 116.997 60.521 116.872 60.521C116.836 60.521 116.807 60.5029 116.771 60.5007C117.306 62.8021 119.362 64.5256 121.823 64.5256C124.688 64.5256 127.019 62.1949 127.019 59.33C127.019 59.2072 126.918 59.1063 126.794 59.1063Z" fill="#3B6D5B" fill-opacity="0.62"/>
<path d="M116.872 60.7455C115.638 60.7455 114.634 59.7413 114.634 58.5073C114.634 57.2734 115.638 56.2692 116.872 56.2692C118.106 56.2692 119.11 57.2734 119.11 58.5073C119.11 59.7413 118.106 60.7455 116.872 60.7455ZM116.872 56.7182C115.885 56.7182 115.083 57.5205 115.083 58.5073C115.083 59.4942 115.885 60.2965 116.872 60.2965C117.859 60.2965 118.661 59.4942 118.661 58.5073C118.661 57.5205 117.859 56.7182 116.872 56.7182Z" fill="#3B6D5B" fill-opacity="0.62"/>
<path d="M116.872 57.7992C116.748 57.7992 116.647 57.6983 116.647 57.5747V56.4944C116.647 56.3709 116.748 56.27 116.872 56.27C116.995 56.27 117.096 56.3709 117.096 56.4944V57.5747C117.096 57.6983 116.995 57.7992 116.872 57.7992Z" fill="#3B6D5B" fill-opacity="0.62"/>
<path d="M229.592 57.1507C233.683 53.0597 235.537 48.281 233.733 46.477C231.929 44.673 227.151 46.527 223.06 50.618C218.969 54.7089 217.115 59.4877 218.919 61.2917C220.723 63.0956 225.501 61.2416 229.592 57.1507Z" fill="#C36FFF"/>
<path d="M219.525 61.5282C219.321 61.5282 219.116 61.5237 218.91 61.5154C218.793 61.5102 218.701 61.4168 218.696 61.3007C218.525 57.2554 220.058 53.3035 222.903 50.459C225.747 47.6152 229.7 46.089 233.745 46.2517C233.861 46.2569 233.954 46.3496 233.959 46.4664C234.131 50.5132 232.598 54.4644 229.753 57.3097C227.053 60.0096 223.355 61.5282 219.525 61.5282ZM219.138 61.0732C222.977 61.1764 226.728 59.6977 229.436 56.991C232.145 54.2828 233.625 50.5403 233.519 46.6931C229.652 46.6035 225.929 48.0687 223.221 50.7754C220.513 53.482 219.032 57.2253 219.138 61.0732Z" fill="#2D02A7"/>
<path d="M212.713 159.931C212.589 159.931 212.488 159.83 212.488 159.706V71.7711C212.488 68.9552 213.584 66.3088 215.576 64.317L218.761 61.1304C218.849 61.0423 218.991 61.0423 219.079 61.1304C219.167 61.2186 219.167 61.3602 219.079 61.4483L215.894 64.6349C213.987 66.5415 212.938 69.0757 212.938 71.7711V159.705C212.938 159.83 212.837 159.931 212.713 159.931Z" fill="#2D02A7"/>
<path d="M207.318 45.9805C209.122 44.1765 207.268 39.3977 203.177 35.3068C199.086 31.2158 194.308 29.3618 192.504 31.1658C190.7 32.9697 192.554 37.7485 196.645 41.8395C200.736 45.9304 205.514 47.7844 207.318 45.9805Z" fill="#C36FFF"/>
<path d="M206.718 46.2169C202.887 46.2169 199.188 44.6983 196.488 41.9976C193.643 39.1531 192.109 35.2011 192.28 31.1558C192.286 31.0391 192.378 30.9464 192.495 30.9411C196.544 30.7641 200.493 32.3024 203.338 35.1477C206.183 37.9922 207.717 41.9441 207.545 45.991C207.54 46.1077 207.446 46.2004 207.33 46.2056C207.125 46.2139 206.922 46.2169 206.718 46.2169ZM192.723 31.3818C192.617 35.2298 194.099 38.973 196.806 41.6797C199.512 44.3864 203.25 45.8651 207.104 45.7619C207.21 41.9147 205.729 38.1722 203.021 35.4641C200.313 32.7574 196.553 31.2801 192.723 31.3818Z" fill="#2D02A7"/>
<path d="M207.32 159.931C207.197 159.931 207.096 159.83 207.096 159.706V45.9804C207.096 45.8569 207.197 45.7559 207.32 45.7559C207.444 45.7559 207.545 45.8569 207.545 45.9804V159.706C207.545 159.83 207.444 159.931 207.32 159.931Z" fill="#2D02A7"/>
<path d="M213.429 199.87H195.619C191.894 199.87 188.785 197.025 188.456 193.315L185.478 159.707H223.57L220.591 193.315C220.262 197.025 217.154 199.87 213.429 199.87Z" fill="white"/>
<path d="M216.312 45.3943C214.313 45.2979 212.373 46.0648 210.972 47.4667C209.57 48.8687 208.816 50.8145 208.9 52.807C208.905 52.9238 208.999 53.0164 209.115 53.0217C209.216 53.0262 209.317 53.0277 209.417 53.0277C211.303 53.0277 213.125 52.2797 214.454 50.9493C215.856 49.5482 216.611 47.6023 216.527 45.609C216.521 45.493 216.429 45.3996 216.312 45.3943Z" fill="#2D02A7"/>
<path d="M203.619 129.477C202.218 128.075 200.283 127.31 198.279 127.405C198.162 127.41 198.069 127.502 198.064 127.619C197.98 129.612 198.734 131.558 200.136 132.96C201.467 134.289 203.288 135.037 205.172 135.037C205.273 135.037 205.375 135.036 205.477 135.031C205.593 135.026 205.686 134.933 205.691 134.816C205.776 132.824 205.021 130.877 203.619 129.477Z" fill="#2D02A7"/>
<path d="M199.398 73.7576C197.394 73.6642 195.459 74.4288 194.058 75.83C192.656 77.2319 191.902 79.1777 191.986 81.1703C191.991 81.287 192.084 81.3797 192.201 81.385C192.302 81.3895 192.402 81.391 192.503 81.391C194.389 81.391 196.21 80.6429 197.541 79.3126C198.942 77.9107 199.697 75.9648 199.612 73.9723C199.607 73.8563 199.515 73.7629 199.398 73.7576Z" fill="#2D02A7"/>
<path d="M201.928 159.931C201.804 159.931 201.703 159.83 201.703 159.706V114.515C201.703 111.699 202.799 109.053 204.791 107.061L206.963 104.889C207.051 104.8 207.193 104.8 207.281 104.889C207.369 104.977 207.369 105.118 207.281 105.206L205.109 107.379C203.202 109.286 202.153 111.82 202.153 114.515V159.706C202.152 159.83 202.051 159.931 201.928 159.931Z" fill="#2D02A7"/>
<path d="M215.832 96.3361L209.813 102.354V91.2663C210.598 90.1905 211.473 89.169 212.458 88.1844C213.515 87.1268 214.646 86.1783 215.832 85.358V96.3361Z" fill="white"/>
<path d="M231.297 80.8712L221.941 90.2267V82.2385C224.969 81.1808 228.142 80.7431 231.297 80.8712Z" fill="white"/>
<path d="M229.93 90.2267H221.941L231.297 80.8712C231.425 84.0261 230.987 87.1991 229.93 90.2267Z" fill="#C36FFF"/>
<path d="M220.902 102.354C216.197 105.71 210.634 107.26 205.145 107.023L209.814 102.354H220.902Z" fill="white"/>
<path d="M209.814 102.354L205.145 107.023C204.907 101.534 206.458 95.9715 209.814 91.2662V102.354Z" fill="#C36FFF"/>
<path d="M223.983 99.7102C222.999 100.695 221.977 101.57 220.902 102.354H209.813L215.832 96.3361H226.811C225.99 97.5218 225.042 98.6526 223.983 99.7102Z" fill="white"/>
<path d="M226.811 96.3361H215.832L221.941 90.2267H229.93C229.182 92.3608 228.142 94.4212 226.811 96.3361Z" fill="#C36FFF"/>
<path d="M215.832 85.3572V96.3361L221.941 90.2267V82.2385C219.808 82.9865 217.747 84.0261 215.832 85.3572Z" fill="white"/>
<path d="M206.212 107.271C205.854 107.271 205.495 107.263 205.135 107.248C205.018 107.243 204.926 107.149 204.92 107.033C204.619 99.9407 207.308 93.0117 212.296 88.0224C217.285 83.0347 224.22 80.3559 231.307 80.6467C231.424 80.652 231.516 80.7446 231.522 80.8614C231.824 87.9546 229.135 94.8837 224.147 99.8722C219.411 104.608 212.927 107.271 206.212 107.271ZM205.362 106.806C212.239 107.054 218.977 104.405 223.829 99.5535C228.68 94.7021 231.316 87.9818 231.08 81.0874C224.173 80.8501 217.465 83.489 212.614 88.3396C207.763 93.1917 205.127 99.9113 205.362 106.806Z" fill="#2D02A7"/>
<path d="M229.929 90.4519H221.941C221.818 90.4519 221.717 90.351 221.717 90.2274C221.717 90.1039 221.818 90.0029 221.941 90.0029H229.929C230.052 90.0029 230.153 90.1039 230.153 90.2274C230.153 90.351 230.053 90.4519 229.929 90.4519Z" fill="#2D02A7"/>
<path d="M226.81 96.5605H215.832C215.708 96.5605 215.607 96.4596 215.607 96.3361C215.607 96.2125 215.708 96.1116 215.832 96.1116H226.81C226.934 96.1116 227.035 96.2125 227.035 96.3361C227.035 96.4596 226.934 96.5605 226.81 96.5605Z" fill="#2D02A7"/>
<path d="M220.903 102.579H209.814C209.691 102.579 209.59 102.478 209.59 102.354C209.59 102.231 209.691 102.13 209.814 102.13H220.903C221.027 102.13 221.128 102.231 221.128 102.354C221.128 102.478 221.027 102.579 220.903 102.579Z" fill="#2D02A7"/>
<path d="M221.941 90.4519C221.818 90.4519 221.717 90.3509 221.717 90.2274V82.2392C221.717 82.1157 221.818 82.0147 221.941 82.0147C222.065 82.0147 222.166 82.1157 222.166 82.2392V90.2274C222.166 90.3509 222.065 90.4519 221.941 90.4519Z" fill="#2D02A7"/>
<path d="M215.832 96.5605C215.708 96.5605 215.607 96.4596 215.607 96.3361V85.3572C215.607 85.2336 215.708 85.1327 215.832 85.1327C215.955 85.1327 216.056 85.2336 216.056 85.3572V96.3361C216.057 96.4596 215.956 96.5605 215.832 96.5605Z" fill="#2D02A7"/>
<path d="M209.814 102.579C209.691 102.579 209.59 102.478 209.59 102.354V91.2662C209.59 91.1427 209.691 91.0417 209.814 91.0417C209.938 91.0417 210.039 91.1427 210.039 91.2662V102.354C210.039 102.478 209.938 102.579 209.814 102.579Z" fill="#2D02A7"/>
<path d="M205.145 107.247C205.087 107.247 205.03 107.225 204.986 107.182C204.898 107.093 204.898 106.952 204.986 106.864L231.138 80.7122C231.226 80.6241 231.367 80.6241 231.455 80.7122C231.544 80.8004 231.544 80.942 231.455 81.0301L205.304 107.182C205.26 107.225 205.203 107.247 205.145 107.247Z" fill="#2D02A7"/>
<path d="M196.534 159.931C196.411 159.931 196.31 159.83 196.31 159.706V96.6412C196.31 92.1657 194.567 87.9584 191.403 84.7945L188.732 82.1247C188.644 82.0366 188.644 81.895 188.732 81.8068C188.82 81.7187 188.962 81.7187 189.05 81.8068L191.721 84.4766C194.971 87.7249 196.76 92.0452 196.76 96.6412V159.706C196.759 159.83 196.658 159.931 196.534 159.931Z" fill="#2D02A7"/>
<path d="M181.275 74.3482L185.568 78.6407V70.7315C185.008 69.9639 184.384 69.2355 183.681 68.5334C182.926 67.7785 182.12 67.1028 181.274 66.5167V74.3482H181.275Z" fill="white"/>
<path d="M170.243 63.3173L176.916 69.9903V64.2929C174.758 63.5381 172.494 63.2262 170.243 63.3173Z" fill="white"/>
<path d="M171.219 69.9903H176.917L170.244 63.3174C170.153 65.5675 170.465 67.8313 171.219 69.9903Z" fill="white"/>
<path d="M177.658 78.6406C181.014 81.0339 184.982 82.1398 188.897 81.971L185.567 78.6406H177.658Z" fill="white"/>
<path d="M185.567 78.6407L188.898 81.9711C189.067 78.0553 187.961 74.0883 185.567 70.7323V78.6407Z" fill="#C36FFF"/>
<path d="M175.46 76.755C176.162 77.4571 176.891 78.0816 177.658 78.6414H185.568L181.275 74.3489H173.444C174.029 75.1934 174.705 76.0002 175.46 76.755Z" fill="#C36FFF"/>
<path d="M173.443 74.3482H181.274L176.916 69.9902H171.219C171.753 71.5127 172.494 72.9824 173.443 74.3482Z" fill="#C36FFF"/>
<path d="M181.275 66.5175V74.3482L176.917 69.9903V64.2929C178.439 64.8263 179.908 65.5675 181.275 66.5175Z" fill="#C36FFF"/>
<path d="M188.136 82.2114C183.329 82.2114 178.688 80.3055 175.298 76.9155C171.727 73.3448 169.803 68.3849 170.018 63.3076C170.023 63.1908 170.116 63.0981 170.233 63.0929C175.314 62.8902 180.271 64.8021 183.842 68.3729C187.412 71.9436 189.336 76.9035 189.122 81.9809C189.116 82.0976 189.024 82.1903 188.907 82.1955C188.65 82.2061 188.393 82.2114 188.136 82.2114ZM170.46 63.5343C170.31 68.4136 172.183 73.1647 175.616 76.5976C179.049 80.0313 183.778 81.9048 188.681 81.7533C188.831 76.8741 186.958 72.1229 183.525 68.69C180.092 65.2571 175.342 63.4017 170.46 63.5343Z" fill="#2D02A7"/>
<path d="M176.917 70.2148H171.22C171.096 70.2148 170.995 70.1138 170.995 69.9903C170.995 69.8668 171.096 69.7658 171.22 69.7658H176.917C177.04 69.7658 177.141 69.8668 177.141 69.9903C177.141 70.1138 177.04 70.2148 176.917 70.2148Z" fill="#2D02A7"/>
<path d="M181.275 74.5727H173.443C173.32 74.5727 173.219 74.4718 173.219 74.3482C173.219 74.2247 173.32 74.1237 173.443 74.1237H181.275C181.398 74.1237 181.499 74.2247 181.499 74.3482C181.499 74.4718 181.398 74.5727 181.275 74.5727Z" fill="#2D02A7"/>
<path d="M185.567 78.8651H177.659C177.536 78.8651 177.435 78.7642 177.435 78.6406C177.435 78.5171 177.536 78.4161 177.659 78.4161H185.567C185.691 78.4161 185.792 78.5171 185.792 78.6406C185.792 78.7642 185.691 78.8651 185.567 78.8651Z" fill="#2D02A7"/>
<path d="M176.917 70.2148C176.793 70.2148 176.692 70.1138 176.692 69.9903V64.2929C176.692 64.1694 176.793 64.0684 176.917 64.0684C177.04 64.0684 177.141 64.1694 177.141 64.2929V69.9903C177.141 70.1138 177.04 70.2148 176.917 70.2148Z" fill="#2D02A7"/>
<path d="M181.275 74.5727C181.152 74.5727 181.051 74.4718 181.051 74.3482V66.5167C181.051 66.3932 181.152 66.2922 181.275 66.2922C181.399 66.2922 181.5 66.3932 181.5 66.5167V74.3482C181.5 74.4718 181.399 74.5727 181.275 74.5727Z" fill="#2D02A7"/>
<path d="M185.567 78.8651C185.444 78.8651 185.343 78.7642 185.343 78.6407V70.7323C185.343 70.6088 185.444 70.5078 185.567 70.5078C185.691 70.5078 185.792 70.6088 185.792 70.7323V78.6407C185.792 78.7642 185.691 78.8651 185.567 78.8651Z" fill="#2D02A7"/>
<path d="M188.898 82.1958C188.84 82.1958 188.783 82.1739 188.739 82.1302L170.086 63.4773C169.997 63.3891 169.997 63.2475 170.086 63.1594C170.174 63.0712 170.315 63.0712 170.404 63.1594L189.057 81.8123C189.145 81.9005 189.145 82.0421 189.057 82.1302C189.013 82.1739 188.956 82.1958 188.898 82.1958Z" fill="#2D02A7"/>
<path d="M190.324 111.951C191.708 110.568 190.286 106.903 187.149 103.766C184.012 100.629 180.348 99.2079 178.965 100.591C177.581 101.974 179.003 105.639 182.14 108.776C185.277 111.913 188.941 113.334 190.324 111.951Z" fill="#C36FFF"/>
<path d="M189.861 112.185C186.913 112.185 184.064 111.016 181.983 108.935C179.792 106.743 178.61 103.698 178.741 100.581C178.747 100.464 178.839 100.372 178.956 100.366C182.074 100.238 185.118 101.416 187.31 103.608C189.501 105.799 190.683 108.844 190.55 111.961C190.545 112.077 190.453 112.17 190.336 112.175C190.178 112.181 190.019 112.185 189.861 112.185ZM179.184 100.809C179.117 103.727 180.247 106.563 182.302 108.617C184.357 110.672 187.191 111.806 190.109 111.732C190.177 108.815 189.048 105.979 186.993 103.925C184.939 101.871 182.131 100.741 179.184 100.809Z" fill="#2D02A7"/>
<path d="M196.534 122.656C196.41 122.656 196.309 122.555 196.309 122.432C196.309 119.736 195.259 117.202 193.354 115.296L190.168 112.109C190.08 112.021 190.08 111.879 190.168 111.791C190.256 111.703 190.397 111.703 190.486 111.791L193.672 114.978C195.663 116.969 196.759 119.616 196.759 122.432C196.758 122.555 196.658 122.656 196.534 122.656Z" fill="#2D02A7"/>
<path d="M207.333 139.538C207.21 139.538 207.109 139.437 207.109 139.313C207.109 137.672 206.47 136.128 205.308 134.966L203.341 132.999C203.252 132.911 203.252 132.769 203.341 132.681C203.427 132.593 203.57 132.593 203.658 132.681L205.626 134.648C206.871 135.894 207.558 137.551 207.558 139.313C207.558 139.437 207.457 139.538 207.333 139.538Z" fill="#2D02A7"/>
<path d="M221.861 179.028L221.411 184.115L219.883 182.587C219.236 181.94 218.23 181.886 217.528 182.444L215.371 184.169C214.724 184.691 213.807 184.691 213.16 184.169L210.931 182.39C210.248 181.833 209.277 181.796 208.54 182.282L205.645 184.206C204.873 184.727 203.883 184.727 203.111 184.206L200.216 182.282C199.48 181.797 198.509 181.833 197.825 182.39L195.596 184.169C194.949 184.691 194.032 184.691 193.385 184.169L191.228 182.444C190.526 181.886 189.52 181.94 188.873 182.587L187.615 183.846L187.165 178.848C187.219 178.83 187.273 178.794 187.309 178.758L188.873 177.194C189.52 176.547 190.527 176.493 191.228 177.051L193.385 178.776C194.032 179.298 194.949 179.298 195.596 178.776L197.825 176.997C198.509 176.44 199.479 176.403 200.216 176.889L203.111 178.813C203.883 179.334 204.873 179.334 205.645 178.813L208.54 176.889C209.276 176.404 210.248 176.44 210.931 176.997L213.16 178.776C213.807 179.298 214.724 179.298 215.371 178.776L217.528 177.051C218.23 176.493 219.236 176.547 219.883 177.194L221.447 178.758C221.573 178.884 221.717 178.975 221.861 179.028Z" fill="#CEEDFF"/>
<path d="M213.429 200.095H195.619C191.75 200.095 188.574 197.188 188.233 193.334L185.254 159.726C185.248 159.662 185.27 159.6 185.312 159.554C185.355 159.507 185.414 159.481 185.477 159.481H223.571C223.634 159.481 223.693 159.507 223.736 159.554C223.778 159.601 223.8 159.662 223.794 159.726L220.815 193.334C220.474 197.188 217.298 200.095 213.429 200.095ZM185.723 159.931L188.68 193.294C189.001 196.915 191.984 199.646 195.619 199.646H213.429C217.063 199.646 220.046 196.915 220.367 193.294L223.325 159.931H185.723Z" fill="#2D02A7"/>
<path d="M207.32 46.2049C207.262 46.2049 207.205 46.1831 207.161 46.1394L199.824 38.802C199.736 38.7139 199.736 38.5723 199.824 38.4841C199.912 38.396 200.054 38.396 200.142 38.4841L207.479 45.8215C207.567 45.9096 207.567 46.0512 207.479 46.1394C207.435 46.1831 207.377 46.2049 207.32 46.2049Z" fill="#2D02A7"/>
<path d="M218.92 61.5146C218.862 61.5146 218.805 61.4928 218.761 61.4491C218.673 61.3609 218.673 61.2193 218.761 61.1312L226.099 53.7938C226.187 53.7057 226.329 53.7057 226.417 53.7938C226.505 53.882 226.505 54.0236 226.417 54.1117L219.079 61.4491C219.035 61.4928 218.978 61.5146 218.92 61.5146Z" fill="#2D02A7"/>
<path d="M193.433 132.612C192.974 132.01 191.045 129.508 190.329 128.791C189.684 128.144 188.792 127.737 187.787 127.737H101.318C98.7683 127.737 96.5663 129.524 96.0413 132.019L83.4744 191.712C83.2107 192.965 83.7486 194.067 84.4605 194.985C84.9358 195.598 86.8937 198.055 87.5604 198.81C88.1638 199.493 89.0889 199.869 90.0968 199.869H176.565C179.115 199.869 181.317 198.083 181.842 195.587L194.409 135.895C194.672 134.644 194.136 133.536 193.433 132.612Z" fill="white"/>
<path d="M176.564 200.095H90.0954C89.0129 200.095 88.0276 199.68 87.391 198.959C86.7281 198.208 84.7604 195.74 84.2828 195.123C83.3532 193.925 83.0172 192.794 83.2538 191.665L95.8207 131.973C96.3646 129.389 98.6757 127.513 101.318 127.513H187.787C188.808 127.513 189.768 127.911 190.487 128.632C191.297 129.445 193.587 132.446 193.611 132.476C194.532 133.686 194.864 134.82 194.627 135.942L182.06 195.634C181.518 198.219 179.206 200.095 176.564 200.095ZM101.318 127.963C98.8882 127.963 96.7608 129.689 96.2614 132.067L83.6945 191.758C83.4858 192.749 83.7939 193.761 84.6369 194.847C85.113 195.462 87.0708 197.917 87.7277 198.662C88.2792 199.287 89.1417 199.645 90.0947 199.645H176.563C178.993 199.645 181.121 197.919 181.62 195.541L194.187 135.849C194.396 134.862 194.09 133.848 193.253 132.748C193.223 132.707 190.957 129.74 190.169 128.95C189.534 128.312 188.688 127.962 187.787 127.962H101.318V127.963Z" fill="#2D02A7"/>
<path d="M96.0466 132.623C95.758 133.585 95.5373 134.414 95.5373 134.414L83.4744 191.713C83.2107 192.967 83.7486 194.069 84.4605 194.986C84.9358 195.6 86.8937 198.056 87.5604 198.812C87.7216 198.994 87.9084 199.151 88.1111 199.289L101.584 135.29L98.9529 132.049C98.1046 131.005 96.4323 131.335 96.0466 132.623Z" fill="#2D02A7"/>
<path d="M88.1099 199.512C88.0655 199.512 88.021 199.499 87.9833 199.473C87.7543 199.318 87.5547 199.145 87.3912 198.959C86.7283 198.208 84.7606 195.74 84.283 195.123C83.3534 193.925 83.0175 192.794 83.2555 191.665L95.3169 134.367C95.3207 134.355 95.5422 133.523 95.8322 132.558C96.0378 131.872 96.581 131.38 97.2838 131.24C97.9837 131.102 98.6752 131.35 99.1272 131.906L101.759 135.146C101.801 135.199 101.817 135.268 101.805 135.334L88.3306 199.333C88.3148 199.406 88.2636 199.466 88.1943 199.494C88.1672 199.506 88.1385 199.512 88.1099 199.512ZM97.6627 131.653C97.5663 131.653 97.4684 131.662 97.3705 131.682C96.8333 131.788 96.419 132.164 96.2616 132.688C95.9746 133.645 95.7546 134.47 95.7531 134.471L83.6947 191.758C83.486 192.749 83.7941 193.761 84.6371 194.847C85.1132 195.462 87.0711 197.917 87.728 198.662C87.798 198.741 87.8771 198.818 87.963 198.892L101.341 135.346L98.7769 132.189C98.4967 131.843 98.0936 131.653 97.6627 131.653Z" fill="#2D02A7"/>
<path d="M176.564 199.87H90.0956C87.8123 199.87 86.1067 197.769 86.5776 195.534L99.1445 135.842C99.6695 133.346 101.871 131.56 104.421 131.56H190.89C191.895 131.56 192.787 131.967 193.432 132.613C194.253 133.435 194.671 134.645 194.408 135.896L181.841 195.588C181.316 198.083 179.114 199.87 176.564 199.87Z" fill="#C36FFF"/>
<path d="M176.563 200.095H90.0951C88.9387 200.095 87.8577 199.579 87.1292 198.681C86.4008 197.783 86.119 196.62 86.3571 195.487L98.924 135.795C99.4694 133.211 101.781 131.335 104.422 131.335H190.889C191.911 131.335 192.871 131.732 193.591 132.453C194.506 133.372 194.893 134.676 194.627 135.943L182.06 195.635C181.517 198.219 179.205 200.095 176.563 200.095ZM104.422 131.784C101.992 131.784 99.8641 133.51 99.3639 135.888L86.797 195.58C86.5861 196.578 86.8347 197.606 87.4773 198.397C88.1206 199.19 89.0751 199.645 90.0951 199.645H176.563C178.994 199.645 181.121 197.919 181.62 195.542L194.187 135.849C194.422 134.732 194.081 133.581 193.274 132.771C192.638 132.135 191.792 131.784 190.889 131.784H104.422Z" fill="#2D02A7"/>
<path d="M115.384 162.71H127.089L119.266 199.87H107.561L115.384 162.71ZM116.729 183.841C118.842 183.841 120.769 182.129 121.034 180.017C121.3 177.905 119.804 176.193 117.691 176.193C115.579 176.193 113.652 177.906 113.386 180.017C113.12 182.129 114.617 183.841 116.729 183.841Z" fill="#2D02A7"/>
<path d="M119.267 200.095H107.561C107.493 200.095 107.429 200.064 107.386 200.011C107.344 199.958 107.327 199.89 107.34 199.823L115.163 162.664C115.185 162.56 115.277 162.485 115.383 162.485H127.088C127.156 162.485 127.22 162.516 127.263 162.569C127.305 162.621 127.322 162.69 127.309 162.756L119.487 199.916C119.465 200.02 119.373 200.095 119.267 200.095ZM107.838 199.646H119.084L126.811 162.936H115.566L107.838 199.646ZM116.729 184.066C115.649 184.066 114.681 183.645 114.007 182.881C113.326 182.109 113.025 181.081 113.163 179.989C113.442 177.772 115.473 175.968 117.691 175.968C118.771 175.968 119.738 176.389 120.413 177.153C121.094 177.925 121.394 178.953 121.257 180.045C120.978 182.262 118.947 184.066 116.729 184.066ZM117.691 176.417C115.691 176.417 113.86 178.044 113.609 180.045C113.487 181.007 113.749 181.909 114.344 182.584C114.932 183.25 115.779 183.616 116.729 183.616C118.728 183.616 120.559 181.989 120.811 179.988C120.932 179.026 120.671 178.124 120.076 177.45C119.487 176.784 118.641 176.417 117.691 176.417Z" fill="#2D02A7"/>
<path d="M127.09 162.71H115.385L123.208 199.87H134.913L127.09 162.71ZM125.745 183.841C123.633 183.841 121.706 182.129 121.44 180.017C121.174 177.905 122.671 176.193 124.783 176.193C126.896 176.193 128.822 177.906 129.088 180.017C129.354 182.129 127.857 183.841 125.745 183.841Z" fill="white"/>
<path d="M134.913 200.095H123.207C123.101 200.095 123.009 200.02 122.987 199.916L115.164 162.756C115.152 162.689 115.168 162.621 115.21 162.569C115.253 162.516 115.317 162.485 115.385 162.485H127.09C127.196 162.485 127.288 162.56 127.31 162.664L135.133 199.823C135.146 199.89 135.13 199.958 135.087 200.011C135.044 200.064 134.98 200.095 134.913 200.095ZM123.39 199.646H134.635L126.907 162.936H115.662L123.39 199.646ZM125.745 184.065C123.527 184.065 121.495 182.262 121.217 180.045C121.079 178.953 121.379 177.925 122.061 177.153C122.735 176.389 123.703 175.968 124.783 175.968C127.001 175.968 129.032 177.771 129.31 179.989C129.448 181.081 129.149 182.108 128.467 182.88C127.792 183.644 126.826 184.065 125.745 184.065ZM124.783 176.417C123.833 176.417 122.986 176.784 122.398 177.45C121.803 178.124 121.541 179.026 121.663 179.988C121.914 181.988 123.745 183.616 125.745 183.616C126.695 183.616 127.542 183.249 128.13 182.583C128.725 181.909 128.986 181.007 128.864 180.045C128.613 178.045 126.782 176.417 124.783 176.417Z" fill="#2D02A7"/>
<path d="M127.151 163.912H116.022C115.237 163.912 114.601 163.275 114.601 162.49C114.601 161.705 115.237 161.069 116.022 161.069H127.151C127.936 161.069 128.572 161.705 128.572 162.49C128.572 163.275 127.936 163.912 127.151 163.912Z" fill="#32CBE7"/>
<path d="M127.151 164.136H116.022C115.114 164.136 114.375 163.397 114.375 162.49C114.375 161.582 115.114 160.843 116.022 160.843H127.151C128.058 160.843 128.797 161.582 128.797 162.49C128.797 163.397 128.058 164.136 127.151 164.136ZM116.022 161.293C115.362 161.293 114.825 161.83 114.825 162.49C114.825 163.15 115.362 163.687 116.022 163.687H127.151C127.81 163.687 128.348 163.15 128.348 162.49C128.348 161.83 127.81 161.293 127.151 161.293H116.022Z" fill="#2D02A7"/>
<path d="M154.997 162.71H166.702L158.879 199.87H147.174L154.997 162.71ZM156.342 183.841C158.455 183.841 160.382 182.129 160.648 180.017C160.914 177.905 159.417 176.193 157.304 176.193C155.192 176.193 153.265 177.906 152.999 180.017C152.733 182.129 154.23 183.841 156.342 183.841Z" fill="#2D02A7"/>
<path d="M158.88 200.095H147.174C147.106 200.095 147.042 200.064 146.999 200.011C146.957 199.958 146.941 199.89 146.953 199.823L154.777 162.664C154.799 162.56 154.89 162.485 154.997 162.485H166.702C166.77 162.485 166.834 162.516 166.877 162.569C166.919 162.621 166.936 162.69 166.923 162.756L159.1 199.916C159.078 200.02 158.986 200.095 158.88 200.095ZM147.451 199.646H158.697L166.425 162.936H155.18L147.451 199.646ZM156.343 184.066C155.262 184.066 154.294 183.645 153.62 182.88C152.939 182.108 152.639 181.081 152.777 179.989C153.055 177.772 155.086 175.968 157.304 175.968C158.386 175.968 159.353 176.389 160.027 177.154C160.708 177.926 161.008 178.953 160.87 180.045C160.592 182.262 158.561 184.066 156.343 184.066ZM157.304 176.417C155.305 176.417 153.473 178.044 153.223 180.045C153.101 181.007 153.362 181.909 153.957 182.583C154.545 183.25 155.392 183.617 156.343 183.617C158.342 183.617 160.173 181.99 160.424 179.989C160.546 179.027 160.285 178.126 159.69 177.451C159.101 176.784 158.255 176.417 157.304 176.417Z" fill="#2D02A7"/>
<path d="M166.703 162.71H154.998L162.821 199.87H174.526L166.703 162.71ZM165.358 183.841C163.246 183.841 161.319 182.129 161.053 180.017C160.787 177.905 162.284 176.193 164.396 176.193C166.509 176.193 168.436 177.906 168.702 180.017C168.967 182.129 167.47 183.841 165.358 183.841Z" fill="white"/>
<path d="M174.526 200.095H162.821C162.715 200.095 162.623 200.02 162.601 199.916L154.778 162.756C154.765 162.689 154.781 162.621 154.824 162.569C154.867 162.516 154.931 162.485 154.998 162.485H166.704C166.81 162.485 166.902 162.56 166.924 162.664L174.747 199.823C174.759 199.89 174.743 199.958 174.701 200.011C174.658 200.064 174.594 200.095 174.526 200.095ZM163.004 199.646H174.249L166.521 162.936H155.276L163.004 199.646ZM165.358 184.065C163.14 184.065 161.109 182.262 160.831 180.045C160.693 178.953 160.993 177.926 161.674 177.154C162.349 176.389 163.315 175.968 164.396 175.968C166.614 175.968 168.646 177.771 168.924 179.989C169.061 181.081 168.762 182.108 168.08 182.88C167.406 183.644 166.439 184.065 165.358 184.065ZM164.396 176.417C163.445 176.417 162.599 176.784 162.011 177.45C161.416 178.125 161.155 179.026 161.277 179.988C161.527 181.988 163.359 183.616 165.358 183.616C166.309 183.616 167.155 183.249 167.743 182.583C168.338 181.909 168.6 181.007 168.478 180.045C168.226 178.045 166.395 176.417 164.396 176.417Z" fill="#2D02A7"/>
<path d="M166.764 163.912H155.635C154.85 163.912 154.214 163.275 154.214 162.49C154.214 161.705 154.85 161.069 155.635 161.069H166.764C167.549 161.069 168.186 161.705 168.186 162.49C168.186 163.275 167.549 163.912 166.764 163.912Z" fill="#32CBE7"/>
<path d="M166.763 164.136H155.635C154.727 164.136 153.988 163.397 153.988 162.49C153.988 161.582 154.727 160.843 155.635 160.843H166.763C167.671 160.843 168.41 161.582 168.41 162.49C168.41 163.397 167.671 164.136 166.763 164.136ZM155.635 161.293C154.975 161.293 154.438 161.83 154.438 162.49C154.438 163.15 154.975 163.687 155.635 163.687H166.763C167.423 163.687 167.96 163.15 167.96 162.49C167.96 161.83 167.423 161.293 166.763 161.293H155.635Z" fill="#2D02A7"/>
<path d="M63.1539 161.824C64.7107 161.824 65.9728 160.562 65.9728 159.005C65.9728 157.448 64.7107 156.186 63.1539 156.186C61.597 156.186 60.335 157.448 60.335 159.005C60.335 160.562 61.597 161.824 63.1539 161.824Z" fill="white"/>
<path d="M63.1499 162.047C62.5231 162.047 61.8918 161.855 61.3495 161.456C59.998 160.462 59.708 158.553 60.7023 157.201C61.1845 156.546 61.8918 156.117 62.6956 155.995C63.4987 155.875 64.3017 156.07 64.9578 156.553C66.3093 157.547 66.6001 159.457 65.6057 160.809C65.0098 161.618 64.0855 162.047 63.1499 162.047ZM63.1597 156.41C63.0286 156.41 62.896 156.419 62.7634 156.44C62.0787 156.544 61.4753 156.909 61.0639 157.467C60.2157 158.619 60.4635 160.246 61.6161 161.094C62.7672 161.94 64.3951 161.696 65.2441 160.542C66.0908 159.39 65.8438 157.763 64.6912 156.914C64.2414 156.584 63.7096 156.41 63.1597 156.41Z" fill="#2D02A7"/>
<path d="M54.4262 169.425C54.1467 167.59 53.4665 165.995 52.5836 164.789L52.1632 162.026L48.5126 162.581C45.8828 162.981 44.2662 166.694 44.902 170.873C45.5378 175.053 48.1857 178.117 50.8155 177.717L54.4661 177.162L54.0458 174.399C54.5302 172.985 54.7057 171.26 54.4262 169.425Z" fill="#3B6D5B" fill-opacity="0.62"/>
<path d="M50.3579 177.976C47.7793 177.977 45.2948 174.947 44.6809 170.909C44.3667 168.845 44.5784 166.826 45.2768 165.221C45.9909 163.581 47.1277 162.565 48.4791 162.359L52.1297 161.803C52.1877 161.794 52.2487 161.809 52.2977 161.845C52.3452 161.88 52.3775 161.933 52.3866 161.992L52.7994 164.701C53.7418 166.005 54.3814 167.626 54.6496 169.392V169.392C54.9185 171.159 54.7897 172.895 54.2774 174.42L54.6902 177.128C54.6993 177.188 54.6842 177.247 54.6488 177.296C54.6134 177.344 54.5607 177.376 54.5019 177.385L50.8513 177.941C50.6863 177.965 50.5214 177.976 50.3579 177.976ZM51.9745 162.282L48.5469 162.803C47.3544 162.985 46.3382 163.907 45.6888 165.4C45.0236 166.928 44.8233 168.86 45.1246 170.84C45.7408 174.889 48.2833 177.875 50.782 177.495L54.2104 176.973L53.8239 174.434C53.8187 174.397 53.8217 174.36 53.8337 174.327C54.3369 172.857 54.465 171.175 54.2043 169.459V169.459C53.9437 167.744 53.3207 166.175 52.4024 164.921C52.3813 164.893 52.367 164.858 52.3617 164.823L51.9745 162.282Z" fill="#2D02A7"/>
<path d="M54.459 177.161C57.0889 176.76 58.7054 173.048 58.0695 168.868C57.4336 164.688 54.7862 161.624 52.1564 162.025C49.5265 162.425 47.91 166.137 48.5459 170.317C49.1817 174.497 51.8292 177.561 54.459 177.161Z" fill="#C36FFF"/>
<path d="M54.0079 177.42C51.4293 177.42 48.9448 174.391 48.3308 170.353C47.6777 166.056 49.3817 162.221 52.1291 161.803C54.8877 161.377 57.6456 164.541 58.2995 168.835V168.836C58.6129 170.898 58.4012 172.918 57.7029 174.522C56.9895 176.162 55.852 177.178 54.4998 177.383C54.3363 177.409 54.1713 177.42 54.0079 177.42ZM52.63 162.215C52.4862 162.215 52.3415 162.226 52.1976 162.248C49.6944 162.629 48.1591 166.234 48.7753 170.286C49.3923 174.335 51.9423 177.326 54.4327 176.94C55.6268 176.759 56.6415 175.836 57.2916 174.343C57.9568 172.816 58.1571 170.884 57.8558 168.903V168.903C57.2743 165.086 54.9864 162.215 52.63 162.215Z" fill="#2D02A7"/>
<path d="M58.6259 159.952C53.8943 160.673 50.643 165.092 51.3624 169.822C52.0826 174.554 56.5015 177.805 61.2324 177.086C65.964 176.366 69.2153 171.947 68.4959 167.216C68.343 166.21 67.9927 165.289 67.5369 164.44L71.7894 163.793C73.3669 163.553 74.4501 162.08 74.2106 160.503C73.9703 158.926 72.4975 157.842 70.9208 158.082L62.0957 159.425L58.6259 159.952Z" fill="white"/>
<path d="M59.9249 177.41C55.6084 177.41 51.8101 174.252 51.1412 169.857C50.7841 167.509 51.3612 165.163 52.7691 163.25C54.1763 161.338 56.2442 160.088 58.5923 159.731L70.8865 157.86C72.5814 157.601 74.1747 158.771 74.4323 160.47C74.5581 161.292 74.3547 162.113 73.8628 162.783C73.3694 163.452 72.6455 163.89 71.8236 164.016L67.8815 164.615C68.3131 165.48 68.5873 166.322 68.7176 167.183C69.0747 169.53 68.4977 171.876 67.0897 173.789C65.6825 175.701 63.6147 176.951 61.2666 177.308C60.8168 177.377 60.3679 177.41 59.9249 177.41ZM58.6601 160.175C56.4302 160.514 54.4671 161.701 53.1315 163.516C51.7958 165.333 51.2459 167.56 51.5856 169.789C52.2855 174.39 56.6141 177.561 61.1995 176.864C63.4293 176.525 65.3925 175.338 66.7281 173.523C68.0638 171.706 68.6137 169.479 68.2739 167.251C68.1368 166.347 67.8317 165.464 67.3391 164.547C67.3052 164.483 67.3037 164.405 67.3368 164.341C67.3692 164.275 67.4317 164.229 67.5048 164.218L71.7558 163.571C72.4594 163.464 73.0794 163.089 73.5005 162.516C73.9223 161.943 74.0956 161.24 73.9886 160.537C73.7687 159.086 72.4119 158.091 70.9543 158.304L58.6593 160.175H58.6601Z" fill="#2D02A7"/>
<path d="M77.6843 167.645C78.1634 168.171 77.7099 169.006 77.0078 168.891C74.613 168.497 72.3011 167.704 70.1684 166.546L49.4258 155.283L51.2503 151.923L71.993 163.186C74.1264 164.344 76.0504 165.852 77.6843 167.645Z" fill="#C36FFF"/>
<path d="M77.1358 169.126C77.0816 169.126 77.0258 169.121 76.9708 169.113C74.5474 168.714 72.2219 167.917 70.0614 166.744L49.3195 155.481C49.211 155.422 49.1703 155.285 49.2291 155.176L51.0536 151.816C51.0815 151.763 51.1297 151.725 51.1869 151.708C51.2465 151.689 51.306 151.698 51.358 151.725L72.0999 162.989C74.2589 164.161 76.1934 165.677 77.8499 167.495C78.1332 167.805 78.1867 168.246 77.9863 168.616C77.813 168.936 77.4899 169.126 77.1358 169.126ZM49.7308 155.193L70.2753 166.349C72.3921 167.498 74.6694 168.278 77.0439 168.668C77.3256 168.722 77.5064 168.56 77.5916 168.4C77.6782 168.241 77.7038 167.999 77.5185 167.795C75.8958 166.015 74.0005 164.531 71.8859 163.383L51.3414 152.227L49.7308 155.193Z" fill="#2D02A7"/>
<path d="M65.0459 164.819L67.5379 164.44L71.7904 163.793C73.3678 163.553 74.4511 162.08 74.2116 160.503C73.9713 158.926 72.4985 157.842 70.9218 158.082L62.0967 159.425L58.6269 159.953C53.8953 160.673 50.6439 165.092 51.3634 169.823L65.0459 164.819Z" fill="white"/>
<path d="M51.3634 170.048C51.2534 170.048 51.1578 169.968 51.1412 169.857C50.7841 167.509 51.3612 165.163 52.7691 163.25C54.1763 161.338 56.2442 160.088 58.5923 159.731L70.8865 157.86C72.5814 157.601 74.1747 158.771 74.4323 160.47C74.5581 161.292 74.3547 162.113 73.8628 162.783C73.3694 163.452 72.6455 163.89 71.8236 164.016L65.0799 165.042C64.9473 165.054 64.8411 164.976 64.8237 164.854C64.8057 164.731 64.8893 164.616 65.0113 164.598L71.755 163.572C72.4586 163.465 73.0786 163.09 73.4997 162.517C73.9216 161.943 74.0948 161.241 73.9879 160.538C73.7679 159.087 72.4112 158.092 70.9535 158.305L58.6586 160.175C56.4302 160.514 54.4663 161.702 53.1307 163.517C51.7951 165.333 51.2451 167.561 51.5849 169.789C51.603 169.912 51.5193 170.027 51.3973 170.045C51.3853 170.046 51.3747 170.048 51.3634 170.048Z" fill="#2D02A7"/>
<path d="M230.492 200.095H65.8807C65.7572 200.095 65.6562 199.994 65.6562 199.87C65.6562 199.747 65.7572 199.646 65.8807 199.646H230.492C230.616 199.646 230.717 199.747 230.717 199.87C230.718 199.994 230.617 200.095 230.492 200.095Z" fill="#2D02A7"/>
<path d="M48.2211 228.428C39.4856 228.428 30.7343 226.233 23.1454 221.649C10.8241 214.21 2.82006 202.972 0.605297 190.002C-1.5379 177.448 2.05167 164.746 10.7156 154.235C30.7456 129.93 67.473 121.147 98.042 133.346C98.1572 133.393 98.213 133.523 98.1678 133.638C98.1218 133.753 97.9907 133.808 97.8755 133.764C67.4813 121.633 30.9724 130.367 11.0636 154.521C2.48408 164.93 -1.07235 177.503 1.049 189.926C3.24041 202.765 11.1706 213.894 23.3774 221.265C43.2161 233.244 71.0731 228.769 85.4743 211.296C90.9495 204.653 93.2207 196.629 91.867 188.701C90.4681 180.508 85.4065 173.404 77.6149 168.7C77.5087 168.636 77.4748 168.498 77.5388 168.392C77.6029 168.286 77.7445 168.254 77.847 168.316C85.7531 173.089 90.8884 180.303 92.31 188.626C93.6863 196.684 91.3819 204.837 85.8224 211.582C76.7938 222.534 62.5297 228.427 48.2211 228.428Z" fill="#2D02A7"/>
<path d="M16.4315 143.822C16.3682 143.822 16.3057 143.796 16.2612 143.744C16.1806 143.65 16.1912 143.509 16.2846 143.427C24.5108 136.328 34.643 130.886 45.585 127.688C45.704 127.65 45.829 127.721 45.8644 127.841C45.8983 127.96 45.8313 128.085 45.7115 128.121C34.8306 131.3 24.7572 136.71 16.5776 143.768C16.5362 143.805 16.4835 143.822 16.4315 143.822Z" fill="#2D02A7"/>
<path d="M13.6631 156.891C13.6133 156.891 13.5621 156.874 13.5199 156.84C13.4243 156.761 13.4114 156.618 13.489 156.523C26.4198 140.834 47.2423 131.467 69.188 131.467C69.3116 131.467 69.4125 131.568 69.4125 131.692C69.4125 131.815 69.3116 131.916 69.188 131.916C47.3749 131.916 26.6827 141.221 13.8371 156.808C13.7926 156.862 13.7286 156.891 13.6631 156.891Z" fill="#2D02A7"/>
<path d="M48.3261 221.302C44.3418 221.302 40.4208 220.77 36.6722 219.718C36.5532 219.685 36.4824 219.56 36.5163 219.441C36.5494 219.322 36.6722 219.249 36.7935 219.286C40.5029 220.326 44.3832 220.853 48.3261 220.853C55.7486 220.853 62.991 219.008 69.2691 215.518C69.3761 215.456 69.514 215.496 69.5742 215.606C69.6338 215.714 69.5953 215.851 69.4861 215.911C63.1424 219.438 55.8246 221.302 48.3261 221.302Z" fill="#2D02A7"/>
<path d="M48.2748 224.866C39.8685 224.866 31.8215 222.69 25.004 218.574C24.8977 218.51 24.8638 218.372 24.9279 218.265C24.9927 218.159 25.1313 218.128 25.236 218.189C31.9842 222.264 39.9506 224.417 48.2755 224.417C61.8805 224.417 74.7502 218.657 82.7007 209.01C82.7806 208.915 82.9207 208.902 83.0179 208.979C83.1135 209.058 83.1264 209.201 83.0488 209.296C75.0123 219.045 62.0131 224.866 48.2748 224.866Z" fill="#2D02A7"/>
<path d="M65.7334 71.5993C67.7463 71.5993 69.378 69.9676 69.378 67.9547C69.378 65.9419 67.7463 64.3102 65.7334 64.3102C63.7206 64.3102 62.0889 65.9419 62.0889 67.9547C62.0889 69.9676 63.7206 71.5993 65.7334 71.5993Z" fill="#C36FFF"/>
<path d="M65.7333 71.8238C63.5992 71.8238 61.8643 70.0881 61.8643 67.9547C61.8643 65.8206 63.5999 64.0857 65.7333 64.0857C67.8675 64.0857 69.6024 65.8213 69.6024 67.9547C69.6031 70.0889 67.8675 71.8238 65.7333 71.8238ZM65.7333 64.5347C63.8477 64.5347 62.3132 66.0692 62.3132 67.9547C62.3132 69.8403 63.8477 71.3748 65.7333 71.3748C67.6189 71.3748 69.1534 69.8403 69.1534 67.9547C69.1534 66.0692 67.6189 64.5347 65.7333 64.5347Z" fill="#2D02A7"/>
<path d="M65.9999 76.5931C54.7972 77.5505 45.9616 81.1974 46.2644 84.7395L47.5578 88.5663C47.7673 91.0206 56.5894 92.2712 67.2609 91.3589C77.9332 90.4474 86.4148 87.7181 86.2047 85.2645L86.8307 81.2734C86.5286 77.7313 77.2017 75.6363 65.9999 76.5931Z" fill="#C36FFF"/>
<path d="M60.5853 91.8734C53.4868 91.8734 47.525 90.8233 47.3337 88.586L46.05 84.8118C45.7208 81.0377 54.4797 77.3517 65.9791 76.3686C77.477 75.3878 86.7361 77.5325 87.054 81.2531L86.4264 85.2992C86.5711 86.9136 83.4915 88.2643 80.882 89.1035C77.2887 90.2598 72.4584 91.1397 67.2801 91.5819C65.0307 91.7755 62.7541 91.8734 60.5853 91.8734ZM66.0183 76.8168C55.1448 77.7464 46.1999 81.3661 46.4877 84.7207L47.7713 88.4948C47.9559 90.5838 55.816 92.1085 67.2424 91.1352C72.3876 90.6953 77.1832 89.8222 80.7449 88.6764C84.113 87.5923 86.0701 86.3245 85.9812 85.2842L86.6087 81.2381C86.3202 77.9378 76.8939 75.8887 66.0183 76.8168Z" fill="#2D02A7"/>
<path d="M65.9992 76.5931C73.7471 75.931 80.5925 76.731 84.1805 78.4576C81.5846 74.4356 75.769 71.3771 68.0994 70.1093L65.798 69.7289L63.5946 70.4943C56.5781 72.932 51.491 76.6911 49.4141 80.8622C52.911 78.8433 58.9918 77.192 65.9992 76.5931Z" fill="white"/>
<path d="M49.4134 81.0867C49.3569 81.0867 49.3019 81.0656 49.2598 81.0249C49.1867 80.9571 49.1679 80.8501 49.2123 80.7612C51.3201 76.5283 56.5346 72.709 63.5194 70.281L65.7236 69.5157C65.759 69.5044 65.7974 69.4991 65.8343 69.5059L68.1357 69.8871C75.8053 71.1549 81.7226 74.2337 84.369 78.3355C84.4232 78.4207 84.4157 78.5306 84.3486 78.606C84.2831 78.6836 84.1731 78.7039 84.0827 78.6602C80.396 76.8861 73.4692 76.1803 66.0174 76.8161C59.2955 77.3901 53.1303 78.9751 49.5249 81.0565C49.491 81.0769 49.4526 81.0867 49.4134 81.0867ZM65.817 69.9594L63.667 70.7067C57.1613 72.9681 52.2248 76.4364 49.9716 80.3002C53.6953 78.3702 59.5938 76.914 65.9789 76.3686C73.0413 75.7667 79.6457 76.3633 83.5366 77.9295C80.7689 74.2593 75.192 71.5097 68.0619 70.3315L65.817 69.9594Z" fill="#2D02A7"/>
<path d="M66.667 84.1918C59.0253 84.8449 52.5264 86.4299 49.5177 88.1784C47.2577 91.6361 45.9326 95.7605 45.9326 100.2C45.9326 112.358 55.7891 122.214 67.9469 122.214C80.1055 122.214 89.9612 112.358 89.9612 100.2C89.9612 94.345 87.6598 89.0379 83.9323 85.0943C80.5642 83.9681 74.0631 83.5605 66.667 84.1918Z" fill="white"/>
<path d="M71.6884 113.097H70.7912L65.8532 111.862C65.6678 111.764 65.481 111.671 65.301 111.562L66.0407 110.402C66.1078 110.297 66.0769 110.158 65.9722 110.092C65.8675 110.027 65.7289 110.058 65.6618 110.16L64.7932 111.522C64.7932 111.523 64.7925 111.523 64.7917 111.523C64.7917 111.524 64.7917 111.524 64.7917 111.525L63.9232 112.887C63.8561 112.993 63.887 113.131 63.9917 113.198C64.0294 113.221 64.0716 113.233 64.113 113.233C64.1868 113.233 64.2599 113.196 64.3028 113.13L65.0599 111.942C66.7684 112.984 68.7165 113.546 70.7211 113.546H71.6891C71.8127 113.546 71.9136 113.445 71.9136 113.322C71.9136 113.198 71.8127 113.097 71.6884 113.097Z" fill="#2D02A7"/>
<path d="M84.0952 84.9399C84.0696 84.9135 84.0379 84.8931 84.0033 84.8811C80.4838 83.7029 73.8342 83.3549 66.6475 83.9681C59.1769 84.6061 52.5703 86.1452 49.4048 87.984C49.3747 88.0013 49.3498 88.0262 49.3302 88.0548C47.7972 90.4007 46.7396 92.9883 46.1783 95.692C46.3539 95.5172 46.5482 95.3779 46.7403 95.2325C47.3121 92.8008 48.2944 90.4722 49.6768 88.3456C52.7624 86.5768 59.4262 85.0363 66.686 84.4155C73.7755 83.8136 80.3271 84.1451 83.8074 85.2901C87.632 89.3558 89.7368 94.6486 89.7368 100.2C89.7368 112.215 79.9625 121.99 67.9478 121.99C57.0307 121.99 47.9893 113.912 46.4232 103.424C46.3403 103.351 46.2469 103.295 46.1678 103.215C46.0601 103.107 45.981 102.983 45.8838 102.868C47.2081 113.875 56.5892 122.439 67.9478 122.439C80.2103 122.439 90.1865 112.463 90.1865 100.201C90.1858 94.5145 88.023 89.0952 84.0952 84.9399Z" fill="#2D02A7"/>
<path d="M49.9231 104.993C48.5054 104.993 47.0869 104.453 46.0074 103.374C43.8491 101.215 43.8491 97.7019 46.0074 95.5421C48.1656 93.3838 51.6791 93.3816 53.8396 95.5421C53.9278 95.6302 53.9278 95.7719 53.8396 95.86C53.7515 95.9481 53.6099 95.9481 53.5217 95.86C51.5382 93.8757 48.3088 93.8757 46.3253 95.86C44.3425 97.8435 44.3425 101.072 46.3253 103.056C48.311 105.041 51.5398 105.039 53.5217 103.056C53.6099 102.968 53.7515 102.968 53.8396 103.056C53.9278 103.144 53.9278 103.285 53.8396 103.374C52.7601 104.454 51.3416 104.993 49.9231 104.993Z" fill="#2D02A7"/>
<path d="M52.5017 100.543L49.4748 97.5151C49.3867 97.4269 49.2451 97.4269 49.1569 97.5151C49.0688 97.6032 49.0688 97.7448 49.1569 97.833L50.5114 99.1882L49.1569 100.543C49.0688 100.631 49.0688 100.772 49.1569 100.861C49.2006 100.904 49.2579 100.926 49.3159 100.926C49.3739 100.926 49.4311 100.904 49.4748 100.861L50.8293 99.5061L52.1838 100.861C52.2275 100.904 52.2847 100.926 52.3427 100.926C52.4007 100.926 52.458 100.904 52.5017 100.861C52.5898 100.772 52.5898 100.63 52.5017 100.543Z" fill="#2D02A7"/>
<path d="M68.682 104.148C66.0348 104.148 63.8818 101.994 63.8818 99.3464C63.8818 96.6992 66.0348 94.5462 68.682 94.5462C71.3292 94.5462 73.4836 96.6992 73.4836 99.3464C73.4836 101.994 71.3299 104.148 68.682 104.148ZM68.682 94.9959C66.2834 94.9959 64.3308 96.9478 64.3308 99.3471C64.3308 101.747 66.2827 103.699 68.682 103.699C71.0821 103.699 73.0339 101.747 73.0339 99.3471C73.0339 96.9478 71.0821 94.9959 68.682 94.9959Z" fill="#2D02A7"/>
<path d="M70.2978 102.192C70.9185 102.192 71.4217 101.689 71.4217 101.068C71.4217 100.448 70.9185 99.9445 70.2978 99.9445C69.677 99.9445 69.1738 100.448 69.1738 101.068C69.1738 101.689 69.677 102.192 70.2978 102.192Z" fill="#2D02A7"/>
<path d="M82.0077 104.148C79.3605 104.148 77.2061 101.994 77.2061 99.3464C77.2061 96.6992 79.3598 94.5462 82.0077 94.5462C84.6549 94.5462 86.8079 96.6992 86.8079 99.3464C86.8086 101.994 84.6549 104.148 82.0077 104.148ZM82.0077 94.9959C79.6076 94.9959 77.6558 96.9478 77.6558 99.3471C77.6558 101.747 79.6076 103.699 82.0077 103.699C84.4063 103.699 86.3589 101.747 86.3589 99.3471C86.3589 96.9478 84.407 94.9959 82.0077 94.9959Z" fill="#2D02A7"/>
<path d="M78.4645 106.4C78.341 106.4 78.24 106.299 78.24 106.175C78.24 104.92 77.2193 103.899 75.965 103.899C74.71 103.899 73.6892 104.92 73.6892 106.175C73.6892 106.299 73.5883 106.4 73.4647 106.4C73.3412 106.4 73.2402 106.299 73.2402 106.175C73.2402 104.672 74.4629 103.45 75.9657 103.45C77.4686 103.45 78.6905 104.672 78.6905 106.175C78.6897 106.299 78.5888 106.4 78.4645 106.4Z" fill="#2D02A7"/>
<path d="M83.624 102.192C84.2447 102.192 84.7479 101.689 84.7479 101.068C84.7479 100.448 84.2447 99.9445 83.624 99.9445C83.0032 99.9445 82.5 100.448 82.5 101.068C82.5 101.689 83.0032 102.192 83.624 102.192Z" fill="#2D02A7"/>
<path d="M73.0488 98.2736H64.3164C64.2455 98.2736 64.1785 98.2405 64.1363 98.1832C64.0934 98.126 64.0813 98.0521 64.1009 97.9851C64.7126 95.9285 66.5537 94.5469 68.6819 94.5469C70.81 94.5469 72.6518 95.9285 73.2635 97.9851C73.2839 98.0529 73.2711 98.1267 73.2281 98.1832C73.1867 98.2397 73.1197 98.2736 73.0488 98.2736ZM64.6275 97.8239H72.737C72.1027 96.1199 70.5087 94.9959 68.6819 94.9959C66.8551 94.9959 65.2625 96.1199 64.6275 97.8239Z" fill="#2D02A7"/>
<path d="M86.374 98.2736H77.6416C77.5707 98.2736 77.5037 98.2405 77.4615 98.1832C77.4186 98.126 77.4065 98.0521 77.4261 97.9851C78.0378 95.9285 79.8797 94.5469 82.0078 94.5469C84.1367 94.5469 85.977 95.9285 86.5887 97.9851C86.6091 98.0529 86.5963 98.1267 86.5533 98.1832C86.5119 98.2397 86.4449 98.2736 86.374 98.2736ZM77.9527 97.8239H86.0622C85.4279 96.1199 83.8346 94.9959 82.0078 94.9959C80.181 94.9959 78.587 96.1199 77.9527 97.8239Z" fill="#2D02A7"/>
<path d="M110.455 71.4916H110.388C110.43 71.5646 110.455 71.6392 110.455 71.7161C110.455 71.7967 110.43 71.8758 110.384 71.9519C110.338 72.0279 110.271 72.1018 110.184 72.1718C109.651 72.6042 108.387 72.9086 106.91 72.9086C105.418 72.9086 104.155 72.5967 103.635 72.1575C103.595 72.1244 103.564 72.089 103.532 72.0543C103.496 72.0129 103.458 71.9714 103.434 71.9285C103.396 71.8599 103.365 71.7899 103.365 71.7168C103.365 71.64 103.391 71.5654 103.432 71.4923H103.404C103.281 71.4923 103.18 71.5933 103.18 71.7168C103.18 73.7847 104.861 75.4668 106.93 75.4668C108.998 75.4668 110.68 73.7854 110.68 71.7168C110.68 71.5925 110.579 71.4916 110.455 71.4916Z" fill="#3B6D5B" fill-opacity="0.62"/>
</svg>
