<svg width="84" height="84" viewBox="0 0 84 84" fill="none" xmlns="http://www.w3.org/2000/svg">
<path d="M82.2791 8.92669V74.1669C82.2791 78.6471 78.6471 82.279 74.1669 82.279H8.92657C4.44636 82.279 0.814453 78.6471 0.814453 74.1669V8.92669C0.814453 4.44648 4.44636 0.814575 8.92657 0.814575H74.1668C78.647 0.814408 82.2791 4.44648 82.2791 8.92669Z" fill="#F1F0FE"/>
<path d="M41.5468 0.814453H8.92674C4.44652 0.814453 0.814453 4.44636 0.814453 8.92674V19.3134H23.0479C33.2646 19.3134 41.5468 11.0312 41.5468 0.814453Z" fill="#898580"/>
<path d="M56.1293 38.4253C56.1293 43.243 53.7906 47.5212 50.1865 50.171C47.77 51.9601 44.7778 53.0128 41.547 53.0128C38.3162 53.0128 35.3241 51.9602 32.9077 50.171C29.3036 47.5212 26.9648 43.243 26.9648 38.4253C26.9648 30.3719 33.4938 23.843 41.5472 23.843C49.6004 23.843 56.1293 30.3719 56.1293 38.4253Z" fill="#ADABE4"/>
<path d="M47.706 35.7275C47.706 39.1254 44.951 41.8861 41.5473 41.8861C38.1436 41.8861 35.3887 39.1254 35.3887 35.7275C35.3887 32.3237 38.1436 29.563 41.5473 29.563C44.951 29.563 47.706 32.3237 47.706 35.7275Z" fill="#F9D964"/>
<path d="M50.1861 50.171C47.7696 51.96 44.7773 53.0128 41.5466 53.0128C38.3158 53.0128 35.3237 51.9602 32.9072 50.171C34.5096 47.0285 37.7766 44.8763 41.5466 44.8763C45.3166 44.8763 48.5835 47.0285 50.1861 50.171Z" fill="#F9D964"/>
<path d="M65.6312 65.625C65.6312 69.0314 62.8698 71.793 59.4633 71.793H23.6299C20.2235 71.793 17.4619 69.0316 17.4619 65.625C17.4619 62.2186 20.2233 59.457 23.6299 59.457H59.4634C62.8698 59.457 65.6312 62.2184 65.6312 65.625Z" fill="#F68C3D"/>
<path d="M74.1671 0C66.2825 0 16.8637 0 8.9269 0C4.00435 0 0 4.00485 0 8.9269V74.1671C0 79.0891 4.00435 83.094 8.9269 83.094H74.1671C79.0891 83.094 83.094 79.0891 83.094 74.1671V8.9269C83.094 4.00485 79.0891 0 74.1671 0ZM1.6294 8.9269C1.6294 4.90303 4.90303 1.62923 8.92707 1.62923H40.7142C40.287 11.0033 32.5264 18.499 23.0482 18.499H1.6294V8.9269ZM81.4646 74.1671C81.4646 78.191 78.191 81.4648 74.1669 81.4648H8.9269C4.90303 81.4648 1.62923 78.1911 1.62923 74.1671V20.1283H23.048C33.4242 20.1283 41.9123 11.902 42.3411 1.6294H74.1671C78.191 1.6294 81.4648 4.90303 81.4648 8.92707L81.4646 74.1671Z" fill="black"/>
<path d="M21.1808 9.24915H11.0216C10.5718 9.24915 10.207 9.61359 10.207 10.0638C10.207 10.5139 10.5718 10.8784 11.0216 10.8784H21.1808C21.6306 10.8784 21.9954 10.5139 21.9954 10.0638C21.9954 9.61359 21.6306 9.24915 21.1808 9.24915Z" fill="black"/>
<path d="M41.5465 53.8271C44.7741 53.8271 47.948 52.8411 50.6691 50.827C54.5975 47.9375 56.9436 43.3019 56.9436 38.4252C56.9436 29.9351 50.0366 23.0281 41.5465 23.0281C33.0565 23.0281 26.1494 29.9351 26.1494 38.4252C26.1494 46.7473 32.8893 53.8271 41.5465 53.8271ZM33.9827 49.9182C35.593 47.294 38.4298 45.691 41.5465 45.691C44.6625 45.691 47.4993 47.2942 49.1106 49.9185C46.831 51.4288 44.1895 52.1979 41.5465 52.1979C38.9456 52.1979 36.2991 51.4558 33.9827 49.9182ZM41.5465 24.6575C49.1384 24.6575 55.3144 30.8333 55.3144 38.4254C55.3144 42.4796 53.4995 46.3463 50.4192 48.9473C48.5003 45.913 45.1859 44.0619 41.5465 44.0619C37.9058 44.0619 34.5921 45.9128 32.6738 48.9471C29.5938 46.3475 27.7786 42.4802 27.7786 38.4255C27.7786 30.8333 33.9546 24.6575 41.5465 24.6575Z" fill="black"/>
<path d="M41.5473 42.7006C45.3922 42.7006 48.5204 39.5724 48.5204 35.7275C48.5204 31.8794 45.3922 28.748 41.5473 28.748C37.7024 28.748 34.5742 31.8794 34.5742 35.7275C34.5742 39.5725 37.7024 42.7006 41.5473 42.7006ZM41.5473 30.3774C44.494 30.3774 46.891 32.7776 46.891 35.7275C46.891 38.6742 44.494 41.0712 41.5473 41.0712C38.6006 41.0712 36.2036 38.6742 36.2036 35.7275C36.2036 32.7776 38.6006 30.3774 41.5473 30.3774Z" fill="black"/>
<path d="M59.4634 58.6426H23.6301C19.78 58.6426 16.6475 61.7746 16.6475 65.6252C16.6475 69.4756 19.78 72.6078 23.6301 72.6078H59.4634C63.3138 72.6078 66.446 69.4757 66.446 65.6252C66.446 61.7748 63.3138 58.6426 59.4634 58.6426ZM59.4634 70.9785H23.6301C20.6782 70.9785 18.2769 68.5767 18.2769 65.6253C18.2769 62.674 20.6782 60.2721 23.6301 60.2721H59.4634C62.415 60.2721 64.8166 62.674 64.8166 65.6253C64.8166 68.5767 62.4148 70.9785 59.4634 70.9785Z" fill="black"/>
<path d="M44.199 64.8105H24.1086C23.6587 64.8105 23.2939 65.175 23.2939 65.6252C23.2939 66.0755 23.6587 66.4398 24.1086 66.4398H44.199C44.6494 66.4398 45.0137 66.0753 45.0137 65.6252C45.0137 65.175 44.6494 64.8105 44.199 64.8105Z" fill="black"/>
</svg>
