<svg width="335" height="318" viewBox="0 0 335 318" fill="none" xmlns="http://www.w3.org/2000/svg">
<g clip-path="url(#clip0_12_3627)">
<path d="M135.609 60.3512L78.7789 58.2122L74.8794 49.061C73.8838 46.7046 72.8841 43.8073 72.6727 40.0853L72.5193 37.4829C72.4604 36.5176 72.0231 35.6148 71.3024 34.9705C70.5818 34.3262 69.6361 33.9926 68.6708 34.042C67.7062 34.1013 66.8038 34.539 66.1596 35.2599C65.5154 35.9809 65.1815 36.9269 65.2303 37.8925L65.4159 41.1489C65.5959 44.2164 64.7799 45.3432 61.5365 45.6996L54.0779 46.536C47.4159 47.2795 43.6075 44.9514 41.6422 41.3277L39.7759 37.0262C39.3903 36.1409 38.6699 35.4445 37.7723 35.0893C36.8747 34.7342 35.873 34.7491 34.9861 35.1309C34.1012 35.5171 33.4049 36.238 33.0496 37.1362C32.6944 38.0343 32.709 39.0365 33.0902 39.9237L33.6176 41.1421C32.8264 40.6895 31.8942 40.5501 31.0051 40.7515C30.1159 40.9528 29.3344 41.4802 28.8147 42.2296C28.295 42.9791 28.0748 43.8961 28.1977 44.7997C28.3205 45.7033 28.7774 46.528 29.4783 47.1109L39.9727 55.8106C42.7144 62.2451 48.3328 75.425 48.3328 75.425C50.4635 80.4137 53.9664 84.6941 58.434 87.7683C62.9016 90.8424 68.1503 92.5839 73.5693 92.7902L93.8842 93.5477L134.3 95.0817L135.609 60.3512Z" fill="white"/>
<path d="M83.3757 68.6327C83.32 68.6158 83.2686 68.5869 83.2253 68.5481C83.182 68.5092 83.1477 68.4612 83.1249 68.4077L78.8127 58.2796C78.7713 58.1824 78.7702 58.0728 78.8096 57.9749C78.849 57.8769 78.9257 57.7986 79.0228 57.7572C79.1199 57.7158 79.2294 57.7147 79.3273 57.7541C79.4252 57.7935 79.5034 57.8702 79.5448 57.9673L83.8572 68.0955C83.8869 68.1651 83.8961 68.2418 83.8837 68.3166C83.8714 68.3913 83.8379 68.461 83.7874 68.5174C83.7368 68.5738 83.6712 68.6146 83.5983 68.6351C83.5254 68.6555 83.4482 68.6547 83.3757 68.6327Z" fill="#231E40"/>
<path d="M39.9815 56.3328C39.9262 56.3161 39.8751 56.2876 39.832 56.2491C39.7889 56.2106 39.7547 56.1631 39.7319 56.11L33.3688 41.3974C33.3268 41.3006 33.3251 41.191 33.3639 41.0928C33.4028 40.9946 33.479 40.9159 33.5758 40.8739C33.6727 40.8319 33.7822 40.8301 33.8803 40.869C33.9785 40.9078 34.0571 40.984 34.0991 41.0809L40.4621 55.7937C40.4922 55.8633 40.5018 55.9402 40.4897 56.0152C40.4776 56.0901 40.4444 56.1601 40.3938 56.2167C40.3433 56.2734 40.2776 56.3144 40.2046 56.335C40.1315 56.3556 40.0541 56.3548 39.9815 56.3328Z" fill="#231E40"/>
<path d="M50.7226 52.6573C50.6943 52.6487 50.667 52.6369 50.6413 52.6222C47.1161 50.6208 44.3682 47.4431 42.4743 43.1778C42.4531 43.13 42.4415 43.0785 42.4401 43.0263C42.4388 42.974 42.4478 42.922 42.4665 42.8732C42.4853 42.8244 42.5135 42.7798 42.5495 42.7419C42.5855 42.7039 42.6286 42.6735 42.6763 42.6523C42.7241 42.631 42.7756 42.6194 42.8278 42.618C42.88 42.6167 42.932 42.6257 42.9808 42.6444C43.0295 42.6632 43.0741 42.6914 43.112 42.7274C43.1499 42.7634 43.1803 42.8065 43.2015 42.8542C45.0247 46.9607 47.6608 50.0143 51.0342 51.9298C51.1195 51.978 51.184 52.056 51.2154 52.1489C51.2468 52.2417 51.2428 52.343 51.2042 52.4331C51.1656 52.5232 51.0951 52.596 51.0062 52.6373C50.9173 52.6787 50.8164 52.6858 50.7226 52.6573Z" fill="#231E40"/>
<path d="M146.547 262.195L182.543 123.613L141.636 111.332L95.2783 97.4154L92.4508 102.199L64.8279 102.884C57.0072 103.079 49.3251 104.997 42.3283 108.5C35.3314 112.003 29.192 117.006 24.3468 123.153L-11.6329 167.655L54.7496 187.584L70.9568 159.612L107.359 157.843L77.9793 241.59L146.553 262.177L146.547 262.195Z" fill="#367CFF"/>
<path d="M92.4685 102.205C92.3675 102.174 92.2827 102.105 92.2329 102.012C92.183 101.919 92.1721 101.81 92.2026 101.708C92.2331 101.607 92.3025 101.523 92.3955 101.473C92.4885 101.423 92.5975 101.412 92.6985 101.442L181.393 128.069L181.394 128.07C181.495 128.1 181.58 128.17 181.629 128.263C181.679 128.356 181.69 128.465 181.66 128.566C181.629 128.667 181.56 128.752 181.467 128.802C181.374 128.851 181.265 128.862 181.164 128.832L92.4697 102.205L92.4685 102.205Z" fill="white"/>
<path d="M106.79 158.42L106.774 158.415C106.724 158.398 106.679 158.371 106.64 158.336C106.601 158.301 106.569 158.259 106.546 158.212C106.524 158.165 106.511 158.114 106.508 158.061C106.505 158.009 106.512 157.957 106.53 157.908L124.627 106.208C124.663 106.109 124.736 106.028 124.831 105.983C124.925 105.937 125.034 105.93 125.134 105.964C125.183 105.981 125.229 106.008 125.267 106.043C125.306 106.078 125.338 106.12 125.361 106.167C125.384 106.214 125.397 106.265 125.4 106.317C125.403 106.37 125.395 106.422 125.378 106.471L107.281 158.171C107.247 158.267 107.177 158.347 107.085 158.394C106.994 158.44 106.888 158.45 106.79 158.42Z" fill="white"/>
<path d="M116.594 122.063C116.162 121.932 115.761 121.715 115.415 121.424C115.069 121.134 114.785 120.777 114.581 120.374C114.377 119.971 114.257 119.531 114.227 119.08C114.198 118.629 114.26 118.177 114.41 117.75L119.044 104.532C119.061 104.482 119.087 104.436 119.122 104.397C119.156 104.357 119.199 104.325 119.246 104.303C119.293 104.28 119.345 104.267 119.397 104.264C119.449 104.262 119.502 104.27 119.551 104.288C119.651 104.323 119.732 104.396 119.778 104.491C119.824 104.586 119.83 104.695 119.795 104.795L115.162 118.015C115.047 118.339 115 118.684 115.022 119.027C115.044 119.371 115.136 119.707 115.292 120.014C115.447 120.321 115.663 120.593 115.927 120.814C116.19 121.036 116.496 121.201 116.826 121.301L116.833 121.303L119.443 122.087C119.544 122.117 119.629 122.187 119.679 122.28C119.729 122.373 119.74 122.482 119.709 122.583C119.679 122.684 119.609 122.769 119.516 122.819C119.423 122.869 119.314 122.88 119.213 122.849L116.603 122.065L116.594 122.063Z" fill="white"/>
<path d="M182.543 123.614L95.278 97.4156C95.278 97.4156 102.838 83.9942 110.295 74.2407C117.165 65.2488 125.611 60.714 135.887 60.3282C135.984 60.3222 136.082 60.3205 136.181 60.3168C139.944 60.2036 143.954 60.6378 148.211 61.6194C158.161 63.8998 167.76 66.8643 176.022 69.7192C180.438 71.3358 184.615 73.1303 188.816 75.7423C189.252 76.0187 189.708 76.3009 190.157 76.6021C182.722 97.1482 178.957 110.587 183.663 119.336L182.543 123.614Z" fill="#29A431"/>
<path d="M108.573 97.8945C108.498 97.8718 108.431 97.8274 108.381 97.767C108.331 97.7065 108.3 97.6326 108.292 97.5546C108.284 97.4766 108.299 97.398 108.336 97.3285C108.372 97.2591 108.428 97.2019 108.497 97.1643L111.377 95.5971C111.423 95.5712 111.473 95.5546 111.526 95.5484C111.578 95.5423 111.631 95.5466 111.682 95.5611C111.733 95.5757 111.78 95.6002 111.821 95.6333C111.862 95.6663 111.897 95.7072 111.922 95.7536C111.947 95.8 111.963 95.851 111.968 95.9035C111.973 95.956 111.968 96.0091 111.953 96.0596C111.937 96.1102 111.912 96.1571 111.879 96.1978C111.845 96.2385 111.803 96.272 111.757 96.2965L108.877 97.8636C108.831 97.8887 108.78 97.9043 108.728 97.9096C108.676 97.9149 108.623 97.9098 108.573 97.8945Z" fill="white"/>
<path d="M121.301 101.715C121.225 101.693 121.158 101.648 121.108 101.588C121.058 101.527 121.027 101.453 121.019 101.374C121.011 101.296 121.027 101.217 121.064 101.148C121.101 101.078 121.157 101.021 121.227 100.984L124.126 99.4224C124.219 99.3723 124.328 99.3612 124.429 99.3916C124.53 99.4219 124.615 99.4912 124.665 99.5841C124.715 99.6771 124.726 99.7861 124.695 99.8873C124.665 99.9884 124.596 100.073 124.503 100.123L121.604 101.685C121.558 101.709 121.507 101.725 121.455 101.73C121.403 101.736 121.351 101.731 121.301 101.715Z" fill="white"/>
<path d="M135.572 106C135.496 105.977 135.429 105.932 135.379 105.872C135.329 105.811 135.298 105.737 135.29 105.658C135.282 105.58 135.298 105.501 135.335 105.432C135.372 105.362 135.428 105.305 135.498 105.268L138.397 103.707C138.49 103.656 138.599 103.645 138.7 103.676C138.801 103.706 138.886 103.775 138.936 103.868C138.986 103.961 138.997 104.07 138.966 104.171C138.936 104.273 138.867 104.358 138.774 104.408L135.875 105.969C135.829 105.994 135.778 106.009 135.726 106.014C135.674 106.02 135.622 106.015 135.572 106Z" fill="white"/>
<path d="M106.398 87.2868C106.348 87.2718 106.302 87.2471 106.261 87.214C106.221 87.1809 106.187 87.1402 106.163 87.0941L104.603 84.1943C104.555 84.1015 104.546 83.9936 104.576 83.8939C104.607 83.7942 104.676 83.7106 104.768 83.6611C104.86 83.6116 104.968 83.6002 105.068 83.6294C105.168 83.6585 105.253 83.7259 105.304 83.8169L106.863 86.7168C106.9 86.7861 106.916 86.8648 106.909 86.9431C106.901 87.0214 106.871 87.0957 106.821 87.1567C106.772 87.2177 106.705 87.2627 106.63 87.2858C106.555 87.309 106.475 87.3094 106.399 87.287L106.398 87.2868Z" fill="white"/>
<path d="M120.67 91.5712C120.619 91.5563 120.573 91.5316 120.532 91.4985C120.492 91.4655 120.458 91.4247 120.434 91.3786L118.874 88.4787C118.848 88.4326 118.832 88.3819 118.826 88.3293C118.82 88.2768 118.824 88.2237 118.839 88.1729C118.854 88.1222 118.879 88.0749 118.912 88.0338C118.945 87.9927 118.986 87.9586 119.033 87.9335C119.079 87.9085 119.13 87.893 119.183 87.8878C119.235 87.8827 119.289 87.8882 119.339 87.9038C119.389 87.9194 119.436 87.9449 119.477 87.9789C119.517 88.0128 119.551 88.0545 119.575 88.1014L121.135 91.0005C121.172 91.0698 121.188 91.1485 121.18 91.2268C121.173 91.3051 121.142 91.3794 121.093 91.4404C121.043 91.5014 120.976 91.5464 120.901 91.5696C120.826 91.5927 120.746 91.5931 120.671 91.5707L120.67 91.5712Z" fill="white"/>
<path d="M133.397 95.3921C133.347 95.3771 133.3 95.3522 133.26 95.3189C133.219 95.2855 133.185 95.2445 133.161 95.198L131.62 92.3039C131.595 92.2577 131.58 92.2072 131.575 92.1552C131.57 92.1031 131.575 92.0506 131.591 92.0006C131.606 91.9506 131.631 91.9041 131.664 91.8637C131.697 91.8233 131.738 91.7899 131.784 91.7653C131.83 91.7407 131.881 91.7254 131.933 91.7204C131.985 91.7153 132.037 91.7205 132.087 91.7358C132.137 91.751 132.184 91.7759 132.224 91.8092C132.264 91.8424 132.298 91.8832 132.322 91.9293L133.863 94.8237C133.9 94.893 133.916 94.9717 133.908 95.0499C133.9 95.1281 133.869 95.2023 133.82 95.2631C133.77 95.3239 133.703 95.3685 133.628 95.3915C133.553 95.4145 133.473 95.4147 133.397 95.3921Z" fill="white"/>
<path d="M114.439 78.3535C114.364 78.3308 114.298 78.2864 114.248 78.226C114.198 78.1655 114.167 78.0916 114.159 78.0136C114.151 77.9356 114.166 77.857 114.202 77.7875C114.239 77.7181 114.295 77.6609 114.364 77.6232L117.244 76.0562C117.29 76.0302 117.34 76.0137 117.393 76.0075C117.445 76.0013 117.498 76.0056 117.549 76.0202C117.6 76.0348 117.647 76.0593 117.688 76.0923C117.729 76.1254 117.764 76.1663 117.789 76.2127C117.814 76.2591 117.83 76.31 117.835 76.3625C117.84 76.4151 117.835 76.4682 117.82 76.5187C117.804 76.5692 117.779 76.6162 117.745 76.6568C117.712 76.6975 117.67 76.731 117.624 76.7555L114.744 78.3218C114.698 78.347 114.647 78.3627 114.595 78.3681C114.543 78.3735 114.49 78.3686 114.439 78.3535Z" fill="white"/>
<path d="M127.167 82.1741C127.092 82.1514 127.025 82.1069 126.975 82.0462C126.925 81.9855 126.894 81.9114 126.886 81.8331C126.878 81.7548 126.893 81.6759 126.93 81.6064C126.967 81.5369 127.024 81.4798 127.093 81.4425L129.992 79.881C130.085 79.8331 130.193 79.8236 130.292 79.8544C130.392 79.8853 130.475 79.9541 130.525 80.046C130.574 80.1379 130.586 80.2456 130.556 80.3459C130.527 80.4461 130.46 80.5309 130.369 80.5819L127.47 82.1432C127.424 82.1681 127.374 82.1837 127.322 82.1889C127.27 82.1942 127.217 82.1892 127.167 82.1741Z" fill="white"/>
<path d="M126.536 72.0296C126.486 72.0147 126.44 71.99 126.399 71.957C126.359 71.924 126.325 71.8833 126.3 71.8372L124.741 68.9373C124.715 68.8912 124.699 68.8405 124.693 68.788C124.687 68.7355 124.691 68.6823 124.706 68.6315C124.721 68.5808 124.745 68.5335 124.779 68.4924C124.812 68.4513 124.853 68.4172 124.899 68.3921C124.946 68.367 124.997 68.3515 125.049 68.3464C125.102 68.3412 125.155 68.3466 125.206 68.3622C125.256 68.3778 125.303 68.4033 125.343 68.4373C125.384 68.4712 125.417 68.5128 125.441 68.5598L127.001 71.4589C127.039 71.5282 127.055 71.6069 127.047 71.6852C127.04 71.7635 127.009 71.8379 126.959 71.8989C126.91 71.9599 126.843 72.0048 126.768 72.028C126.693 72.0511 126.613 72.0516 126.537 72.0291L126.536 72.0296Z" fill="white"/>
<path d="M139.264 75.8507C139.214 75.8357 139.167 75.8108 139.126 75.7776C139.086 75.7443 139.052 75.7032 139.027 75.6568L137.487 72.7625C137.461 72.7162 137.444 72.6652 137.438 72.6125C137.432 72.5597 137.436 72.5062 137.451 72.4552C137.466 72.4042 137.491 72.3566 137.524 72.3154C137.558 72.2741 137.599 72.24 137.646 72.215C137.693 72.19 137.744 72.1747 137.797 72.1698C137.85 72.165 137.903 72.1709 137.954 72.187C138.005 72.2031 138.051 72.2292 138.092 72.2638C138.132 72.2983 138.165 72.3406 138.189 72.3881L139.73 75.2822C139.766 75.3516 139.782 75.4303 139.774 75.5085C139.767 75.5867 139.736 75.6608 139.686 75.7216C139.636 75.7824 139.57 75.8271 139.495 75.8501C139.419 75.873 139.339 75.8733 139.264 75.8507Z" fill="white"/>
<path d="M136.235 61.0401L133.337 62.6014C133.244 62.6516 133.135 62.6631 133.034 62.6332C132.933 62.6024 132.848 62.5328 132.797 62.4395C132.773 62.3936 132.757 62.3433 132.752 62.2914C132.747 62.2395 132.752 62.1871 132.767 62.1372C132.782 62.0873 132.806 62.0408 132.839 62.0004C132.872 61.96 132.913 61.9265 132.959 61.9018L135.858 60.3407C135.868 60.3361 135.877 60.332 135.887 60.3286C135.984 60.3226 136.082 60.3209 136.181 60.3173C136.274 60.3498 136.351 60.4161 136.398 60.5029C136.422 60.5488 136.438 60.5991 136.443 60.651C136.448 60.7028 136.443 60.7552 136.428 60.8051C136.413 60.855 136.388 60.9015 136.355 60.9418C136.322 60.9821 136.281 61.0155 136.235 61.0401Z" fill="white"/>
</g>
<g clip-path="url(#clip1_12_3627)">
<path d="M303.164 156.373L302.865 157.095C302.602 157.732 302.217 158.31 301.73 158.798C301.243 159.286 300.665 159.672 300.029 159.936C299.393 160.2 298.711 160.336 298.022 160.336C297.333 160.336 296.651 160.201 296.015 159.937L291.739 158.168C292.084 160.961 291.908 163.794 291.221 166.523C290.104 170.891 284.802 172.571 281.342 169.692L281.156 169.549C279.314 168.03 278.586 165.593 279.148 163.265C279.669 161.118 279.446 158.857 278.518 156.852C277.589 154.847 276.009 153.216 274.035 152.224C272.061 151.232 269.809 150.937 267.646 151.389C265.483 151.84 263.537 153.011 262.124 154.71C261.502 155.471 260.994 156.318 260.616 157.225C259.887 158.992 259.692 160.935 260.055 162.812C260.417 164.689 261.322 166.419 262.656 167.788C263.991 169.157 265.697 170.105 267.565 170.514C269.432 170.924 271.379 170.778 273.164 170.094C274.192 169.691 275.309 169.57 276.399 169.743C277.489 169.917 278.513 170.378 279.366 171.079L279.552 171.222C283.111 174.186 282.257 179.909 277.963 181.627C274.234 183.124 270.17 183.586 266.201 182.963C262.232 182.339 258.505 180.655 255.414 178.087C254.794 177.573 254.204 177.024 253.646 176.443C253.607 176.409 253.57 176.371 253.537 176.331C253.518 176.323 253.526 176.304 253.507 176.296C252.79 175.555 252.42 175.157 249.798 174.072L122.037 121.226L135.262 86.1883L256.542 136.354C260.418 137.957 264.3 138.85 267.482 138.742C267.949 138.691 268.407 138.658 268.877 138.652L296.249 136.397C296.985 136.323 297.729 136.395 298.437 136.608C299.146 136.822 299.806 137.173 300.379 137.641C300.951 138.109 301.426 138.686 301.777 139.338C302.127 139.99 302.345 140.705 302.419 141.441C302.492 142.178 302.421 142.922 302.207 143.63C301.993 144.339 301.642 144.999 301.174 145.572C300.705 146.145 300.129 146.62 299.477 146.97C298.825 147.32 298.11 147.538 297.374 147.612L296.12 147.739L300.338 149.484C301.62 150.03 302.635 151.059 303.164 152.349C303.693 153.638 303.693 155.083 303.164 156.373Z" fill="white"/>
<path d="M291.6 158.667C291.532 158.639 291.473 158.594 291.429 158.535C291.385 158.477 291.357 158.408 291.348 158.336C290.768 153.512 288.599 149.018 285.182 145.564C281.766 142.109 277.296 139.891 272.479 139.258C272.426 139.251 272.374 139.234 272.327 139.207C272.281 139.18 272.24 139.144 272.207 139.101C272.174 139.058 272.15 139.009 272.136 138.957C272.122 138.904 272.119 138.85 272.126 138.796C272.133 138.743 272.151 138.691 272.178 138.645C272.205 138.598 272.241 138.557 272.284 138.524C272.327 138.491 272.376 138.467 272.428 138.453C272.48 138.439 272.534 138.436 272.588 138.443C277.586 139.1 282.223 141.402 285.768 144.986C289.312 148.57 291.563 153.232 292.165 158.237C292.173 158.309 292.163 158.381 292.135 158.447C292.107 158.513 292.062 158.571 292.005 158.614C291.948 158.658 291.881 158.685 291.809 158.695C291.738 158.704 291.666 158.694 291.6 158.667Z" fill="#231E40"/>
<path d="M295.909 148.141L278.726 140.99C278.676 140.969 278.631 140.938 278.593 140.9C278.555 140.862 278.525 140.817 278.504 140.767C278.462 140.666 278.462 140.553 278.504 140.452C278.546 140.351 278.626 140.271 278.727 140.229C278.828 140.188 278.941 140.188 279.042 140.23L279.043 140.23L296.225 147.382C296.326 147.424 296.406 147.504 296.447 147.605C296.489 147.705 296.489 147.819 296.447 147.919C296.405 148.02 296.325 148.1 296.224 148.142C296.124 148.184 296.01 148.183 295.91 148.142L295.909 148.141Z" fill="#231E40"/>
<path d="M179.185 304.003C179.185 304.003 162.849 152.173 162.441 149.824L65.8274 109.861C59.2082 125.864 60.9858 143.626 63.6493 168.876L49.0206 143.284L-6.99194 177.227C-6.99194 177.227 3.38337 188.73 24.5835 218.665C43.5338 245.378 76.1675 253.913 98.5156 243.949C102.067 242.363 105.366 240.263 108.305 237.715L108.245 274.66L179.185 304.003Z" fill="#367CFF"/>
<path d="M162.449 149.805L65.835 109.842L71.4558 96.2532C78.7771 83.8796 93.449 68.6927 114.98 77.5986C125.983 82.1498 129.974 83.8005 131.182 84.3226C136.888 86.7828 141.621 89.3771 145.502 92.583C145.682 92.7287 145.861 92.8782 146.037 93.0288C152.219 98.3282 156.171 105.298 158.415 115.975C161.519 130.746 162.449 149.805 162.449 149.805Z" fill="#29A431"/>
<path d="M231.69 19.5295L231.391 20.2517C231.129 20.8885 230.743 21.4673 230.256 21.9548C229.77 22.4424 229.192 22.8293 228.555 23.0932C227.919 23.3572 227.237 23.4931 226.548 23.4932C225.859 23.4933 225.177 23.3575 224.541 23.0937L220.265 21.3251C220.621 24.0959 220.447 26.9092 219.752 29.6149C219.495 30.6221 218.988 31.5481 218.277 32.3068C217.567 33.0654 216.676 33.6321 215.688 33.954C214.7 34.276 213.646 34.3428 212.625 34.1483C211.604 33.9538 210.649 33.5042 209.849 32.8414L209.663 32.6979C207.821 31.1793 207.094 28.7416 207.656 26.4145C208.174 24.2888 207.964 22.0508 207.061 20.0583C206.157 18.0658 204.612 16.4336 202.672 15.4227C200.732 14.4117 198.509 14.0802 196.358 14.4812C194.207 14.8822 192.253 15.9926 190.808 17.6348C189.362 19.2771 188.509 21.3565 188.383 23.5408C188.258 25.7251 188.869 27.8882 190.118 29.6846C191.367 31.4809 193.181 32.8068 195.272 33.4503C197.363 34.0939 199.609 34.018 201.652 33.2347C202.68 32.8324 203.797 32.7115 204.887 32.8847C205.977 33.0579 207.002 33.5188 207.854 34.2199L208.04 34.3634C211.599 37.3267 210.745 43.0497 206.451 44.7681C203.302 46.0302 199.906 46.5579 196.522 46.3113C193.138 46.0647 189.855 45.0502 186.922 43.3449C185.685 42.6311 184.307 42.1978 182.884 42.0756L140.153 38.4224L122.992 79.9113C122.992 79.9113 116.713 97.8352 102.779 102.844C84.9637 109.275 72.5472 96.9497 71.4096 96.2566L103.153 19.5126C105.696 13.364 110.138 8.1897 115.831 4.74595C121.524 1.3022 128.169 -0.230475 134.794 0.371932L173.252 3.70406C179.915 4.29638 186.63 3.85288 193.158 2.38931C193.82 2.24044 194.513 2.12629 195.197 2.03115L195.224 2.02001C195.941 1.91643 196.664 1.85852 197.388 1.84663L224.759 -0.408484C226.247 -0.557776 227.732 -0.110143 228.889 0.835946C230.046 1.78204 230.78 3.14908 230.929 4.63635C231.078 6.12362 230.631 7.60928 229.685 8.7665C228.738 9.92372 227.371 10.6577 225.884 10.807L224.63 10.9337L228.849 12.6787C229.486 12.9415 230.064 13.3272 230.552 13.8139C231.039 14.3005 231.426 14.8785 231.69 15.5148C231.954 16.1511 232.09 16.8333 232.09 17.5221C232.09 18.211 231.954 18.8932 231.69 19.5295Z" fill="white"/>
</g>
<g clip-path="url(#clip2_12_3627)">
<path d="M194.531 61.1639L220.383 81.8285L246.178 56.673C251.501 51.0496 253.283 45.3024 254.306 39.9702L254.746 37.6243C254.992 36.3293 255.743 35.185 256.833 34.4432C257.922 33.7014 259.262 33.4229 260.557 33.6689C261.852 33.9149 262.996 34.6653 263.738 35.755C264.48 36.8447 264.758 38.1845 264.512 39.4796L262.901 48.0581L288.756 42.282C290.042 41.9946 291.39 42.2301 292.503 42.9365C293.616 43.643 294.403 44.7627 294.69 46.0492C294.833 46.6863 294.848 47.3451 294.736 47.9881C294.623 48.6311 294.386 49.2457 294.036 49.7968C293.686 50.3479 293.231 50.8247 292.697 51.2C292.163 51.5752 291.56 51.8416 290.923 51.9839C291.56 51.8416 292.219 51.8261 292.862 51.9384C293.505 52.0507 294.119 52.2885 294.671 52.6383C295.222 52.9882 295.698 53.4431 296.074 53.9772C296.449 54.5113 296.715 55.1141 296.858 55.7511C297.145 57.0376 296.909 58.3856 296.203 59.4985C295.497 60.6114 294.377 61.3981 293.09 61.6856C294.377 61.3983 295.725 61.6337 296.838 62.3403C297.951 63.0468 298.737 64.1665 299.025 65.453C299.167 66.09 299.183 66.7488 299.07 67.3918C298.958 68.0348 298.72 68.6494 298.37 69.2005C298.02 69.7515 297.566 70.2283 297.031 70.6035C296.497 70.9788 295.895 71.2452 295.258 71.3875C295.896 71.2408 296.558 71.2218 297.204 71.3316C297.85 71.4414 298.467 71.6779 299.022 72.0274C299.576 72.3769 300.056 72.8326 300.433 73.3682C300.811 73.9038 301.079 74.5087 301.221 75.1482C301.364 75.7877 301.379 76.4492 301.266 77.0945C301.152 77.7398 300.912 78.3563 300.559 78.9085C300.206 79.4606 299.747 79.9376 299.21 80.3118C298.672 80.6861 298.065 80.9504 297.425 81.0894L283.265 84.2526C279.35 85.1275 275.154 87.7405 268.706 94.0453L268.723 93.9938L253.802 108.543L241.956 120.127C236.786 125.183 229.946 128.173 222.724 128.535C215.503 128.897 208.398 126.606 202.748 122.093L202.7 122.054L189.788 111.739L166.864 93.428L194.531 61.1639Z" fill="white"/>
<path d="M278.462 80.4731C278.368 80.473 278.276 80.4407 278.202 80.3816C278.129 80.3225 278.077 80.2401 278.057 80.1479L271.555 51.0422C271.536 50.9367 271.559 50.828 271.618 50.7388C271.677 50.6495 271.769 50.5866 271.873 50.5632C271.978 50.5399 272.088 50.5578 272.179 50.6132C272.271 50.6687 272.338 50.7574 272.366 50.8609L278.868 79.9664C278.882 80.0273 278.882 80.0904 278.868 80.1511C278.854 80.2119 278.826 80.2687 278.787 80.3174C278.748 80.366 278.699 80.4053 278.642 80.4322C278.586 80.4592 278.524 80.4732 278.462 80.4731Z" fill="#231E40"/>
<path d="M273.081 56.3857C272.979 56.3857 272.88 56.3479 272.804 56.2796C272.728 56.2112 272.679 56.1172 272.668 56.0154C272.657 55.9136 272.684 55.8113 272.743 55.728C272.803 55.6447 272.891 55.5864 272.991 55.5641L290.832 51.5782C290.887 51.5636 290.943 51.5602 290.999 51.5681C291.054 51.576 291.108 51.595 291.155 51.6241C291.203 51.6531 291.245 51.6915 291.278 51.737C291.311 51.7826 291.334 51.8342 291.346 51.889C291.358 51.9437 291.359 52.0003 291.349 52.0554C291.339 52.1106 291.318 52.1631 291.287 52.2098C291.256 52.2565 291.215 52.2964 291.169 52.3273C291.122 52.3581 291.069 52.3791 291.014 52.389L273.172 56.3749C273.142 56.3819 273.112 56.3855 273.081 56.3857Z" fill="#231E40"/>
<path d="M275.493 66.0327C275.391 66.0326 275.292 65.9948 275.216 65.9265C275.14 65.8582 275.091 65.7641 275.08 65.6623C275.069 65.5606 275.096 65.4582 275.155 65.375C275.215 65.2917 275.303 65.2333 275.403 65.211L293 61.2796C293.106 61.2605 293.215 61.283 293.304 61.3423C293.393 61.4017 293.456 61.4933 293.48 61.5979C293.503 61.7026 293.485 61.8123 293.43 61.9041C293.374 61.9959 293.285 62.0626 293.182 62.0904L275.584 66.0217C275.555 66.0287 275.524 66.0324 275.493 66.0327Z" fill="#231E40"/>
<path d="M277.416 75.7893C277.314 75.7893 277.215 75.7514 277.139 75.6831C277.062 75.6147 277.014 75.5207 277.003 75.4189C276.992 75.3172 277.019 75.2148 277.078 75.1316C277.138 75.0483 277.226 74.99 277.326 74.9677L295.167 70.982C295.221 70.9674 295.278 70.964 295.333 70.9719C295.389 70.9798 295.442 70.9988 295.49 71.0279C295.538 71.0569 295.58 71.0953 295.612 71.1409C295.645 71.1864 295.668 71.2381 295.681 71.2928C295.693 71.3475 295.694 71.4041 295.684 71.4592C295.673 71.5144 295.652 71.5669 295.621 71.6136C295.59 71.6603 295.55 71.7003 295.503 71.7311C295.456 71.7619 295.404 71.7829 295.349 71.7928L277.507 75.7785C277.477 75.7856 277.447 75.7892 277.416 75.7893Z" fill="#231E40"/>
<path d="M259.896 64.6891C259.794 64.6891 259.696 64.6518 259.62 64.584C259.543 64.5163 259.495 64.4229 259.483 64.3217C259.471 64.2204 259.497 64.1184 259.555 64.0348C259.614 63.9513 259.701 63.8922 259.8 63.8686C261.365 63.4954 262.789 62.6766 263.899 61.5112C265.009 60.3458 265.757 58.8837 266.054 57.3019C266.35 55.72 266.182 54.0861 265.57 52.5979C264.957 51.1096 263.926 49.8307 262.602 48.9159C262.513 48.8529 262.451 48.757 262.432 48.6491C262.413 48.5411 262.437 48.4299 262.499 48.3396C262.561 48.2493 262.656 48.1872 262.764 48.1669C262.872 48.1465 262.983 48.1696 263.074 48.231C264.53 49.2371 265.664 50.6436 266.338 52.2804C267.012 53.9172 267.197 55.7141 266.871 57.454C266.545 59.1938 265.722 60.8018 264.501 62.0837C263.281 63.3656 261.715 64.2663 259.993 64.677C259.961 64.6848 259.929 64.6888 259.896 64.6891Z" fill="#231E40"/>
<path d="M213.88 87.9829C213.798 87.9831 213.717 87.9585 213.648 87.9124C213.579 87.8663 213.526 87.8008 213.495 87.7242C213.463 87.6476 213.456 87.5635 213.473 87.4825C213.489 87.4015 213.53 87.3274 213.589 87.2696L219.743 81.2526C219.822 81.1754 219.928 81.1326 220.039 81.1338C220.149 81.135 220.254 81.1799 220.332 81.2588C220.409 81.3376 220.452 81.4439 220.45 81.5543C220.449 81.6646 220.404 81.77 220.325 81.8472L214.171 87.8644C214.094 87.9405 213.989 87.983 213.88 87.9829Z" fill="#231E40"/>
<path d="M56.668 295.765H111.684L115.9 279.745H60.8737L56.6825 295.671L56.668 295.765Z" fill="white"/>
<path d="M165.253 279.745L166 295.218L166.058 295.763H218.796L218.022 279.745H165.253Z" fill="white"/>
<path d="M97.856 108.42H151.715H210.817C210.916 134.851 217.999 279.745 217.999 279.745H141.24L147.385 179.247L147.352 179.37L143.311 194.728L122.738 273.857L121.189 279.745H43.3535L97.856 108.42Z" fill="#367CFF"/>
<path d="M210.905 114.722H96.1053C95.995 114.722 95.8892 114.678 95.8112 114.6C95.7333 114.523 95.6895 114.417 95.6895 114.306C95.6895 114.196 95.7333 114.09 95.8112 114.012C95.8892 113.934 95.995 113.891 96.1053 113.891H210.905C211.015 113.891 211.121 113.934 211.199 114.012C211.277 114.09 211.321 114.196 211.321 114.306C211.321 114.417 211.277 114.523 211.199 114.6C211.121 114.678 211.015 114.722 210.905 114.722Z" fill="white"/>
<path d="M163.514 132.226H160.483C160.373 132.226 160.267 132.183 160.189 132.105C160.111 132.027 160.067 131.921 160.067 131.811C160.067 131.7 160.111 131.594 160.189 131.517C160.267 131.439 160.373 131.395 160.483 131.395H163.514C164.631 131.393 165.717 131.024 166.604 130.345C167.491 129.665 168.13 128.713 168.422 127.635L173.638 108.312C173.652 108.259 173.676 108.21 173.71 108.167C173.743 108.123 173.785 108.087 173.832 108.06C173.879 108.033 173.931 108.015 173.986 108.008C174.04 108.001 174.095 108.005 174.147 108.019C174.2 108.033 174.25 108.057 174.293 108.091C174.336 108.124 174.372 108.166 174.4 108.213C174.427 108.26 174.444 108.313 174.451 108.367C174.459 108.421 174.455 108.476 174.441 108.529L169.226 127.851C168.886 129.106 168.142 130.215 167.11 131.005C166.078 131.796 164.814 132.225 163.514 132.226Z" fill="white"/>
<path d="M122.778 274.274H45.2835C45.1732 274.274 45.0674 274.23 44.9895 274.152C44.9115 274.074 44.8677 273.968 44.8677 273.858C44.8677 273.747 44.9115 273.642 44.9895 273.564C45.0674 273.486 45.1732 273.442 45.2835 273.442H122.778C122.888 273.442 122.994 273.486 123.072 273.564C123.15 273.642 123.194 273.747 123.194 273.858C123.194 273.968 123.15 274.074 123.072 274.152C122.994 274.23 122.888 274.274 122.778 274.274Z" fill="white"/>
<path d="M217.71 274.274H141.616C141.506 274.274 141.4 274.23 141.322 274.152C141.244 274.074 141.2 273.968 141.2 273.858C141.2 273.747 141.244 273.642 141.322 273.564C141.4 273.486 141.506 273.442 141.616 273.442H217.71C217.82 273.442 217.926 273.486 218.004 273.564C218.082 273.642 218.126 273.747 218.126 273.858C218.126 273.968 218.082 274.074 218.004 274.152C217.926 274.23 217.82 274.274 217.71 274.274Z" fill="white"/>
<path d="M143.727 195.144C143.663 195.144 143.601 195.13 143.543 195.102C143.486 195.073 143.436 195.033 143.398 194.982C143.359 194.932 143.332 194.873 143.319 194.811C143.307 194.748 143.309 194.684 143.325 194.622L166.041 108.314C166.069 108.207 166.138 108.116 166.233 108.061C166.329 108.005 166.442 107.99 166.549 108.018C166.655 108.046 166.747 108.115 166.802 108.21C166.858 108.306 166.873 108.419 166.845 108.526L144.129 194.834C144.106 194.923 144.054 195.002 143.981 195.058C143.908 195.114 143.819 195.144 143.727 195.144Z" fill="white"/>
<path d="M97.8564 108.422H210.816V108.42C210.729 98.9533 211.675 81.4469 202.845 69.5106C195.672 59.8114 185.3 53.6156 162.251 52.8338C154.842 52.5822 148.311 52.9045 142.552 53.7008C142.546 53.7012 142.541 53.7026 142.536 53.705C141.685 53.8214 140.852 53.9482 140.037 54.0854C138.72 54.31 137.445 54.5588 136.213 54.8319C136.18 54.8402 136.147 54.8464 136.113 54.8547C132.656 55.6295 129.303 56.8103 126.123 58.3726C125.882 58.4911 125.643 58.6117 125.406 58.7323C121.574 60.7014 118.045 63.2102 114.926 66.1819C114.909 66.1964 114.892 66.211 114.876 66.2276C114.768 66.3316 114.657 66.4376 114.549 66.5436C114.452 66.6372 114.354 66.7328 114.254 66.8306C114.007 67.0738 113.755 67.3212 113.503 67.577L113.227 67.8597C112.624 68.4772 112.016 69.1239 111.402 69.7996C111.277 69.9347 111.152 70.074 111.029 70.2133C110.973 70.2736 110.919 70.336 110.863 70.3984C110.749 70.5252 110.636 70.6541 110.522 70.7851C108.123 73.5367 105.876 76.4186 103.794 79.4177C99.4636 89.1765 98.6714 99.9049 97.8564 108.422Z" fill="#29A431"/>
<path d="M207.041 104.359C207.123 104.359 207.204 104.334 207.272 104.289C207.341 104.243 207.394 104.178 207.425 104.102C207.457 104.026 207.465 103.942 207.449 103.862C207.433 103.781 207.393 103.707 207.335 103.649L204.747 101.06C204.668 100.984 204.563 100.942 204.454 100.943C204.345 100.944 204.241 100.988 204.164 101.065C204.087 101.142 204.043 101.247 204.042 101.356C204.041 101.465 204.083 101.57 204.159 101.648L206.747 104.237C206.786 104.275 206.832 104.306 206.882 104.327C206.932 104.348 206.987 104.359 207.041 104.359Z" fill="white"/>
<path d="M192.209 104.358C192.291 104.358 192.372 104.334 192.44 104.288C192.508 104.243 192.562 104.178 192.593 104.102C192.624 104.026 192.633 103.942 192.617 103.861C192.601 103.781 192.561 103.707 192.503 103.649L189.914 101.06C189.837 100.982 189.731 100.938 189.62 100.938C189.51 100.938 189.404 100.982 189.326 101.06C189.248 101.138 189.205 101.243 189.205 101.354C189.205 101.464 189.248 101.57 189.326 101.648L191.915 104.237C191.954 104.275 191.999 104.306 192.05 104.327C192.1 104.348 192.154 104.358 192.209 104.358Z" fill="white"/>
<path d="M158.963 104.359C159.045 104.359 159.125 104.334 159.194 104.289C159.262 104.243 159.315 104.178 159.347 104.102C159.378 104.026 159.387 103.942 159.371 103.862C159.354 103.781 159.315 103.707 159.257 103.649L156.669 101.06C156.63 101.02 156.584 100.989 156.534 100.967C156.483 100.945 156.428 100.934 156.373 100.933C156.318 100.933 156.263 100.943 156.212 100.964C156.161 100.985 156.114 101.016 156.075 101.055C156.036 101.094 156.005 101.14 155.985 101.191C155.964 101.243 155.953 101.297 155.954 101.353C155.954 101.408 155.966 101.462 155.987 101.513C156.009 101.564 156.041 101.61 156.081 101.648L158.669 104.237C158.708 104.275 158.753 104.306 158.804 104.327C158.854 104.348 158.908 104.359 158.963 104.359Z" fill="white"/>
<path d="M175.586 104.359C175.668 104.359 175.748 104.334 175.817 104.289C175.885 104.243 175.938 104.178 175.97 104.102C176.001 104.026 176.01 103.942 175.994 103.862C175.977 103.781 175.938 103.707 175.88 103.649L173.291 101.06C173.213 100.984 173.108 100.942 172.999 100.943C172.89 100.944 172.785 100.988 172.708 101.065C172.631 101.142 172.587 101.247 172.586 101.356C172.585 101.465 172.627 101.57 172.703 101.648L175.292 104.237C175.33 104.276 175.376 104.306 175.427 104.327C175.477 104.348 175.531 104.359 175.586 104.359Z" fill="white"/>
<path d="M142.34 104.359C142.422 104.359 142.502 104.334 142.571 104.289C142.639 104.243 142.692 104.178 142.724 104.102C142.755 104.026 142.763 103.942 142.747 103.862C142.731 103.781 142.692 103.707 142.634 103.649L140.045 101.06C139.967 100.984 139.862 100.942 139.753 100.943C139.644 100.944 139.539 100.988 139.462 101.065C139.385 101.142 139.341 101.247 139.34 101.356C139.339 101.465 139.381 101.57 139.457 101.648L142.046 104.237C142.084 104.276 142.13 104.306 142.181 104.327C142.231 104.348 142.285 104.359 142.34 104.359Z" fill="white"/>
<path d="M125.716 104.359C125.799 104.359 125.879 104.334 125.947 104.289C126.016 104.243 126.069 104.178 126.101 104.102C126.132 104.026 126.14 103.942 126.124 103.862C126.108 103.781 126.069 103.707 126.01 103.649L123.422 101.06C123.344 100.984 123.239 100.942 123.129 100.943C123.02 100.944 122.916 100.988 122.839 101.065C122.762 101.142 122.718 101.247 122.717 101.356C122.716 101.465 122.758 101.57 122.834 101.648L125.422 104.237C125.461 104.275 125.507 104.306 125.557 104.327C125.608 104.348 125.662 104.359 125.716 104.359Z" fill="white"/>
<path d="M109.094 104.359C109.176 104.359 109.256 104.334 109.325 104.289C109.393 104.243 109.446 104.178 109.478 104.102C109.509 104.026 109.517 103.942 109.501 103.862C109.485 103.781 109.446 103.707 109.388 103.649L106.799 101.06C106.72 100.984 106.615 100.942 106.506 100.943C106.397 100.944 106.293 100.988 106.216 101.065C106.139 101.142 106.095 101.247 106.094 101.356C106.093 101.465 106.135 101.57 106.211 101.648L108.8 104.237C108.838 104.276 108.884 104.306 108.934 104.327C108.985 104.348 109.039 104.359 109.094 104.359Z" fill="white"/>
<path d="M196.141 93.7256C196.195 93.7257 196.25 93.715 196.3 93.6941C196.35 93.6732 196.396 93.6425 196.435 93.6038L199.023 91.0153C199.099 90.9368 199.141 90.8318 199.14 90.7228C199.139 90.6137 199.095 90.5094 199.018 90.4323C198.941 90.3552 198.837 90.3115 198.728 90.3106C198.619 90.3096 198.514 90.3515 198.435 90.4273L195.847 93.0158C195.789 93.074 195.749 93.148 195.733 93.2287C195.717 93.3093 195.725 93.3929 195.757 93.4689C195.788 93.5449 195.841 93.6098 195.91 93.6555C195.978 93.7012 196.059 93.7256 196.141 93.7256Z" fill="white"/>
<path d="M164.686 93.7258C164.74 93.7259 164.794 93.7152 164.845 93.6943C164.895 93.6734 164.941 93.6427 164.98 93.6039L167.568 91.0154C167.642 90.9367 167.683 90.8323 167.681 90.7243C167.679 90.6163 167.636 90.5132 167.559 90.4368C167.483 90.3604 167.38 90.3167 167.272 90.315C167.164 90.3132 167.059 90.3536 166.981 90.4274L164.392 93.016C164.334 93.0741 164.295 93.1482 164.278 93.2289C164.262 93.3095 164.271 93.3931 164.302 93.4691C164.334 93.545 164.387 93.61 164.455 93.6557C164.524 93.7014 164.604 93.7258 164.686 93.7258H164.686Z" fill="white"/>
<path d="M181.309 93.7256C181.363 93.7257 181.417 93.715 181.468 93.6941C181.518 93.6732 181.564 93.6425 181.602 93.6038L184.191 91.0153C184.267 90.9368 184.309 90.8318 184.308 90.7228C184.307 90.6137 184.263 90.5094 184.186 90.4323C184.109 90.3552 184.005 90.3115 183.896 90.3106C183.787 90.3096 183.682 90.3515 183.603 90.4273L181.014 93.0158C180.956 93.074 180.917 93.148 180.901 93.2287C180.885 93.3093 180.893 93.3929 180.924 93.4689C180.956 93.5449 181.009 93.6098 181.077 93.6555C181.146 93.7012 181.226 93.7256 181.309 93.7256Z" fill="white"/>
<path d="M148.063 93.7256C148.117 93.7257 148.171 93.715 148.222 93.6941C148.272 93.6732 148.318 93.6425 148.357 93.6038L150.945 91.0153C151.021 90.9368 151.063 90.8318 151.062 90.7228C151.061 90.6137 151.017 90.5094 150.94 90.4323C150.863 90.3552 150.759 90.3115 150.65 90.3106C150.541 90.3096 150.436 90.3515 150.357 90.4273L147.769 93.0158C147.711 93.074 147.671 93.148 147.655 93.2287C147.639 93.3093 147.647 93.3929 147.679 93.4689C147.71 93.5449 147.763 93.6098 147.832 93.6555C147.9 93.7012 147.98 93.7256 148.063 93.7256Z" fill="white"/>
<path d="M131.44 93.7256C131.494 93.7257 131.548 93.7149 131.599 93.694C131.649 93.6731 131.695 93.6425 131.734 93.6038L134.322 91.0153C134.398 90.9368 134.44 90.8318 134.439 90.7228C134.438 90.6137 134.394 90.5094 134.317 90.4323C134.24 90.3552 134.136 90.3115 134.027 90.3106C133.918 90.3096 133.813 90.3515 133.734 90.4273L131.146 93.0158C131.088 93.074 131.048 93.148 131.032 93.2287C131.016 93.3093 131.024 93.3929 131.056 93.4689C131.087 93.5449 131.14 93.6098 131.209 93.6555C131.277 93.7012 131.357 93.7256 131.44 93.7256Z" fill="white"/>
<path d="M114.817 93.7256C114.872 93.7257 114.926 93.715 114.976 93.6941C115.027 93.6732 115.073 93.6425 115.111 93.6038L117.7 91.0153C117.775 90.9368 117.817 90.8318 117.816 90.7228C117.815 90.6137 117.772 90.5094 117.695 90.4323C117.618 90.3552 117.513 90.3115 117.404 90.3106C117.295 90.3096 117.19 90.3515 117.112 90.4273L114.523 93.0158C114.465 93.074 114.425 93.148 114.409 93.2287C114.393 93.3093 114.402 93.3929 114.433 93.4689C114.464 93.5449 114.518 93.6098 114.586 93.6555C114.654 93.7012 114.735 93.7256 114.817 93.7256Z" fill="white"/>
<path d="M207.041 81.6145C207.123 81.6145 207.204 81.5901 207.272 81.5444C207.341 81.4988 207.394 81.4338 207.425 81.3579C207.457 81.2819 207.465 81.1983 207.449 81.1176C207.433 81.0369 207.393 80.9628 207.335 80.9046L204.747 78.3159C204.708 78.2762 204.662 78.2445 204.612 78.2227C204.561 78.2009 204.506 78.1895 204.451 78.189C204.396 78.1885 204.341 78.199 204.29 78.2199C204.239 78.2408 204.193 78.2717 204.154 78.3108C204.114 78.3498 204.084 78.3962 204.063 78.4473C204.042 78.4984 204.031 78.5532 204.032 78.6084C204.032 78.6636 204.044 78.7182 204.066 78.7689C204.087 78.8196 204.119 78.8655 204.159 78.9039L206.747 81.4926C206.825 81.5706 206.931 81.6144 207.041 81.6145Z" fill="white"/>
<path d="M192.209 81.6143C192.291 81.6142 192.372 81.5898 192.44 81.5441C192.508 81.4984 192.562 81.4335 192.593 81.3575C192.624 81.2816 192.633 81.198 192.617 81.1173C192.601 81.0367 192.561 80.9626 192.503 80.9044L189.914 78.3157C189.837 78.2377 189.731 78.1939 189.62 78.1938C189.51 78.1938 189.404 78.2376 189.326 78.3156C189.248 78.3936 189.205 78.4993 189.205 78.6096C189.205 78.7199 189.248 78.8257 189.326 78.9037L191.915 81.4924C191.993 81.5704 192.099 81.6142 192.209 81.6143Z" fill="white"/>
<path d="M158.963 81.6145C159.045 81.6145 159.125 81.5901 159.194 81.5444C159.262 81.4988 159.315 81.4338 159.347 81.3579C159.378 81.2819 159.387 81.1983 159.371 81.1176C159.354 81.0369 159.315 80.9628 159.257 80.9046L156.669 78.3159C156.63 78.2762 156.584 78.2445 156.534 78.2227C156.483 78.2009 156.428 78.1895 156.373 78.189C156.318 78.1885 156.263 78.199 156.212 78.2199C156.161 78.2408 156.114 78.2717 156.075 78.3108C156.036 78.3498 156.005 78.3962 155.985 78.4473C155.964 78.4984 155.953 78.5532 155.954 78.6084C155.954 78.6636 155.966 78.7182 155.987 78.7689C156.009 78.8196 156.041 78.8655 156.081 78.9039L158.669 81.4926C158.747 81.5705 158.853 81.6143 158.963 81.6145Z" fill="white"/>
<path d="M175.586 81.6145C175.668 81.6144 175.748 81.59 175.817 81.5444C175.885 81.4987 175.938 81.4337 175.97 81.3578C176.001 81.2818 176.01 81.1982 175.993 81.1175C175.977 81.0369 175.938 80.9628 175.88 80.9046L173.291 78.3159C173.253 78.2762 173.207 78.2445 173.156 78.2227C173.105 78.2009 173.051 78.1895 172.996 78.189C172.94 78.1885 172.886 78.199 172.835 78.2199C172.783 78.2408 172.737 78.2717 172.698 78.3108C172.659 78.3498 172.628 78.3962 172.607 78.4473C172.586 78.4984 172.576 78.5532 172.576 78.6084C172.577 78.6636 172.588 78.7182 172.61 78.7689C172.632 78.8196 172.663 78.8655 172.703 78.9039L175.292 81.4926C175.33 81.5313 175.376 81.5619 175.427 81.5828C175.477 81.6037 175.531 81.6145 175.586 81.6145Z" fill="white"/>
<path d="M142.34 81.6145C142.422 81.6144 142.502 81.59 142.571 81.5444C142.639 81.4987 142.692 81.4337 142.724 81.3578C142.755 81.2818 142.763 81.1982 142.747 81.1175C142.731 81.0369 142.692 80.9628 142.634 80.9046L140.045 78.3159C140.007 78.2762 139.961 78.2445 139.91 78.2227C139.859 78.2009 139.805 78.1895 139.749 78.189C139.694 78.1885 139.64 78.199 139.588 78.2199C139.537 78.2408 139.491 78.2717 139.452 78.3108C139.413 78.3498 139.382 78.3962 139.361 78.4473C139.34 78.4984 139.33 78.5532 139.33 78.6084C139.331 78.6636 139.342 78.7182 139.364 78.7689C139.386 78.8196 139.417 78.8655 139.457 78.9039L142.046 81.4926C142.124 81.5706 142.229 81.6144 142.34 81.6145Z" fill="white"/>
<path d="M125.716 81.6145C125.799 81.6144 125.879 81.59 125.947 81.5444C126.016 81.4987 126.069 81.4337 126.1 81.3578C126.132 81.2818 126.14 81.1982 126.124 81.1175C126.108 81.0369 126.069 80.9628 126.01 80.9046L123.422 78.3159C123.384 78.2762 123.338 78.2445 123.287 78.2227C123.236 78.2009 123.182 78.1895 123.126 78.189C123.071 78.1885 123.016 78.199 122.965 78.2199C122.914 78.2408 122.868 78.2717 122.829 78.3108C122.79 78.3498 122.759 78.3962 122.738 78.4473C122.717 78.4984 122.707 78.5532 122.707 78.6084C122.708 78.6636 122.719 78.7182 122.741 78.7689C122.763 78.8196 122.794 78.8655 122.834 78.9039L125.422 81.4926C125.5 81.5706 125.606 81.6144 125.716 81.6145Z" fill="white"/>
<path d="M109.094 81.6145C109.176 81.6144 109.256 81.59 109.325 81.5444C109.393 81.4987 109.446 81.4337 109.478 81.3578C109.509 81.2818 109.517 81.1982 109.501 81.1175C109.485 81.0369 109.446 80.9628 109.388 80.9046L106.799 78.3159C106.761 78.2762 106.715 78.2445 106.664 78.2227C106.613 78.2009 106.559 78.1895 106.503 78.189C106.448 78.1885 106.393 78.199 106.342 78.2199C106.291 78.2408 106.245 78.2717 106.206 78.3108C106.167 78.3498 106.136 78.3962 106.115 78.4473C106.094 78.4984 106.084 78.5532 106.084 78.6084C106.084 78.6636 106.096 78.7182 106.118 78.7689C106.14 78.8196 106.171 78.8655 106.211 78.9039L108.8 81.4926C108.878 81.5706 108.983 81.6144 109.094 81.6145Z" fill="white"/>
<path d="M196.141 70.9813C196.195 70.9814 196.25 70.9707 196.3 70.9498C196.35 70.9289 196.396 70.8982 196.435 70.8595L199.023 68.271C199.101 68.193 199.145 68.0872 199.145 67.9769C199.145 67.8667 199.102 67.7609 199.024 67.6829C198.946 67.6049 198.84 67.5611 198.73 67.561C198.619 67.561 198.513 67.6048 198.435 67.6828L195.847 70.2715C195.789 70.3297 195.749 70.4038 195.733 70.4844C195.717 70.5651 195.725 70.6487 195.757 70.7246C195.788 70.8006 195.841 70.8655 195.91 70.9112C195.978 70.9569 196.059 70.9813 196.141 70.9813Z" fill="white"/>
<path d="M164.686 70.9816C164.74 70.9817 164.794 70.971 164.845 70.9501C164.895 70.9292 164.941 70.8985 164.98 70.8598L167.568 68.2712C167.643 68.1927 167.684 68.088 167.683 67.9796C167.681 67.8711 167.638 67.7675 167.561 67.6908C167.484 67.6141 167.381 67.5703 167.272 67.5689C167.164 67.5674 167.059 67.6084 166.981 67.6831L164.392 70.2718C164.334 70.33 164.295 70.404 164.278 70.4847C164.262 70.5653 164.271 70.6489 164.302 70.7249C164.334 70.8009 164.387 70.8658 164.455 70.9115C164.524 70.9572 164.604 70.9816 164.686 70.9816H164.686Z" fill="white"/>
<path d="M181.309 70.9813C181.363 70.9814 181.417 70.9707 181.468 70.9498C181.518 70.9289 181.564 70.8982 181.602 70.8595L184.191 68.271C184.269 68.193 184.313 68.0872 184.313 67.9769C184.313 67.8667 184.269 67.7609 184.191 67.6829C184.113 67.6049 184.008 67.5611 183.897 67.561C183.787 67.561 183.681 67.6048 183.603 67.6828L181.014 70.2715C180.956 70.3297 180.917 70.4038 180.901 70.4844C180.885 70.5651 180.893 70.6487 180.924 70.7246C180.956 70.8006 181.009 70.8655 181.077 70.9112C181.146 70.9569 181.226 70.9813 181.309 70.9813Z" fill="white"/>
<path d="M148.063 70.9813C148.117 70.9814 148.171 70.9707 148.222 70.9498C148.272 70.9289 148.318 70.8982 148.357 70.8595L150.945 68.271C151.023 68.193 151.067 68.0872 151.067 67.9769C151.067 67.8667 151.023 67.7609 150.945 67.6829C150.867 67.6049 150.762 67.5611 150.651 67.561C150.541 67.561 150.435 67.6048 150.357 67.6828L147.769 70.2715C147.711 70.3297 147.671 70.4038 147.655 70.4844C147.639 70.5651 147.647 70.6487 147.679 70.7246C147.71 70.8006 147.763 70.8655 147.832 70.9112C147.9 70.9569 147.98 70.9813 148.063 70.9813Z" fill="white"/>
<path d="M131.44 70.9813C131.494 70.9814 131.548 70.9707 131.599 70.9497C131.649 70.9288 131.695 70.8982 131.734 70.8595L134.322 68.271C134.4 68.193 134.444 68.0872 134.444 67.9769C134.444 67.8667 134.4 67.7609 134.322 67.6829C134.244 67.6049 134.139 67.5611 134.028 67.561C133.918 67.561 133.812 67.6048 133.734 67.6828L131.146 70.2715C131.088 70.3297 131.048 70.4038 131.032 70.4844C131.016 70.5651 131.024 70.6487 131.056 70.7246C131.087 70.8006 131.14 70.8655 131.209 70.9112C131.277 70.9569 131.357 70.9813 131.44 70.9813Z" fill="white"/>
<path d="M114.817 70.9813C114.872 70.9814 114.926 70.9707 114.976 70.9498C115.027 70.9289 115.073 70.8982 115.111 70.8595L117.7 68.271C117.778 68.193 117.822 68.0872 117.822 67.9769C117.822 67.8667 117.778 67.7609 117.7 67.6829C117.622 67.6049 117.516 67.5611 117.406 67.561C117.296 67.561 117.19 67.6048 117.112 67.6828L114.523 70.2715C114.465 70.3297 114.425 70.4038 114.409 70.4844C114.393 70.5651 114.402 70.6487 114.433 70.7246C114.464 70.8006 114.518 70.8655 114.586 70.9112C114.654 70.9569 114.735 70.9813 114.817 70.9813Z" fill="white"/>
<path d="M158.963 58.8703C159.045 58.8703 159.125 58.846 159.194 58.8003C159.262 58.7546 159.315 58.6897 159.347 58.6137C159.378 58.5377 159.387 58.4541 159.371 58.3734C159.354 58.2928 159.315 58.2187 159.257 58.1605L156.669 55.5718C156.63 55.5321 156.584 55.5004 156.534 55.4786C156.483 55.4568 156.428 55.4453 156.373 55.4448C156.318 55.4444 156.263 55.4549 156.212 55.4758C156.161 55.4967 156.114 55.5276 156.075 55.5666C156.036 55.6057 156.005 55.6521 155.985 55.7032C155.964 55.7543 155.953 55.8091 155.954 55.8643C155.954 55.9195 155.966 55.974 155.987 56.0248C156.009 56.0755 156.041 56.1214 156.081 56.1598L158.669 58.7485C158.747 58.8265 158.852 58.8703 158.963 58.8703Z" fill="white"/>
<path d="M175.586 58.8704C175.668 58.8703 175.748 58.8459 175.817 58.8003C175.885 58.7546 175.938 58.6896 175.97 58.6137C176.001 58.5377 176.01 58.4541 175.994 58.3734C175.977 58.2928 175.938 58.2187 175.88 58.1605L173.291 55.5718C173.213 55.4961 173.108 55.4541 172.999 55.4551C172.89 55.456 172.785 55.4998 172.708 55.5769C172.631 55.654 172.587 55.7583 172.586 55.8673C172.585 55.9763 172.627 56.0814 172.703 56.1598L175.292 58.7485C175.33 58.7872 175.376 58.8178 175.427 58.8387C175.477 58.8596 175.531 58.8704 175.586 58.8704Z" fill="white"/>
<path d="M142.34 58.8704C142.422 58.8703 142.502 58.8459 142.571 58.8003C142.639 58.7546 142.692 58.6896 142.724 58.6137C142.755 58.5377 142.763 58.4541 142.747 58.3734C142.731 58.2928 142.692 58.2187 142.634 58.1605L140.045 55.5718C139.967 55.4961 139.862 55.4541 139.753 55.4551C139.644 55.456 139.539 55.4998 139.462 55.5769C139.385 55.654 139.341 55.7583 139.34 55.8673C139.339 55.9763 139.381 56.0814 139.457 56.1598L142.046 58.7485C142.124 58.8265 142.229 58.8703 142.34 58.8704Z" fill="white"/>
<path d="M125.407 58.7323L125.423 58.7489C125.462 58.7873 125.508 58.8178 125.558 58.8385C125.608 58.8592 125.662 58.8697 125.717 58.8695C125.778 58.87 125.839 58.8568 125.895 58.8307C125.951 58.8045 126 58.7662 126.039 58.7186C126.078 58.6709 126.106 58.6151 126.121 58.5552C126.136 58.4953 126.137 58.4329 126.124 58.3726C125.883 58.4911 125.644 58.6117 125.407 58.7323Z" fill="white"/>
<path d="M166.066 295.765V296.603L166.798 311.767C166.824 312.311 167.059 312.824 167.453 313.2C167.848 313.575 168.372 313.785 168.916 313.785H240.758C242.008 313.785 242.127 312.496 240.8 311.068C233.723 303.595 218.795 295.765 218.795 295.765H166.066Z" fill="#231E40"/>
<path d="M217.388 304.923C217.312 304.923 217.237 304.901 217.171 304.861C217.106 304.822 217.053 304.764 217.018 304.696C216.983 304.628 216.968 304.552 216.974 304.476C216.98 304.399 217.006 304.326 217.051 304.264L221.927 297.484C221.959 297.44 222 297.402 222.046 297.373C222.092 297.345 222.144 297.325 222.198 297.316C222.252 297.308 222.307 297.31 222.36 297.322C222.413 297.335 222.464 297.357 222.508 297.389C222.552 297.421 222.59 297.462 222.619 297.508C222.647 297.554 222.667 297.606 222.675 297.66C222.684 297.714 222.682 297.769 222.67 297.822C222.657 297.875 222.635 297.925 222.603 297.97L217.726 304.75C217.688 304.803 217.637 304.847 217.578 304.877C217.519 304.907 217.454 304.923 217.388 304.923Z" fill="white"/>
<path d="M221.154 307.638C221.078 307.638 221.003 307.617 220.937 307.577C220.872 307.537 220.819 307.48 220.784 307.411C220.749 307.343 220.734 307.267 220.74 307.19C220.746 307.114 220.773 307.041 220.818 306.979L225.932 299.902C225.964 299.857 226.005 299.82 226.051 299.791C226.098 299.763 226.149 299.743 226.203 299.735C226.257 299.726 226.312 299.728 226.365 299.741C226.418 299.753 226.469 299.776 226.513 299.808C226.557 299.84 226.595 299.881 226.623 299.927C226.652 299.974 226.671 300.025 226.68 300.079C226.688 300.133 226.686 300.188 226.674 300.242C226.661 300.295 226.638 300.345 226.606 300.389L221.492 307.466C221.453 307.519 221.402 307.563 221.344 307.593C221.285 307.623 221.22 307.638 221.154 307.638Z" fill="white"/>
<path d="M241.334 317.391H167.27C167.16 317.391 167.054 317.347 166.976 317.269C166.898 317.191 166.854 317.086 166.854 316.975C166.854 316.865 166.898 316.759 166.976 316.681C167.054 316.603 167.16 316.56 167.27 316.56H241.334C241.445 316.56 241.55 316.603 241.628 316.681C241.706 316.759 241.75 316.865 241.75 316.975C241.75 317.086 241.706 317.191 241.628 317.269C241.55 317.347 241.445 317.391 241.334 317.391Z" fill="#231E40"/>
<path d="M34.7043 313.785H105.083C105.615 313.785 106.133 313.609 106.554 313.284C106.976 312.959 107.278 312.503 107.413 311.989L111.646 295.907C111.651 295.89 111.652 295.873 111.648 295.856C111.645 295.84 111.638 295.824 111.628 295.81C111.618 295.797 111.604 295.786 111.589 295.779C111.574 295.771 111.557 295.767 111.54 295.767L109.397 295.765H56.6946C56.6772 295.765 56.6601 295.769 56.6447 295.778C55.9877 296.125 41.5777 303.766 34.6628 311.068C33.3365 312.496 33.455 313.785 34.7043 313.785Z" fill="#231E40"/>
<path d="M58.0748 304.923C58.0087 304.923 57.9436 304.907 57.8849 304.877C57.8261 304.847 57.7753 304.803 57.7367 304.75L52.8605 297.97C52.8286 297.925 52.8057 297.875 52.7933 297.822C52.7808 297.769 52.7789 297.714 52.7877 297.66C52.8054 297.551 52.8657 297.454 52.9553 297.389C53.0448 297.325 53.1563 297.299 53.2652 297.316C53.374 297.334 53.4714 297.395 53.5358 297.484L58.4116 304.264C58.4563 304.326 58.4829 304.399 58.4887 304.475C58.4944 304.552 58.479 304.628 58.4442 304.696C58.4093 304.764 58.3563 304.821 58.2911 304.861C58.2259 304.901 58.1509 304.922 58.0744 304.922L58.0748 304.923Z" fill="white"/>
<path d="M54.3081 307.638C54.2423 307.638 54.1773 307.623 54.1187 307.593C54.06 307.563 54.0093 307.519 53.9707 307.466L48.8562 300.389C48.8242 300.345 48.8012 300.295 48.7886 300.242C48.776 300.188 48.7739 300.133 48.7826 300.079C48.7913 300.025 48.8105 299.974 48.8391 299.927C48.8678 299.881 48.9053 299.84 48.9496 299.808C48.9938 299.776 49.0439 299.753 49.0971 299.741C49.1502 299.728 49.2053 299.726 49.2592 299.735C49.3131 299.743 49.3648 299.763 49.4113 299.791C49.4578 299.82 49.4982 299.857 49.5302 299.902L54.6447 306.979C54.6896 307.041 54.7165 307.114 54.7224 307.19C54.7283 307.267 54.713 307.343 54.6781 307.411C54.6433 307.48 54.5903 307.537 54.5249 307.577C54.4596 307.617 54.3845 307.638 54.3079 307.638H54.3081Z" fill="white"/>
<path d="M106.007 317.391H33.2967C33.1864 317.391 33.0806 317.347 33.0026 317.269C32.9247 317.191 32.8809 317.086 32.8809 316.975C32.8809 316.865 32.9247 316.759 33.0026 316.681C33.0806 316.603 33.1864 316.56 33.2967 316.56H106.007C106.117 316.56 106.223 316.603 106.301 316.681C106.379 316.759 106.423 316.865 106.423 316.975C106.423 317.086 106.379 317.191 106.301 317.269C106.223 317.347 106.117 317.391 106.007 317.391Z" fill="#231E40"/>
<path d="M140.364 94.1115L123.843 109.118L114.87 117.456L95.303 135.637L92.8168 133.309C79.8083 121.116 79.8474 97.0008 92.9 84.8722L95.493 82.4631L109.604 69.5859C112.391 67.1492 115.326 64.8887 118.394 62.8175C121.236 60.8989 124.278 59.2938 127.465 58.0303C133.307 55.7557 139.75 58.018 143.576 63.9099C143.676 64.065 143.776 64.2222 143.873 64.3816C149.627 73.7685 148.05 87.1312 140.364 94.1115Z" fill="white"/>
<path d="M146.836 130.573L132.561 117.253L123.843 109.119L95.4923 82.4634L92.8993 84.8731C79.8471 97.0018 79.8078 121.117 92.8161 133.31L95.3025 135.638L111.654 150.961L118.507 157.384L114.687 163.543C115.083 162.883 115.345 162.151 115.458 161.389C115.506 161.073 115.53 160.754 115.53 160.434C115.53 158.87 114.959 157.325 113.872 156.303C112.021 154.564 109.376 155.001 107.965 157.28L106.472 159.683C105.324 161.58 104.725 163.758 104.742 165.974C104.742 169.1 105.884 172.188 108.056 174.232C111.139 177.129 115.327 177.008 118.276 174.251C121.332 177.091 125.457 176.981 128.388 174.293C131.358 177.03 135.326 176.995 138.231 174.527C141.911 177.658 146.977 176.705 149.723 172.279L150.538 170.916L153.552 165.875C153.626 165.749 153.698 165.618 153.762 165.48C159.119 155.152 156.095 139.522 146.836 130.573Z" fill="white"/>
<path d="M128.833 174.971C128.749 174.971 128.667 174.946 128.598 174.899C128.529 174.851 128.476 174.784 128.445 174.706C128.415 174.628 128.409 174.543 128.428 174.461C128.447 174.38 128.49 174.306 128.551 174.249C129.166 173.678 129.701 173.026 130.14 172.311L134.914 164.613C134.943 164.567 134.981 164.527 135.025 164.495C135.07 164.463 135.12 164.44 135.173 164.427C135.226 164.415 135.281 164.413 135.335 164.422C135.389 164.431 135.441 164.45 135.487 164.479C135.533 164.508 135.574 164.545 135.606 164.59C135.638 164.634 135.66 164.684 135.673 164.737C135.685 164.791 135.687 164.846 135.678 164.9C135.67 164.953 135.65 165.005 135.621 165.052L130.847 172.75C130.368 173.529 129.785 174.24 129.114 174.862C129.038 174.932 128.937 174.971 128.833 174.971Z" fill="#231E40"/>
<path d="M138.411 174.971C138.327 174.971 138.245 174.946 138.176 174.899C138.107 174.851 138.054 174.784 138.023 174.706C137.993 174.628 137.986 174.543 138.005 174.461C138.024 174.38 138.067 174.306 138.129 174.249C138.744 173.678 139.279 173.026 139.718 172.311L144.492 164.613C144.521 164.567 144.559 164.527 144.603 164.495C144.647 164.463 144.698 164.44 144.751 164.427C144.804 164.415 144.859 164.413 144.913 164.422C144.967 164.431 145.019 164.45 145.065 164.479C145.111 164.508 145.152 164.545 145.183 164.59C145.215 164.634 145.238 164.684 145.251 164.737C145.263 164.791 145.265 164.846 145.256 164.9C145.247 164.953 145.228 165.005 145.199 165.052L140.425 172.75C139.946 173.529 139.363 174.24 138.692 174.862C138.615 174.932 138.515 174.971 138.411 174.971Z" fill="#231E40"/>
<path d="M118.714 174.933C118.631 174.933 118.549 174.908 118.48 174.861C118.411 174.814 118.358 174.748 118.327 174.67C118.297 174.592 118.29 174.507 118.308 174.426C118.327 174.345 118.369 174.271 118.43 174.214C119.021 173.655 119.536 173.021 119.962 172.328L124.737 164.63C124.765 164.584 124.803 164.544 124.847 164.512C124.892 164.48 124.942 164.457 124.995 164.445C125.048 164.432 125.103 164.43 125.157 164.439C125.211 164.448 125.263 164.467 125.309 164.496C125.356 164.525 125.396 164.562 125.428 164.607C125.46 164.651 125.482 164.701 125.495 164.754C125.507 164.808 125.509 164.863 125.5 164.917C125.492 164.971 125.472 165.022 125.443 165.069L120.668 172.767C120.204 173.522 119.643 174.213 118.998 174.821C118.921 174.893 118.82 174.933 118.714 174.933Z" fill="#231E40"/>
<path d="M112.981 165.798C112.907 165.798 112.834 165.779 112.771 165.741C112.707 165.704 112.654 165.65 112.618 165.585C112.582 165.52 112.564 165.447 112.566 165.373C112.567 165.298 112.589 165.226 112.628 165.163L115.565 160.427C115.623 160.333 115.716 160.267 115.824 160.241C115.931 160.216 116.044 160.235 116.138 160.293C116.232 160.351 116.299 160.444 116.324 160.551C116.349 160.659 116.33 160.772 116.272 160.866L113.335 165.602C113.298 165.662 113.246 165.711 113.184 165.746C113.122 165.78 113.052 165.798 112.981 165.798Z" fill="#231E40"/>
<path d="M170.339 54.8669C170.967 56.3013 171.509 57.7718 171.962 59.2705C172.207 60.0094 172.383 60.7772 172.586 61.5284C172.686 61.905 172.757 62.2931 172.844 62.6732C172.924 63.0568 173.02 63.4321 173.083 63.8213C173.655 66.9188 173.991 70.0553 174.09 73.2036C174.209 76.3741 174.157 79.5729 174.017 82.8122C173.873 86.0573 173.681 89.314 173.419 92.5502C173.232 94.8562 172.582 100.08 172.582 100.08L179.611 104.917L185.226 100.838C185.226 100.838 184.778 95.6093 184.485 92.4562C184.17 89.0822 183.783 85.7311 183.346 82.3724C182.903 79.0098 182.365 75.6102 181.638 72.2243C180.925 68.8098 179.955 65.4542 178.735 62.1863C177.501 58.9003 175.901 55.7634 173.966 52.8349C173.744 52.774 172.953 52.8829 172.953 52.8829C172.738 53.0309 172.496 53.1347 172.24 53.1883C171.985 53.2418 171.721 53.244 171.465 53.1948L171.337 53.1703C171.337 53.1703 170.018 54.1076 170.309 54.7985L170.339 54.8669Z" fill="#231E40"/>
<path d="M167.681 62.5975L158.373 52.8312L163.118 49.7729L171.118 53.5129L170.361 61.6665C170.333 61.964 170.22 62.2472 170.035 62.4823C169.851 62.7174 169.602 62.8946 169.32 62.9927C169.038 63.0908 168.733 63.1057 168.443 63.0356C168.152 62.9656 167.888 62.8135 167.681 62.5975Z" fill="white"/>
<path d="M168.8 63.4991C168.534 63.4986 168.271 63.4438 168.027 63.3381C167.783 63.2323 167.563 63.0779 167.381 62.8841L158.072 53.118C158.03 53.0737 157.998 53.0206 157.979 52.9625C157.959 52.9044 157.953 52.8428 157.96 52.782C157.968 52.7212 157.988 52.6627 158.021 52.6108C158.053 52.5589 158.097 52.5147 158.148 52.4816L162.893 49.4234C162.952 49.3852 163.02 49.3627 163.09 49.3579C163.16 49.3531 163.231 49.3663 163.294 49.3961L171.295 53.1361C171.372 53.1724 171.437 53.2319 171.479 53.3063C171.522 53.3807 171.541 53.4665 171.532 53.5519L170.776 61.7053C170.743 62.0834 170.601 62.4439 170.367 62.7427C170.133 63.0415 169.817 63.2657 169.458 63.3879C169.246 63.4614 169.024 63.499 168.8 63.4991ZM167.982 62.3103C168.134 62.4688 168.328 62.5804 168.541 62.6318C168.754 62.6833 168.977 62.6724 169.184 62.6004C169.391 62.5285 169.574 62.3985 169.709 62.226C169.844 62.0535 169.927 61.8458 169.948 61.6275L170.678 53.7654L163.151 50.2467L159.022 52.908L167.982 62.3103Z" fill="#231E40"/>
<path d="M181.399 58.4679L181.79 55.3431L174.425 51.4092L173.233 53.2089L178.691 59.3134C178.89 59.5362 179.15 59.6968 179.438 59.7762C179.726 59.8556 180.031 59.8505 180.317 59.7614C180.602 59.6723 180.856 59.5029 181.048 59.2736C181.24 59.0442 181.362 58.7646 181.399 58.4679Z" fill="white"/>
<path d="M179.842 60.2518C179.566 60.2514 179.292 60.1923 179.04 60.0783C178.788 59.9644 178.563 59.7982 178.381 59.5908L172.923 53.4862C172.862 53.4177 172.825 53.3307 172.818 53.239C172.812 53.1473 172.836 53.056 172.887 52.9793L174.079 51.1798C174.136 51.0936 174.223 51.0317 174.323 51.0064C174.424 50.981 174.53 50.9939 174.621 51.0426L181.986 54.977C182.06 55.0166 182.12 55.0778 182.159 55.1525C182.198 55.2272 182.213 55.3118 182.202 55.3953L181.811 58.52C181.767 58.8969 181.613 59.2526 181.37 59.5438C181.127 59.835 180.804 60.049 180.441 60.1596C180.247 60.2204 180.045 60.2515 179.842 60.2518ZM173.758 53.1712L179.002 59.0365C179.148 59.1997 179.338 59.3174 179.549 59.3755C179.761 59.4337 179.984 59.4299 180.194 59.3646C180.403 59.2993 180.589 59.1752 180.73 59.0072C180.87 58.8391 180.96 58.6342 180.987 58.4167L181.343 55.5758L174.563 51.9545L173.758 53.1712Z" fill="#231E40"/>
<path d="M108.616 148.329L135.268 119.597L142.612 126.41L115.961 155.142L108.616 148.329Z" fill="#231E40"/>
<path d="M126.149 147.402C132.008 147.402 136.758 142.652 136.758 136.792C136.758 130.933 132.008 126.183 126.149 126.183C120.29 126.183 115.541 130.933 115.541 136.792C115.541 142.652 120.29 147.402 126.149 147.402Z" fill="white"/>
<path d="M126.149 147.818C123.969 147.818 121.838 147.171 120.025 145.96C118.212 144.748 116.799 143.026 115.964 141.012C115.13 138.997 114.911 136.78 115.337 134.642C115.762 132.503 116.812 130.539 118.354 128.997C119.896 127.455 121.86 126.405 123.999 125.979C126.138 125.554 128.354 125.772 130.369 126.607C132.383 127.441 134.105 128.854 135.316 130.667C136.528 132.481 137.174 134.612 137.174 136.793C137.171 139.716 136.008 142.518 133.942 144.585C131.875 146.652 129.072 147.814 126.149 147.818ZM126.149 126.599C124.133 126.599 122.163 127.197 120.487 128.317C118.81 129.437 117.504 131.029 116.732 132.892C115.961 134.755 115.759 136.804 116.153 138.781C116.546 140.759 117.517 142.575 118.942 144.001C120.368 145.426 122.184 146.397 124.161 146.79C126.138 147.183 128.188 146.982 130.05 146.21C131.913 145.439 133.505 144.132 134.625 142.456C135.745 140.779 136.343 138.809 136.343 136.793C136.34 134.09 135.265 131.499 133.354 129.588C131.443 127.677 128.852 126.602 126.149 126.599Z" fill="#231E40"/>
</g>
<g clip-path="url(#clip3_12_3627)">
<path d="M177.754 35.1922C178.284 37.2848 178.089 39.4955 177.2 41.4636C176.311 43.4317 174.781 45.0412 172.86 46.0296C170.938 47.018 168.739 47.3269 166.619 46.906C164.5 46.4851 162.587 45.3593 161.191 43.712C159.795 42.0648 158.999 39.9933 158.933 37.8356C158.867 35.6778 159.535 33.561 160.828 31.8304C162.12 30.0998 163.962 28.8575 166.051 28.3061C168.14 27.7547 170.355 27.9267 172.333 28.7942C173.664 29.3783 174.845 30.2582 175.784 31.3669C176.724 32.4756 177.397 33.7839 177.754 35.1922Z" fill="white"/>
<path d="M172.338 28.8136C171.829 31.9916 170.417 34.9574 168.271 37.3586C166.126 39.7599 163.335 41.4958 160.232 42.3603C159.493 41.0809 159.061 39.6478 158.969 38.1733C158.876 36.6987 159.127 35.2227 159.701 33.8608C160.275 32.4989 161.157 31.288 162.277 30.3231C163.398 29.3582 164.726 28.6653 166.159 28.2988C168.218 27.7686 170.396 27.95 172.338 28.8136Z" fill="#231E40"/>
</g>
<g clip-path="url(#clip4_12_3627)">
<path d="M210.467 109.103L245.227 122.86C245.398 122.928 245.488 123.136 245.421 123.307C245.353 123.477 245.145 123.567 244.974 123.5L210.214 109.743C210.043 109.675 209.953 109.467 210.02 109.296C210.088 109.126 210.275 109.027 210.467 109.103Z" fill="#231E40"/>
<path d="M200.134 113.296L234.894 127.053C235.065 127.121 235.155 127.329 235.088 127.5C235.02 127.67 234.812 127.76 234.641 127.693L199.881 113.936C199.71 113.868 199.612 113.681 199.687 113.489C199.755 113.319 199.964 113.229 200.134 113.296Z" fill="#231E40"/>
</g>
<g clip-path="url(#clip5_12_3627)">
<path d="M151.568 177.807L86.8037 155.087L88.5602 149.935L153.14 173.214L151.568 177.807Z" fill="#231E40"/>
<path d="M227.212 200.252C226.354 199.365 225.439 198.536 224.472 197.77C218.029 192.578 206.6 186.703 192.988 182.037C179.376 177.371 166.762 174.988 158.493 175.157C157.261 175.172 156.032 175.27 154.813 175.45C152.521 173.07 151.509 170.922 152.09 169.211C154.081 163.395 173.831 164.907 196.224 172.571C218.604 180.253 235.158 191.176 233.167 196.992C232.586 198.703 230.467 199.787 227.212 200.252Z" fill="#231E40"/>
<path d="M226.136 200.173C226.06 200.117 226.004 200.039 225.973 199.949C225.943 199.86 225.941 199.764 225.966 199.673C225.992 199.583 226.045 199.502 226.117 199.442C226.19 199.382 226.279 199.346 226.373 199.338C229.444 199.078 232.386 197.444 233.368 195.452C233.395 195.397 233.432 195.348 233.478 195.308C233.524 195.268 233.577 195.237 233.635 195.217C233.693 195.198 233.754 195.19 233.815 195.194C233.876 195.198 233.936 195.214 233.991 195.241C234.046 195.268 234.095 195.306 234.135 195.352C234.175 195.398 234.206 195.451 234.226 195.509C234.246 195.567 234.254 195.628 234.25 195.689C234.246 195.75 234.23 195.809 234.203 195.864C233.069 198.165 229.883 199.975 226.454 200.265C226.341 200.274 226.227 200.242 226.136 200.173Z" fill="white"/>
<path d="M159.51 183.367C159.435 183.311 159.379 183.233 159.348 183.145C159.318 183.056 159.315 182.961 159.339 182.871C159.364 182.781 159.415 182.7 159.486 182.64C159.558 182.579 159.646 182.542 159.739 182.532L192.297 179.124C192.358 179.118 192.419 179.124 192.478 179.141C192.536 179.158 192.591 179.187 192.639 179.225C192.686 179.264 192.726 179.311 192.755 179.365C192.785 179.419 192.803 179.478 192.81 179.538C192.816 179.599 192.811 179.661 192.793 179.719C192.776 179.778 192.748 179.832 192.709 179.88C192.671 179.927 192.624 179.967 192.57 179.996C192.516 180.025 192.457 180.043 192.397 180.049L159.838 183.457C159.722 183.47 159.604 183.437 159.51 183.367Z" fill="white"/>
<path d="M170.295 188.354C170.22 188.298 170.163 188.221 170.133 188.132C170.102 188.044 170.099 187.948 170.124 187.858C170.148 187.768 170.199 187.688 170.271 187.627C170.342 187.567 170.43 187.529 170.523 187.52L204.491 183.977C204.613 183.964 204.736 184 204.832 184.078C204.928 184.156 204.99 184.268 205.003 184.391C205.016 184.514 204.98 184.636 204.903 184.732C204.825 184.828 204.713 184.889 204.59 184.902L170.622 188.445C170.506 188.457 170.389 188.425 170.295 188.354Z" fill="white"/>
<path d="M186.797 197.557C186.722 197.501 186.666 197.424 186.635 197.335C186.605 197.247 186.602 197.152 186.627 197.061C186.651 196.971 186.702 196.891 186.774 196.831C186.845 196.77 186.933 196.733 187.026 196.723L221.812 193.096C221.874 193.089 221.936 193.093 221.995 193.11C222.055 193.127 222.11 193.156 222.159 193.194C222.207 193.232 222.247 193.28 222.277 193.334C222.307 193.388 222.326 193.448 222.333 193.509C222.339 193.571 222.333 193.633 222.316 193.692C222.298 193.751 222.269 193.806 222.23 193.853C222.191 193.901 222.142 193.94 222.088 193.969C222.033 193.998 221.973 194.015 221.912 194.021L187.125 197.648C187.009 197.66 186.891 197.628 186.797 197.557Z" fill="white"/>
<path d="M185.801 203.131C163.421 195.449 146.88 184.508 148.858 178.71L152.09 169.211C151.509 170.922 152.521 173.07 154.813 175.45C160.304 181.177 173.217 188.218 189.051 193.646C204.867 199.06 219.37 201.406 227.23 200.266C230.486 199.801 232.605 198.717 233.185 197.006L229.954 206.505C227.944 212.307 208.194 210.795 185.801 203.131Z" fill="#231E40"/>
<path d="M155.121 175.738C155.104 175.725 155.088 175.711 155.072 175.696C152.221 172.884 151.269 169.988 152.461 167.75C152.52 167.644 152.619 167.566 152.736 167.532C152.853 167.498 152.978 167.511 153.086 167.568C153.193 167.625 153.274 167.723 153.311 167.839C153.348 167.955 153.338 168.081 153.283 168.189C151.885 170.816 154.525 173.852 155.726 175.036C155.81 175.119 155.86 175.231 155.864 175.348C155.869 175.466 155.83 175.581 155.753 175.67C155.676 175.759 155.569 175.816 155.452 175.829C155.335 175.841 155.217 175.81 155.122 175.739L155.121 175.738Z" fill="white"/>
<path d="M148.682 177.39C148.603 177.331 148.545 177.249 148.516 177.155C148.487 177.061 148.488 176.96 148.519 176.868L150.087 172.241C150.13 172.13 150.215 172.04 150.323 171.989C150.432 171.939 150.556 171.932 150.669 171.971C150.783 172.01 150.877 172.091 150.933 172.197C150.988 172.303 151.001 172.426 150.968 172.541L149.4 177.168C149.377 177.237 149.337 177.3 149.285 177.351C149.232 177.402 149.168 177.44 149.098 177.462C149.028 177.483 148.954 177.488 148.881 177.476C148.809 177.463 148.741 177.434 148.682 177.39Z" fill="white"/>
</g>
<g clip-path="url(#clip6_12_3627)">
<path d="M137.121 174.313L72.356 151.592L74.1124 146.441L138.693 169.719L137.121 174.313Z" fill="#231E40"/>
<path d="M212.764 196.758C211.906 195.871 210.991 195.042 210.024 194.275C203.581 189.083 192.152 183.208 178.54 178.542C164.928 173.877 152.314 171.493 144.046 171.662C142.813 171.677 141.584 171.775 140.366 171.955C138.073 169.575 137.061 167.428 137.642 165.717C139.634 159.9 159.383 161.413 181.776 169.076C204.156 176.758 220.711 187.681 218.719 193.498C218.138 195.209 216.02 196.292 212.764 196.758Z" fill="#231E40"/>
<path d="M171.353 199.637C148.973 191.955 132.433 181.013 134.41 175.215L137.642 165.717C137.061 167.428 138.073 169.575 140.366 171.956C145.856 177.683 158.769 184.724 174.603 190.152C190.419 195.566 204.922 197.912 212.782 196.772C216.038 196.306 218.157 195.223 218.738 193.512L215.506 203.011C213.496 208.813 193.746 207.3 171.353 199.637Z" fill="#231E40"/>
<path d="M140.673 172.244C140.656 172.231 140.64 172.217 140.624 172.202C137.773 169.39 136.821 166.493 138.013 164.256C138.073 164.15 138.171 164.071 138.288 164.037C138.405 164.003 138.531 164.016 138.638 164.073C138.746 164.131 138.827 164.228 138.863 164.344C138.9 164.46 138.89 164.586 138.835 164.694C137.437 167.321 140.078 170.358 141.278 171.542C141.362 171.625 141.412 171.736 141.417 171.854C141.422 171.971 141.382 172.086 141.305 172.175C141.229 172.264 141.121 172.321 141.004 172.334C140.887 172.347 140.769 172.315 140.675 172.245L140.673 172.244Z" fill="white"/>
<path d="M134.234 173.895C134.155 173.836 134.097 173.754 134.068 173.66C134.039 173.566 134.04 173.466 134.072 173.373L135.639 168.747C135.682 168.635 135.767 168.545 135.876 168.495C135.984 168.444 136.108 168.438 136.222 168.476C136.335 168.515 136.429 168.596 136.485 168.702C136.541 168.808 136.553 168.932 136.52 169.047L134.952 173.673C134.929 173.742 134.889 173.805 134.837 173.856C134.784 173.907 134.72 173.945 134.65 173.967C134.58 173.989 134.506 173.994 134.434 173.981C134.361 173.968 134.293 173.939 134.234 173.895Z" fill="white"/>
</g>
<g clip-path="url(#clip7_12_3627)">
<path d="M259.875 26.7036L321.227 17.8882L333.156 100.908L271.804 109.723L259.875 26.7036Z" fill="#FF713D"/>
<path d="M263.023 32.1758L319.748 24.0251L330.578 99.395L273.853 107.546L263.023 32.1758Z" fill="white"/>
<path d="M308.626 40.8789L313.513 40.1768L313.59 40.7128L308.703 41.4149L308.626 40.8789Z" fill="white"/>
<path d="M273.556 45.918L303.481 41.6181L303.558 42.1541L273.633 46.4539L273.556 45.918Z" fill="white"/>
<path d="M309.461 46.6846L314.347 45.9825L314.424 46.5184L309.538 47.2205L309.461 46.6846Z" fill="white"/>
<path d="M274.391 51.7236L304.316 47.4238L304.393 47.9598L274.468 52.2596L274.391 51.7236Z" fill="white"/>
<path d="M310.295 52.4893L315.181 51.7872L315.258 52.3231L310.372 53.0252L310.295 52.4893Z" fill="white"/>
<path d="M275.225 57.5288L305.15 53.229L305.227 53.7649L275.302 58.0648L275.225 57.5288Z" fill="white"/>
<path d="M311.129 58.2949L316.015 57.5928L316.092 58.1288L311.206 58.8309L311.129 58.2949Z" fill="white"/>
<path d="M276.059 63.334L305.984 59.0341L306.061 59.5701L276.136 63.87L276.059 63.334Z" fill="white"/>
<path d="M311.964 64.104L316.85 63.4019L316.927 63.9379L312.041 64.64L311.964 64.104Z" fill="white"/>
<path d="M276.894 69.1431L306.819 64.8432L306.896 65.3792L276.971 69.679L276.894 69.1431Z" fill="white"/>
<path d="M312.798 69.9092L317.684 69.2071L317.761 69.7431L312.875 70.4452L312.798 69.9092Z" fill="white"/>
<path d="M277.728 74.9482L307.653 70.6484L307.73 71.1844L277.805 75.4842L277.728 74.9482Z" fill="white"/>
<path d="M314.466 81.5195L319.353 80.8174L319.43 81.3534L314.543 82.0555L314.466 81.5195Z" fill="white"/>
<path d="M279.396 86.5591L309.321 82.2592L309.398 82.7952L279.473 87.0951L279.396 86.5591Z" fill="white"/>
<path d="M313.632 75.7144L318.518 75.0123L318.595 75.5482L313.709 76.2503L313.632 75.7144Z" fill="white"/>
<path d="M278.562 80.7539L308.487 76.4541L308.564 76.99L278.639 81.2899L278.562 80.7539Z" fill="white"/>
<path d="M289.991 18.3967C288.96 18.5448 287.908 18.3842 286.969 17.9353C286.029 17.4863 285.244 16.7691 284.713 15.8744C284.182 14.9796 283.928 13.9475 283.984 12.9086C284.04 11.8697 284.403 10.8706 285.028 10.0376C285.652 9.20466 286.51 8.57529 287.492 8.22908C288.474 7.88287 289.537 7.83538 290.547 8.09261C291.556 8.34984 292.466 8.90023 293.162 9.67419C293.857 10.4482 294.308 11.4109 294.456 12.4407C294.653 13.8215 294.293 15.224 293.456 16.3406C292.619 17.4572 291.373 18.1966 289.991 18.3967ZM288.572 8.51888C287.647 8.65177 286.782 9.05563 286.087 9.67937C285.392 10.3031 284.897 11.1187 284.666 12.0231C284.434 12.9274 284.477 13.8799 284.787 14.76C285.098 15.6402 285.663 16.4085 286.411 16.9677C287.159 17.527 288.056 17.8521 288.989 17.902C289.922 17.9519 290.849 17.7243 291.652 17.248C292.456 16.7717 293.101 16.0681 293.504 15.2261C293.907 14.3841 294.052 13.4417 293.919 12.5178C293.74 11.2797 293.076 10.1633 292.074 9.41366C291.071 8.66398 289.812 8.34219 288.572 8.51888Z" fill="white"/>
<path d="M277.646 19.854L302.247 16.3192L304.028 28.7159L279.428 32.2507L277.646 19.854Z" fill="white"/>
<path d="M304.335 28.9451L279.198 32.557L277.339 19.624L302.477 16.0121L304.335 28.9451ZM279.657 31.9439L303.721 28.4862L302.017 16.6252L277.953 20.0829L279.657 31.9439Z" fill="white"/>
</g>
<g clip-path="url(#clip8_12_3627)">
<path d="M303.895 29.0323L279.52 32.5346C279.402 32.5516 279.282 32.5208 279.186 32.4492C279.091 32.3775 279.027 32.2707 279.01 32.1523C278.993 32.034 279.024 31.9137 279.096 31.818C279.167 31.7223 279.274 31.659 279.392 31.642L303.766 28.1397C303.885 28.1227 304.005 28.1535 304.1 28.2252C304.196 28.2968 304.259 28.4036 304.276 28.522C304.293 28.6403 304.263 28.7606 304.191 28.8563C304.12 28.952 304.013 29.0153 303.895 29.0323Z" fill="#231E40"/>
<path d="M308.553 22.4715L292.411 24.7909C292.293 24.8079 292.173 24.7772 292.077 24.7055C291.982 24.6338 291.919 24.5271 291.902 24.4087C291.885 24.2903 291.915 24.1701 291.987 24.0744C292.058 23.9786 292.165 23.9153 292.283 23.8983L308.425 21.579C308.543 21.562 308.664 21.5927 308.759 21.6644C308.855 21.7361 308.918 21.8428 308.935 21.9612C308.952 22.0796 308.921 22.1998 308.85 22.2955C308.778 22.3912 308.672 22.4546 308.553 22.4715Z" fill="#231E40"/>
</g>
<g clip-path="url(#clip9_12_3627)">
<path d="M279.536 36.0134L276.293 13.4446C276.277 13.3351 276.306 13.2238 276.373 13.1352C276.44 13.0465 276.54 12.9878 276.65 12.972C276.761 12.9561 276.873 12.9844 276.962 13.0505C277.052 13.1167 277.11 13.2154 277.126 13.3249L280.369 35.8937C280.385 36.0032 280.356 36.1145 280.289 36.2031C280.222 36.2917 280.122 36.3505 280.012 36.3663C279.901 36.3822 279.789 36.3539 279.7 36.2878C279.611 36.2216 279.552 36.1229 279.536 36.0134Z" fill="#231E40"/>
</g>
<g clip-path="url(#clip10_12_3627)">
<path d="M302.03 16.2159L277.656 19.7182C277.538 19.7352 277.418 19.7044 277.322 19.6328C277.226 19.5611 277.163 19.4543 277.146 19.3359C277.129 19.2176 277.16 19.0973 277.231 19.0016C277.303 18.9059 277.41 18.8426 277.528 18.8256L301.902 15.3233C302.02 15.3063 302.141 15.3371 302.236 15.4087C302.332 15.4804 302.395 15.5872 302.412 15.7056C302.429 15.8239 302.398 15.9442 302.327 16.0399C302.255 16.1356 302.149 16.1989 302.03 16.2159Z" fill="#231E40"/>
<path d="M306.689 9.65514L290.547 11.9745C290.429 11.9915 290.309 11.9608 290.213 11.8891C290.118 11.8174 290.054 11.7107 290.037 11.5923C290.02 11.4739 290.051 11.3537 290.122 11.258C290.194 11.1622 290.301 11.0989 290.419 11.0819L306.561 8.76255C306.679 8.74557 306.799 8.77629 306.895 8.84798C306.991 8.91966 307.054 9.02643 307.071 9.14479C307.088 9.26316 307.057 9.38342 306.986 9.47913C306.914 9.57484 306.807 9.63815 306.689 9.65514Z" fill="#231E40"/>
</g>
<g clip-path="url(#clip11_12_3627)">
<path d="M304.002 32.2859L300.759 9.71705C300.744 9.60758 300.772 9.49628 300.839 9.40764C300.906 9.31901 301.006 9.2603 301.117 9.24442C301.227 9.22855 301.339 9.25681 301.429 9.323C301.518 9.38919 301.577 9.48787 301.593 9.59735L304.835 32.1662C304.851 32.2756 304.822 32.3869 304.755 32.4756C304.688 32.5642 304.589 32.6229 304.478 32.6388C304.368 32.6547 304.255 32.6264 304.166 32.5602C304.077 32.494 304.018 32.3953 304.002 32.2859Z" fill="#231E40"/>
</g>
<g clip-path="url(#clip12_12_3627)">
<path d="M193.598 61.6298L219.451 82.2943L245.246 57.1388C250.569 51.5154 252.351 45.7682 253.374 40.4361L253.814 38.0902C254.06 36.7951 254.811 35.6508 255.9 34.909C256.99 34.1672 258.33 33.8887 259.625 34.1347C260.92 34.3807 262.064 35.1311 262.806 36.2208C263.548 37.3106 263.826 38.6503 263.58 39.9454L261.969 48.5239L287.824 42.7479C289.11 42.4604 290.458 42.6959 291.571 43.4024C292.684 44.1088 293.471 45.2285 293.758 46.515C293.9 47.1521 293.916 47.8109 293.804 48.4539C293.691 49.097 293.453 49.7116 293.104 50.2626C292.754 50.8137 292.299 51.2905 291.765 51.6658C291.231 52.041 290.628 52.3074 289.991 52.4497C290.628 52.3074 291.287 52.2919 291.93 52.4042C292.573 52.5165 293.187 52.7544 293.738 53.1042C294.289 53.454 294.766 53.9089 295.141 54.443C295.517 54.9771 295.783 55.5799 295.925 56.2169C296.213 57.5035 295.977 58.8514 295.271 59.9643C294.564 61.0773 293.445 61.864 292.158 62.1514C293.445 61.8641 294.793 62.0996 295.906 62.8061C297.019 63.5126 297.805 64.6323 298.093 65.9188C298.235 66.5558 298.25 67.2147 298.138 67.8576C298.026 68.5006 297.788 69.1152 297.438 69.6663C297.088 70.2173 296.633 70.6941 296.099 71.0694C295.565 71.4446 294.963 71.711 294.326 71.8533C294.964 71.7066 295.626 71.6876 296.271 71.7974C296.917 71.9072 297.535 72.1437 298.09 72.4932C298.644 72.8427 299.124 73.2984 299.501 73.834C299.879 74.3696 300.146 74.9745 300.289 75.614C300.432 76.2536 300.447 76.915 300.333 77.5603C300.22 78.2057 299.98 78.8221 299.627 79.3743C299.274 79.9264 298.815 80.4034 298.277 80.7777C297.74 81.152 297.133 81.4162 296.493 81.5552L282.333 84.7184C278.417 85.5933 274.222 88.2064 267.774 94.5111L267.791 94.4596L252.87 109.009L241.024 120.593C235.854 125.649 229.014 128.639 221.792 129.001C214.57 129.363 207.466 127.072 201.816 122.559L201.768 122.52L188.856 112.205L165.932 93.8938L193.598 61.6298Z" fill="white"/>
<path d="M258.964 65.1549C258.862 65.155 258.764 65.1176 258.687 65.0499C258.611 64.9821 258.563 64.8888 258.551 64.7875C258.539 64.6863 258.565 64.5842 258.623 64.5007C258.681 64.4171 258.769 64.358 258.868 64.3345C260.433 63.9613 261.857 63.1424 262.967 61.977C264.077 60.8116 264.825 59.3496 265.122 57.7677C265.418 56.1858 265.25 54.552 264.638 53.0637C264.025 51.5754 262.994 50.2965 261.67 49.3817C261.581 49.3187 261.519 49.2228 261.5 49.1149C261.48 49.007 261.504 48.8957 261.567 48.8054C261.629 48.7151 261.724 48.653 261.832 48.6327C261.94 48.6124 262.051 48.6354 262.142 48.6968C263.598 49.7029 264.732 51.1094 265.406 52.7462C266.08 54.383 266.265 56.18 265.939 57.9198C265.613 59.6596 264.79 61.2677 263.569 62.5495C262.349 63.8314 260.783 64.7322 259.061 65.1428C259.029 65.1506 258.997 65.1547 258.964 65.1549Z" fill="#231E40"/>
</g>
<g clip-path="url(#clip13_12_3627)">
<path d="M274.603 164.041L333.463 183.463L307.182 263.111L248.322 243.689L274.603 164.041Z" fill="#FF713D"/>
<path d="M274.984 170.342L329.406 188.3L305.547 260.609L251.125 242.652L274.984 170.342Z" fill="white"/>
<path d="M311.944 198.439L316.632 199.986L316.463 200.5L311.775 198.953L311.944 198.439Z" fill="white"/>
<path d="M278.298 187.337L307.008 196.81L306.839 197.324L278.129 187.851L278.298 187.337Z" fill="white"/>
<path d="M310.106 204.009L314.794 205.556L314.625 206.07L309.937 204.523L310.106 204.009Z" fill="white"/>
<path d="M276.46 192.907L305.17 202.38L305.001 202.894L276.291 193.421L276.46 192.907Z" fill="white"/>
<path d="M308.269 209.578L312.957 211.125L312.787 211.639L308.099 210.092L308.269 209.578Z" fill="white"/>
<path d="M274.623 198.476L303.333 207.949L303.163 208.464L274.453 198.99L274.623 198.476Z" fill="white"/>
<path d="M306.431 215.147L311.119 216.694L310.949 217.209L306.261 215.662L306.431 215.147Z" fill="white"/>
<path d="M272.785 204.045L301.495 213.519L301.325 214.033L272.615 204.56L272.785 204.045Z" fill="white"/>
<path d="M304.592 220.721L309.28 222.268L309.11 222.782L304.422 221.235L304.592 220.721Z" fill="white"/>
<path d="M270.946 209.619L299.656 219.092L299.486 219.607L270.776 210.133L270.946 209.619Z" fill="white"/>
<path d="M302.754 226.291L307.442 227.837L307.273 228.352L302.585 226.805L302.754 226.291Z" fill="white"/>
<path d="M269.108 215.188L297.818 224.662L297.649 225.176L268.939 215.703L269.108 215.188Z" fill="white"/>
<path d="M299.079 237.429L303.767 238.976L303.597 239.49L298.909 237.943L299.079 237.429Z" fill="white"/>
<path d="M265.433 226.327L294.143 235.8L293.973 236.315L265.263 226.841L265.433 226.327Z" fill="white"/>
<path d="M300.917 231.86L305.604 233.407L305.435 233.921L300.747 232.374L300.917 231.86Z" fill="white"/>
<path d="M267.271 220.758L295.98 230.231L295.811 230.745L267.101 221.272L267.271 220.758Z" fill="white"/>
<path d="M305.267 170.011C304.278 169.685 303.408 169.073 302.766 168.253C302.125 167.432 301.741 166.441 301.664 165.403C301.587 164.365 301.819 163.328 302.332 162.423C302.845 161.517 303.615 160.784 304.545 160.317C305.475 159.849 306.523 159.667 307.556 159.794C308.59 159.922 309.563 160.353 310.352 161.032C311.141 161.712 311.711 162.61 311.99 163.613C312.268 164.615 312.243 165.678 311.917 166.666C311.478 167.99 310.532 169.086 309.285 169.713C308.039 170.34 306.594 170.447 305.267 170.011ZM308.394 160.535C307.507 160.242 306.553 160.218 305.652 160.467C304.752 160.716 303.946 161.226 303.336 161.933C302.727 162.64 302.34 163.512 302.227 164.438C302.113 165.365 302.277 166.304 302.697 167.138C303.118 167.971 303.777 168.662 304.59 169.122C305.403 169.582 306.335 169.791 307.266 169.722C308.198 169.654 309.088 169.311 309.824 168.736C310.56 168.162 311.109 167.382 311.402 166.496C311.793 165.308 311.695 164.013 311.131 162.895C310.568 161.777 309.583 160.928 308.394 160.535Z" fill="white"/>
<path d="M293.565 165.82L317.167 173.608L313.242 185.501L289.641 177.713L293.565 165.82Z" fill="white"/>
<path d="M313.414 185.843L289.298 177.885L293.392 165.478L317.509 173.435L313.414 185.843ZM289.982 177.541L313.069 185.159L316.824 173.779L293.737 166.162L289.982 177.541Z" fill="white"/>
</g>
<g clip-path="url(#clip14_12_3627)">
<path d="M312.929 185.634L289.545 177.918C289.431 177.88 289.337 177.799 289.284 177.693C289.23 177.586 289.221 177.462 289.258 177.349C289.296 177.235 289.377 177.141 289.483 177.087C289.59 177.033 289.714 177.024 289.827 177.062L313.212 184.778C313.325 184.815 313.419 184.896 313.473 185.003C313.526 185.11 313.536 185.233 313.498 185.347C313.461 185.46 313.38 185.554 313.273 185.608C313.166 185.662 313.043 185.671 312.929 185.634Z" fill="#231E40"/>
<path d="M320.022 181.834L304.535 176.724C304.422 176.686 304.328 176.605 304.274 176.498C304.221 176.392 304.211 176.268 304.249 176.154C304.286 176.041 304.367 175.947 304.474 175.893C304.581 175.839 304.704 175.83 304.818 175.867L320.304 180.977C320.418 181.015 320.512 181.096 320.565 181.202C320.619 181.309 320.628 181.433 320.591 181.546C320.553 181.66 320.472 181.754 320.366 181.808C320.259 181.862 320.135 181.871 320.022 181.834Z" fill="#231E40"/>
</g>
<g clip-path="url(#clip15_12_3627)">
<path d="M287.988 181.26L295.133 159.607C295.167 159.502 295.243 159.416 295.342 159.366C295.441 159.316 295.557 159.308 295.663 159.343C295.769 159.378 295.857 159.453 295.907 159.552C295.958 159.651 295.966 159.766 295.932 159.871L288.787 181.523C288.753 181.628 288.677 181.715 288.578 181.765C288.478 181.814 288.363 181.823 288.257 181.788C288.151 181.753 288.063 181.677 288.013 181.578C287.962 181.479 287.953 181.365 287.988 181.26Z" fill="#231E40"/>
<path d="M291.548 187.841L296.28 173.501C296.314 173.396 296.39 173.31 296.489 173.26C296.588 173.21 296.704 173.202 296.81 173.237C296.916 173.272 297.004 173.348 297.054 173.447C297.105 173.546 297.113 173.66 297.079 173.765L292.347 188.104C292.313 188.21 292.237 188.296 292.138 188.346C292.038 188.395 291.923 188.404 291.817 188.369C291.711 188.334 291.623 188.258 291.573 188.159C291.522 188.06 291.513 187.946 291.548 187.841Z" fill="#231E40"/>
</g>
<g clip-path="url(#clip16_12_3627)">
<path d="M317.123 173.517L293.739 165.801C293.625 165.763 293.532 165.682 293.478 165.575C293.424 165.469 293.415 165.345 293.452 165.231C293.49 165.118 293.571 165.024 293.678 164.97C293.784 164.916 293.908 164.907 294.021 164.944L317.406 172.66C317.519 172.698 317.613 172.779 317.667 172.886C317.721 172.992 317.73 173.116 317.692 173.23C317.655 173.343 317.574 173.437 317.467 173.491C317.361 173.545 317.237 173.554 317.123 173.517Z" fill="#231E40"/>
<path d="M324.216 169.716L308.73 164.606C308.616 164.569 308.522 164.488 308.469 164.381C308.415 164.274 308.406 164.151 308.443 164.037C308.481 163.924 308.562 163.829 308.668 163.776C308.775 163.722 308.899 163.713 309.012 163.75L324.499 168.86C324.612 168.897 324.706 168.978 324.76 169.085C324.813 169.192 324.823 169.316 324.785 169.429C324.748 169.543 324.667 169.637 324.56 169.691C324.453 169.745 324.33 169.754 324.216 169.716Z" fill="#231E40"/>
</g>
<g clip-path="url(#clip17_12_3627)">
<path d="M311.522 188.715L318.666 167.062C318.701 166.957 318.776 166.871 318.876 166.821C318.975 166.772 319.091 166.763 319.197 166.798C319.303 166.833 319.39 166.909 319.441 167.008C319.491 167.107 319.5 167.221 319.466 167.326L312.321 188.979C312.286 189.084 312.211 189.17 312.112 189.22C312.012 189.269 311.897 189.278 311.791 189.243C311.685 189.208 311.597 189.132 311.546 189.033C311.496 188.934 311.487 188.82 311.522 188.715Z" fill="#231E40"/>
<path d="M315.082 195.296L319.813 180.957C319.848 180.851 319.923 180.765 320.023 180.715C320.122 180.666 320.238 180.657 320.344 180.692C320.45 180.727 320.537 180.803 320.588 180.902C320.638 181.001 320.647 181.115 320.612 181.22L315.881 195.56C315.846 195.665 315.771 195.751 315.672 195.801C315.572 195.85 315.457 195.859 315.351 195.824C315.245 195.789 315.157 195.713 315.106 195.614C315.056 195.515 315.047 195.401 315.082 195.296Z" fill="#231E40"/>
</g>
<g clip-path="url(#clip18_12_3627)">
<path d="M293.52 43.7546C281.981 45.16 273.731 55.6985 275.137 67.2373C276.542 78.776 287.081 87.0261 298.619 85.6207C304.389 84.918 309.661 81.8405 313.026 77.1302L298.747 65.3978L317.003 62.138L297.415 62.9694L293.52 43.7546Z" fill="#29A431"/>
<path d="M317.003 62.1378C315.546 50.6053 305.065 42.4 293.52 43.7544L296.07 64.6875L317.003 62.1378Z" fill="#367CFF"/>
<path d="M296.07 64.6875L313.026 77.1301C316.229 72.8021 317.65 67.4477 317.003 62.1379L296.07 64.6875Z" fill="#B0FF5C"/>
</g>
<g clip-path="url(#clip19_12_3627)">
<path d="M259.87 185.734L269.861 189.129L253.289 237.906L243.298 234.511L259.87 185.734Z" fill="#E3D9FC"/>
<path d="M270.025 208.038L280.017 211.433L269.188 243.307L259.196 239.912L270.025 208.038Z" fill="#367CFF"/>
<path d="M289.189 205.269L299.181 208.663L285.533 248.835L275.541 245.441L289.189 205.269Z" fill="#E3D9FC"/>
<path d="M311.464 194.423L321.456 197.818L302.199 254.497L292.208 251.103L311.464 194.423Z" fill="#367CFF"/>
</g>
<g clip-path="url(#clip20_12_3627)">
<path d="M303.164 155.907L302.865 156.629C302.602 157.266 302.217 157.845 301.73 158.332C301.243 158.82 300.665 159.207 300.029 159.47C299.393 159.734 298.711 159.87 298.022 159.87C297.333 159.871 296.651 159.735 296.015 159.471L291.739 157.702C292.084 160.495 291.908 163.328 291.221 166.057C290.104 170.425 284.802 172.105 281.342 169.227L281.156 169.083C279.314 167.564 278.586 165.127 279.148 162.8C279.669 160.652 279.446 158.392 278.518 156.387C277.589 154.382 276.009 152.75 274.035 151.758C272.061 150.766 269.809 150.472 267.646 150.923C265.483 151.375 263.537 152.545 262.124 154.244C261.502 155.005 260.994 155.852 260.616 156.759C259.887 158.526 259.692 160.469 260.055 162.346C260.417 164.223 261.322 165.953 262.656 167.322C263.991 168.691 265.697 169.639 267.565 170.048C269.432 170.458 271.379 170.312 273.164 169.628C274.192 169.225 275.309 169.104 276.399 169.278C277.489 169.451 278.513 169.912 279.366 170.613L279.552 170.756C283.111 173.72 282.257 179.443 277.963 181.161C274.234 182.658 270.17 183.12 266.201 182.497C262.232 181.874 258.505 180.189 255.414 177.621C254.794 177.107 254.204 176.558 253.646 175.977C253.607 175.943 253.57 175.905 253.537 175.865C253.518 175.857 253.526 175.838 253.507 175.83C252.79 175.089 252.42 174.691 249.798 173.606L122.037 120.76L135.262 85.7225L256.542 135.888C260.418 137.491 264.3 138.385 267.482 138.277C267.949 138.225 268.407 138.192 268.877 138.186L296.249 135.931C296.985 135.857 297.729 135.929 298.437 136.142C299.146 136.356 299.806 136.707 300.379 137.175C300.951 137.644 301.426 138.22 301.777 138.872C302.127 139.525 302.345 140.239 302.419 140.976C302.492 141.712 302.421 142.456 302.207 143.164C301.993 143.873 301.642 144.533 301.174 145.106C300.705 145.679 300.129 146.154 299.477 146.504C298.825 146.854 298.11 147.072 297.374 147.146L296.12 147.273L300.338 149.018C301.62 149.564 302.635 150.594 303.164 151.883C303.693 153.172 303.693 154.618 303.164 155.907Z" fill="white"/>
<path d="M291.6 158.201C291.532 158.173 291.473 158.128 291.429 158.07C291.385 158.011 291.357 157.943 291.348 157.87C290.768 153.046 288.599 148.552 285.182 145.098C281.766 141.644 277.296 139.425 272.479 138.793C272.426 138.786 272.374 138.768 272.327 138.741C272.281 138.714 272.24 138.678 272.207 138.635C272.174 138.592 272.15 138.543 272.136 138.491C272.122 138.439 272.119 138.384 272.126 138.331C272.133 138.277 272.151 138.225 272.178 138.179C272.205 138.132 272.241 138.091 272.284 138.058C272.327 138.025 272.376 138.001 272.428 137.987C272.48 137.974 272.534 137.97 272.588 137.977C277.586 138.634 282.223 140.936 285.768 144.52C289.312 148.104 291.563 152.766 292.165 157.772C292.173 157.843 292.163 157.915 292.135 157.981C292.107 158.047 292.062 158.105 292.005 158.148C291.948 158.192 291.881 158.219 291.809 158.229C291.738 158.238 291.666 158.228 291.6 158.201Z" fill="#231E40"/>
<path d="M179.185 303.537C179.185 303.537 162.849 151.708 162.441 149.358L65.8274 109.395C59.2082 125.398 60.9858 143.16 63.6493 168.41L49.0206 142.818L-6.99194 176.761C-6.99194 176.761 3.38336 188.264 24.5835 218.199C43.5338 244.912 76.1675 253.447 98.5156 243.483C102.067 241.897 105.366 239.797 108.305 237.249L108.245 274.194L179.185 303.537Z" fill="#367CFF"/>
</g>
<g clip-path="url(#clip21_12_3627)">
<path d="M208.922 137.737C214.777 137.737 219.524 132.991 219.524 127.135C219.524 121.28 214.777 116.533 208.922 116.533C203.067 116.533 198.32 121.28 198.32 127.135C198.32 132.991 203.067 137.737 208.922 137.737Z" fill="#367CFF"/>
</g>
<g clip-path="url(#clip22_12_3627)">
<path d="M113.047 78.9705L85.9126 104.684C85.7792 104.81 85.5521 104.805 85.426 104.671C85.2998 104.538 85.3062 104.311 85.4396 104.185L112.574 78.4714C112.708 78.3449 112.935 78.3508 113.061 78.4839C113.187 78.6169 113.197 78.8282 113.047 78.9705Z" fill="#231E40"/>
<path d="M113.604 67.8333L86.4697 93.5467C86.3363 93.6731 86.1092 93.6673 85.9831 93.5342C85.857 93.4011 85.8634 93.1741 85.9968 93.0476L113.131 67.3342C113.265 67.2077 113.476 67.1969 113.618 67.3466C113.744 67.4797 113.738 67.7068 113.604 67.8333Z" fill="#231E40"/>
</g>
<g clip-path="url(#clip23_12_3627)">
<path d="M121.642 71.0338L92.853 94.8808C92.7115 94.998 92.4853 94.9771 92.3683 94.8359C92.2514 94.6946 92.2729 94.4685 92.4144 94.3512L121.203 70.5043C121.345 70.3871 121.571 70.408 121.688 70.5492C121.805 70.6904 121.801 70.9019 121.642 71.0338Z" fill="#231E40"/>
<path d="M122.94 59.9586L94.1514 83.8056C94.0098 83.9228 93.7836 83.9019 93.6667 83.7607C93.5497 83.6194 93.5712 83.3933 93.7128 83.276L122.502 59.4291C122.643 59.3119 122.855 59.3152 122.986 59.474C123.103 59.6152 123.082 59.8414 122.94 59.9586Z" fill="#231E40"/>
</g>
<g clip-path="url(#clip24_12_3627)">
<path d="M59.4887 36.8808C67.4884 33.3817 71.1369 24.0601 67.6377 16.0604C64.1386 8.06066 54.817 4.41222 46.8173 7.91134C38.8176 11.4105 35.1691 20.7321 38.6682 28.7318C42.1674 36.7315 51.489 40.38 59.4887 36.8808Z" fill="#FF713D"/>
<path d="M59.7831 37.5535C56.7852 38.8648 53.4658 39.2577 50.2447 38.6825C47.0236 38.1072 44.0453 36.5897 41.6867 34.3219C39.328 32.054 37.6947 29.1377 36.9935 25.9416C36.2923 22.7455 36.5545 19.4133 37.7471 16.3663C38.9397 13.3193 41.009 10.6943 43.6935 8.82339C46.3779 6.95245 49.5569 5.91955 52.8283 5.85532C56.0998 5.79108 59.3168 6.69839 62.0726 8.4625C64.8284 10.2266 66.9992 12.7683 68.3105 15.7662C70.0638 19.7867 70.1506 24.3386 68.5519 28.4231C66.9533 32.5077 63.7997 35.7913 59.7831 37.5535ZM47.1116 8.58403C44.3798 9.77893 42.0637 11.7571 40.4562 14.2683C38.8487 16.7795 38.0219 19.711 38.0804 22.6921C38.139 25.6732 39.0802 28.57 40.7851 31.0161C42.4899 33.4623 44.8819 35.348 47.6585 36.4347C50.435 37.5215 53.4715 37.7604 56.3839 37.1214C59.2963 36.4824 61.9538 34.9942 64.0204 32.8448C66.0869 30.6955 67.4697 27.9816 67.9939 25.0464C68.5181 22.1111 68.1601 19.0864 66.9652 16.3546C65.3593 12.6945 62.3671 9.82087 58.6452 8.36411C54.9232 6.90735 50.7753 6.98644 47.1116 8.58403Z" fill="#FF713D"/>
<path d="M56.8946 20.3854C57.5142 19.8541 57.9464 19.1375 58.1274 18.3416C58.3084 17.5457 58.2286 16.7127 57.8997 15.9657C57.6574 15.361 57.2362 14.8448 56.6926 14.4859C56.149 14.127 55.5088 13.9426 54.8576 13.9573L54.1963 11.0411L52.0662 11.9728L52.6014 14.3565C52.422 14.435 52.2328 14.491 52.0758 14.5597L49.5197 15.6778L48.9622 13.3038L46.8321 14.2356L47.3896 16.6095L45.394 17.4824L45.6811 19.7876L47.5197 18.9834L49.6308 29.3058L48.0612 29.9923L48.3483 32.2976L50.7026 31.2678L51.2139 33.4749L53.344 32.5432L52.8327 30.336L55.9494 28.9728L56.4607 31.1799L58.5908 30.2482L58.0361 27.8196C59.5833 26.7155 60.3569 25.3086 59.9157 23.0174C59.7953 22.2965 59.4282 21.6398 58.8771 21.1597C58.326 20.6795 57.6252 20.4059 56.8946 20.3854ZM57.5698 23.8832C57.8667 25.3561 56.7386 26.1968 54.9448 26.9814L51.873 28.325L51.0199 24.2373L54.1141 22.8838C55.8855 22.109 57.2224 22.1119 57.5698 23.8832ZM53.3786 20.7747L50.5758 22.0007L49.7718 18.025L52.5521 16.8089C53.9199 16.2106 55.2582 15.9725 55.778 17.1609C56.3566 18.4838 55.8002 19.7155 53.3786 20.7747Z" fill="white"/>
</g>
<defs>
<clipPath id="clip0_12_3627">
<rect width="125.362" height="59.8846" fill="white" transform="translate(17.3867 18.2534) rotate(16.8779)"/>
</clipPath>
<clipPath id="clip1_12_3627">
<rect width="113.012" height="72.2343" fill="white" transform="translate(206.449 93.9126) rotate(22.4716)"/>
</clipPath>
<clipPath id="clip2_12_3627">
<rect width="268.432" height="283.811" fill="white" transform="translate(32.8809 33.5806)"/>
</clipPath>
<clipPath id="clip3_12_3627">
<rect width="19.1071" height="19.1071" fill="white" transform="matrix(-0.969282 0.24595 0.24595 0.969282 175.405 25.9321)"/>
</clipPath>
<clipPath id="clip4_12_3627">
<rect width="35.4181" height="3.2622" fill="white" transform="translate(210.728 114.72) rotate(21.5926)"/>
</clipPath>
<clipPath id="clip5_12_3627">
<rect width="85.5161" height="57.5544" fill="white" transform="translate(169.516 144.761) rotate(36.7739)"/>
</clipPath>
<clipPath id="clip6_12_3627">
<rect width="42.1755" height="57.5544" fill="white" transform="translate(105.607 104.3) rotate(36.7739)"/>
</clipPath>
<clipPath id="clip7_12_3627">
<rect width="61.9817" height="88.5453" fill="white" transform="translate(259.178 21.8472) rotate(-8.17668)"/>
</clipPath>
<clipPath id="clip8_12_3627">
<rect width="31.4569" height="3.72822" fill="white" transform="translate(278.371 29.063) rotate(-8.17668)"/>
</clipPath>
<clipPath id="clip9_12_3627">
<rect width="13.2818" height="3.72822" fill="white" transform="translate(280.741 19.0303) rotate(81.8233)"/>
</clipPath>
<clipPath id="clip10_12_3627">
<rect width="31.4569" height="3.72822" fill="white" transform="translate(276.507 16.2466) rotate(-8.17668)"/>
</clipPath>
<clipPath id="clip11_12_3627">
<rect width="13.2818" height="3.72822" fill="white" transform="translate(305.207 15.3027) rotate(81.8233)"/>
</clipPath>
<clipPath id="clip12_12_3627">
<rect width="18.4081" height="30.2918" fill="white" transform="translate(247.72 34.0464)"/>
</clipPath>
<clipPath id="clip13_12_3627">
<rect width="61.9817" height="88.5453" fill="white" transform="translate(276.14 159.382) rotate(18.2611)"/>
</clipPath>
<clipPath id="clip14_12_3627">
<rect width="31.4569" height="3.72822" fill="white" transform="translate(290.061 174.298) rotate(18.2611)"/>
</clipPath>
<clipPath id="clip15_12_3627">
<rect width="13.2818" height="3.49521" fill="white" transform="translate(296.407 166.516) rotate(108.261)"/>
</clipPath>
<clipPath id="clip16_12_3627">
<rect width="31.4569" height="3.72822" fill="white" transform="translate(294.255 162.181) rotate(18.2611)"/>
</clipPath>
<clipPath id="clip17_12_3627">
<rect width="13.2818" height="3.49521" fill="white" transform="translate(319.941 173.971) rotate(108.261)"/>
</clipPath>
<clipPath id="clip18_12_3627">
<rect width="42.1755" height="42.1755" fill="white" transform="translate(272.587 46.3042) rotate(-6.9444)"/>
</clipPath>
<clipPath id="clip19_12_3627">
<rect width="47.5349" height="59.8846" fill="white" transform="translate(276.447 182.527) rotate(18.7647)"/>
</clipPath>
<clipPath id="clip20_12_3627">
<rect width="57.3214" height="30.2918" fill="white" transform="translate(241.791 153.706) rotate(22.4716)"/>
</clipPath>
<clipPath id="clip21_12_3627">
<rect width="11.8837" height="21.2043" fill="white" transform="translate(198.32 116.533)"/>
</clipPath>
<clipPath id="clip22_12_3627">
<rect width="46.1368" height="3.2622" fill="white" transform="translate(115.625 69.4648) rotate(136.54)"/>
</clipPath>
<clipPath id="clip23_12_3627">
<rect width="12.8158" height="4.42727" fill="white" transform="translate(125.591 62.6187) rotate(140.364)"/>
</clipPath>
<clipPath id="clip24_12_3627">
<rect width="33.088" height="33.088" fill="white" transform="translate(31.3657 13.8687) rotate(-23.6249)"/>
</clipPath>
</defs>
</svg>
