<svg width="114" height="114" viewBox="0 0 114 114" fill="none" xmlns="http://www.w3.org/2000/svg">
<path d="M92.625 114H21.375C9.56888 114 0 104.431 0 92.625V21.375C0 9.56888 9.56888 0 21.375 0H92.625C104.431 0 114 9.56888 114 21.375V92.625C114 104.431 104.431 114 92.625 114Z" fill="white" fill-opacity="0.11"/>
<path d="M86.4417 73.793L73.4517 82.5728C70.3716 84.6631 66.7314 85.7729 63.0117 85.7729H48.9416C46.0215 85.7729 43.1216 85.1528 40.4517 83.9429L38.2217 82.9326V63.7827L43.9316 62.1826C45.7314 61.6826 47.5916 61.4229 49.4517 61.4229H64.7217C67.2217 61.4229 69.3315 63.1128 69.9617 65.4028C70.0916 65.8628 70.1616 66.353 70.1616 66.853C70.1616 67.9829 69.8215 69.0229 69.2314 69.8931L69.3015 69.8628C69.3115 69.853 69.3215 69.853 69.3315 69.8428L80.4316 63.8628C83.0117 62.4727 86.2314 63.2227 87.9216 65.6128C89.8115 68.2729 89.1416 71.9629 86.4417 73.793Z" fill="#E8EDF2"/>
<path d="M38.2217 74.8862V82.9326L40.4517 83.9429C43.1216 85.1528 46.0215 85.773 48.9416 85.773H63.0117C66.7314 85.773 70.3716 84.6631 73.4517 82.5728L84.8242 74.8862H38.2217Z" fill="#C4D3E4"/>
<path d="M38.2259 63.651V83.5477C38.2259 85.569 36.582 87.2129 34.5608 87.2129H28.6652C26.6442 87.2129 25 85.569 25 83.5477V63.651C25 61.6298 26.6442 59.9858 28.6652 59.9858H34.5608C36.582 59.9858 38.2259 61.6298 38.2259 63.651Z" fill="#454545"/>
<path d="M34.5605 59.9858H31.8711V87.2129H34.5605C36.582 87.2129 38.2258 85.5688 38.2258 83.5479V63.6509C38.2258 61.6299 36.582 59.9858 34.5605 59.9858Z" fill="#2C2C2C"/>
<path d="M69.2308 69.8931L69.3009 69.8628C66.0111 72.3428 62.3509 73.9629 58.0409 73.103C58.0311 73.103 58.0311 73.103 58.0208 73.103C57.221 72.9326 56.701 72.1528 56.8609 71.3428C57.0208 70.5327 57.8109 70.0029 58.6209 70.1631C62.8609 71.0029 66.5709 68.4829 69.961 65.4028C70.0909 65.8628 70.161 66.353 70.161 66.853C70.161 67.9829 69.8209 69.0229 69.2308 69.8931Z" fill="#C4D3E4"/>
<path d="M33.4551 83.1294C34.6055 83.1294 35.5381 82.1968 35.5381 81.0464C35.5381 79.896 34.6055 78.9634 33.4551 78.9634C32.3047 78.9634 31.3721 79.896 31.3721 81.0464C31.3721 82.1968 32.3047 83.1294 33.4551 83.1294Z" fill="white"/>
<path d="M33.5381 78.9712V83.1211C34.6492 83.0767 35.5381 82.1685 35.5381 81.0464C35.5381 79.9243 34.6492 79.0161 33.5381 78.9712Z" fill="#C4D3E4"/>
<path d="M25.584 72.0994V68.0034C25.584 67.6035 25.7441 67.2236 26.0142 66.9536C26.2842 66.6836 26.6641 66.5034 27.084 66.5034C27.9141 66.5034 28.584 67.1836 28.584 68.0034V72.0994C28.584 72.9295 27.9141 73.5994 27.084 73.5994C26.2542 73.5994 25.584 72.9295 25.584 72.0994Z" fill="#7D7D7D"/>
<path d="M85.354 50.2844V51.8945C85.354 55.1545 82.7039 57.7947 79.4241 57.7947H56.2539C52.9839 57.7947 50.334 55.1545 50.334 51.8945V50.2844C50.334 44.8845 53.574 40.2446 58.2139 38.2146C59.834 37.4946 61.614 37.1045 63.4939 37.1045H72.1741C74.064 37.1045 75.854 37.4946 77.4739 38.2146C82.114 40.2446 85.354 44.8845 85.354 50.2844Z" fill="#73EDC2"/>
<path d="M53.0749 51.4416C52.2951 51.4416 51.6631 50.8096 51.6631 50.0298C51.6631 46.7888 53.0677 43.7066 55.5163 41.5732C56.1047 41.0606 56.9964 41.1235 57.5082 41.7105C58.0205 42.2984 57.9593 43.1901 57.3714 43.7025C55.5378 45.2993 54.4867 47.6055 54.4867 50.0298C54.4867 50.8096 53.8547 51.4416 53.0749 51.4416Z" fill="#29A431"/>
<path d="M85.3575 50.2848V51.8927C85.3575 55.1569 82.7033 57.7996 79.4281 57.7996H67.8398V37.1045H72.1769C79.4617 37.1045 85.3575 42.9998 85.3575 50.2848Z" fill="#29A431"/>
<path d="M77.4739 38.2146C76.0339 42.1345 72.2539 44.9346 67.844 44.9346C63.4338 44.9346 59.6541 42.1345 58.2139 38.2146C59.834 37.4946 61.614 37.1045 63.4939 37.1045H72.1741C74.064 37.1045 75.854 37.4946 77.4739 38.2146Z" fill="white"/>
<path d="M76.5919 31.7486V34.6897C76.5919 39.5283 72.6816 43.4383 67.8433 43.4383C63.0051 43.4383 59.0947 39.5283 59.0947 34.6897V31.7486C59.0947 26.9107 63.0051 23 67.8433 23C70.2626 23 72.4535 23.974 74.0359 25.5564C75.618 27.1388 76.5919 29.3297 76.5919 31.7486Z" fill="#73EDC2"/>
<path d="M74.0358 25.5567C72.4537 23.9739 70.2626 23 67.8433 23C67.8166 23 67.8166 43.4381 67.8433 43.4381C72.6817 43.4381 76.5919 39.5281 76.5919 34.6895V31.7486C76.5919 29.3299 75.618 27.1388 74.0358 25.5567Z" fill="#29A431"/>
</svg>
