<svg width="25" height="25" viewBox="0 0 25 25" fill="none" xmlns="http://www.w3.org/2000/svg">
<circle cx="12.5" cy="12.5" r="12.5" fill="#2EC0FF"/>
<path d="M6 8.12963V16.3533C6 17.5264 6.95092 18.4829 8.12406 18.4829H12.0385C11.5714 17.7768 11.3212 16.9483 11.3212 16.0809C11.3212 13.6565 13.2951 11.6826 15.7194 11.6826C16.0707 11.6826 16.1656 11.7215 16.2199 11.7215V8.12963C16.2199 6.95635 15.2635 6 14.0958 6H8.12406C6.95092 6 6 6.95635 6 8.12963ZM9.74762 15.7917H8.619C8.31316 15.7917 8.06298 15.5415 8.06298 15.2357C8.06298 14.9243 8.31316 14.6797 8.619 14.6797H9.74762C10.0535 14.6797 10.3036 14.9243 10.3036 15.2357C10.3036 15.5415 10.0535 15.7917 9.74762 15.7917ZM10.337 12.7946H8.619C8.31316 12.7946 8.06298 12.55 8.06298 12.2386C8.06298 11.9329 8.31316 11.6826 8.619 11.6826H10.337C10.6429 11.6826 10.8931 11.9329 10.8931 12.2386C10.8931 12.55 10.6429 12.7946 10.337 12.7946ZM8.619 8.69122H13.5954C13.9013 8.69122 14.1515 8.94141 14.1515 9.24725C14.1515 9.55866 13.9013 9.80328 13.5954 9.80328H8.619C8.31316 9.80328 8.06298 9.55866 8.06298 9.24725C8.06298 8.94141 8.31316 8.69122 8.619 8.69122Z" fill="white"/>
<path d="M15.7197 12.7939C13.9016 12.7939 12.4336 14.2564 12.4336 16.0802C12.4336 17.9524 13.97 19.3551 15.7197 19.3551C17.5268 19.3551 19.0003 17.8872 19.0003 16.0802C19.0003 14.2429 17.5041 12.7939 15.7197 12.7939ZM16.5871 17.0087C16.3643 17.2314 16.0204 17.2315 15.7976 17.0087L15.2694 16.4805C15.1636 16.3749 15.1081 16.2359 15.1081 16.0857V14.9625C15.1081 14.6511 15.3527 14.4065 15.6641 14.4065C15.97 14.4065 16.2202 14.6511 16.2202 14.9625V15.8577L16.5871 16.2247C16.804 16.4415 16.804 16.7919 16.5871 17.0087Z" fill="white"/>
</svg>
