<svg width="20" height="20" viewBox="0 0 20 20" fill="none" xmlns="http://www.w3.org/2000/svg">
<path d="M5.2571 0.836999C5.2571 0.615013 5.16892 0.402119 5.01195 0.245151C4.85499 0.0881835 4.64209 0 4.42011 0C4.19812 0 3.98523 0.0881835 3.82826 0.245151C3.67129 0.402119 3.58311 0.615013 3.58311 0.836999V2.86365C2.76894 2.97911 2.01492 3.35784 1.43618 3.94202C0.857446 4.52619 0.485789 5.28372 0.377957 6.09893L0.280865 6.82768C0.264125 6.95044 0.248502 7.07432 0.233994 7.19819C0.224993 7.27551 0.232501 7.35385 0.25602 7.42805C0.279539 7.50225 0.318534 7.57062 0.370429 7.62863C0.422325 7.68664 0.485939 7.73298 0.55707 7.76459C0.6282 7.7962 0.705228 7.81236 0.783065 7.81199H19.2183C19.2961 7.81236 19.3731 7.7962 19.4442 7.76459C19.5154 7.73298 19.579 7.68664 19.6309 7.62863C19.6828 7.57062 19.7218 7.50225 19.7453 7.42805C19.7688 7.35385 19.7763 7.27551 19.7673 7.19819C19.7517 7.07543 19.7372 6.95044 19.7204 6.82768L19.6234 6.09893C19.5155 5.28372 19.1439 4.52619 18.5651 3.94202C17.9864 3.35784 17.2324 2.97911 16.4182 2.86365V0.836999C16.4182 0.615013 16.33 0.402119 16.1731 0.245151C16.0161 0.0881835 15.8032 0 15.5812 0C15.3592 0 15.1463 0.0881835 14.9894 0.245151C14.8324 0.402119 14.7442 0.615013 14.7442 0.836999V2.69849C11.5885 2.41744 8.41397 2.41744 5.25822 2.69849L5.2571 0.836999ZM19.9827 10.0172C19.9775 9.87411 19.9168 9.73866 19.8135 9.63952C19.7102 9.54038 19.5724 9.48532 19.4292 9.48599H0.571025C0.42784 9.48532 0.290009 9.54038 0.186699 9.63952C0.0833888 9.73866 0.0227056 9.87411 0.0174898 10.0172C-0.0490253 12.0368 0.0742759 14.0582 0.385769 16.0548C0.500382 16.7903 0.856108 17.467 1.39706 17.9785C1.93802 18.49 2.63356 18.8072 3.37441 18.8805L4.7058 19.0122C8.22678 19.3581 11.7734 19.3581 15.2944 19.0122L16.6258 18.8805C17.3666 18.8072 18.0622 18.49 18.6031 17.9785C19.1441 17.467 19.4998 16.7903 19.6144 16.0548C19.9255 14.0582 20.0488 12.0368 19.9827 10.0172Z" fill="#FFC121"/>
</svg>
