<svg width="27" height="27" viewBox="0 0 27 27" fill="none" xmlns="http://www.w3.org/2000/svg">
<rect x="0.5" y="0.5" width="26" height="26" rx="13" fill="#367CFF" stroke="white"/>
<path d="M10.683 14.6769C10.5522 14.6769 10.4382 14.6284 10.3412 14.5313C10.2441 14.4343 10.1956 14.3203 10.1956 14.1895C10.1956 14.0587 10.2441 13.945 10.3412 13.8484C10.4382 13.7514 10.5522 13.7028 10.683 13.7028C10.8138 13.7028 10.9277 13.7514 11.0247 13.8484C11.1218 13.9455 11.1703 14.0594 11.1703 14.1902C11.1703 14.3206 11.1218 14.4343 11.0247 14.5313C10.9277 14.6284 10.8138 14.6769 10.683 14.6769ZM13.2145 14.6769C13.0837 14.6769 12.9698 14.6284 12.8728 14.5313C12.7757 14.4343 12.7272 14.3203 12.7272 14.1895C12.7272 14.0587 12.7757 13.945 12.8728 13.8484C12.9698 13.7514 13.0837 13.7028 13.2145 13.7028C13.3453 13.7028 13.4593 13.7514 13.5563 13.8484C13.6533 13.9455 13.7019 14.0594 13.7019 14.1902C13.7019 14.3206 13.6533 14.4343 13.5563 14.5313C13.4593 14.6284 13.3453 14.6769 13.2145 14.6769ZM15.7461 14.6769C15.6153 14.6769 15.5014 14.6284 15.4044 14.5313C15.3073 14.4343 15.2588 14.3203 15.2588 14.1895C15.2588 14.0587 15.3073 13.945 15.4044 13.8484C15.5014 13.7514 15.6153 13.7028 15.7461 13.7028C15.8769 13.7028 15.9908 13.7514 16.0879 13.8484C16.1849 13.9455 16.2335 14.0594 16.2335 14.1902C16.2335 14.3206 16.1849 14.4343 16.0879 14.5313C15.9908 14.6284 15.8769 14.6769 15.7461 14.6769ZM9.17349 19.1799C8.88236 19.1799 8.63933 19.0825 8.4444 18.8875C8.24904 18.6922 8.15137 18.4489 8.15137 18.1578V10.0757C8.15137 9.78459 8.24904 9.54156 8.4444 9.34662C8.63933 9.15127 8.88236 9.05359 9.17349 9.05359H10.2937V7.98273C10.2937 7.88442 10.326 7.80299 10.3906 7.73843C10.4547 7.67388 10.5359 7.6416 10.6342 7.6416C10.7325 7.6416 10.814 7.67388 10.8785 7.73843C10.9431 7.80299 10.9753 7.88442 10.9753 7.98273V9.05359H15.5025V7.95868C15.5025 7.86839 15.5328 7.79307 15.5936 7.73274C15.6544 7.6724 15.7295 7.64202 15.8189 7.6416C15.9092 7.6416 15.9845 7.67177 16.0448 7.73211C16.1052 7.79244 16.1354 7.86776 16.1354 7.95805V9.05359H17.2556C17.5467 9.05359 17.7897 9.15127 17.9847 9.34662C18.18 9.54156 18.2777 9.78459 18.2777 10.0757V18.1578C18.2777 18.4489 18.1802 18.692 17.9853 18.8869C17.79 19.0823 17.5467 19.1799 17.2556 19.1799H9.17349ZM9.17349 18.547H17.2556C17.3526 18.547 17.4419 18.5065 17.5233 18.4255C17.6043 18.3441 17.6448 18.2548 17.6448 18.1578V12.6073H8.78426V18.1578C8.78426 18.2548 8.82477 18.3441 8.90578 18.4255C8.98721 18.5065 9.07645 18.547 9.17349 18.547Z" fill="white"/>
</svg>
