<svg width="27" height="27" viewBox="0 0 27 27" fill="none" xmlns="http://www.w3.org/2000/svg">
<rect x="0.5" y="0.5" width="26" height="26" rx="13" fill="#FFB800" stroke="white"/>
<path d="M13.5001 6.11328C12.0391 6.11328 10.6109 6.54651 9.39619 7.35818C8.18144 8.16985 7.23466 9.32351 6.67557 10.6733C6.11648 12.023 5.9702 13.5083 6.25522 14.9412C6.54024 16.3741 7.24376 17.6903 8.27683 18.7233C9.30989 19.7564 10.6261 20.4599 12.059 20.7449C13.4919 21.0299 14.9771 20.8837 16.3269 20.3246C17.6766 19.7655 18.8303 18.8187 19.642 17.604C20.4536 16.3892 20.8869 14.961 20.8869 13.5001C20.8848 11.5416 20.1059 9.66395 18.721 8.27911C17.3362 6.89426 15.4585 6.11535 13.5001 6.11328ZM17.4776 14.0683H13.5001C13.3494 14.0683 13.2048 14.0084 13.0983 13.9019C12.9917 13.7953 12.9319 13.6508 12.9319 13.5001V9.52257C12.9319 9.37187 12.9917 9.22734 13.0983 9.12078C13.2048 9.01422 13.3494 8.95435 13.5001 8.95435C13.6508 8.95435 13.7953 9.01422 13.9019 9.12078C14.0084 9.22734 14.0683 9.37187 14.0683 9.52257V12.9319H17.4776C17.6283 12.9319 17.7728 12.9917 17.8794 13.0983C17.9859 13.2048 18.0458 13.3494 18.0458 13.5001C18.0458 13.6508 17.9859 13.7953 17.8794 13.9019C17.7728 14.0084 17.6283 14.0683 17.4776 14.0683Z" fill="white"/>
</svg>
