<svg width="27" height="27" viewBox="0 0 27 27" fill="none" xmlns="http://www.w3.org/2000/svg">
<rect x="0.5" y="0.5" width="26" height="26" rx="13" fill="#21A446" stroke="white"/>
<path d="M9.69987 14.2337C10.3442 14.2337 10.8665 13.7114 10.8665 13.0671C10.8665 12.4227 10.3442 11.9004 9.69987 11.9004C9.05554 11.9004 8.5332 12.4227 8.5332 13.0671C8.5332 13.7114 9.05554 14.2337 9.69987 14.2337Z" fill="white"/>
<path d="M13.695 12.5612L13.548 12.5428C13.1703 12.4955 12.8573 12.2577 12.7309 11.9219C12.709 11.8638 12.6854 11.8064 12.66 11.7493C12.5087 11.4095 12.5655 11.0049 12.8079 10.6934L12.8821 10.598C12.9542 10.5052 12.946 10.3731 12.8627 10.2898L12.4759 9.90291C12.3928 9.81984 12.2605 9.81169 12.1674 9.88377L12.0722 9.95774C11.761 10.2002 11.3561 10.2571 11.0164 10.1057C10.9592 10.0802 10.9016 10.0567 10.8435 10.0347C10.508 9.90827 10.27 9.59513 10.2228 9.2176L10.2044 9.0706C10.1899 8.95393 10.0905 8.86621 9.97294 8.86621H9.42577C9.30816 8.86621 9.20877 8.95371 9.1943 9.0706L9.17587 9.2176C9.12851 9.59535 8.89074 9.90849 8.5552 10.0347C8.49688 10.0567 8.43924 10.0802 8.38231 10.1057C8.04235 10.2562 7.63775 10.1999 7.3265 9.95774L7.23129 9.88353C7.13843 9.81096 7.00611 9.81935 6.92304 9.90267L6.53572 10.2895C6.45244 10.3726 6.44426 10.5047 6.51636 10.5978L6.59057 10.6932C6.833 11.0047 6.88947 11.4093 6.7385 11.7493C6.71307 11.8064 6.6895 11.8638 6.66757 11.9219C6.54111 12.2575 6.22797 12.4955 5.85044 12.5426L5.70344 12.561C5.58677 12.5755 5.49902 12.6749 5.49902 12.7925V13.3397C5.49902 13.4573 5.58674 13.5567 5.70342 13.5711L5.85017 13.5896C6.22792 13.6369 6.54106 13.8747 6.66752 14.2104C6.68945 14.2685 6.71302 14.3259 6.73845 14.3831C6.88941 14.7229 6.83295 15.1274 6.59052 15.4389L6.51656 15.5344C6.44423 15.6272 6.45263 15.7593 6.53592 15.8426L6.92277 16.2295C7.00584 16.313 7.13813 16.3212 7.23101 16.2488L7.32622 16.1748C7.63772 15.9324 8.04232 15.8755 8.38204 16.0269C8.43921 16.0524 8.49683 16.0759 8.55493 16.0978C8.89046 16.2243 9.12846 16.5375 9.1756 16.915L9.19403 17.062C9.20849 17.1787 9.30789 17.2664 9.42549 17.2664H9.97266C10.0903 17.2664 10.1897 17.1789 10.2041 17.062L10.2226 16.915C10.2697 16.5372 10.5077 16.2241 10.8432 16.0978C10.9015 16.0759 10.9592 16.0524 11.0161 16.0269C11.3558 15.876 11.7604 15.9324 12.0722 16.1748L12.1674 16.2488C12.26 16.3209 12.3923 16.3127 12.4756 16.2295L12.8625 15.8426C12.946 15.7595 12.9544 15.6277 12.8821 15.5346L12.8079 15.4392C12.5655 15.1277 12.5087 14.7231 12.66 14.3831C12.6852 14.3259 12.709 14.2685 12.7309 14.2104C12.8573 13.8749 13.1705 13.6369 13.548 13.5898L13.695 13.5713C13.8117 13.5569 13.8994 13.4575 13.8994 13.3399V12.7927C13.8994 12.6751 13.8119 12.5757 13.695 12.5612ZM9.69969 14.6997C8.79903 14.6997 8.06638 13.9671 8.06638 13.0664C8.06638 12.1657 8.79905 11.4331 9.69969 11.4331C10.6003 11.4331 11.333 12.1658 11.333 13.0664C11.333 13.9671 10.6003 14.6997 9.69969 14.6997Z" fill="white"/>
<path d="M15.9997 18.434C16.5152 18.434 16.933 18.0162 16.933 17.5007C16.933 16.9852 16.5152 16.5674 15.9997 16.5674C15.4843 16.5674 15.0664 16.9852 15.0664 17.5007C15.0664 18.0162 15.4843 18.434 15.9997 18.434Z" fill="white"/>
<path d="M19.2953 17.0428L19.1742 17.0277C18.8783 16.9906 18.6333 16.8048 18.5346 16.543C18.5164 16.4945 18.4966 16.4462 18.4754 16.3981C18.3571 16.1321 18.4019 15.815 18.592 15.5707L18.6532 15.4924C18.7255 15.3995 18.7171 15.2672 18.634 15.1841L18.3153 14.8656C18.2322 14.7823 18.1002 14.7741 18.0073 14.8463L17.9287 14.9074C17.6841 15.0976 17.367 15.1421 17.101 15.0241C17.0532 15.0028 17.0051 14.9832 16.9564 14.9648C16.6943 14.8661 16.5086 14.6211 16.4717 14.3255L16.4565 14.2044C16.4421 14.0875 16.3427 14 16.2251 14H15.7745C15.6569 14 15.5575 14.0875 15.5428 14.2044L15.5279 14.3255C15.4908 14.6214 15.3051 14.8664 15.043 14.9651C14.9945 14.9835 14.9462 15.0031 14.8986 15.0243C14.6324 15.1421 14.3155 15.0978 14.0707 14.9074L13.9924 14.8465C13.8995 14.7744 13.7674 14.7831 13.6844 14.8659L13.3659 15.1844C13.2826 15.2675 13.2744 15.3997 13.3465 15.4926L13.4076 15.571C13.5978 15.8156 13.6426 16.1327 13.5243 16.3987C13.5031 16.4465 13.4835 16.4948 13.4653 16.5431C13.3666 16.8051 13.1214 16.9908 12.8255 17.0279L12.7044 17.0431C12.5877 17.0576 12.5 17.157 12.5 17.2746V17.7251C12.5 17.8427 12.5875 17.9421 12.7044 17.9566L12.8255 17.9718C13.1214 18.0089 13.3664 18.1946 13.4651 18.4564C13.4835 18.5049 13.5031 18.5532 13.5243 18.6013C13.6426 18.8673 13.5978 19.1844 13.4076 19.4287L13.3465 19.5071C13.2742 19.5999 13.2826 19.7323 13.3659 19.8153L13.6844 20.1338C13.7676 20.2169 13.8995 20.2253 13.9924 20.1532L14.071 20.092C14.3155 19.9019 14.6326 19.8573 14.8986 19.9754C14.9464 19.9966 14.9945 20.0162 15.0431 20.0346C15.3051 20.1333 15.4908 20.3783 15.5279 20.6739L15.5428 20.795C15.5573 20.9119 15.6567 20.9994 15.7745 20.9994H16.2251C16.3427 20.9994 16.4421 20.9119 16.4566 20.795L16.4715 20.6739C16.5086 20.3781 16.6943 20.1331 16.9566 20.0342C17.0051 20.0157 17.0534 19.9961 17.101 19.9749C17.367 19.8566 17.6841 19.9012 17.9287 20.0918L18.0071 20.1527C18.0999 20.2248 18.232 20.2164 18.3151 20.1333L18.6338 19.8148C18.7168 19.7318 18.7252 19.5995 18.6529 19.5066L18.5918 19.4282C18.4016 19.1837 18.357 18.8666 18.4751 18.6006C18.4963 18.5527 18.5162 18.5044 18.5344 18.4561C18.6331 18.1941 18.8783 18.0084 19.1739 17.9713L19.295 17.9561C19.4117 17.9416 19.4992 17.8423 19.4992 17.7246V17.2741C19.4997 17.1567 19.412 17.0575 19.2953 17.0428ZM15.9997 18.8997C15.2279 18.8997 14.5998 18.2718 14.5998 17.4997C14.5998 16.7276 15.2279 16.0997 15.9997 16.0997C16.7718 16.0997 17.3997 16.7276 17.3997 17.4997C17.3997 18.2718 16.7716 18.8997 15.9997 18.8997Z" fill="white"/>
<path d="M16.4667 10.4997C16.7244 10.4997 16.9333 10.2908 16.9333 10.0331C16.9333 9.77534 16.7244 9.56641 16.4667 9.56641C16.2089 9.56641 16 9.77534 16 10.0331C16 10.2908 16.2089 10.4997 16.4667 10.4997Z" fill="white"/>
<path d="M19.2948 9.6084L19.191 9.59533C18.9535 9.56569 18.7488 9.41077 18.67 9.20101C18.6541 9.15877 18.6368 9.11677 18.6184 9.07548C18.522 8.85873 18.5586 8.59995 18.7141 8.40023L18.7666 8.33302C18.8389 8.24016 18.8307 8.10809 18.7474 8.02478L18.4744 7.75178C18.3914 7.66871 18.2591 7.66054 18.1662 7.73242L18.0988 7.78492C17.899 7.94031 17.64 7.97717 17.4235 7.88082C17.3818 7.86214 17.3398 7.8451 17.2978 7.82925C17.0847 7.74899 16.9335 7.54925 16.9034 7.30822L16.8906 7.20439C16.8761 7.08772 16.7768 7 16.6589 7H16.2727C16.1551 7 16.0557 7.08772 16.0413 7.20439L16.0284 7.308C15.9988 7.54553 15.8439 7.75017 15.6346 7.82903C15.5921 7.84489 15.5499 7.86217 15.5083 7.88082C15.2918 7.97696 15.0328 7.94056 14.8328 7.78492L14.7654 7.73267C14.6726 7.66035 14.5405 7.66874 14.4574 7.75203L14.1844 8.02503C14.1011 8.10831 14.093 8.24038 14.1653 8.33327L14.2175 8.40048C14.3729 8.60044 14.4098 8.85922 14.3134 9.07573C14.295 9.11726 14.278 9.15901 14.2619 9.20148C14.183 9.41126 13.9784 9.56594 13.7408 9.59558L13.637 9.60865C13.5203 9.62311 13.4326 9.72251 13.4326 9.84011V10.2263C13.4326 10.3439 13.5201 10.4433 13.637 10.4577L13.7408 10.4708C13.9786 10.5005 14.183 10.6554 14.2621 10.8651C14.2779 10.9074 14.2952 10.9494 14.3137 10.9907C14.41 11.2074 14.3732 11.4662 14.2178 11.6659L14.1655 11.7331C14.0932 11.826 14.1013 11.9581 14.1846 12.0414L14.4576 12.3144C14.5407 12.3977 14.673 12.4061 14.7659 12.3337L14.8333 12.2812C15.0331 12.1258 15.2918 12.0892 15.5086 12.1853C15.5503 12.204 15.5923 12.221 15.6343 12.2369C15.8473 12.3172 15.9985 12.5169 16.0284 12.7579L16.0415 12.8618C16.056 12.9784 16.1553 13.0662 16.2729 13.0662H16.6591C16.7767 13.0662 16.8761 12.9784 16.8908 12.8618L16.9037 12.7582C16.9338 12.5169 17.0849 12.3172 17.2975 12.2371C17.34 12.2213 17.3822 12.204 17.4238 12.1853C17.6403 12.089 17.8993 12.1256 18.0992 12.2812L18.1667 12.3335C18.2595 12.4056 18.3916 12.3972 18.4749 12.3141L18.7479 12.0411C18.8312 11.9578 18.8394 11.8258 18.7671 11.7329L18.7148 11.6657C18.5592 11.4657 18.5226 11.2069 18.6189 10.9904C18.6373 10.9489 18.6546 10.9071 18.6705 10.8647C18.7496 10.6549 18.954 10.5002 19.1917 10.4706L19.2956 10.4575C19.4122 10.443 19.4997 10.3436 19.4997 10.226V9.83987C19.4992 9.72226 19.4115 9.62311 19.2948 9.6084ZM16.4659 10.9664C15.9512 10.9664 15.5326 10.5478 15.5326 10.0331C15.5326 9.51836 15.9512 9.09976 16.4659 9.09976C16.9807 9.09976 17.3992 9.51836 17.3992 10.0331C17.3992 10.5478 16.9804 10.9664 16.4659 10.9664Z" fill="white"/>
</svg>
