<svg width="92" height="92" viewBox="0 0 92 92" fill="none" xmlns="http://www.w3.org/2000/svg">
<path d="M46 92C71.4051 92 92 71.4051 92 46C92 20.5949 71.4051 0 46 0C20.5949 0 0 20.5949 0 46C0 71.4051 20.5949 92 46 92Z" fill="#367CFF"/>
<path d="M16.5332 30.2178H61.5118V89.0672H16.5332V30.2178Z" fill="#F5F5F5"/>
<path d="M16.5332 30.2178H20.2395V89.0672H16.5332V30.2178Z" fill="#E0E0E0"/>
<path d="M38.6082 42.7292H33.8634C33.3553 42.7292 32.9434 42.3172 32.9434 41.8092C32.9434 41.3011 33.3553 40.8892 33.8634 40.8892H38.6082C39.1162 40.8892 39.5282 41.3011 39.5282 41.8092C39.5282 42.3172 39.1162 42.7292 38.6082 42.7292Z" fill="#BDBDBD"/>
<path d="M54.6392 42.7292H44.5509C44.0428 42.7292 43.6309 42.3172 43.6309 41.8092C43.6309 41.3011 44.0428 40.8892 44.5509 40.8892H54.6392C55.1472 40.8892 55.5592 41.3011 55.5592 41.8092C55.5592 42.3172 55.1472 42.7292 54.6392 42.7292Z" fill="#BDBDBD"/>
<path d="M37.2824 49.8625H23.4073C22.8993 49.8625 22.4873 49.4505 22.4873 48.9425C22.4873 48.4344 22.8993 48.0225 23.4073 48.0225H37.2824C37.7904 48.0225 38.2024 48.4344 38.2024 48.9425C38.2024 49.4505 37.7904 49.8625 37.2824 49.8625Z" fill="#BDBDBD"/>
<path d="M54.3817 49.8625H44.7813C44.2733 49.8625 43.8613 49.4505 43.8613 48.9425C43.8613 48.4344 44.2733 48.0225 44.7813 48.0225H54.3817C54.8897 48.0225 55.3017 48.4344 55.3017 48.9425C55.3017 49.4505 54.8897 49.8625 54.3817 49.8625Z" fill="#BDBDBD"/>
<path d="M54.3817 56.9958H23.4073C22.8993 56.9958 22.4873 56.5838 22.4873 56.0758C22.4873 55.5677 22.8993 55.1558 23.4073 55.1558H54.3817C54.8897 55.1558 55.3017 55.5677 55.3017 56.0758C55.3017 56.5838 54.8897 56.9958 54.3817 56.9958Z" fill="#BDBDBD"/>
<path d="M54.3817 64.1291H23.4073C22.8993 64.1291 22.4873 63.7171 22.4873 63.2091C22.4873 62.701 22.8993 62.2891 23.4073 62.2891H54.3817C54.8897 62.2891 55.3017 62.701 55.3017 63.2091C55.3017 63.7171 54.8897 64.1291 54.3817 64.1291Z" fill="#BDBDBD"/>
<path d="M54.3817 71.2624H23.4073C22.8993 71.2624 22.4873 70.8504 22.4873 70.3424C22.4873 69.8343 22.8993 69.4224 23.4073 69.4224H54.3817C54.8897 69.4224 55.3017 69.8343 55.3017 70.3424C55.3017 70.8504 54.8897 71.2624 54.3817 71.2624Z" fill="#BDBDBD"/>
<path d="M54.3817 78.3957H23.4073C22.8993 78.3957 22.4873 77.9837 22.4873 77.4757C22.4873 76.9676 22.8993 76.5557 23.4073 76.5557H54.3817C54.8897 76.5557 55.3017 76.9676 55.3017 77.4757C55.3017 77.9837 54.8897 78.3957 54.3817 78.3957Z" fill="#BDBDBD"/>
<path d="M36.3385 9.40651C36.3385 7.45684 34.7581 5.87646 32.8086 5.87646H6.28962C4.34014 5.87646 2.75977 7.45684 2.75977 9.40651V12.6248H36.3385V9.40651Z" fill="#EEEEEE"/>
<path d="M32.8089 5.87646H29.1025C31.052 5.87646 32.6324 7.45703 32.6324 9.40651V12.6248H36.3387V9.40651C36.3387 7.45684 34.7583 5.87646 32.8089 5.87646Z" fill="#E0E0E0"/>
<path d="M2.75977 12.6245V33.3332C2.75977 35.2828 4.34014 36.8632 6.28962 36.8632H32.8088C34.7583 36.8632 36.3387 35.2826 36.3387 33.3332V12.6245H2.75977Z" fill="#53B3EC"/>
<path d="M32.6328 12.6245V36.8632H32.8093C34.7587 36.8632 36.3391 35.2826 36.3391 33.3332V12.6245H32.6328Z" fill="#479FDB"/>
<path d="M29.004 10.2258C28.496 10.2258 28.084 9.81386 28.084 9.30584V2.93318C28.084 2.42516 28.496 2.01318 29.004 2.01318C29.512 2.01318 29.924 2.42516 29.924 2.93318V9.30584C29.924 9.81386 29.512 10.2258 29.004 10.2258Z" fill="#E0E0E0"/>
<path d="M10.0948 10.2258C9.58678 10.2258 9.1748 9.81386 9.1748 9.30584V2.93318C9.1748 2.42516 9.58678 2.01318 10.0948 2.01318C10.6028 2.01318 11.0148 2.42516 11.0148 2.93318V9.30584C11.0148 9.81386 10.603 10.2258 10.0948 10.2258Z" fill="#E0E0E0"/>
<path d="M26.6406 17.9541H31.368V22.6938H26.6406V17.9541Z" fill="white"/>
<path d="M29.0742 17.9541H31.3685V22.6938H29.0742V17.9541Z" fill="#EEEEEE"/>
<path d="M7.75586 17.9541H12.4832V22.6938H7.75586V17.9541Z" fill="white"/>
<path d="M10.1885 17.9541H12.4828V22.6938H10.1885V17.9541Z" fill="#EEEEEE"/>
<path d="M17.2861 17.9541H22.0135V22.6938H17.2861V17.9541Z" fill="white"/>
<path d="M19.7188 17.9541H22.013V22.6938H19.7188V17.9541Z" fill="#E0E0E0"/>
<path d="M26.6406 27.4849H31.368V32.2245H26.6406V27.4849Z" fill="white"/>
<path d="M29.0742 27.4849H31.3685V32.2245H29.0742V27.4849Z" fill="#EEEEEE"/>
<path d="M7.75586 27.4849H12.4832V32.2245H7.75586V27.4849Z" fill="white"/>
<path d="M10.1885 27.4849H12.4828V32.2245H10.1885V27.4849Z" fill="#EEEEEE"/>
<path d="M17.2861 27.4849H22.0135V32.2245H17.2861V27.4849Z" fill="white"/>
<path d="M19.7188 27.4849H22.013V32.2245H19.7188V27.4849Z" fill="#E0E0E0"/>
<path d="M73.9436 31.2688C80.6018 31.2688 85.9994 25.8604 85.9994 19.1889C85.9994 12.5173 80.6018 7.10889 73.9436 7.10889C67.2853 7.10889 61.8877 12.5173 61.8877 19.1889C61.8877 25.8604 67.2853 31.2688 73.9436 31.2688Z" fill="#FF576B"/>
<path d="M73.943 7.10889C69.7611 7.10889 66.0774 9.2431 63.915 12.4832C65.8262 11.2073 68.1209 10.4625 70.5896 10.4625C77.2481 10.4625 82.6455 15.8708 82.6455 22.5424C82.6455 25.0237 81.8979 27.3296 80.6175 29.2481C83.8608 27.0832 85.9987 23.3868 85.9987 19.1889C85.9989 12.5172 80.6013 7.10889 73.943 7.10889Z" fill="#E64E60"/>
<path d="M73.9434 11.0894C73.4354 11.0894 73.0234 10.6774 73.0234 10.1694V3.72664C73.0234 3.21862 73.4354 2.80664 73.9434 2.80664C74.4515 2.80664 74.8634 3.21862 74.8634 3.72664V10.1694C74.8634 10.6774 74.4515 11.0894 73.9434 11.0894Z" fill="#F5F5F5"/>
<path d="M73.9434 35.5707C73.4354 35.5707 73.0234 35.1587 73.0234 34.6507V28.2081C73.0234 27.7001 73.4354 27.2881 73.9434 27.2881C74.4515 27.2881 74.8634 27.7001 74.8634 28.2081V34.6507C74.8634 35.1589 74.4515 35.5707 73.9434 35.5707Z" fill="#F5F5F5"/>
<path d="M65.0879 20.2697H58.6475C58.1395 20.2697 57.7275 19.8577 57.7275 19.3497C57.7275 18.8417 58.1395 18.4297 58.6475 18.4297H65.0879C65.5959 18.4297 66.0079 18.8417 66.0079 19.3497C66.0079 19.8577 65.5959 20.2697 65.0879 20.2697Z" fill="#F5F5F5"/>
<path d="M89.2393 20.2697H82.7989C82.2909 20.2697 81.8789 19.8577 81.8789 19.3497C81.8789 18.8417 82.2909 18.4297 82.7989 18.4297H89.2393C89.7473 18.4297 90.1593 18.8417 90.1593 19.3497C90.1593 19.8577 89.7473 20.2697 89.2393 20.2697Z" fill="#F5F5F5"/>
<path d="M73.9432 20.431C74.6291 20.431 75.1852 19.8748 75.1852 19.1887C75.1852 18.5025 74.6291 17.9463 73.9432 17.9463C73.2572 17.9463 72.7012 18.5025 72.7012 19.1887C72.7012 19.8748 73.2572 20.431 73.9432 20.431Z" fill="#F5F5F5"/>
<path d="M68.3087 17.5319C67.8006 17.5319 67.3887 17.12 67.3887 16.6119V13.5518C67.3887 13.0438 67.8006 12.6318 68.3087 12.6318H71.2069C71.7149 12.6318 72.1269 13.0438 72.1269 13.5518C72.1269 14.0599 71.7149 14.4718 71.2069 14.4718H69.2287V16.6119C69.2287 17.12 68.8167 17.5319 68.3087 17.5319Z" fill="#F5F5F5"/>
<path d="M71.2069 25.7461H68.3087C67.8006 25.7461 67.3887 25.3341 67.3887 24.8261V22.088C67.3887 21.5799 67.8006 21.168 68.3087 21.168C68.8167 21.168 69.2287 21.5799 69.2287 22.088V23.9061H71.2069C71.7149 23.9061 72.1269 24.318 72.1269 24.8261C72.1269 25.3341 71.7149 25.7461 71.2069 25.7461Z" fill="#F5F5F5"/>
<path d="M79.5789 25.7461H76.6807C76.1727 25.7461 75.7607 25.3341 75.7607 24.8261C75.7607 24.318 76.1727 23.9061 76.6807 23.9061H78.6589V22.088C78.6589 21.5799 79.0709 21.168 79.5789 21.168C80.087 21.168 80.4989 21.5799 80.4989 22.088V24.8261C80.4989 25.3343 80.087 25.7461 79.5789 25.7461Z" fill="#F5F5F5"/>
<path d="M79.5789 17.5319C79.0709 17.5319 78.6589 17.12 78.6589 16.6119V14.4718H76.6807C76.1727 14.4718 75.7607 14.0599 75.7607 13.5518C75.7607 13.0438 76.1727 12.6318 76.6807 12.6318H79.5789C80.087 12.6318 80.4989 13.0438 80.4989 13.5518V16.6119C80.4989 17.12 80.087 17.5319 79.5789 17.5319Z" fill="#F5F5F5"/>
<path d="M79.1666 88.234C73.7169 88.234 69.2832 83.8268 69.2832 78.4095C69.2832 72.9921 73.7169 68.585 79.1666 68.585C84.6163 68.585 89.05 72.9921 89.05 78.4095C89.05 83.8268 84.6163 88.234 79.1666 88.234Z" fill="#FFC42E"/>
<path d="M79.1663 68.585C75.8316 68.585 72.8797 70.2367 71.0889 72.7586C72.5737 71.8712 74.3107 71.3595 76.166 71.3595C81.6159 71.3595 86.0494 75.7667 86.0494 81.184C86.0494 83.2866 85.3792 85.2353 84.2434 86.8348C87.1204 85.1153 89.0497 81.9826 89.0497 78.4095C89.0497 72.9921 84.616 68.585 79.1663 68.585Z" fill="#F4B42E"/>
<path d="M78.3035 76.3753C78.3035 75.9986 78.5776 75.5962 79.3471 75.5962C80.0066 75.5962 80.5729 75.8341 81.1242 76.167L81.669 74.7443C81.1805 74.3991 80.5737 74.21 79.9834 74.1441V72.8931H78.5278V74.2324C77.3956 74.5205 76.5838 75.3982 76.5838 76.5274C76.5838 77.9203 77.6904 78.5437 78.888 79.0087C79.988 79.4499 80.137 79.856 80.137 80.2291C80.137 80.7861 79.6496 81.1604 78.9263 81.1604C78.1763 81.1604 77.5229 80.866 76.9201 80.4466L76.3965 81.8923C76.9163 82.3566 77.6902 82.5636 78.3662 82.6281V83.987H79.8218V82.5486C81.1157 82.2478 81.8613 81.3074 81.8613 80.1403C81.8613 78.609 80.712 77.9422 79.6982 77.533C78.5048 77.0447 78.3035 76.7812 78.3035 76.3753Z" fill="white"/>
<path d="M64.0925 42.1855L73.4669 45.575L62.8474 74.7845L53.4648 71.4176L64.0925 42.1855Z" fill="#205081"/>
<path d="M73.4672 45.5753L69.8539 44.269L59.2314 73.487L62.8476 74.7847L73.4672 45.5753Z" fill="#1C3B5C"/>
<path d="M67.9983 36.8324L73.9066 38.9852C74.8608 39.333 75.353 40.3882 75.006 41.3428L73.4673 45.575L64.1016 42.1623L65.6392 37.9327C65.9866 36.977 67.0432 36.4843 67.9983 36.8324Z" fill="white"/>
<path d="M74.0106 39.0233L72.1754 38.4043L70.0244 44.3206L73.4676 45.5753L75.0439 41.2396C75.3702 40.342 74.9076 39.3502 74.0106 39.0233Z" fill="#DEE0E5"/>
<path d="M53.4648 71.4178L56.9877 70.4946L58.1561 73.1012L60.8913 71.8954L62.8474 74.7846L54.9287 82.1021L53.4648 71.4178Z" fill="white"/>
<path d="M61.4601 72.7354L61.201 72.3525L54.5078 79.0306L54.9286 82.1018L62.8472 74.7843L61.4601 72.7354Z" fill="#DEE0E5"/>
</svg>
