<svg width="114" height="114" viewBox="0 0 114 114" fill="none" xmlns="http://www.w3.org/2000/svg">
<path d="M92.625 114H21.375C9.56888 114 0 104.431 0 92.625V21.375C0 9.56888 9.56888 0 21.375 0H92.625C104.431 0 114 9.56888 114 21.375V92.625C114 104.431 104.431 114 92.625 114Z" fill="#FFE6E2"/>
<path d="M81.3426 28.5H32.6574C30.3632 28.5 28.5 30.3632 28.5 32.6574V38.5961C28.5 40.8868 30.3632 42.75 32.6574 42.75H81.3461C83.6368 42.75 85.5 40.8868 85.5 38.5926V32.6574C85.5 30.3632 83.6368 28.5 81.3426 28.5Z" fill="#FC573B"/>
<path d="M32.6574 85.5H50.4699C52.7606 85.5 54.6274 83.6368 54.6274 81.3425V51.6562C54.6274 49.3655 52.7642 47.4988 50.4699 47.4988H32.6574C30.3632 47.4988 28.5 49.3655 28.5 51.6562V81.3425C28.5 83.6368 30.3632 85.5 32.6574 85.5Z" fill="#FC573B"/>
<path d="M81.343 47.4988H63.5305C61.2398 47.4988 59.373 49.362 59.373 51.6562V59.9675C59.373 62.2582 61.2362 64.125 63.5305 64.125H81.343C83.6372 64.125 85.5004 62.2618 85.5004 59.9675V51.6562C85.5004 49.3655 83.6372 47.4988 81.343 47.4988Z" fill="#FD907E"/>
<path d="M81.343 68.8738H63.5305C61.2398 68.8738 59.373 70.737 59.373 73.0312V81.3425C59.373 83.6332 61.2362 85.5 63.5305 85.5H81.343C83.6372 85.5 85.5004 83.6368 85.5004 81.3425V73.0312C85.5004 70.7405 83.6372 68.8738 81.343 68.8738Z" fill="#FD907E"/>
</svg>
