<svg width="27" height="27" viewBox="0 0 27 27" fill="none" xmlns="http://www.w3.org/2000/svg">
<rect x="0.5" y="0.5" width="26" height="26" rx="13" fill="#759E1D" stroke="white"/>
<path d="M15.8697 20.4777C14.148 20.4777 12.7393 19.069 12.7393 17.3472C12.7393 15.6255 14.148 14.2168 15.8697 14.2168C17.5914 14.2168 19.0001 15.6255 19.0001 17.3472C19.0001 19.069 17.5914 20.4777 15.8697 20.4777ZM15.8697 15.2603C14.7219 15.2603 13.7827 16.1994 13.7827 17.3472C13.7827 18.4951 14.7219 19.4342 15.8697 19.4342C17.0175 19.4342 17.9567 18.4951 17.9567 17.3472C17.9567 16.1994 17.0175 15.2603 15.8697 15.2603Z" fill="white"/>
<path d="M16.9129 17.8682H15.8694C15.5564 17.8682 15.3477 17.6595 15.3477 17.3465V16.303C15.3477 15.99 15.5564 15.7812 15.8694 15.7812C16.1824 15.7812 16.3911 15.99 16.3911 16.303V16.8247H16.9129C17.2259 16.8247 17.4346 17.0334 17.4346 17.3465C17.4346 17.6595 17.2259 17.8682 16.9129 17.8682Z" fill="white"/>
<path d="M16.913 9H8.56521C7.73042 9 7 9.73042 7 10.6174V16.2C7 17.1391 7.73042 17.8696 8.56521 17.8696H11.6957C11.9565 17.8696 12.2174 17.6087 12.2174 17.3478C12.2174 17.0869 11.9565 16.8261 11.6957 16.8261H8.56521C8.30434 16.8261 8.04347 16.5652 8.04347 16.2522V12.6522H17.4348V13.6957C17.4348 13.9565 17.6956 14.2174 17.9565 14.2174C18.2174 14.2174 18.4783 13.9565 18.4783 13.6957V10.6174C18.4783 9.73042 17.8 9 16.913 9ZM8.04349 11.6087V10.6174C8.04349 10.3043 8.30436 10.0435 8.56523 10.0435H16.913C17.1739 10.0435 17.4348 10.3043 17.4348 10.6174V11.6087L8.04349 11.6087Z" fill="white"/>
</svg>
