<svg width="27" height="27" viewBox="0 0 27 27" fill="none" xmlns="http://www.w3.org/2000/svg">
<rect x="0.5" y="0.5" width="26" height="26" rx="13" fill="#B336FF" stroke="white"/>
<path d="M10.6825 14.6769C10.5517 14.6769 10.4377 14.6284 10.3407 14.5313C10.2437 14.4343 10.1951 14.3203 10.1951 14.1895C10.1951 14.0587 10.2437 13.945 10.3407 13.8484C10.4377 13.7514 10.5517 13.7028 10.6825 13.7028C10.8133 13.7028 10.9272 13.7514 11.0242 13.8484C11.1213 13.9455 11.1698 14.0594 11.1698 14.1902C11.1698 14.3206 11.1213 14.4343 11.0242 14.5313C10.9272 14.6284 10.8133 14.6769 10.6825 14.6769ZM13.214 14.6769C13.0832 14.6769 12.9693 14.6284 12.8723 14.5313C12.7752 14.4343 12.7267 14.3203 12.7267 14.1895C12.7267 14.0587 12.7752 13.945 12.8723 13.8484C12.9693 13.7514 13.0832 13.7028 13.214 13.7028C13.3448 13.7028 13.4588 13.7514 13.5558 13.8484C13.6529 13.9455 13.7014 14.0594 13.7014 14.1902C13.7014 14.3206 13.6529 14.4343 13.5558 14.5313C13.4588 14.6284 13.3448 14.6769 13.214 14.6769ZM15.7456 14.6769C15.6148 14.6769 15.5009 14.6284 15.4039 14.5313C15.3068 14.4343 15.2583 14.3203 15.2583 14.1895C15.2583 14.0587 15.3068 13.945 15.4039 13.8484C15.5009 13.7514 15.6148 13.7028 15.7456 13.7028C15.8764 13.7028 15.9904 13.7514 16.0874 13.8484C16.1844 13.9455 16.233 14.0594 16.233 14.1902C16.233 14.3206 16.1844 14.4343 16.0874 14.5313C15.9904 14.6284 15.8764 14.6769 15.7456 14.6769ZM9.17301 19.1799C8.88187 19.1799 8.63884 19.0825 8.44391 18.8875C8.24856 18.6922 8.15088 18.4489 8.15088 18.1578V10.0757C8.15088 9.78459 8.24856 9.54156 8.44391 9.34662C8.63884 9.15127 8.88187 9.05359 9.17301 9.05359H10.2932V7.98273C10.2932 7.88442 10.3255 7.80299 10.3901 7.73843C10.4542 7.67388 10.5354 7.6416 10.6337 7.6416C10.732 7.6416 10.8135 7.67388 10.878 7.73843C10.9426 7.80299 10.9749 7.88442 10.9749 7.98273V9.05359H15.502V7.95868C15.502 7.86839 15.5323 7.79307 15.5931 7.73274C15.6539 7.6724 15.729 7.64202 15.8184 7.6416C15.9087 7.6416 15.984 7.67177 16.0444 7.73211C16.1047 7.79244 16.1349 7.86776 16.1349 7.95805V9.05359H17.2551C17.5462 9.05359 17.7893 9.15127 17.9842 9.34662C18.1795 9.54156 18.2772 9.78459 18.2772 10.0757V18.1578C18.2772 18.4489 18.1798 18.692 17.9848 18.8869C17.7895 19.0823 17.5462 19.1799 17.2551 19.1799H9.17301ZM9.17301 18.547H17.2551C17.3521 18.547 17.4414 18.5065 17.5228 18.4255C17.6038 18.3441 17.6443 18.2548 17.6443 18.1578V12.6073H8.78378V18.1578C8.78378 18.2548 8.82428 18.3441 8.90529 18.4255C8.98672 18.5065 9.07596 18.547 9.17301 18.547Z" fill="white"/>
</svg>
