<svg width="178" height="178" viewBox="0 0 178 178" fill="none" xmlns="http://www.w3.org/2000/svg">
<path d="M89 178C138.153 178 178 138.153 178 89C178 39.8467 138.153 0 89 0C39.8467 0 0 39.8467 0 89C0 138.153 39.8467 178 89 178Z" fill="#002A2D"/>
<path d="M164.483 41.8299C148.741 66.9447 120.817 83.6322 88.9998 83.6322C57.1823 83.6322 29.2586 66.9447 13.5166 41.8299C29.2307 16.7153 57.1823 0 88.9998 0C120.817 0 148.769 16.7153 164.483 41.8299Z" fill="#29A431"/>
<path opacity="0.14" d="M89.4226 161.703C116.428 161.703 138.32 160.572 138.32 159.178C138.32 157.783 116.428 156.652 89.4226 156.652C62.4174 156.652 40.5254 157.783 40.5254 159.178C40.5254 160.572 62.4174 161.703 89.4226 161.703Z" fill="black"/>
<path d="M84.8528 30.3295V41.7883C84.2692 38.4054 81.2913 35.8087 77.7537 35.8087H73.1915V38.3578C73.1915 39.0844 72.3817 39.5132 71.7861 39.1082L62.4118 32.9501C61.8757 32.5689 61.8757 31.7946 62.4118 31.4373L71.7622 25.1719C72.3578 24.7669 73.1677 25.1957 73.1677 25.9223L73.1796 28.4714H77.7537C80.3503 28.4714 82.7564 29.1384 84.8528 30.3295Z" fill="#0F9BE8"/>
<path d="M114.917 32.95L105.543 39.1082C104.923 39.5132 104.137 39.0844 104.137 38.3578V35.8087H99.5752C96.1445 35.8087 93.2859 38.2149 92.5234 41.4071V30.2818C94.6079 29.1384 97.014 28.4714 99.5752 28.4714H104.161L104.173 25.9223C104.173 25.1957 104.983 24.7669 105.578 25.1719L114.917 31.4373C115.465 31.7946 115.465 32.5689 114.917 32.95Z" fill="#8C4CD1"/>
<path d="M94.883 17.714H92.5244V54.7227C92.5244 54.9133 92.3697 55.0681 92.1791 55.0681H85.2109C85.0203 55.0681 84.8535 54.9133 84.8535 54.7227V17.6903H82.4593C81.7208 17.6903 81.292 16.8802 81.6971 16.2846L87.9387 6.93425C88.3198 6.39822 89.0941 6.39822 89.4515 6.93425L95.6334 16.3085C96.0383 16.9279 95.5857 17.714 94.883 17.714Z" fill="#FED110"/>
<path d="M111.209 51.2498C111.209 53.8854 110.271 56.4486 108.574 58.4703L108.682 58.6507C110.336 61.4063 111.209 64.5595 111.209 67.7731V77.6044C111.209 79.7706 109.838 81.6839 107.78 82.3701H70.3418C68.2117 81.2688 66.876 79.0666 66.876 76.6657V66.4309C66.876 57.0896 74.4486 49.517 83.7898 49.517H92.7612C95.6133 49.517 98.4292 48.8311 100.956 47.5314L104.827 45.5121C105.333 45.248 105.938 45.6152 105.938 46.186V48.6994H110.377C110.837 48.6994 111.209 49.0722 111.209 49.5322V51.2498Z" fill="#00CC83"/>
<path d="M128.177 133.471V151.176C128.177 152.145 127.392 152.93 126.424 152.93H52.4192C51.4509 152.93 50.666 152.145 50.666 151.176V133.471C50.666 119.788 60.6303 108.452 73.7173 106.34C73.7354 106.34 73.7714 106.34 73.7895 106.322C75.2156 106.124 76.6416 105.979 78.1398 105.979H100.74C102.202 105.979 103.646 106.124 105.054 106.322C105.09 106.322 105.126 106.34 105.162 106.34C118.213 108.47 128.177 119.788 128.177 133.471Z" fill="#313B5A"/>
<path d="M113.23 82.68C113.23 85.2609 111.138 87.3532 108.557 87.3532H107.786V78.0068H108.557C111.138 78.0068 113.23 80.0991 113.23 82.68Z" fill="#FFC0A4"/>
<path d="M108.88 78.019V87.3337C108.772 87.3515 108.664 87.3515 108.555 87.3515H107.779V78.001H108.555C108.664 78.001 108.772 78.001 108.88 78.019Z" fill="#FFA87A"/>
<path d="M64.8916 82.68C64.8916 85.2609 66.9839 87.3532 69.5648 87.3532H70.3354V78.0068H69.5648C66.9839 78.0068 64.8916 80.0991 64.8916 82.68Z" fill="#FFC0A4"/>
<path d="M70.3423 78.001V87.3515H69.5661C69.4578 87.3515 69.3495 87.3515 69.2412 87.3337V78.019C69.3495 78.001 69.4578 78.001 69.5661 78.001H70.3423Z" fill="#FFA87A"/>
<path d="M105.163 106.34L98.881 127.821L89.4313 152.93L79.9814 127.821L73.7178 106.358V106.34C73.7358 106.34 73.7719 106.34 73.7899 106.322C75.216 106.124 76.642 105.979 78.1403 105.979H100.74C102.202 105.979 103.647 106.124 105.054 106.322C105.091 106.322 105.127 106.34 105.163 106.34Z" fill="white"/>
<path d="M105.145 106.358L98.881 127.821L89.4403 120.944H89.4222L79.9814 127.821L73.7178 106.358C73.7358 106.34 73.7719 106.34 73.7899 106.322C75.216 106.124 76.642 105.979 78.1403 105.979H100.74C102.202 105.979 103.647 106.124 105.054 106.322C105.091 106.34 105.109 106.34 105.145 106.358Z" fill="#D0F6FF"/>
<path d="M93.8456 141.433L89.4321 152.931L85.0186 141.433L88.0692 128.094L85.5962 123.725L89.423 120.945H89.4411L93.2679 123.725L90.7949 128.094L93.8456 141.433Z" fill="#29A431"/>
<path d="M100.946 95.917V107.442C100.946 113.808 95.7864 118.968 89.4209 118.968C86.2381 118.968 83.3568 117.678 81.2711 115.592C79.1855 113.506 77.8955 110.625 77.8955 107.442V95.917H100.946Z" fill="#FFC0A4"/>
<path d="M100.946 95.917V104.199C98.3061 106.237 95.1354 107.611 91.6753 108.045C90.7952 108.166 89.9152 108.214 89.0351 108.214C84.912 108.214 81.0782 106.96 77.8955 104.802V95.917H100.946Z" fill="#FFA87A"/>
<path d="M107.785 73.153V87.6349C107.785 97.1779 100.964 105.639 91.5193 106.852C80.1069 108.328 70.334 99.4409 70.334 88.2907V73.153C70.334 71.0837 70.6771 69.0879 71.2996 67.2289C71.4748 66.7059 71.9824 66.3643 72.534 66.3643H95.8482C97.8815 66.3643 99.8819 65.807 101.653 64.7574L103.599 63.5646C104.209 63.1908 105.029 63.3682 105.383 63.9898C106.925 66.698 107.785 69.8115 107.785 73.153Z" fill="#FFC0A4"/>
<path d="M73.7179 130.494V133.718C73.7179 133.964 73.5211 134.161 73.2748 134.161H57.3493C57.1031 134.161 56.9062 133.964 56.9062 133.718V130.494C56.9062 130.248 57.1031 130.075 57.3493 130.075H73.2748C73.5211 130.075 73.7179 130.248 73.7179 130.494Z" fill="#20273A"/>
<path d="M86.0244 78.881C86.0244 79.2404 85.725 79.54 85.3655 79.54H77.1583C76.7839 79.54 76.4844 79.2404 76.4844 78.881C76.4844 78.5066 76.7839 78.207 77.1583 78.207H85.3655C85.725 78.207 86.0244 78.5066 86.0244 78.881Z" fill="#313B5A"/>
<path d="M82.9371 83.0156C82.9371 83.937 82.1899 84.684 81.2438 84.684C80.3222 84.684 79.5752 83.937 79.5752 83.0156C79.5752 82.0693 80.3222 81.3223 81.2438 81.3223C82.1899 81.3223 82.9371 82.0693 82.9371 83.0156Z" fill="#313B5A"/>
<path d="M100.973 78.881C100.973 79.2404 100.673 79.54 100.314 79.54H92.1066C91.7322 79.54 91.4326 79.2404 91.4326 78.881C91.4326 78.5066 91.7322 78.207 92.1066 78.207H100.314C100.673 78.207 100.973 78.5066 100.973 78.881Z" fill="#313B5A"/>
<path d="M97.8853 83.0156C97.8853 83.937 97.1381 84.684 96.192 84.684C95.2705 84.684 94.5234 83.937 94.5234 83.0156C94.5234 82.0693 95.2705 81.3223 96.192 81.3223C97.1381 81.3223 97.8853 82.0693 97.8853 83.0156Z" fill="#313B5A"/>
<path d="M88.7355 84.3936C89.0949 84.3937 89.3944 84.6933 89.3944 85.0528L89.3944 89.1764C89.3944 89.5508 89.0948 89.8503 88.7354 89.8502C88.361 89.8501 88.0615 89.5504 88.0615 89.176L88.0616 85.0524C88.0616 84.6928 88.3611 84.3934 88.7355 84.3936Z" fill="#FFA87A"/>
<path d="M94.293 93.9326C94.293 97.001 91.8113 99.4828 88.7203 99.4828C85.6518 99.4828 83.1699 97.001 83.1699 93.9326H94.293Z" fill="white"/>
</svg>
