<svg width="27" height="27" viewBox="0 0 27 27" fill="none" xmlns="http://www.w3.org/2000/svg">
<rect x="0.5" y="0.5" width="26" height="26" rx="13" fill="#FF7D05" stroke="white"/>
<path d="M13.0066 15.8618C13.069 15.9241 13.1535 15.9591 13.2417 15.9591C13.3299 15.9591 13.4144 15.9242 13.4767 15.8618L14.6636 14.675C14.7935 14.5451 14.7935 14.3346 14.6636 14.2048C14.5338 14.075 14.3233 14.075 14.1935 14.2048L13.2417 15.1565L12.8078 14.7226C12.6779 14.5928 12.4675 14.5928 12.3376 14.7226C12.2078 14.8523 12.2078 15.0629 12.3376 15.1928L13.0066 15.8618Z" fill="white"/>
<path d="M13.4995 17.6727C14.9546 17.6727 16.1385 16.4887 16.1385 15.0336C16.1385 13.5784 14.9546 12.3945 13.4995 12.3945C12.0442 12.3945 10.8604 13.5784 10.8604 15.0336C10.8604 16.4887 12.0443 17.6727 13.4995 17.6727ZM13.4995 13.0594C14.588 13.0594 15.4736 13.945 15.4736 15.0336C15.4736 16.1221 14.588 17.0078 13.4995 17.0078C12.4109 17.0078 11.5252 16.1221 11.5252 15.0336C11.5252 13.945 12.4109 13.0594 13.4995 13.0594Z" fill="white"/>
<path d="M17.9249 8.70788H17.3186V8.33242C17.3186 8.14886 17.1697 8 16.9861 8C16.8026 8 16.6537 8.14886 16.6537 8.33242V8.70788H16.0005V8.33242C16.0005 8.14886 15.8516 8 15.668 8C15.4844 8 15.3355 8.14886 15.3355 8.33242V8.70788H11.6646V8.33242C11.6646 8.14886 11.5158 8 11.3321 8C11.1486 8 10.9997 8.14886 10.9997 8.33242V8.70788H10.3465V8.33242C10.3465 8.14886 10.1976 8 10.0139 8C9.83038 8 9.68152 8.14886 9.68152 8.33242V8.70788H9.07509C8.48231 8.70788 8 9.19019 8 9.78305V18.1836C8 18.7764 8.48231 19.2587 9.07509 19.2587H17.9249C18.5178 19.2587 19 18.7764 19 18.1836V9.78305C19 9.19019 18.5177 8.70788 17.9249 8.70788ZM18.3351 18.1836C18.3351 18.4098 18.1511 18.5939 17.9249 18.5939H9.07509C8.84892 18.5939 8.66484 18.4098 8.66484 18.1836V11.4721H18.3351V18.1836ZM8.66484 9.78305C8.66484 9.5568 8.84892 9.37281 9.07509 9.37281H9.68152V9.74827C9.68152 9.93183 9.83038 10.0807 10.014 10.0807C10.1976 10.0807 10.3465 9.93183 10.3465 9.74827V9.37281H10.9997V9.74827C10.9997 9.93183 11.1486 10.0807 11.3322 10.0807C11.5158 10.0807 11.6646 9.93183 11.6646 9.74827V9.37281H15.3355V9.74827C15.3355 9.93183 15.4844 10.0807 15.668 10.0807C15.8516 10.0807 16.0005 9.93183 16.0005 9.74827V9.37281H16.6537V9.74827C16.6537 9.93183 16.8026 10.0807 16.9861 10.0807C17.1698 10.0807 17.3186 9.93183 17.3186 9.74827V9.37281H17.9249C18.1511 9.37281 18.3352 9.5568 18.3352 9.78305V10.8072H8.66484V9.78305Z" fill="white"/>
</svg>
