<svg width="49" height="46" viewBox="0 0 49 46" fill="none" xmlns="http://www.w3.org/2000/svg">
<path d="M47.5645 12.9199C48.4836 13.8391 49 15.0857 49 16.3856V34.6298C49 40.8749 43.9374 45.9375 37.6923 45.9375H11.3077C5.06263 45.9375 0 40.8749 0 34.6298V16.3856C0 15.0857 0.516382 13.8391 1.43555 12.9199C2.35471 12.0008 3.60137 11.4844 4.90126 11.4844H44.0987C45.3986 11.4844 46.6453 12.0008 47.5645 12.9199Z" fill="#F2F2F2"/>
<path d="M47.5645 12.9199C48.4836 13.8391 49 15.0857 49 16.3856V33.6875C49 40.453 43.5155 45.9375 36.75 45.9375C29.9845 45.9375 24.5 40.453 24.5 33.6875V26.7783C24.5 18.3317 31.3473 11.4844 39.7939 11.4844H44.0987C45.3986 11.4844 46.6453 12.0008 47.5645 12.9199Z" fill="#E7E7F2"/>
<path d="M0 8.61328C0 5.44196 2.57086 2.87109 5.74219 2.87109H43.2578C46.4291 2.87109 49 5.44196 49 8.61328C49 11.7846 46.4291 14.3555 43.2578 14.3555H5.74219C2.57086 14.3555 0 11.7846 0 8.61328Z" fill="#00CC83"/>
<path d="M24.5 8.61328C24.5 5.44196 27.0709 2.87109 30.2422 2.87109H43.2578C46.4291 2.87109 49 5.44196 49 8.61328C49 11.7846 46.4291 14.3555 43.2578 14.3555H30.2422C27.0709 14.3555 24.5 11.7846 24.5 8.61328Z" fill="#173E37"/>
<path d="M28.8066 20.0977H31.6777V22.9688H28.8066V20.0977Z" fill="#CECEE6"/>
<path d="M34.5488 20.0977H37.4199V22.9688H34.5488V20.0977Z" fill="#CECEE6"/>
<path d="M40.291 20.0977H43.1621V22.9688H40.291V20.0977Z" fill="#CECEE6"/>
<path d="M28.8066 25.8398H31.6777V28.7109H28.8066V25.8398Z" fill="#CECEE6"/>
<path d="M34.5488 25.8398H37.4199V28.7109H34.5488V25.8398Z" fill="#CECEE6"/>
<path d="M40.291 25.8398H43.1621V28.7109H40.291V25.8398Z" fill="#CECEE6"/>
<path d="M28.8066 31.582H31.6777V34.4531H28.8066V31.582Z" fill="#CECEE6"/>
<path d="M34.5488 31.582H37.4199V34.4531H34.5488V31.582Z" fill="#CECEE6"/>
<path d="M40.291 31.582H43.1621V34.4531H40.291V31.582Z" fill="#CECEE6"/>
<path d="M28.8066 37.3242H31.6777V40.1953H28.8066V37.3242Z" fill="#CECEE6"/>
<path d="M34.5488 37.3242H37.4199V40.1953H34.5488V37.3242Z" fill="#CECEE6"/>
<path d="M40.291 37.3242H43.1621V40.1953H40.291V37.3242Z" fill="#CECEE6"/>
<path d="M15.8867 20.0977C10.3455 20.0977 5.83789 24.6053 5.83789 30.1465C5.83789 35.6877 10.3455 40.1953 15.8867 40.1953C21.4279 40.1953 25.9355 35.6877 25.9355 30.1465C25.9355 24.6053 21.4279 20.0977 15.8867 20.0977Z" fill="#00CC83"/>
<path d="M25.9355 30.1465C25.9355 35.6877 21.4279 40.1953 15.8867 40.1953V20.0977C21.4279 20.0977 25.9355 24.6053 25.9355 30.1465Z" fill="#173E37"/>
<path d="M15.8867 22.9688C11.9246 22.9688 8.70898 26.1844 8.70898 30.1465C8.70898 34.1086 11.9246 37.3242 15.8867 37.3242C19.8488 37.3242 23.0645 34.1086 23.0645 30.1465C23.0645 26.1844 19.8488 22.9688 15.8867 22.9688Z" fill="#F2F2F2"/>
<path d="M23.0645 30.1465C23.0645 34.1086 19.8488 37.3242 15.8867 37.3242V22.9688C19.8488 22.9688 23.0645 26.1844 23.0645 30.1465Z" fill="#E7E7F2"/>
<path d="M19.7626 32.0126L17.753 34.0224L15.8867 32.1849L14.4512 30.7493V25.8398H17.3223V29.5435L19.7626 32.0126Z" fill="#D3D3D3"/>
<path d="M19.7626 32.0126L17.753 34.0224L15.8867 32.1849V25.8398H17.3223V29.5435L19.7626 32.0126Z" fill="#929292"/>
<path d="M7.27344 0H13.0156V8.61328H7.27344V0Z" fill="#D3D3D3"/>
<path d="M10.1445 0H13.0156V8.61328H10.1445V0Z" fill="#929292"/>
<path d="M21.6289 0H27.3711V8.61328H21.6289V0Z" fill="#D3D3D3"/>
<path d="M24.5 0H27.3711V8.61328H24.5V0Z" fill="#929292"/>
<path d="M35.9844 0H41.7266V8.61328H35.9844V0Z" fill="#D3D3D3"/>
<path d="M38.8555 0H41.7266V8.61328H38.8555V0Z" fill="#929292"/>
</svg>
