<svg width="69" height="69" viewBox="0 0 69 69" fill="none" xmlns="http://www.w3.org/2000/svg">
<circle cx="34.5" cy="34.5" r="34.5" fill="#FFC121" fill-opacity="0.25"/>
<path d="M35 63C51.0163 63 64 50.0163 64 34C64 17.9837 51.0163 5 35 5C18.9837 5 6 17.9837 6 34C6 50.0163 18.9837 63 35 63Z" fill="#FFCE00"/>
<path d="M63.8443 37.0237L50.7268 23.9062L20.1392 53.7364L28.721 62.3182C30.7429 62.7644 32.844 62.9997 35.0001 62.9997C49.9952 62.9997 62.3321 51.6188 63.8443 37.0237Z" fill="#FFA300"/>
<path d="M40.1516 13.332H22.3404C20.6465 13.332 19.2734 14.7052 19.2734 16.399V51.6027C19.2734 53.2966 20.6465 54.6697 22.3404 54.6697H47.6599C49.3538 54.6697 50.7269 53.2965 50.7269 51.6027V23.9074L44.8546 19.4497L40.1516 13.332Z" fill="#A260E5"/>
<path d="M40.1514 13.332H35.0137V54.6698H47.6598C49.3537 54.6698 50.7268 53.2966 50.7268 51.6029V23.9074L44.7561 19.5481L40.1514 13.332Z" fill="#7A3EB5"/>
<path d="M40.1514 20.8424C40.1514 22.5363 41.5244 23.9094 43.2183 23.9094H50.7267L40.1514 13.334V20.8424Z" fill="#A260E5"/>
<path d="M25.48 39.4004H28.505V42.7988H25.48V39.4004Z" fill="white"/>
<path d="M30.2192 39.4004H35.014V42.7988H30.2192V39.4004Z" fill="white"/>
<path d="M35.0142 39.4004H44.5208V42.7988H35.0142V39.4004Z" fill="white"/>
<path d="M25.48 45.8242H28.505V49.2227H25.48V45.8242Z" fill="white"/>
<path d="M30.2192 45.8242H35.014V49.2227H30.2192V45.8242Z" fill="white"/>
<path d="M35.0142 45.8242H44.5208V49.2227H35.0142V45.8242Z" fill="white"/>
<path d="M25.4795 32.9805H28.5046V36.3789H25.4795V32.9805Z" fill="white"/>
<path d="M30.2188 32.9805H44.5202V36.3789H30.2188V32.9805Z" fill="white"/>
<path d="M35.0137 39.4004H44.5203V42.7988H35.0137V39.4004Z" fill="#E9EDF5"/>
<path d="M35.0137 45.8223H44.5203V49.2207H35.0137V45.8223Z" fill="#E9EDF5"/>
<path d="M35.0137 32.9805H44.5203V36.3789H35.0137V32.9805Z" fill="#E9EDF5"/>
</svg>
