<svg width="69" height="69" viewBox="0 0 69 69" fill="none" xmlns="http://www.w3.org/2000/svg">
<circle cx="34.5" cy="34.5" r="34.5" fill="#367CFF" fill-opacity="0.2"/>
<circle cx="35" cy="34.7715" r="29" fill="#367CFF"/>
<mask id="mask0_5401_4" style="mask-type:alpha" maskUnits="userSpaceOnUse" x="6" y="5" width="58" height="59">
<circle cx="35" cy="34.7715" r="29" fill="#367CFF"/>
</mask>
<g mask="url(#mask0_5401_4)">
<path d="M25.0151 54.6389L49.4078 29.5L80.8303 54.1706L52.0289 82.5315L25.0151 54.6389Z" fill="#326CD8"/>
</g>
<path d="M47.1711 39.103C46.788 38.9996 46.5612 38.6053 46.6645 38.2221C47.0257 36.883 47.2088 35.4955 47.2088 34.0979C47.2088 29.2565 45.0336 24.747 41.2411 21.7259C40.9307 21.4787 40.8795 21.0265 41.1268 20.7162C41.374 20.4058 41.8261 20.3546 42.1365 20.6019C46.2734 23.8972 48.6459 28.8164 48.6459 34.0979C48.6459 35.6218 48.4461 37.1353 48.052 38.5964C47.9488 38.9795 47.5543 39.2064 47.1711 39.103Z" fill="#82DB5C"/>
<path d="M31.4007 51.3463C26.1188 51.3463 21.1997 48.9735 17.9046 44.8362C17.6573 44.5258 17.7086 44.0737 18.019 43.8264C18.3293 43.5792 18.7814 43.6304 19.0287 43.9408C22.0496 47.7339 26.559 49.9092 31.4007 49.9092C32.7983 49.9092 34.1859 49.7261 35.5249 49.3649C35.9079 49.2618 36.3024 49.4884 36.4058 49.8716C36.5091 50.2547 36.2823 50.6491 35.8992 50.7525C34.4382 51.1466 32.9247 51.3463 31.4007 51.3463Z" fill="#82DB5C"/>
<path d="M31.4008 21.166C38.5469 21.166 44.3349 26.9605 44.3349 34.1001C44.3349 41.2461 38.5469 47.0341 31.4008 47.0341C24.2612 47.0341 18.4668 41.2461 18.4668 34.1001C18.4668 26.9605 24.2612 21.166 31.4008 21.166Z" fill="#756C8A"/>
<path d="M31.4003 24.7578C36.5614 24.7578 40.7416 28.9427 40.7416 34.0991C40.7416 39.2601 36.5614 43.4403 31.4003 43.4403C26.244 43.4403 22.0591 39.2601 22.0591 34.0991C22.0591 28.9427 26.244 24.7578 31.4003 24.7578Z" fill="#F0EEFF"/>
<path d="M31.4003 24.7578C36.5614 24.7578 40.7416 28.9427 40.7416 34.0991C40.7416 39.2601 36.5614 43.4403 31.4003 43.4403C26.244 43.4403 22.0591 39.2601 22.0591 34.0991C22.0591 28.9427 26.244 24.7578 31.4003 24.7578Z" fill="#F0EEFF"/>
<path d="M30.5384 33.3828C29.5133 33.3828 28.8257 33.3828 27.8079 33.3828C27.4111 33.3828 27.0894 33.7045 27.0894 34.1014C27.0894 34.4982 27.4111 34.8199 27.8079 34.8199H30.5384C30.9353 34.8199 31.257 34.4982 31.257 34.1014C31.257 33.7045 30.9353 33.3828 30.5384 33.3828Z" fill="#838DF2"/>
<path d="M31.4007 28.3516C31.0038 28.3516 30.6821 28.6733 30.6821 29.0701V33.1539C30.6821 33.5508 31.0038 33.8725 31.4007 33.8725C31.7975 33.8725 32.1192 33.5508 32.1192 33.1539C32.1192 31.8724 32.1192 30.2994 32.1192 29.0701C32.1192 28.6733 31.7975 28.3516 31.4007 28.3516Z" fill="#647BE6"/>
<path d="M31.4006 24.041C25.862 24.041 21.3408 28.5468 21.3408 34.1008C21.3408 39.6457 25.8526 44.1606 31.4006 44.1606C33.0156 44.1606 34.6213 43.7685 36.0442 43.0266C36.3961 42.8431 36.5326 42.4091 36.3492 42.0573C36.1658 41.7054 35.7317 41.5689 35.3798 41.7523C34.3564 42.2859 33.2624 42.601 32.1193 42.6939V42.005C32.1193 41.6082 31.7976 41.2864 31.4007 41.2864C31.0038 41.2864 30.6821 41.6082 30.6821 42.005V42.6933C28.8436 42.5409 27.1673 41.8093 25.836 40.6818L26.322 40.1957C26.6026 39.9151 26.6026 39.4601 26.3219 39.1795C26.0413 38.8989 25.5863 38.8989 25.3058 39.1795L24.8197 39.6656C23.6922 38.3343 22.9605 36.6579 22.8081 34.8194H23.4965C23.8934 34.8194 24.2151 34.4977 24.2151 34.1008C24.2151 33.704 23.8934 33.3823 23.4965 33.3823H22.8081C22.9605 31.5437 23.6922 29.8672 24.8198 28.5359L25.3048 29.0213C25.5851 29.3018 26.0401 29.3024 26.321 29.0216C26.6017 28.7411 26.6019 28.2862 26.3214 28.0054L25.836 27.5198C27.1672 26.3924 28.8436 25.6608 30.682 25.5084V26.1967C30.682 26.5935 31.0037 26.9152 31.4006 26.9152C31.7974 26.9152 32.1191 26.5935 32.1191 26.1967V25.508C33.9144 25.6551 35.5963 26.352 36.9685 27.5175L36.4821 28.0038C36.2015 28.2844 36.2015 28.7394 36.4821 29.02C36.7627 29.3006 37.2177 29.3006 37.4984 29.02L37.9846 28.5339C39.1496 29.9063 39.8463 31.588 39.9934 33.3823H39.3048C38.9079 33.3823 38.5862 33.704 38.5862 34.1008C38.5862 34.4977 38.9079 34.8194 39.3048 34.8194H39.9926C39.8972 35.9578 39.5773 37.0727 39.0521 38.08C38.8686 38.4319 39.0051 38.8659 39.357 39.0494C39.7089 39.2328 40.143 39.0963 40.3263 38.7444C41.0683 37.3215 41.4604 35.7159 41.4604 34.1008C41.4604 28.5485 36.9578 24.041 31.4006 24.041Z" fill="#D5D5FF"/>
<path d="M51.5202 39.1307V53.5018C51.5202 53.8987 51.1985 54.2204 50.8016 54.2204H36.4305C36.0336 54.2204 35.7119 53.8987 35.7119 53.5018C35.7119 52.8968 35.7119 38.5686 35.7119 39.1307C35.7119 38.7338 36.0336 38.4121 36.4305 38.4121C37.3063 38.4121 51.6047 38.4121 50.8016 38.4121C51.1985 38.4121 51.5202 38.7338 51.5202 39.1307Z" fill="#82DB5C"/>
<path d="M39.3053 42.7242H38.5867C38.1899 42.7242 37.8682 42.4025 37.8682 42.0057C37.8682 41.6089 38.1899 41.2871 38.5867 41.2871H39.3053C39.7021 41.2871 40.0238 41.6089 40.0238 42.0057C40.0238 42.4025 39.7021 42.7242 39.3053 42.7242Z" fill="white"/>
<path d="M48.647 42.7242H42.18C41.7831 42.7242 41.4614 42.4025 41.4614 42.0057C41.4614 41.6089 41.7831 41.2871 42.18 41.2871H48.647C49.0439 41.2871 49.3656 41.6089 49.3656 42.0057C49.3656 42.4025 49.0439 42.7242 48.647 42.7242Z" fill="white"/>
<path d="M39.3053 45.5973H38.5867C38.1899 45.5973 37.8682 45.2756 37.8682 44.8787C37.8682 44.4819 38.1899 44.1602 38.5867 44.1602H39.3053C39.7021 44.1602 40.0238 44.4819 40.0238 44.8787C40.0238 45.2756 39.7021 45.5973 39.3053 45.5973Z" fill="white"/>
<path d="M48.6465 45.5973H42.1795C41.7826 45.5973 41.4609 45.2756 41.4609 44.8787C41.4609 44.4819 41.7826 44.1602 42.1795 44.1602H48.6465C49.0434 44.1602 49.3651 44.4819 49.3651 44.8787C49.3651 45.2756 49.0434 45.5973 48.6465 45.5973Z" fill="white"/>
<path d="M39.3053 48.4723H38.5867C38.1899 48.4723 37.8682 48.1506 37.8682 47.7537C37.8682 47.3569 38.1899 47.0352 38.5867 47.0352H39.3053C39.7021 47.0352 40.0238 47.3569 40.0238 47.7537C40.0238 48.1506 39.7021 48.4723 39.3053 48.4723Z" fill="white"/>
<path d="M48.647 48.4723H42.18C41.7831 48.4723 41.4614 48.1506 41.4614 47.7537C41.4614 47.3569 41.7831 47.0352 42.18 47.0352H48.647C49.0439 47.0352 49.3656 47.3569 49.3656 47.7537C49.3656 48.1506 49.0439 48.4723 48.647 48.4723Z" fill="white"/>
<path d="M39.3053 51.3453H38.5867C38.1899 51.3453 37.8682 51.0236 37.8682 50.6268C37.8682 50.23 38.1899 49.9082 38.5867 49.9082H39.3053C39.7021 49.9082 40.0238 50.23 40.0238 50.6268C40.0238 51.0236 39.7021 51.3453 39.3053 51.3453Z" fill="white"/>
<path d="M48.647 51.3453H42.18C41.7831 51.3453 41.4614 51.0236 41.4614 50.6268C41.4614 50.23 41.7831 49.9082 42.18 49.9082H48.647C49.0439 49.9082 49.3656 50.23 49.3656 50.6268C49.3656 51.0236 49.0439 51.3453 48.647 51.3453Z" fill="white"/>
<path d="M31.401 32.6641C32.195 32.6641 32.8381 33.3079 32.8381 34.1012C32.8381 34.8952 32.195 35.5383 31.401 35.5383C30.6077 35.5383 29.9639 34.8952 29.9639 34.1012C29.9639 33.3079 30.6077 32.6641 31.401 32.6641Z" fill="#FF8FA0"/>
</svg>
