<svg width="27" height="27" viewBox="0 0 27 27" fill="none" xmlns="http://www.w3.org/2000/svg">
<rect x="0.5" y="0.5" width="26" height="26" rx="13" fill="#2A6997" stroke="white"/>
<path d="M16.6824 8.78116V8.52409C16.6824 8.23514 16.4473 8 16.1583 8C15.8694 8 15.6342 8.23514 15.6342 8.52409V8.7433H14.0241V8.52409C14.0241 8.23514 13.7889 8 13.5 8C13.2111 8 12.9759 8.23514 12.9759 8.52409V8.7433H11.3658V8.52409C11.3658 8.23514 11.1306 8 10.8417 8C10.5527 8 10.3176 8.23514 10.3176 8.52409V8.78116C8.98641 8.9904 8 10.1103 8 11.4574V16.8399C8 18.3364 9.23949 19.554 10.76 19.554H16.24C17.7605 19.554 19 18.3364 19 16.8399V11.4574C19 10.1103 18.0136 8.9904 16.6824 8.78116ZM16.0328 8.52409C16.0328 8.45435 16.0886 8.39855 16.1583 8.39855C16.2281 8.39855 16.2839 8.45435 16.2839 8.52409V9.3471C16.2839 9.41486 16.2281 9.47265 16.1583 9.47265C16.0886 9.47265 16.0328 9.41486 16.0328 9.3471V8.52409ZM13.3745 8.52409C13.3745 8.45435 13.4303 8.39855 13.5 8.39855C13.5697 8.39855 13.6255 8.45435 13.6255 8.52409V9.3471C13.6255 9.41486 13.5697 9.47265 13.5 9.47265C13.4303 9.47265 13.3745 9.41486 13.3745 9.3471V8.52409ZM10.7161 8.52409C10.7161 8.45435 10.7719 8.39855 10.8417 8.39855C10.9114 8.39855 10.9672 8.45435 10.9672 8.52409V9.3471C10.9672 9.41486 10.9114 9.47265 10.8417 9.47265C10.7719 9.47265 10.7161 9.41486 10.7161 9.3471V8.52409ZM18.6014 16.8399C18.6014 18.1152 17.5413 19.1554 16.24 19.1554H10.76C9.4587 19.1554 8.39855 18.1152 8.39855 16.8399V11.8082H18.6014V16.8399Z" fill="white"/>
<path d="M12.8568 14.3345C12.8644 14.3642 12.8853 14.3889 12.9134 14.4013C12.9417 14.4134 12.9738 14.4124 13.0007 14.3977L13.5411 14.1059V17.3408C13.5411 17.3958 13.5858 17.4404 13.6408 17.4404H14.1489C14.2039 17.4404 14.2486 17.3958 14.2486 17.3408V13.4551C14.2486 13.4001 14.2039 13.3555 14.1489 13.3555H13.7005C13.684 13.3555 13.6679 13.3597 13.6535 13.3672L12.8046 13.8216C12.7642 13.8431 12.7438 13.8895 12.755 13.934L12.8568 14.3345Z" fill="white"/>
</svg>
