<svg width="69" height="69" viewBox="0 0 69 69" fill="none" xmlns="http://www.w3.org/2000/svg">
<circle cx="34.5" cy="34.5" r="34.5" fill="#00C8C8" fill-opacity="0.15"/>
<path d="M35 63C51.0163 63 64 50.0163 64 34C64 17.9837 51.0163 5 35 5C18.9837 5 6 17.9837 6 34C6 50.0163 18.9837 63 35 63Z" fill="#00C8C8"/>
<path d="M63.9936 34.6111L45.1225 15.7402L20.8472 52.6888L30.8658 62.7074C32.2161 62.9001 33.5964 62.9998 35 62.9998C50.812 62.9998 63.6683 50.3452 63.9936 34.6111Z" fill="#00A0AA"/>
<path d="M45.123 15.7402H20.8477L21.8531 33.992L33.4854 35.2108L45.123 34.0896V15.7402Z" fill="white"/>
<path d="M21.8472 33.9922L22.8716 52.689H45.1224V33.9922H21.8472Z" fill="#E9EDF5"/>
<path d="M35.5262 21.452L20.8477 15.7402V33.992L28.604 35.2108L35.5262 33.992V21.452Z" fill="#FF8870"/>
<path d="M20.8462 33.9922V52.689L35.5247 58.4008V33.9922H20.8462Z" fill="#FF583E"/>
<path d="M31.958 40.4551C32.8452 40.4551 33.5644 39.7358 33.5644 38.8486C33.5644 37.9614 32.8452 37.2422 31.958 37.2422C31.0708 37.2422 30.3516 37.9614 30.3516 38.8486C30.3516 39.7358 31.0708 40.4551 31.958 40.4551Z" fill="#414952"/>
<path d="M57.6139 33.9988L51.5272 27.9121L49.1242 30.315L51.1087 32.2996H38.0405V33.991L47.1453 34.8875L57.6139 33.9988Z" fill="#636978"/>
<path d="M38.0405 33.9902V35.6973H51.1087L49.1242 37.6818L51.5272 40.0848L57.6139 33.9981L38.0405 33.9902Z" fill="#414952"/>
</svg>
