<svg enable-background="new 0 0 64 64" height="512" viewBox="0 0 64 64" width="512" xmlns="http://www.w3.org/2000/svg"><g id="Diagram_00000028295717109678401650000002762400942346442430_"><g><path d="m46 14v43c0 2.76-2.24 5-5 5h-36c-2.76 0-5-2.24-5-5v-52c0-2.76 2.24-5 5-5h27v12c0 1.1.9 2 2 2z" fill="#aad7fd"/><g fill="#f2f2fd"><path d="m19 54h-11c-1.104 0-2-.896-2-2s.896-2 2-2h11c1.104 0 2 .896 2 2s-.896 2-2 2z"/><path d="m22 36h-14c-1.104 0-2-.896-2-2s.896-2 2-2h14c1.104 0 2 .896 2 2s-.896 2-2 2z"/><path d="m32 28h-24c-1.104 0-2-.896-2-2s.896-2 2-2h24c1.104 0 2 .896 2 2s-.896 2-2 2z"/></g><path d="m26 10v8c0 1.1-.9 2-2 2h-16c-1.1 0-2-.9-2-2v-8c0-1.1.9-2 2-2h16c1.1 0 2 .9 2 2z" fill="#48a1ff"/><path d="m46 14h-12c-1.105 0-2-.895-2-2v-12c.53 0 1.04.21 1.41.59l12 12c.38.37.59.88.59 1.41z" fill="#48a1ff"/><path d="m44.847 46.348c-.538-.221-.952-.665-1.136-1.217l-5.398-16.195c-7.142 2.39-12.313 9.133-12.313 17.064 0 9.92 8.08 18 18 18 7.496 0 13.935-4.617 16.637-11.151z" fill="#2c39fd"/><path d="m61.7 42.674c.652 3.61.217 7.114-1.06 10.176l-15.793-6.501c-.538-.221-.952-.665-1.136-1.217l-5.401-16.202c1.701-.58 3.51-.897 5.393-.928 8.705-.139 16.45 6.105 17.997 14.672z" fill="#48a1ff"/><path d="m53.998 26c-.381 0-.767-.108-1.107-.336-.919-.612-1.167-1.854-.555-2.773l2-3c.371-.557.995-.891 1.664-.891h6c1.104 0 2 .896 2 2s-.896 2-2 2h-4.93l-1.406 2.109c-.386.579-1.019.891-1.666.891z" fill="#aad7fd"/></g></g></svg>