<svg width="69" height="69" viewBox="0 0 69 69" fill="none" xmlns="http://www.w3.org/2000/svg">
<circle cx="34.5" cy="34.5" r="34.5" fill="#74DAD0" fill-opacity="0.21"/>
<path d="M35 63C51.0163 63 64 50.0163 64 34C64 17.9837 51.0163 5 35 5C18.9837 5 6 17.9837 6 34C6 50.0163 18.9837 63 35 63Z" fill="#74DAD0"/>
<path d="M51.5674 19.4308L46.0448 13.9082L44.2759 15.6771L47.2496 18.6507L39.6727 26.2275L27.3535 13.9082L25.5846 15.6771L37.904 27.9964L16.3086 49.5918L29.1192 62.4024C31.0183 62.7935 32.9851 62.9994 35 62.9994C51.0163 62.9994 64 50.0157 64 33.9994C64 31.4722 63.676 29.0208 63.0686 26.6837L53.6915 17.3066L51.5674 19.4308Z" fill="#5FBCAE"/>
<path d="M16.3086 25.8043V49.5934H35L37.1186 36.6629L35 23.7324L16.3086 25.8043Z" fill="#555A65"/>
<path d="M53.6914 25.8043L35 23.7324V49.5934H53.6914V25.8043Z" fill="#333940"/>
<path d="M16.3086 17.3086V25.8047H35L36.7715 21.5566L35 17.3086H16.3086Z" fill="white"/>
<path d="M35 17.3086H53.6914V25.8047H35V17.3086Z" fill="#E9EDF5"/>
<path d="M23.9551 13.9102H27.3535V20.707H23.9551V13.9102Z" fill="#555A65"/>
<path d="M42.6465 13.9102H46.0449V20.707H42.6465V13.9102Z" fill="#333940"/>
<path d="M37.5488 29.9609H42.0801V33.3594H37.5488V29.9609Z" fill="#E9EDF5"/>
<path d="M46.6113 29.9609H51.1426V33.3594H46.6113V29.9609Z" fill="#E9EDF5"/>
<path d="M37.5488 35.5566H42.0801V38.9551H37.5488V35.5566Z" fill="#E9EDF5"/>
<path d="M46.6113 35.5566H51.1426V38.9551H46.6113V35.5566Z" fill="#E9EDF5"/>
<path d="M37.5488 41.1465H42.0801V44.5449H37.5488V41.1465Z" fill="#E9EDF5"/>
<path d="M46.6113 41.1465H51.1426V44.5449H46.6113V41.1465Z" fill="#E9EDF5"/>
<path d="M18.8574 29.9609H23.3887V33.3594H18.8574V29.9609Z" fill="white"/>
<path d="M27.9199 29.9609H32.4512V33.3594H27.9199V29.9609Z" fill="white"/>
<path d="M18.8574 35.5566H23.3887V38.9551H18.8574V35.5566Z" fill="white"/>
<path d="M27.9199 35.5566H32.4512V38.9551H27.9199V35.5566Z" fill="white"/>
<path d="M18.8574 41.1465H23.3887V44.5449H18.8574V41.1465Z" fill="white"/>
<path d="M27.9199 41.1465H32.4512V44.5449H27.9199V41.1465Z" fill="white"/>
<path d="M49.4463 48.4727C53.9821 48.4727 57.6592 44.7956 57.6592 40.2598C57.6592 35.7239 53.9821 32.0469 49.4463 32.0469C44.9104 32.0469 41.2334 35.7239 41.2334 40.2598C41.2334 44.7956 44.9104 48.4727 49.4463 48.4727Z" fill="#FBA32B"/>
<path d="M55.7067 41.3783V39.1424H54.2355C54.1117 38.6121 53.9026 38.1146 53.6223 37.6653L54.6636 36.624L53.0826 35.0431L52.0413 36.0844C51.5921 35.8041 51.0945 35.595 50.5643 35.4712V34H48.3284V35.4712C47.7982 35.595 47.3006 35.8041 46.8514 36.0844L45.8101 35.0431L44.2291 36.624L45.2704 37.6653C44.9902 38.1146 44.781 38.6121 44.6572 39.1424H43.186V41.3783H44.6572C44.7809 41.9086 44.9902 42.4061 45.2704 42.8554L44.2291 43.8967L45.8101 45.4778L46.8514 44.4365C47.3006 44.7167 47.7982 44.9259 48.3284 45.0497V46.5209H50.5643V45.0497C51.0945 44.9259 51.5921 44.7167 52.0413 44.4365L53.0826 45.4778L54.6636 43.8967L53.6223 42.8554C53.9026 42.4061 54.1117 41.9086 54.2355 41.3783H55.7067ZM49.4463 42.7394C48.0771 42.7394 46.9673 41.6295 46.9673 40.2604C46.9673 38.8913 48.0772 37.7814 49.4463 37.7814C50.8154 37.7814 51.9253 38.8914 51.9253 40.2604C51.9252 41.6295 50.8154 42.7393 49.4463 42.7394Z" fill="#E9EDF5"/>
</svg>
