<svg width="26" height="26" viewBox="0 0 26 26" fill="none" xmlns="http://www.w3.org/2000/svg">
<path d="M13 26C12.5793 26 12.2383 25.659 12.2383 25.2383C12.2383 24.8176 12.5793 24.4766 13 24.4766C19.3282 24.4766 24.4766 19.3282 24.4766 13C24.4766 6.67179 19.3282 1.52344 13 1.52344C6.67179 1.52344 1.52344 6.67179 1.52344 13C1.52344 16.0655 2.7172 18.9475 4.88485 21.1151C5.18233 21.4126 4.72814 21.2719 4.43066 21.5693C4.13319 21.8668 3.80763 22.1924 3.80763 22.1924C1.35225 19.737 0 16.4724 0 13C0 9.52758 1.35225 6.26295 3.80758 3.80758C6.26295 1.35225 9.52758 0 13 0C16.4724 0 19.737 1.35225 22.1924 3.80758C24.6477 6.26295 26 9.52758 26 13C26 16.4724 24.6477 19.737 22.1924 22.1924C19.737 24.6477 16.4724 26 13 26Z" fill="#FFDA17"/>
<path d="M11.0395 20.0378L5.96205 14.9604C5.76106 14.7594 5.46485 14.6871 5.19393 14.7727C4.92296 14.8584 4.72212 15.0878 4.67317 15.3677L3.5959 21.523C3.55309 21.7675 3.6321 22.0175 3.8076 22.193C3.95167 22.337 4.14596 22.4161 4.34614 22.4161C4.38981 22.4161 4.43379 22.4123 4.47756 22.4046L10.6322 21.3267C10.9122 21.2777 11.1415 21.0769 11.2271 20.8059C11.3128 20.5349 11.2405 20.2388 11.0395 20.0378Z" fill="#FFE470"/>
<path d="M11.0395 20.0364L8.50118 17.498L3.80762 22.1916C3.95168 22.3356 4.14602 22.4146 4.3462 22.4146C4.38987 22.4146 4.43385 22.4109 4.47763 22.4032L10.6323 21.3253C10.9122 21.2763 11.1415 21.0755 11.2272 20.8045C11.3129 20.5334 11.2405 20.2373 11.0395 20.0364Z" fill="#FABE2C"/>
<path d="M18.3992 7.60006L15.8602 5.061C15.5627 4.76352 15.0804 4.76352 14.7829 5.061L4.88477 14.9592L8.50105 18.5755L18.3993 8.67723C18.5422 8.53438 18.6224 8.34065 18.6224 8.13865C18.6224 7.93664 18.5421 7.74291 18.3992 7.60006Z" fill="#00DD80"/>
<path d="M20.9376 10.1389L18.3993 7.60059L7.9624 18.0374L11.0394 21.1144L20.9376 11.2162C21.235 10.9187 21.235 10.4364 20.9376 10.1389Z" fill="#00AA95"/>
</svg>
