<svg width="88" height="88" viewBox="0 0 88 88" fill="none" xmlns="http://www.w3.org/2000/svg">
<path d="M74.0888 0.390625C75.2446 0.390625 76.3531 0.849787 77.1704 1.6671C77.9878 2.48441 78.4469 3.59293 78.4469 4.74879V21.1224L69.7306 29.8387V9.10695H8.71632V78.8375H69.7306V66.8177L78.4469 58.1014V83.1957C78.4469 84.3515 77.9878 85.4601 77.1704 86.2774C76.3531 87.0947 75.2446 87.5539 74.0888 87.5539H4.35816C3.20231 87.5539 2.09379 87.0947 1.27648 86.2774C0.459162 85.4601 0 84.3515 0 83.1957V4.74879C0 3.59293 0.459162 2.48441 1.27648 1.6671C2.09379 0.849787 3.20231 0.390625 4.35816 0.390625H74.0888ZM81.8376 30.061L88 36.2234L54.1022 70.1212L47.9311 70.1125L47.9398 63.9588L81.8376 30.061ZM43.5816 43.9722V52.6886H21.7908V43.9722H43.5816ZM56.6561 26.5396V35.2559H21.7908V26.5396H56.6561Z" fill="#FF5E2C"/>
</svg>
