<svg width="324" height="283" viewBox="0 0 324 283" fill="none" xmlns="http://www.w3.org/2000/svg">
<path d="M232.067 250.209C231.682 249.352 231.018 247.639 230.022 245.314C229.952 245.139 229.882 244.964 229.794 244.79C228.658 242.15 227.12 238.811 225.144 235.105C225.057 234.947 224.97 234.79 224.882 234.615C223.396 231.836 221.683 228.864 219.708 225.84C219.603 225.682 219.515 225.542 219.41 225.385C217.61 222.641 215.582 219.843 213.362 217.099C213.257 216.959 213.135 216.819 213.03 216.697C210.967 214.197 208.729 211.767 206.317 209.459C206.194 209.337 206.055 209.215 205.932 209.092C203.485 206.785 200.845 204.635 198.013 202.677C197.873 202.572 197.716 202.467 197.576 202.379C194.779 200.491 191.79 198.796 188.608 197.397C188.433 197.327 188.258 197.24 188.084 197.17C184.657 195.702 181.004 194.548 177.105 193.814C176.895 193.779 176.686 193.726 176.476 193.691C173.382 193.149 170.148 193.097 166.756 193.097C165.585 193.097 164.449 192.87 163.33 192.852C163.085 192.852 162.84 192.852 162.596 192.852C157.141 192.835 152.491 192.73 148.453 192.66C148.208 192.66 147.964 192.642 147.719 192.642C141.81 192.537 137.265 192.52 133.506 192.887C133.227 192.922 132.947 192.939 132.667 192.974C125.203 193.866 120.937 196.523 115.028 203.778C112.948 206.348 111.287 211.05 109.592 216.067C109.469 216.435 109.347 216.819 109.207 217.186C107.809 221.294 106.358 225.507 104.592 228.881C104.505 229.056 104.4 229.231 104.312 229.406H169.221L185.304 276.047C185.496 276.064 185.689 276.099 185.881 276.116C189.552 276.536 193.52 276.833 197.629 276.938C197.873 276.938 198.118 276.956 198.363 276.956C201.335 277.008 204.394 276.938 207.471 276.746C209.621 276.606 211.596 276.291 213.432 275.854C213.764 275.784 214.096 275.697 214.428 275.609C225.739 272.533 230.966 264.316 232.364 257.673C232.434 257.359 232.487 257.062 232.522 256.764C232.959 254.107 232.749 251.765 232.067 250.209ZM205.198 247.796C204.656 250.558 200.181 252.132 195.006 253.023L195.181 250.366L195.234 249.562L196.3 234.161L196.352 233.357L196.387 232.937C196.457 233.007 196.527 233.077 196.58 233.147C196.702 233.269 196.824 233.392 196.947 233.514C199.237 235.874 201.702 238.706 203.362 241.433C203.45 241.59 203.555 241.748 203.642 241.905C204.656 243.671 205.285 245.384 205.285 246.887C205.285 247.202 205.268 247.499 205.198 247.796ZM102.477 252.971L96.0785 235.594L96.061 235.542C95.9386 235.507 95.7988 235.454 95.6764 235.402C95.589 235.367 95.5016 235.332 95.4142 235.28C94.645 234.913 93.8408 234.266 93.0017 233.392C92.8793 233.269 92.757 233.129 92.6521 233.007C90.8515 230.979 88.946 227.937 87.023 224.301C86.9356 224.144 86.8482 223.987 86.7608 223.812C85.2574 220.91 83.754 217.676 82.303 214.302C82.2331 214.127 82.1632 213.952 82.0758 213.777C80.6423 210.421 79.2438 206.942 77.9501 203.568C77.8802 203.393 77.8103 203.201 77.7404 203.026C76.3593 199.408 75.1007 195.911 73.9993 192.8C73.9294 192.607 73.877 192.433 73.807 192.24C72.0414 187.153 70.7478 183.167 70.2058 181.507C70.1359 181.279 70.066 181.087 70.031 180.947C69.9786 180.755 69.9436 180.65 69.9436 180.65L52.3223 186.069C52.3223 186.069 52.9516 189.74 54.4375 196.558C54.4725 196.75 54.5249 196.96 54.5774 197.17C55.2941 200.404 56.1857 204.285 57.287 208.795C57.3395 208.987 57.3919 209.197 57.4269 209.39C58.266 212.763 59.21 216.47 60.2938 220.49C60.3463 220.683 60.3987 220.875 60.4512 221.067C61.3952 224.581 62.4266 228.322 63.5629 232.29C63.6153 232.483 63.6678 232.675 63.7202 232.867C64.4369 235.332 65.1712 237.867 65.9578 240.489C66.2725 241.573 66.6046 242.604 66.9543 243.601C67.0242 243.793 67.0766 243.968 67.1466 244.16C68.4927 248.076 69.9261 251.398 71.447 254.195C71.5344 254.352 71.6218 254.509 71.7092 254.667C73.5972 258.058 75.5901 260.68 77.6704 262.673C77.7928 262.796 77.9152 262.918 78.055 263.04C81.0618 265.802 84.226 267.306 87.4251 268.005C87.6349 268.057 87.8272 268.092 88.037 268.127C93.0542 269.089 98.1588 268.18 102.879 267.253C103.193 267.201 103.491 267.131 103.805 267.078C104.4 266.956 104.977 266.851 105.571 266.746C106.043 266.659 106.48 266.572 106.9 266.502C107.074 266.467 107.249 266.432 107.424 266.414L102.669 253.53L102.477 252.971Z" fill="#00CC83"/>
<path d="M102.476 252.971L102.074 253.373L87.4418 268.005C87.6516 268.057 87.8439 268.092 88.0536 268.127L102.668 253.513L102.476 252.971ZM162.595 192.87L134.24 221.225L126.565 228.899L126.041 229.423H126.775L163.329 192.87C163.084 192.87 162.839 192.87 162.595 192.87ZM224.881 234.633L223.448 236.066L223.815 236.433L225.144 235.105C225.056 234.947 224.969 234.79 224.881 234.633ZM181.475 263.337L181.055 263.757L181.247 264.316L181.667 263.897L194.324 251.24L195.198 250.366L195.25 249.562L181.475 263.337ZM219.41 225.403L203.362 241.451C203.449 241.608 203.554 241.765 203.641 241.923L219.707 225.857C219.619 225.7 219.515 225.542 219.41 225.403ZM223.448 265.855L213.431 275.872C213.763 275.802 214.095 275.714 214.427 275.627L223.815 266.239L232.346 257.708C232.416 257.394 232.468 257.097 232.503 256.799L223.448 265.855ZM229.794 244.807L223.448 251.153L197.645 276.956C197.89 276.956 198.135 276.973 198.379 276.973L230.021 245.332C229.951 245.157 229.864 244.982 229.794 244.807ZM197.558 202.379L178.957 220.997L179.325 221.364L197.995 202.694C197.855 202.589 197.715 202.484 197.558 202.379ZM193.659 236.066L178.957 250.768L179.325 251.135L194.026 236.433L193.659 236.066ZM176.475 193.691L163.888 206.278L149.186 220.98L149.554 221.347L164.255 206.645L177.104 193.796C176.895 193.779 176.685 193.726 176.475 193.691ZM178.957 220.997L169.972 229.983L169.552 230.402L169.745 230.944L170.164 230.525L179.342 221.347L178.957 220.997ZM178.957 250.768L177.611 252.114L177.192 252.534L177.384 253.076L177.804 252.656L179.342 251.118L178.957 250.768ZM149.169 220.997L141.267 228.899L140.743 229.423H141.477L142.002 228.899L149.536 221.364L149.169 220.997ZM77.757 203.061L60.3105 220.508C60.3629 220.7 60.4154 220.892 60.4678 221.085L77.9668 203.586C77.8969 203.411 77.827 203.236 77.757 203.061ZM147.718 192.66L119.398 220.98L111.496 228.881L110.972 229.406H111.706L148.452 192.677C148.207 192.677 147.963 192.677 147.718 192.66ZM98.4202 241.958L98.0181 242.36L89.6095 250.768L77.7046 262.673C77.827 262.796 77.9493 262.918 78.0892 263.04L98.2279 242.902L98.6299 242.5L98.4202 241.958ZM205.931 209.11L193.677 221.364L173.853 241.188L173.433 241.608L173.626 242.167L194.324 221.469L206.316 209.477C206.176 209.337 206.054 209.215 205.931 209.11ZM106.444 263.722L106.042 264.124L104.329 265.837L104.696 266.204L106.252 264.649L106.654 264.246L106.444 263.722ZM104.311 265.855L102.895 267.271C103.21 267.218 103.507 267.148 103.822 267.096L104.679 266.239L104.311 265.855ZM70.0652 180.965L54.4717 196.558C54.5066 196.75 54.5591 196.96 54.6115 197.17L60.2056 191.558L70.2575 181.507C70.1701 181.297 70.1001 181.104 70.0652 180.965ZM86.76 223.829L74.523 236.066L74.8901 236.433L87.0047 224.319C86.9348 224.161 86.8474 224.004 86.76 223.829ZM74.523 236.066L66.971 243.618C67.0409 243.811 67.0933 243.985 67.1632 244.178L74.8901 236.451L74.523 236.066ZM188.065 197.17L156.336 228.899L155.812 229.423H156.546L157.071 228.899L164.238 221.731L188.572 197.397C188.415 197.327 188.24 197.24 188.065 197.17ZM92.6513 233.025L71.4812 254.195C71.5686 254.352 71.656 254.509 71.7434 254.667L93.0009 233.409C92.8785 233.287 92.7736 233.164 92.6513 233.025ZM132.684 192.992L109.608 216.067C109.486 216.435 109.364 216.819 109.224 217.186L133.523 192.887C133.226 192.939 132.946 192.957 132.684 192.992ZM82.0925 213.812L63.5795 232.308C63.632 232.5 63.6844 232.692 63.7369 232.885L82.3022 214.319C82.2323 214.162 82.1624 213.987 82.0925 213.812ZM73.8412 192.275L57.3037 208.813C57.3561 209.005 57.4086 209.215 57.4435 209.407L74.016 192.835C73.9636 192.642 73.8936 192.45 73.8412 192.275ZM223.448 236.066L185.251 274.281L184.849 274.683L185.041 275.242L185.461 274.823L194.061 266.222L223.85 236.433L223.448 236.066ZM213.029 216.714L208.746 220.997L196.596 233.147L196.369 233.374L193.677 236.066L194.044 236.433L196.317 234.161L196.963 233.514L213.361 217.116C213.256 216.977 213.151 216.837 213.029 216.714Z" fill="white"/>
<path d="M185.321 275.295H207.47V282.497H187.804L185.321 275.295Z" fill="#5F7AFF"/>
<path d="M184.029 282.497L166.687 232.378L94.5762 232.308L113.089 282.497H187.805H184.029Z" fill="#5F7AFF"/>
<path d="M93.4219 229.161L169.222 229.423C169.449 229.423 187.804 282.515 187.804 282.515L169.414 229.161H93.4219Z" fill="#5F7AFF"/>
<path d="M223.291 47.6158H222.767V57.0732H223.291V47.6158Z" fill="#D7D7D7"/>
<path d="M239.304 44.7646L229.752 58.1358L230.179 58.4406L239.731 45.0694L239.304 44.7646Z" fill="#D7D7D7"/>
<path d="M287.016 153.365L257.046 148.373L255.791 155.908L285.76 160.9L287.016 153.365Z" fill="#FF4320"/>
<path d="M310.156 149.008C311.412 149.008 312.429 147.991 312.429 146.736C312.429 145.481 311.412 144.463 310.156 144.463C308.901 144.463 307.884 145.481 307.884 146.736C307.884 147.991 308.901 149.008 310.156 149.008Z" fill="#FF4320"/>
<path d="M302.867 147.82C304.122 147.82 305.14 146.802 305.14 145.547C305.14 144.292 304.122 143.275 302.867 143.275C301.612 143.275 300.595 144.292 300.595 145.547C300.595 146.802 301.612 147.82 302.867 147.82Z" fill="#5F7AFF"/>
<path d="M317.463 150.197C318.718 150.197 319.736 149.18 319.736 147.925C319.736 146.669 318.718 145.652 317.463 145.652C316.208 145.652 315.19 146.669 315.19 147.925C315.19 149.18 316.208 150.197 317.463 150.197Z" fill="#00CC83"/>
<path d="M255.343 161.688L255.265 162.207L312.469 170.82L312.547 170.302L255.343 161.688Z" fill="#5F7AFF"/>
<path d="M253.531 170.3L253.453 170.818L310.657 179.432L310.735 178.913L253.531 170.3Z" fill="#5F7AFF"/>
<path d="M220.967 68.1706L194.012 82.1893L196.351 86.6871L223.307 72.6684L220.967 68.1706Z" fill="#FF4320"/>
<path d="M225.466 78.0243L199.231 91.7621L199.475 92.2267L225.709 78.4889L225.466 78.0243Z" fill="#5F7AFF"/>
<path d="M229.356 86.3198L211.315 95.7773L210.861 96.022C210.791 95.8822 210.704 95.7248 210.616 95.5675L211.071 95.3228L229.112 85.8653L229.356 86.3198Z" fill="#5F7AFF"/>
<path d="M233.304 92.7428L207.069 106.481L207.313 106.945L233.547 93.2074L233.304 92.7428Z" fill="#5F7AFF"/>
<path d="M237.482 99.6182L211.247 113.356L211.49 113.821L237.725 100.083L237.482 99.6182Z" fill="#5F7AFF"/>
<path d="M241.676 106.485L215.441 120.223L215.685 120.688L241.919 106.95L241.676 106.485Z" fill="#5F7AFF"/>
<path d="M297.833 123.713C304.968 123.713 310.752 117.929 310.752 110.794C310.752 103.659 304.968 97.8751 297.833 97.8751C290.698 97.8751 284.914 103.659 284.914 110.794C284.914 117.929 290.698 123.713 297.833 123.713Z" fill="#5F7AFF"/>
<path d="M294.057 126.248C286.802 126.248 280.911 120.356 280.911 113.101C280.911 105.847 286.802 99.9554 294.057 99.9554C301.312 99.9554 307.203 105.847 307.203 113.101C307.203 120.339 301.312 126.248 294.057 126.248ZM294.057 100.41C287.065 100.41 281.366 106.109 281.366 113.101C281.366 120.094 287.065 125.793 294.057 125.793C301.05 125.793 306.749 120.094 306.749 113.101C306.749 106.109 301.05 100.41 294.057 100.41Z" fill="#D7D7D7"/>
<path d="M203.846 15.8179L174.343 0L158.525 29.5033L188.028 45.3213L203.846 15.8179Z" fill="#FF4320"/>
<path d="M152.246 30.4664C152.176 30.3965 152.159 30.2916 152.211 30.2042L168.032 0.695411C168.084 0.573041 168.242 0.538078 168.347 0.608004L197.855 16.4288C197.978 16.4812 198.013 16.6385 197.943 16.7434L182.122 46.2522C182.07 46.3746 181.912 46.4095 181.807 46.3396L152.299 30.5188C152.299 30.5014 152.264 30.4839 152.246 30.4664ZM168.347 1.11497L152.736 30.2042L181.842 45.7977L197.436 16.691L168.347 1.11497Z" fill="#D7D7D7"/>
<path d="M161.442 187.957C162.823 188.936 164.658 189.461 166.546 189.461C167.28 189.461 168.015 189.391 168.731 189.216C170.829 188.744 172.612 187.59 173.836 185.929C174.273 185.58 174.71 185.16 175.13 184.671C182.419 176.14 175.689 165.126 173.469 165.056C171.266 164.987 171.057 167.399 171.057 167.399C171.057 167.399 169.134 161.962 165.48 161.962C159.694 161.962 161.512 166.787 161.564 166.91C161.424 166.787 154.921 160.686 151.04 163.745C145.062 168.465 157.578 177.294 158.61 178.01C158.487 178.395 158.382 178.814 158.295 179.234C157.543 182.958 158.627 185.964 161.442 187.957ZM158.819 179.356C158.872 179.094 158.942 178.832 159.012 178.57C159.536 176.647 160.393 175.108 160.672 174.636C168.854 175.895 173.399 177.696 174.605 180.16C175.217 181.419 175.007 182.94 173.941 184.811C173.469 185.65 172.91 186.314 172.315 186.838C171.091 187.922 169.728 188.447 168.627 188.691C166.197 189.233 163.557 188.779 161.756 187.52C159.082 185.65 158.103 182.905 158.819 179.356Z" fill="#D7D7D7"/>
<path d="M323.81 144.341L252.083 132.401C251.961 132.384 251.838 132.471 251.821 132.593L242.398 189.146C242.381 189.198 242.398 189.268 242.433 189.321C242.468 189.373 242.521 189.408 242.591 189.408L259.95 192.293C260.317 195.037 261.139 197.782 262.712 199.967C264.338 202.205 266.61 203.638 269.477 204.267C269.565 207.187 270.299 210.141 271.68 213.096C273.201 216.33 275.211 219.092 277.187 221.592C278.795 223.637 280.683 230.332 278.375 235.262C276.382 239.545 271.697 241.853 264.46 242.115C255.894 242.412 252.712 234.108 248.499 220.368C244.584 207.606 240.143 193.149 226.193 190.702C219.026 189.443 211.753 190.859 205.145 194.775C203.013 196.034 201.282 197.38 199.971 198.499C189.971 193.184 173.504 192.887 147.719 192.433C145.096 192.38 142.352 192.328 139.537 192.275C137.02 187.747 130.22 175.248 124.153 160.791C114.276 137.261 110.745 119.36 113.944 109.011C115.255 104.78 117.633 101.896 121.217 100.183C127.3 97.2807 132.807 97.8576 137.579 101.896C134.083 106.109 131.478 111.65 130.132 117.699C128.699 124.237 129.031 130.513 131.059 134.901C133.261 139.638 137.3 142.121 142.422 141.893C146.722 141.701 150.009 139.027 151.704 134.341C153.435 129.534 153.383 122.839 151.564 115.968C150.148 110.637 147.841 105.847 144.922 102.053C148.086 99.6582 152.491 98.0674 158.085 100.148C161.581 101.441 162.281 105.584 163.015 112.245C163.504 116.703 164.011 121.318 166.162 125.076C168.749 129.604 173.259 131.964 179.622 132.069C182.087 132.104 185.024 130.513 188.835 127.052C191.178 124.919 193.24 122.629 194.621 121.038C195.146 121.318 195.705 121.51 196.282 121.615C196.737 121.702 197.174 121.755 197.611 121.755C199.866 121.755 201.841 120.671 202.715 120.094L214.445 140.88C214.498 140.967 214.585 141.019 214.673 141.019C214.708 141.019 214.76 141.002 214.795 140.984L253.656 120.024C253.744 119.989 253.796 119.902 253.796 119.814L254.076 114.22V114.185C254.076 114.15 254.076 114.133 254.059 114.098C254.059 114.08 254.041 114.08 254.041 114.063C254.041 114.063 254.041 114.045 254.024 114.045L224.025 61.059C223.955 60.9367 223.798 60.8842 223.676 60.9541L222.19 61.7233L222.172 61.7408L215.267 65.2721L185.549 80.5159C185.496 80.5509 185.444 80.6034 185.426 80.6558L183.451 85.8653C183.416 85.9352 183.433 86.0226 183.468 86.0925L194.412 105.48C193.328 107.018 192.576 108.399 192.069 109.623C190.146 114.115 190.88 117.052 190.915 117.175C190.915 117.192 190.933 117.21 190.933 117.227L190.95 117.245C189.429 119.063 187.367 121.318 185.286 123.206C181.283 126.842 179.745 126.859 179.692 126.859C170.34 126.702 169.238 121.003 168.224 111.703C167.508 105.182 166.703 97.7702 159.921 95.2528C153.278 92.788 146.81 93.8543 141.338 98.2247C138.366 95.62 135.062 93.9942 131.531 93.3998C127.492 92.7355 123.279 93.4348 118.979 95.4801C114.067 97.8226 110.693 101.878 108.945 107.507C105.326 119.22 108.84 137.873 119.364 162.924C124.66 175.528 130.499 186.699 133.663 192.502C126.409 193.289 120.745 196.278 116.427 201.593C111.899 207.152 109.574 214.354 107.511 220.7C106.532 223.724 105.606 226.574 104.539 228.951H93.456C93.3686 228.951 93.2987 228.986 93.2462 229.056C93.1938 229.126 93.1938 229.214 93.2112 229.301L95.1167 234.493C93.421 233.287 91.533 231.032 89.4877 227.728C86.4809 222.868 83.0895 215.718 79.4358 206.453C75.2927 195.981 71.4293 184.391 68.5099 175.196C72.0237 173.413 75.2927 171.053 78.1597 168.186C85.3096 161.036 89.2429 151.543 89.2429 141.439C89.2429 131.335 85.3096 121.842 78.1597 114.692C71.0097 107.542 61.5173 103.609 51.413 103.609C41.3087 103.609 31.8162 107.542 24.6663 114.692C17.5163 121.842 13.583 131.335 13.583 141.439C13.583 151.543 17.5163 161.036 24.6663 168.186C30.3303 173.85 37.4627 177.486 45.207 178.762C46.7629 185.685 49.053 195.352 52.2521 208.953L53.9653 216.19C59.3321 239.021 65.3982 254.352 72.4957 263.075C79.0512 271.134 85.7991 272.655 91.6029 273.459C97.7739 274.316 103.98 272.236 108.298 270.19L112.756 282.305H14.9116V282.829H298.969V282.305H207.715V277.06C209.708 276.851 211.613 276.553 213.449 276.186C222.242 274.351 228.973 270.348 234.619 263.565C236.769 260.995 237.573 257.394 236.997 252.866C235.668 242.255 227.154 229.039 222.207 222.099C215.687 212.956 208.764 205.386 204.429 201.645C205.408 200.876 206.579 200.037 207.942 199.25C213.484 195.999 219.323 194.88 225.249 195.929C236.035 197.817 239.794 210.089 243.447 221.959C245.423 228.392 247.293 234.458 250.23 239.161C253.709 244.72 258.202 247.412 263.936 247.412C264.163 247.412 264.373 247.412 264.6 247.394C276.278 246.975 281.102 241.8 283.095 237.517C286.557 230.053 283.62 221.382 281.277 218.393C278.2 214.477 275.001 209.914 274.704 204.565C277.938 204.233 280.595 202.956 282.658 200.754C283.795 199.53 284.686 198.114 285.368 196.576L314.3 201.401C314.317 201.401 314.335 201.401 314.335 201.401C314.387 201.401 314.422 201.383 314.475 201.366C314.527 201.331 314.562 201.278 314.562 201.208L323.985 144.656C324.037 144.481 323.95 144.358 323.81 144.341ZM197.541 110.986L200.268 115.811C199.586 115.584 198.625 115.059 197.89 113.906C197.331 113.049 197.261 112.053 197.541 110.986ZM223.676 61.4961L253.412 114.045L216.316 134.272L200.53 106.021C204.656 101.232 211.369 96.6339 211.474 96.564C211.578 96.494 211.613 96.3367 211.561 96.2143C211.561 96.2143 211.456 96.0395 211.316 95.7773C211.246 95.6374 211.159 95.4801 211.072 95.3228C210.652 94.5536 210.058 93.4697 209.76 92.8579C209.725 92.788 209.673 92.7355 209.603 92.718C209.533 92.7006 209.463 92.7005 209.393 92.7355C204.289 95.6899 200.6 98.6093 197.925 101.301L186.388 80.6383L223.676 61.4961ZM192.559 109.71C193.031 108.591 193.712 107.315 194.691 105.917C194.744 105.847 194.796 105.759 194.849 105.672C194.901 105.584 194.954 105.514 195.023 105.445C195.775 104.396 196.684 103.294 197.786 102.158C197.855 102.088 197.908 102.018 197.978 101.966C198.048 101.896 198.1 101.826 198.17 101.773C200.775 99.1337 204.394 96.2493 209.393 93.3299C209.725 93.9592 210.215 94.8683 210.582 95.55C210.669 95.7249 210.757 95.8822 210.827 96.0046C210.879 96.1094 210.932 96.1794 210.967 96.2493C209.778 97.0709 204.026 101.144 200.25 105.514C200.181 105.584 200.128 105.654 200.076 105.724C200.023 105.794 199.953 105.864 199.901 105.934C198.852 107.21 197.978 108.486 197.436 109.728C197.383 109.832 197.349 109.937 197.314 110.042C197.279 110.147 197.226 110.252 197.191 110.374C196.719 111.773 196.719 113.084 197.436 114.185C198.485 115.794 199.848 116.301 200.618 116.458L202.401 119.605C201.422 120.234 198.939 121.597 196.335 121.073C195.845 120.968 195.373 120.811 194.919 120.584C193.555 119.919 192.384 118.696 191.387 116.93C191.387 116.895 191.37 116.808 191.335 116.668C191.23 115.864 191.02 113.276 192.559 109.71ZM146.757 132.541C145.341 136.474 142.964 136.597 142.177 136.614C139.188 136.754 137.107 135.46 135.796 132.663C132.649 125.863 135.254 113.346 141.146 105.777C147.019 113.748 149.135 125.95 146.757 132.541ZM104.277 229.423H104.854H169.221L169.553 230.402L169.745 230.944L173.416 241.608L173.609 242.167L177.192 252.551L177.385 253.093L181.056 263.757L181.248 264.316L184.832 274.7L185.024 275.26L185.059 275.382V275.4L187.419 282.27H113.28L108.735 269.945L108.543 269.439L107.441 266.449L106.655 264.316L106.445 263.775L102.686 253.565L102.494 253.023L98.6305 242.552L98.4382 242.01L96.0957 235.664L95.8335 234.948L93.8231 229.476H104.277V229.423ZM186.23 277.113L186.055 276.588L185.898 276.134L185.688 275.557H207.208V282.252H187.996L186.23 277.113ZM14.0725 141.387C14.0725 120.828 30.8023 104.081 51.378 104.081C71.9363 104.081 88.6835 120.811 88.6835 141.387C88.6835 155.861 80.3973 168.43 68.3176 174.619C66.6918 169.514 65.3807 165.161 64.4891 162.224C63.7899 159.899 63.3179 158.379 63.1256 157.819C62.8983 157.172 62.6186 156.316 62.3214 155.337C60.7306 150.32 58.3356 142.733 54.5422 140.915C53.5107 140.425 52.4444 140.39 51.3605 140.827C48.7907 141.841 50.3466 146.526 52.0073 151.491C52.5667 153.187 53.1436 154.917 53.5282 156.456C51.815 155.949 50.469 156.054 49.5425 156.753C48.511 157.522 48.2838 158.816 48.2313 159.497C47.2349 159.025 44.5253 157.994 43.0393 159.795C41.7807 161.333 41.6758 163.046 45.0672 178.15C27.4808 175.126 14.0725 159.795 14.0725 141.387ZM46.5881 166.857C46.6405 167.399 46.9027 167.854 47.3747 168.238C48.0216 168.78 49.053 169.13 50.2417 169.339C50.4865 172.136 50.5039 175.825 49.1229 176.262C48.6859 176.402 48.2663 176.332 47.8293 176.07C44.5602 174.007 42.8121 161.595 42.7946 161.473C42.8995 160.861 43.1093 160.476 43.4064 160.127C44.8224 158.414 47.7593 159.847 48.2488 160.109C48.3712 160.704 48.6509 161.997 49.018 163.588C48.3362 163.92 47.7419 164.305 47.3223 164.777C46.7804 165.389 46.5356 166.088 46.5881 166.857ZM55.8358 169.689C56.098 171.962 56.063 174.059 55.3288 174.899C55.0666 175.178 54.7519 175.283 54.3149 175.213C53.3359 175.056 52.2346 172.643 51.2207 169.497C52.3919 169.654 53.6681 169.707 54.9268 169.707C55.2239 169.707 55.5386 169.707 55.8358 169.689ZM47.5496 176.542C47.9167 176.787 48.3013 176.891 48.6859 176.891C48.8956 176.891 49.0879 176.856 49.2977 176.787C50.9235 176.262 51.0459 172.906 50.871 170.231C52.6367 175.475 53.7905 175.668 54.1925 175.738C54.3149 175.755 54.4198 175.773 54.5422 175.773C55.0142 175.773 55.3988 175.598 55.7134 175.248C56.5875 174.269 56.6225 171.997 56.3777 169.672C58.5105 169.602 60.3635 169.409 61.0628 169.339L60.9928 168.78C60.5383 168.832 58.5979 169.042 56.3078 169.112C56.1155 169.112 55.9407 169.13 55.7484 169.13C54.1751 169.165 52.4793 169.112 51.0109 168.92C50.8885 168.902 50.7836 168.885 50.6613 168.867C50.6263 168.867 50.6088 168.867 50.5739 168.85C50.434 168.832 50.2942 168.798 50.1718 168.78C49.1404 168.57 48.2663 168.273 47.7069 167.819C47.3398 167.521 47.1475 167.189 47.13 166.805C47.0776 166.193 47.2699 165.651 47.7244 165.144C48.074 164.759 48.5635 164.427 49.1404 164.13C49.2977 164.043 49.4725 163.973 49.6473 163.903C53.4408 162.294 60.1188 162.294 60.1887 162.294V161.735C59.9964 161.735 57.6713 161.735 54.9967 162.067L54.1925 159.323L53.6681 159.48L54.4373 162.137C52.7416 162.382 50.941 162.749 49.5075 163.361C49.2103 162.067 48.9306 160.808 48.7033 159.655C48.7208 159.113 48.8956 157.872 49.8047 157.172C50.6613 156.526 52.0073 156.491 53.7555 157.102C53.8429 157.137 53.9478 157.12 54.0177 157.05C54.0876 156.98 54.1226 156.893 54.0876 156.788C53.7031 155.109 53.0562 153.187 52.4444 151.316C50.941 146.806 49.3851 142.121 51.5004 141.299C52.4619 140.932 53.3534 140.949 54.2625 141.387C57.8636 143.1 60.3111 150.862 61.762 155.494C62.0767 156.473 62.3389 157.33 62.5836 157.994C62.7759 158.536 63.248 160.074 63.9472 162.382C64.8388 165.336 66.1674 169.707 67.8106 174.846C62.8459 177.294 57.2518 178.675 51.3605 178.675C49.4026 178.675 47.4622 178.517 45.5916 178.22C44.3504 172.696 43.5638 168.972 43.1442 166.385C44.0008 170.266 45.4518 175.213 47.5496 176.542ZM51.378 179.199C57.2343 179.199 62.8808 177.87 68.0029 175.371C68.4574 176.822 68.9469 178.342 69.4539 179.898L46.7104 183.08C46.3608 181.542 46.0287 180.108 45.7315 178.779C47.567 179.059 49.455 179.199 51.378 179.199ZM91.6204 272.882C78.6492 271.099 66.045 265.4 54.4198 216.015L52.7066 208.778C50.6962 200.247 49.053 193.254 47.7244 187.52L69.7161 180.755C72.3558 188.866 75.5549 198.097 78.9114 206.593C82.5825 215.875 85.9739 223.06 88.9982 227.937C91.3407 231.713 93.456 234.143 95.379 235.262L95.3964 235.297L98.0012 242.36L98.2109 242.902L102.074 253.373L102.267 253.915L106.025 264.124L106.217 264.666L106.882 266.484L108.036 269.613C104.172 271.431 99.3647 273.057 94.4524 273.057C93.5259 273.075 92.5644 273.005 91.6204 272.882ZM236.507 252.849C237.049 257.219 236.297 260.698 234.234 263.145C227.102 271.711 218.466 275.26 207.733 276.449V275.277C207.733 275.137 207.61 275.015 207.47 275.015H185.496L185.426 274.805L185.234 274.246L181.65 263.862L181.458 263.303L178.381 254.387C178.643 254.387 179.028 254.387 179.517 254.387C185.146 254.387 204.236 253.932 205.442 247.796C206.824 240.821 191.877 228.322 191.247 227.78L190.915 228.182C190.968 228.235 193.345 230.21 196.125 232.99L194.761 252.744C187.769 253.897 179.535 253.845 178.206 253.828L177.787 252.604L177.594 252.044L174.011 241.66L173.818 241.101L170.147 230.437L169.955 229.878L169.64 228.969C169.605 228.864 169.501 228.794 169.396 228.794H105.064C106.113 226.434 107.004 223.654 107.948 220.7C111.742 208.988 116.374 194.635 133.873 192.835C135.324 192.677 136.863 192.625 138.506 192.66C138.943 192.66 139.362 192.677 139.799 192.677C142.527 192.73 145.149 192.782 147.684 192.817C173.242 193.272 189.622 193.569 199.534 198.726C200.565 199.268 201.509 199.845 202.401 200.491C202.908 200.859 203.45 201.296 204.044 201.785C213.921 210.264 234.427 236.311 236.507 252.849ZM204.953 247.744C204.446 250.331 200.233 251.835 195.303 252.709L196.614 233.549C200.827 237.849 205.722 243.828 204.953 247.744ZM282.309 200.334C280.351 202.432 277.798 203.656 274.704 203.988C274.687 203.306 274.722 202.624 274.809 201.907L269.6 201.261C269.495 202.065 269.442 202.886 269.46 203.708C266.768 203.096 264.635 201.733 263.114 199.652C261.628 197.607 260.841 195.055 260.474 192.38C260.457 192.223 260.439 192.065 260.404 191.891C259.635 185.457 261.243 178.622 261.558 177.328L266.418 177.835C266.156 179.444 264.967 187.31 266.68 192.922C266.733 193.097 266.785 193.254 266.837 193.429C267.205 194.495 267.677 195.474 268.306 196.296C269.425 197.764 270.911 198.586 272.729 198.743C274.652 198.918 276.347 198.341 277.728 197.03C278.218 196.576 278.655 196.034 279.04 195.457C279.127 195.317 279.232 195.177 279.302 195.02C282.186 190.247 282.326 182.468 282.326 180.877L286.976 180.965C287.099 182.363 287.623 189.898 285.036 195.981C284.966 196.121 284.913 196.278 284.843 196.418C284.214 197.869 283.375 199.198 282.309 200.334ZM267.449 193.534L278.498 195.369C278.166 195.841 277.798 196.278 277.396 196.663C276.12 197.852 274.564 198.376 272.799 198.236C271.138 198.097 269.774 197.327 268.76 195.999C268.201 195.282 267.781 194.46 267.449 193.534ZM314.177 200.841L285.595 196.086C288.445 189.268 287.518 180.79 287.501 180.685C287.483 180.545 287.378 180.458 287.238 180.458L282.081 180.37C282.011 180.37 281.942 180.405 281.889 180.44C281.837 180.493 281.802 180.563 281.819 180.632C281.819 180.737 281.959 189.88 278.76 194.95L267.275 193.027C265.334 186.961 266.977 177.766 266.995 177.661C267.012 177.591 266.995 177.521 266.942 177.451C266.907 177.398 266.838 177.346 266.768 177.346L261.401 176.787C261.278 176.769 261.156 176.856 261.121 176.979C261.104 177.014 260.09 180.807 259.757 185.492C259.635 187.38 259.6 189.583 259.862 191.803L242.87 188.971L250.702 141.998L322.114 153.047L314.177 200.841ZM322.201 152.592L250.789 141.544L252.223 132.891L323.495 144.76L322.201 152.592Z" fill="#D7D7D7"/>
<path d="M178.199 152.334L176.874 160.301L177.34 160.378L178.665 152.412L178.199 152.334Z" fill="#D7D7D7"/>
<path d="M183.532 160.149L180.215 162.802L180.51 163.17L183.827 160.517L183.532 160.149Z" fill="#D7D7D7"/>
<path d="M52.1004 128.667L51.585 139.004L52.1088 139.03L52.6242 128.693L52.1004 128.667Z" fill="#D7D7D7"/>
<path d="M42.6474 136.561L42.3242 136.974L47.4592 140.993L47.7824 140.58L42.6474 136.561Z" fill="#D7D7D7"/>
<path d="M51.3781 192.765C37.6552 192.765 24.7538 187.415 15.0516 177.713C5.34934 168.011 0 155.109 0 141.387C0 127.664 5.34934 114.762 15.0516 105.06C24.7538 95.3577 37.6552 90.0084 51.3781 90.0084C65.1011 90.0084 78.0025 95.3577 87.7047 105.06C97.4069 114.762 102.756 127.664 102.756 141.387C102.756 155.109 97.4069 168.011 87.7047 177.713C78.0025 187.415 65.1011 192.765 51.3781 192.765ZM51.3781 93.5047C24.9811 93.5047 3.4963 114.989 3.4963 141.387C3.4963 167.784 24.9811 189.268 51.3781 189.268C77.7752 189.268 99.26 167.784 99.26 141.387C99.26 114.989 77.7752 93.5047 51.3781 93.5047Z" fill="#5F7AFF"/>
<path d="M51.3779 167.014C37.2528 167.014 25.75 155.512 25.75 141.387C25.75 127.261 37.2528 115.759 51.3779 115.759C65.5029 115.759 77.0058 127.261 77.0058 141.387C77.0058 155.512 65.5029 167.014 51.3779 167.014ZM51.3779 117.507C38.2143 117.507 27.4981 128.223 27.4981 141.387C27.4981 154.55 38.2143 165.266 51.3779 165.266C64.5415 165.266 75.2576 154.55 75.2576 141.387C75.2576 128.223 64.5415 117.507 51.3779 117.507Z" fill="#FF4320"/>
<path d="M139.38 261.1C142.286 261.1 144.642 258.744 144.642 255.838C144.642 252.932 142.286 250.576 139.38 250.576C136.474 250.576 134.118 252.932 134.118 255.838C134.118 258.744 136.474 261.1 139.38 261.1Z" fill="white"/>
<path d="M58.6505 73.5234C57.4093 58.6816 51.0285 55.3251 45.9064 55.1503C45.1897 55.1153 44.4904 55.1503 43.8087 55.2377C43.0744 58.6816 40.4522 61.0765 39.4033 61.8982C36.886 63.9085 34.0365 64.7651 32.638 63.9435C32.131 63.6463 31.5541 62.982 31.7814 61.5485C31.9562 60.4122 33.8792 58.5941 36.4315 57.1607C37.83 56.374 40.3648 55.1678 43.3367 54.7482C43.529 53.577 43.4765 52.2833 43.057 50.8848C42.1479 47.9479 40.4173 45.99 37.9524 45.081C30.4528 42.3014 18.2507 49.8884 18.1283 49.9758L17.8486 49.5387C18.3556 49.2241 30.3654 41.742 38.1272 44.5915C40.7494 45.5704 42.585 47.6332 43.5464 50.7275C43.9835 52.1435 44.0534 53.4721 43.8786 54.6783C44.5254 54.6084 45.2072 54.5909 45.889 54.6084C51.2383 54.8007 57.8813 58.2445 59.1399 73.4709L58.6505 73.5234ZM43.2493 55.2901C40.4347 55.7097 38.0572 56.846 36.7112 57.6152C34.0365 59.1361 32.4457 60.8143 32.3058 61.6359C32.166 62.545 32.3583 63.1743 32.9002 63.489C34.1064 64.1882 36.7461 63.3316 39.0712 61.4786C40.0501 60.7094 42.515 58.4893 43.2493 55.2901Z" fill="#D7D7D7"/>
<path d="M157.193 81.4075C157.036 81.1103 153.155 73.9779 155.043 70.097C155.672 68.8208 156.826 68.0341 158.522 67.7719C159.221 67.667 159.903 67.702 160.532 67.8593C160.515 67.3524 160.532 66.8454 160.62 66.3384C161.074 63.7687 163.277 60.8143 171.144 61.2863L171.109 61.8107C165.182 61.4436 161.721 63.0519 161.127 66.4258C161.039 66.9503 161.004 67.4747 161.039 68.0167C162.718 68.6285 164.064 70.0445 164.85 71.3731C165.689 72.8066 165.917 74.1352 165.427 74.747C165.217 75.0093 164.815 75.254 164.011 75.0267C162.962 74.7121 160.882 71.5829 160.55 68.4013C159.938 68.2264 159.274 68.1565 158.574 68.2789C157.071 68.5236 156.04 69.2054 155.498 70.3067C153.715 73.9604 157.595 81.0579 157.63 81.1453L157.193 81.4075ZM161.127 68.611C161.511 71.5479 163.417 74.31 164.203 74.5373C164.623 74.6596 164.903 74.6247 165.06 74.4324C165.357 74.0653 165.235 72.9814 164.448 71.6353C163.731 70.4641 162.56 69.2054 161.127 68.611Z" fill="#D7D7D7"/>
<path d="M281.334 58.3555L290.233 46.0878L277.966 37.188L269.066 49.4556L281.334 58.3555Z" fill="#00CC83"/>
<path d="M277.064 59.7654C277.012 59.7654 276.959 59.7479 276.907 59.713L264.652 50.8149C264.6 50.7799 264.565 50.71 264.548 50.6401C264.53 50.5701 264.548 50.5002 264.6 50.4478L273.498 38.1932C273.586 38.0709 273.743 38.0534 273.865 38.1408L286.12 47.0389C286.172 47.0738 286.207 47.1438 286.225 47.2137C286.242 47.2836 286.225 47.3535 286.172 47.406L277.274 59.6605C277.222 59.7304 277.152 59.7654 277.064 59.7654ZM265.177 50.5526L277.012 59.1361L285.595 47.3011L273.76 38.7177L265.177 50.5526Z" fill="#D7D7D7"/>
<path d="M105.96 60.7128L110.683 46.3111L96.2809 41.5883L91.5582 55.99L105.96 60.7128Z" fill="#00CC83"/>
<path d="M102.233 63.3666C102.198 63.3666 102.18 63.3666 102.145 63.3491L87.7579 58.6291C87.6181 58.5767 87.5482 58.4368 87.5831 58.297L92.3031 43.9097C92.3556 43.7698 92.4954 43.6999 92.6353 43.7349L107.023 48.4549C107.162 48.5073 107.232 48.6472 107.197 48.787L102.477 63.1743C102.46 63.2967 102.355 63.3666 102.233 63.3666ZM88.1775 58.2096L102.075 62.7722L106.638 48.8744L92.7402 44.3118L88.1775 58.2096Z" fill="#D7D7D7"/>
<path d="M36.1358 234.578L22.8936 227.204L15.5199 240.447L28.7621 247.82L36.1358 234.578Z" fill="#FF4320"/>
<path d="M30.4184 252.167C30.3835 252.167 30.331 252.149 30.2961 252.132L17.0626 244.755C17.0101 244.72 16.9577 244.667 16.9402 244.597C16.9227 244.527 16.9227 244.457 16.9577 244.405L24.3349 231.171C24.4048 231.049 24.5621 230.997 24.6845 231.067L37.918 238.444C37.9704 238.479 38.0229 238.531 38.0404 238.601C38.0578 238.671 38.0578 238.741 38.0229 238.793L30.6457 252.027C30.6107 252.114 30.5058 252.167 30.4184 252.167ZM17.552 244.422L30.331 251.537L37.446 238.758L24.667 231.643L17.552 244.422Z" fill="#D7D7D7"/>
</svg>
