<svg width="25" height="21" viewBox="0 0 25 21" fill="none" xmlns="http://www.w3.org/2000/svg">
<path fill-rule="evenodd" clip-rule="evenodd" d="M3 21C1.34314 21 0 19.6567 0 18V3C0 1.34326 1.34314 0 3 0H22C23.6569 0 25 1.34326 25 3V18C25 19.6567 23.6569 21 22 21H3ZM22.0005 19C22.5528 19 23.0005 18.5522 23.0005 18V11.8H19.7205L17.2715 19H22.0005ZM2 3V18C2 18.5522 2.44769 19 3 19H14.728L10 5.1001L7.948 11.1292C7.80707 11.5322 7.4259 11.8013 6.99902 11.7991H2.99902C2.64154 11.8105 2.30621 11.6265 2.12408 11.3186C1.94196 11.011 1.94196 10.6284 2.12408 10.3206C2.30621 10.0127 2.64154 9.82861 2.99902 9.84009H6.27802L8.948 1.99609H3C2.73413 1.99609 2.47919 2.10205 2.2915 2.29028C2.10388 2.47876 1.99896 2.73413 2 3ZM15.9998 16.5439L18.0518 10.5139C18.193 10.1113 18.5741 9.84277 19.0007 9.84497H23.0007V3C23.0007 2.44775 22.553 2 22.0007 2H11.0518L15.9998 16.5439Z" fill="#8F90A6"/>
</svg>
