<svg width="19" height="19" viewBox="0 0 19 19" fill="none" xmlns="http://www.w3.org/2000/svg">
<path fill-rule="evenodd" clip-rule="evenodd" d="M8.23333 0.603863C8.59876 0.329794 9.04322 0.181641 9.5 0.181641C9.95678 0.181641 10.4012 0.329794 10.7667 0.603863L18.1556 6.14553C18.4177 6.34217 18.6306 6.59716 18.7771 6.8903C18.9237 7.18344 19 7.50668 19 7.83442V16.8066C19 17.3665 18.7776 17.9035 18.3817 18.2994C17.9858 18.6953 17.4488 18.9178 16.8889 18.9178H2.11111C1.55121 18.9178 1.01424 18.6953 0.61833 18.2994C0.22242 17.9035 0 17.3665 0 16.8066V7.83442C0 7.50668 0.0763063 7.18344 0.222876 6.8903C0.369446 6.59716 0.582253 6.34217 0.844444 6.14553L8.23333 0.603863ZM10.5556 7.30664C10.5556 7.02669 10.4443 6.75821 10.2464 6.56025C10.0484 6.3623 9.77995 6.25109 9.5 6.25109C9.22005 6.25109 8.95156 6.3623 8.75361 6.56025C8.55565 6.75821 8.44444 7.02669 8.44444 7.30664V13.64C8.44444 13.9199 8.55565 14.1884 8.75361 14.3864C8.95156 14.5843 9.22005 14.6955 9.5 14.6955C9.77995 14.6955 10.0484 14.5843 10.2464 14.3864C10.4443 14.1884 10.5556 13.9199 10.5556 13.64V7.30664ZM6.33333 10.4733C6.33333 10.1934 6.22212 9.92487 6.02417 9.72692C5.82621 9.52896 5.55773 9.41775 5.27778 9.41775C4.99783 9.41775 4.72934 9.52896 4.53139 9.72692C4.33343 9.92487 4.22222 10.1934 4.22222 10.4733V13.64C4.22222 13.9199 4.33343 14.1884 4.53139 14.3864C4.72934 14.5843 4.99783 14.6955 5.27778 14.6955C5.55773 14.6955 5.82621 14.5843 6.02417 14.3864C6.22212 14.1884 6.33333 13.9199 6.33333 13.64V10.4733ZM14.7778 12.5844C14.7778 12.3045 14.6666 12.036 14.4686 11.838C14.2707 11.6401 14.0022 11.5289 13.7222 11.5289C13.4423 11.5289 13.1738 11.6401 12.9758 11.838C12.7779 12.036 12.6667 12.3045 12.6667 12.5844V13.64C12.6667 13.9199 12.7779 14.1884 12.9758 14.3864C13.1738 14.5843 13.4423 14.6955 13.7222 14.6955C14.0022 14.6955 14.2707 14.5843 14.4686 14.3864C14.6666 14.1884 14.7778 13.9199 14.7778 13.64V12.5844Z" fill="#000"/>
</svg>
