<svg id="Layer_1" enable-background="new 0 0 25 25" height="512" viewBox="0 0 25 25" width="512" xmlns="http://www.w3.org/2000/svg"><g><path d="m21.9 3.6c0-1.7-1.4-3.1-3.1-3.1h-7.9c-.8 0-1.6.3-2.1.9l-4.7 4.4c-.6.5-1 1.4-1 2.3v13.4c0 1.7 1.4 3.1 3.1 3.1h12.6c1.7 0 3.1-1.4 3.1-3.1zm-16.8 4.4c0-.3.2-.6.4-.8l4.6-4.4c.1-.1.4-.3.8-.3h.1v3.8c0 1-.8 1.9-1.9 1.9zm13.5 8.2-3.8 4.3c-.2.2-.5.3-.7.3h-.1c-.3 0-.6-.2-.8-.4l-2.1-3.2-3.2 3.4c-.4.4-1 .4-1.4 0s-.4-1 0-1.4l4.1-4.3c.2-.2.5-.3.8-.3s.6.2.8.4l2.1 3.2 2.9-3.3c.4-.4 1-.4 1.4-.1s.4 1 0 1.4zm-.3-6.1h-4.3c-.6 0-1-.4-1-1s.4-1 1-1h4.3c.5 0 1 .4 1 1s-.4 1-1 1zm0-4h-4.3c-.6 0-1-.4-1-1s.4-1 1-1h4.3c.5 0 1 .4 1 1s-.4 1-1 1z"/></g></svg>