<svg width="18" height="19" viewBox="0 0 18 19" fill="none" xmlns="http://www.w3.org/2000/svg">
<path d="M9.00101 0.181644C8.29253 0.180588 7.60654 0.430306 7.06453 0.886566C6.52253 1.34283 6.15949 1.97619 6.03972 2.67447C5.91994 3.37275 6.05117 4.09089 6.41014 4.70169C6.76911 5.31249 7.33267 5.77654 8.00101 6.01164V8.18164H5.00101C4.20536 8.18164 3.4423 8.49771 2.87969 9.06032C2.31708 9.62293 2.00101 10.386 2.00101 11.1816V12.3516C1.33351 12.5875 0.770912 13.0518 0.412646 13.6624C0.0543804 14.2731 -0.0764802 14.9907 0.043195 15.6884C0.16287 16.3862 0.525375 17.0192 1.06663 17.4755C1.60789 17.9318 2.29305 18.1821 3.00101 18.1821C3.70896 18.1821 4.39412 17.9318 4.93538 17.4755C5.47664 17.0192 5.83914 16.3862 5.95882 15.6884C6.07849 14.9907 5.94763 14.2731 5.58937 13.6624C5.2311 13.0518 4.6685 12.5875 4.00101 12.3516V11.1816C4.00101 10.9164 4.10636 10.6621 4.2939 10.4745C4.48144 10.287 4.73579 10.1816 5.00101 10.1816H13.001C13.2662 10.1816 13.5206 10.287 13.7081 10.4745C13.8956 10.6621 14.001 10.9164 14.001 11.1816V12.3516C13.3335 12.5875 12.7709 13.0518 12.4126 13.6624C12.0544 14.2731 11.9235 14.9907 12.0432 15.6884C12.1629 16.3862 12.5254 17.0192 13.0666 17.4755C13.6079 17.9318 14.2931 18.1821 15.001 18.1821C15.709 18.1821 16.3941 17.9318 16.9354 17.4755C17.4766 17.0192 17.8391 16.3862 17.9588 15.6884C18.0785 14.9907 17.9476 14.2731 17.5894 13.6624C17.2311 13.0518 16.6685 12.5875 16.001 12.3516V11.1816C16.001 10.386 15.6849 9.62293 15.1223 9.06032C14.5597 8.49771 13.7967 8.18164 13.001 8.18164H10.001V6.01164C10.6682 5.77549 11.2304 5.31117 11.5884 4.70068C11.9464 4.09019 12.0771 3.37282 11.9574 2.6753C11.8378 1.97778 11.4755 1.34498 10.9345 0.888689C10.3935 0.432396 9.70872 0.181969 9.00101 0.181644Z" fill="#000"/>
</svg>
