<svg width="24" height="24" viewBox="0 0 24 24" fill="none" xmlns="http://www.w3.org/2000/svg">
<path d="M10.3702 4.34564H13.9958L17.9718 0.357482C18.0842 0.244208 18.2179 0.1543 18.3651 0.0929446C18.5124 0.0315889 18.6704 0 18.8299 0C18.9894 0 19.1474 0.0315889 19.2947 0.0929446C19.4419 0.1543 19.5756 0.244208 19.688 0.357482L22.806 3.48758C23.0311 3.71402 23.1574 4.02032 23.1574 4.3396C23.1574 4.65888 23.0311 4.96518 22.806 5.19161L20.0384 7.97124H10.3702V10.3883C10.3702 10.7088 10.2428 11.0162 10.0162 11.2429C9.78956 11.4695 9.48216 11.5968 9.16164 11.5968C8.84112 11.5968 8.53372 11.4695 8.30708 11.2429C8.08043 11.0162 7.95311 10.7088 7.95311 10.3883V6.76271C7.95311 6.12166 8.20776 5.50687 8.66105 5.05358C9.11434 4.6003 9.72913 4.34564 10.3702 4.34564ZM3.11897 10.3883V15.2224L0.351433 17.99C0.126342 18.2164 0 18.5227 0 18.842C0 19.1613 0.126342 19.4676 0.351433 19.694L3.46945 22.8241C3.5818 22.9374 3.71546 23.0273 3.86273 23.0887C4.01 23.15 4.16797 23.1816 4.32751 23.1816C4.48705 23.1816 4.64501 23.15 4.79228 23.0887C4.93955 23.0273 5.07322 22.9374 5.18556 22.8241L10.3702 17.6395H15.2043C15.5248 17.6395 15.8322 17.5122 16.0589 17.2855C16.2855 17.0589 16.4128 16.7515 16.4128 16.431V15.2224H17.6214C17.9419 15.2224 18.2493 15.0951 18.4759 14.8685C18.7026 14.6418 18.8299 14.3344 18.8299 14.0139V12.8054H20.0384C20.359 12.8054 20.6664 12.678 20.893 12.4514C21.1196 12.2248 21.247 11.9174 21.247 11.5968V10.3883H12.7872V11.5968C12.7872 12.2379 12.5326 12.8527 12.0793 13.306C11.626 13.7593 11.0112 14.0139 10.3702 14.0139H7.95311C7.31206 14.0139 6.69727 13.7593 6.24398 13.306C5.79069 12.8527 5.53604 12.2379 5.53604 11.5968V7.97124L3.11897 10.3883Z" fill="#000"/>
</svg>
