<svg id="Glyph" height="512" viewBox="0 0 64 64" width="512" xmlns="http://www.w3.org/2000/svg"><path fill="#000" d="m32.70752 35.97248h22.5c6.23772-.73124 1.07668-11.41382-1.99006-13.5299a14.11963 14.11963 0 0 0 -4.8-2.74011 8.48439 8.48439 0 0 0 4.04-7.23c-.42023-11.256-16.57691-11.26391-17 .00013a8.48428 8.48428 0 0 0 4.04 7.22986 13.951 13.951 0 0 0 -7.04 5.24c-1.93927 2.57092-4.99683 10.60454.25006 11.03002z"/><path fill="#8F90A6" d="m11.24749 33.13246h-6.25a1.003 1.003 0 0 0 -1 1v20.04a1.003 1.003 0 0 0 1 1h6.25a3.02358 3.02358 0 0 0 3-2.97v-16.07a3.01189 3.01189 0 0 0 -3-3zm-2.12 7.08a1.0802 1.0802 0 0 1 .00006-2.16 1.0802 1.0802 0 0 1 -.00005 2.16001z"/><path fill="#000" d="m59.77752 44.51246a3.94163 3.94163 0 0 0 -4.81005-2.47l-8.47 2.45a6.47227 6.47227 0 0 1 -6.45 6.31h-9.35a1.00019 1.00019 0 0 1 .00006-2h9.34991c5.89606-.19366 5.88684-8.749-.00012-8.93-1.67462-.01007-5.52106.00726-7.22986-.00006a3.14113 3.14113 0 0 1 -1.69-.48993l-3.58-2.27c-2.76437-2.07951-8.09915-1.32571-11.32005-1.45.01005.13994.02006.3.02006.47v16.07a4.2912 4.2912 0 0 1 -.12 1.01 2.0162 2.0162 0 0 1 .92.28l7.72 4.5a14.519 14.519 0 0 0 13.54.58l19.44-9.2a3.92684 3.92684 0 0 0 2.03005-4.86001z"/></svg>