<svg width="20" height="21" viewBox="0 0 20 21" fill="none" xmlns="http://www.w3.org/2000/svg">
<path d="M10 14.1816C11.1333 14.1816 12.3917 13.9566 13.775 13.5066C15.1583 13.0566 17.2333 12.265 20 11.1316V10.7566C20 9.90664 19.6583 9.22331 18.975 8.70664C18.2917 8.18997 17.5417 8.04831 16.725 8.28164C16.4417 8.36497 16.154 8.46497 15.862 8.58164C15.57 8.69831 15.1827 8.84831 14.7 9.03164C13.6833 9.46497 12.825 9.76497 12.125 9.93164C11.425 10.0983 10.7167 10.1816 10 10.1816C9.25 10.1816 8.525 10.0943 7.825 9.91964C7.125 9.74497 6.24167 9.44064 5.175 9.00664C4.775 8.83997 4.42933 8.70264 4.138 8.59464C3.84667 8.48664 3.56733 8.39064 3.3 8.30664C2.48333 8.03997 1.72933 8.16497 1.038 8.68164C0.346667 9.19831 0.000666667 9.88997 0 10.7566V11.0816C2.18333 12.0816 4.1 12.8483 5.75 13.3816C7.4 13.915 8.81667 14.1816 10 14.1816ZM10 20.1816C12.3 20.1816 14.321 19.5523 16.063 18.2936C17.805 17.035 18.984 15.4226 19.6 13.4566C17.4167 14.39 15.5833 15.0776 14.1 15.5196C12.6167 15.9616 11.25 16.1823 10 16.1816C8.73333 16.1816 7.28733 15.944 5.662 15.4686C4.03667 14.9933 2.266 14.3143 0.35 13.4316C0.916667 15.4816 2.05833 17.1193 3.775 18.3446C5.49167 19.57 7.56667 20.1823 10 20.1816ZM10 8.18164C8.9 8.18164 7.95833 7.78997 7.175 7.00664C6.39167 6.22331 6 5.28164 6 4.18164C6 3.08164 6.39167 2.13997 7.175 1.35664C7.95833 0.573307 8.9 0.181641 10 0.181641C11.1 0.181641 12.0417 0.573307 12.825 1.35664C13.6083 2.13997 14 3.08164 14 4.18164C14 5.28164 13.6083 6.22331 12.825 7.00664C12.0417 7.78997 11.1 8.18164 10 8.18164Z" fill="#000"/>
</svg>
