<svg width="20" height="23" viewBox="0 0 20 23" fill="none" xmlns="http://www.w3.org/2000/svg">
<path d="M15.8667 12.8487C17.0449 12.8487 18 11.8936 18 10.7154C18 9.53716 17.0449 8.58203 15.8667 8.58203C14.6885 8.58203 13.7333 9.53716 13.7333 10.7154C13.7333 11.8936 14.6885 12.8487 15.8667 12.8487Z" fill="#000" stroke="#000" stroke-width="2.5"/>
<path d="M15.8667 21.3819C17.0449 21.3819 18 20.4268 18 19.2486C18 18.0704 17.0449 17.1152 15.8667 17.1152C14.6885 17.1152 13.7333 18.0704 13.7333 19.2486C13.7333 20.4268 14.6885 21.3819 15.8667 21.3819Z" fill="#000" stroke="#000" stroke-width="2.5"/>
<path d="M4.13333 2.18255C2.95513 2.18255 2 3.13768 2 4.31589C2 5.49409 2.95513 6.44922 4.13333 6.44922C5.31154 6.44922 6.26667 5.49409 6.26667 4.31589C6.26667 3.13768 5.31154 2.18255 4.13333 2.18255Z" fill="#000" stroke="#000" stroke-width="2.5"/>
<path d="M4.1333 5.38086V14.9809C4.1333 16.9922 4.1333 17.9978 4.75814 18.6227C5.38298 19.2475 6.38864 19.2475 8.39997 19.2475H13.7333" stroke="#8F90A6" stroke-width="2.5"/>
<path d="M4.1333 6.44922C4.1333 8.46055 4.1333 9.46621 4.75814 10.091C5.38298 10.7159 6.38864 10.7159 8.39997 10.7159H13.7333" stroke="#8F90A6" stroke-width="2.5"/>
</svg>
