<svg width="18" height="19" viewBox="0 0 18 19" fill="none" xmlns="http://www.w3.org/2000/svg">
<path fill-rule="evenodd" clip-rule="evenodd" d="M9.28 0.357876C9.07199 0.242295 8.83796 0.181641 8.6 0.181641C8.36204 0.181641 8.12801 0.242295 7.92 0.357876L0.72 4.35788C0.501742 4.47915 0.31989 4.6566 0.193292 4.87181C0.0666942 5.08703 -4.1947e-05 5.33219 1.97807e-08 5.58188V13.5219C1.97807e-08 14.0309 0.276 14.4989 0.72 14.7459L7.92 18.7459C8.12801 18.8615 8.36204 18.9221 8.6 18.9221C8.83796 18.9221 9.07199 18.8615 9.28 18.7459L16.48 14.7459C16.6981 14.6247 16.8799 14.4474 17.0065 14.2324C17.133 14.0173 17.1999 13.7724 17.2 13.5229V5.58188C17.2 5.33219 17.1333 5.08703 17.0067 4.87181C16.8801 4.6566 16.6983 4.47915 16.48 4.35788L9.28 0.357876ZM3.85 9.55188C3.85 8.2921 4.35045 7.08392 5.24124 6.19312C6.13204 5.30232 7.34022 4.80188 8.6 4.80188C9.85978 4.80188 11.068 5.30232 11.9588 6.19312C12.8496 7.08392 13.35 8.2921 13.35 9.55188C13.35 10.8117 12.8496 12.0198 11.9588 12.9106C11.068 13.8014 9.85978 14.3019 8.6 14.3019C7.34022 14.3019 6.13204 13.8014 5.24124 12.9106C4.35045 12.0198 3.85 10.8117 3.85 9.55188Z" fill="#000"/>
</svg>
