<svg width="24" height="23" viewBox="0 0 24 23" fill="none" xmlns="http://www.w3.org/2000/svg">
<path d="M22.068 2.76H20.444V1.272C20.444 0.568 19.872 0 19.172 0H17.784C17.084 0 16.512 0.568 16.512 1.272V2.76H13.968V1.272C13.968 0.568 13.396 0 12.696 0H11.308C10.608 0 10.036 0.568 10.036 1.272V2.76H7.488V1.272C7.488 0.568 6.92 0 6.22 0H4.828C4.128 0 3.56 0.568 3.56 1.272V2.76H1.932C0.868 2.76 0 3.624 0 4.692V20.404C0 21.472 0.868 22.336 1.932 22.336H22.068C23.132 22.336 24 21.472 24 20.404V4.692C24 3.624 23.132 2.76 22.068 2.76ZM23.2 20.404C23.2 21.028 22.692 21.536 22.068 21.536H1.932C1.308 21.536 0.8 21.028 0.8 20.404V4.692C0.8 4.068 1.308 3.56 1.932 3.56H3.56V5.044C3.56 5.744 4.128 6.316 4.828 6.316H6.22C6.92 6.316 7.488 5.744 7.488 5.044V3.56H10.036V5.044C10.036 5.744 10.608 6.316 11.308 6.316H12.696C13.396 6.316 13.968 5.744 13.968 5.044V3.56H16.512V5.044C16.512 5.744 17.084 6.316 17.784 6.316H19.172C19.872 6.316 20.444 5.744 20.444 5.044V3.56H22.068C22.692 3.56 23.2 4.068 23.2 4.692V20.404Z" fill="#000"/>
<path d="M11.9995 7.84003C8.77546 7.84003 6.14746 10.464 6.14746 13.692C6.14746 14.172 6.20346 14.648 6.31946 15.112C6.97146 17.724 9.30746 19.548 11.9995 19.548C15.2275 19.548 17.8555 16.92 17.8555 13.692C17.8555 10.464 15.2275 7.84003 11.9995 7.84003ZM12.4035 16.248C12.1635 16.488 11.8475 16.62 11.5075 16.62C11.1675 16.62 10.8475 16.488 10.6115 16.248L8.68346 14.32C8.44346 14.084 8.31146 13.764 8.31146 13.424C8.31146 13.088 8.44346 12.768 8.68346 12.528C9.17946 12.036 9.98346 12.036 10.4755 12.528L11.5075 13.556L13.5275 11.54C14.0195 11.044 14.8235 11.044 15.3195 11.54C15.5595 11.776 15.6915 12.096 15.6915 12.436C15.6915 12.772 15.5595 13.092 15.3195 13.332L12.4035 16.248Z" fill="#000"/>
<path d="M21.9225 8.31763C21.7013 8.31763 21.5225 8.49683 21.5225 8.71763V9.47243C21.5225 9.69323 21.7013 9.87243 21.9225 9.87243C22.1437 9.87243 22.3225 9.69323 22.3225 9.47243V8.71763C22.3225 8.49683 22.1437 8.31763 21.9225 8.31763Z" fill="#000"/>
<path d="M21.9225 10.716C21.7013 10.716 21.5225 10.8952 21.5225 11.116V18.088C21.5225 18.3088 21.7013 18.488 21.9225 18.488C22.1437 18.488 22.3225 18.3088 22.3225 18.088V11.116C22.3225 10.8952 22.1437 10.716 21.9225 10.716Z" fill="#000"/>
</svg>
