<svg width="35" height="40" viewBox="0 0 35 40" fill="none" xmlns="http://www.w3.org/2000/svg">
<path d="M17.1478 5.66667C13.7563 5.66667 10.4409 6.6637 7.62098 8.53168C4.80105 10.3997 2.60318 13.0547 1.3053 16.161C0.00742988 19.2674 -0.332153 22.6855 0.329497 25.9832C0.991147 29.2809 2.62431 32.31 5.02247 34.6875C7.42062 37.065 10.4761 38.6841 13.8024 39.34C17.1287 39.996 20.5766 39.6593 23.7099 38.3726C26.8433 37.0859 29.5214 34.907 31.4056 32.1114C33.2898 29.3157 34.2955 26.0289 34.2955 22.6667C34.2903 18.1596 32.482 13.8385 29.2673 10.6515C26.0526 7.46454 21.694 5.67182 17.1478 5.66667ZM25.3037 16.5856L18.1588 23.669C18.026 23.8006 17.8684 23.905 17.6949 23.9762C17.5214 24.0475 17.3355 24.0841 17.1478 24.0841C16.96 24.0841 16.7741 24.0475 16.6006 23.9762C16.4271 23.905 16.2695 23.8006 16.1368 23.669C16.004 23.5373 15.8987 23.3811 15.8268 23.2091C15.755 23.0371 15.718 22.8528 15.718 22.6667C15.718 22.4805 15.755 22.2962 15.8268 22.1242C15.8987 21.9523 16.004 21.796 16.1368 21.6644L23.2817 14.581C23.4144 14.4494 23.572 14.345 23.7455 14.2738C23.919 14.2025 24.1049 14.1659 24.2927 14.1659C24.4804 14.1659 24.6663 14.2025 24.8398 14.2738C25.0133 14.345 25.1709 14.4494 25.3037 14.581C25.4364 14.7127 25.5417 14.8689 25.6136 15.0409C25.6854 15.2129 25.7224 15.3972 25.7224 15.5833C25.7224 15.7695 25.6854 15.9538 25.6136 16.1258C25.5417 16.2977 25.4364 16.454 25.3037 16.5856ZM11.4318 1.41667C11.4318 1.04094 11.5824 0.680608 11.8504 0.414932C12.1184 0.149255 12.4818 0 12.8608 0H21.4347C21.8137 0 22.1772 0.149255 22.4451 0.414932C22.7131 0.680608 22.8637 1.04094 22.8637 1.41667C22.8637 1.79239 22.7131 2.15272 22.4451 2.4184C22.1772 2.68408 21.8137 2.83333 21.4347 2.83333H12.8608C12.4818 2.83333 12.1184 2.68408 11.8504 2.4184C11.5824 2.15272 11.4318 1.79239 11.4318 1.41667Z" fill="#000"/>
</svg>
